<?xml version="1.0" standalone="no"?>
<!DOCTYPE svg PUBLIC "-//W3C//DTD SVG 1.1//EN" "http://www.w3.org/Graphics/SVG/1.1/DTD/svg11.dtd" >
<svg xmlns="http://www.w3.org/2000/svg" xmlns:xlink="http://www.w3.org/1999/xlink" version="1.1">
<metadata>
Created by FontForge 20170910 at Sat Dec 21 15:20:46 1996
 By jimmywarting
Ruben Tarumian. 1994. All Rights Reserved
</metadata>
<defs>
<font id="ArTarumianKamar" horiz-adv-x="1139" >
  <font-face 
    font-family="ArTarumianKamar"
    font-weight="400"
    font-stretch="normal"
    units-per-em="2048"
    panose-1="2 2 6 3 5 4 5 2 3 4"
    ascent="1638"
    descent="-410"
    x-height="1100"
    cap-height="1456"
    bbox="-180 -483 2085.04 1868"
    underline-thickness="100"
    underline-position="-273"
    unicode-range="U+0020-2019"
  />
<missing-glyph horiz-adv-x="1024" 
d="M128 0v1648h768v-1648h-768zM256 128h512v1392h-512v-1392z" />
    <glyph glyph-name=".notdef" horiz-adv-x="1024" 
d="M128 0v1648h768v-1648h-768zM256 128h512v1392h-512v-1392z" />
    <glyph glyph-name=".null" horiz-adv-x="0" 
 />
    <glyph glyph-name="nonmarkingreturn" horiz-adv-x="631" 
 />
    <glyph glyph-name="space" unicode=" " horiz-adv-x="631" 
 />
    <glyph glyph-name="exclam" unicode="!" horiz-adv-x="563" 
d="M360 307h-157v1323h157v-1323zM360 0h-157v158h157v-158z" />
    <glyph glyph-name="quotedbl" unicode="&#x22;" horiz-adv-x="727" 
d="M582 948h-146v522h146v-522zM293 948h-150v522h150v-522z" />
    <glyph glyph-name="numbersign" unicode="#" horiz-adv-x="2150" 
d="M2046 1059h-84v71q0 115 -115 115h-118v-252q0 -99 -70 -178q-77 -86 -193 -86q-113 0 -187.5 77.5t-74.5 182.5v92h84v-92q0 -75 51 -127q48 -49 129 -49q75 0 126 52t51 126v254h-244q-78 0 -133 43q-64 50 -64 154v88h84v-86q0 -115 115 -115h242v301h200v-84h-116
v-217h120q88 0 138 -45q59 -53 59 -151v-74zM1114 0h-158v412q0 155 -110 256q-118 108 -334 108h-426v139h434q164 0 256 86q80 76 82 195q1 114 -80 193q-86 84 -243 84h-449v157h453q207 0 338 -111q139 -119 139 -323q0 -120 -66 -215q-73 -106 -194 -129
q134 -12 243 -133q115 -128 115 -303v-416z" />
    <glyph glyph-name="dollar" unicode="$" horiz-adv-x="2105" 
d="M2085 305q2 -148 -99 -246t-249 -100q-146 -1 -246 99.5t-102 246.5q-2 147 99.5 246.5t248.5 101.5q142 1 244.5 -101.5t103.5 -246.5zM1204 1692l-952 -1731l-72 39l953 1731zM700 1178q1 -145 -99 -245t-249 -102q-145 -2 -246 100t-102 247q-1 144 100 245t248 103
q141 1 246 -103q101 -100 102 -245zM1286 305q2 -148 -99 -246t-249 -100q-146 -2 -246 99t-102 247q-2 147 99.5 246.5t248.5 101.5q143 1 245 -101t103 -247zM1968 305q0 97 -67 164.5t-164 67.5q-94 0 -163 -67.5t-69 -164.5q0 -92 67 -160.5t165 -68.5q95 0 163 64
t68 165zM584 1178q0 96 -68 163.5t-164 67.5q-97 0 -164 -67t-67 -164q0 -96 67.5 -163t163.5 -67q95 0 163.5 65.5t68.5 164.5zM1169 305q0 97 -67 164.5t-164 67.5t-164 -67.5t-67 -164.5t67 -163t164 -66q96 0 163.5 64.5t67.5 164.5z" />
    <glyph glyph-name="percent" unicode="%" horiz-adv-x="1311" 
d="M1204 1692l-952 -1731l-72 39l953 1731zM700 1178q1 -145 -99 -245t-249 -102q-145 -2 -246 100t-102 247q-1 144 100 245t248 103q141 1 246 -103q101 -100 102 -245zM1286 305q2 -148 -99 -246t-249 -100q-146 -2 -246 99t-102 247q-2 147 99.5 246.5t248.5 101.5
q143 1 245 -101t103 -247zM584 1178q0 96 -68 163.5t-164 67.5q-97 0 -164 -67t-67 -164q0 -96 67.5 -163t163.5 -67q95 0 163.5 65.5t68.5 164.5zM1169 305q0 97 -67 164.5t-164 67.5t-164 -67.5t-67 -164.5t67 -163t164 -66q96 0 163.5 64.5t67.5 164.5z" />
    <glyph glyph-name="ampersand" unicode="&#x26;" horiz-adv-x="1450" 
d="M1448 0h-582v113q-38 -61 -127 -103q-84 -40 -170 -41q-180 -2 -308 126t-128 311v1064h139v-1067q0 -122 86 -208t211 -86q123 0 210 87t87 210v665h140v-932h442v-139z" />
    <glyph glyph-name="quotesingle" unicode="'" horiz-adv-x="61" 
d="M195 1563l-234 -404l-129 41l188 391z" />
    <glyph glyph-name="parenleft" unicode="(" horiz-adv-x="682" 
d="M592 -424h-100q-131 203 -226 451q-125 329 -127 628q-1 275 90 566t256 526h105q-165 -310 -217 -500q-62 -225 -62 -600q0 -495 281 -1071z" />
    <glyph glyph-name="parenright" unicode=")" horiz-adv-x="682" 
d="M524 655q1 -195 -61 -430q-93 -350 -291 -649h-100q152 314 215.5 564t64.5 507q2 366 -61 600q-49 184 -217 500h104q165 -231 255 -520q89 -284 91 -572z" />
    <glyph glyph-name="asterisk" unicode="*" horiz-adv-x="797" 
d="M715 1210l-221 -69l137 -189l-101 -69l-133 192l-133 -192l-100 69l137 189l-221 69l41 113l215 -78v225h123v-225l215 78z" />
    <glyph glyph-name="plus" unicode="+" horiz-adv-x="1196" 
d="M1116 442h-442v-442h-150v442h-444v150h444v442h150v-442h442v-150z" />
    <glyph glyph-name="comma" unicode="," horiz-adv-x="569" 
d="M360 0q0 -70 -47 -145q-44 -70 -94 -97l-24 45q31 17 51 74q17 47 20 123h-63v158h157v-158z" />
    <glyph glyph-name="hyphen" unicode="-" horiz-adv-x="682" 
d="M592 475h-502v184h502v-184z" />
    <glyph glyph-name="hyphen" unicode="&#x2010;" horiz-adv-x="682" 
d="M592 475h-502v184h502v-184z" />
    <glyph glyph-name="period" unicode="." horiz-adv-x="563" 
d="M360 0h-157v158h157v-158z" />
    <glyph glyph-name="slash" unicode="/" horiz-adv-x="569" 
d="M674 1763l-576 -1753l-133 -49l594 1802h115z" />
    <glyph glyph-name="zero" unicode="0" horiz-adv-x="1917" 
d="M1812 815q0 -360 -248 -607t-608 -249q-355 -1 -606 250q-248 248 -250 606q-1 357 249 606q249 246 607 248q350 1 605 -250q251 -248 251 -604zM1655 815q1 286 -207 492q-205 203 -494 204q-290 1 -493 -202.5t-203 -493.5q0 -292 202 -494t494 -204q285 -1 494 205
q206 203 207 493z" />
    <glyph glyph-name="one" unicode="1" horiz-adv-x="1917" 
d="M1221 0h-158v1384l-383 -454l-117 112l500 588h158v-1630z" />
    <glyph glyph-name="two" unicode="2" horiz-adv-x="1917" 
d="M1706 1130q0 -234 -156 -389q-124 -123 -446 -286l-584 -295h1069v-160h-1288v227l725 367q300 152 389 235q131 122 133 308q1 105 -164 231q-188 143 -426 145q-189 1 -380 -107q-219 -124 -222 -300l-155 12q0 193 217 367q229 184 540 186q301 1 533 -182
q215 -170 215 -359z" />
    <glyph glyph-name="three" unicode="3" horiz-adv-x="1917" 
d="M1706 500q2 -191 -217 -361q-230 -178 -543 -180q-311 -1 -543 201q-197 172 -200 352l157 12q0 -129 166 -262q180 -143 420 -145q235 -1 430 139q172 124 172 238q0 173 -149 258q-128 73 -375 73h-166v158h162q185 0 309 66t125 172q2 122 -174 213q-146 75 -322 77
q-147 1 -294 -61q-164 -70 -201 -184l-154 57q38 136 221 240q188 107 422 108q262 2 460 -128t200 -314q1 -114 -78 -203q-69 -78 -168 -104q149 -26 245 -149q94 -119 95 -273z" />
    <glyph glyph-name="four" unicode="4" horiz-adv-x="1917" 
d="M1724 276h-333v-276h-158v276h-993v191l995 1163h156v-1198h333v-156zM1233 434v950l-809 -950h809z" />
    <glyph glyph-name="five" unicode="5" horiz-adv-x="1917" 
d="M1706 500q1 -185 -213 -357q-230 -184 -535 -184q-309 0 -540 184q-214 170 -217 369l155 12q0 -179 220 -302q187 -104 382 -105q231 -1 424 143q166 124 166 234q0 196 -198 286q-149 68 -400 68h-651v782h1290v-160h-1130v-464h491q312 0 503 -97q251 -127 253 -409z
" />
    <glyph glyph-name="six" unicode="6" horiz-adv-x="1917" 
d="M1757 500q1 -185 -213 -357q-230 -184 -534 -184q-366 0 -619 264q-239 249 -239 586q0 364 250 611t604 249q395 2 655 -301l-127 -96q-78 90 -188 151q-156 87 -340 88q-287 2 -494 -202q-203 -200 -203 -498q0 -73 10 -127q76 299 682 299q440 0 625 -166
q129 -116 131 -317zM1599 494q0 203 -214 281q-134 49 -384 50q-301 2 -448 -75q-143 -75 -145 -256q-1 -104 172 -232q194 -143 430 -145q232 -1 424 143q165 124 165 234z" />
    <glyph glyph-name="seven" unicode="7" horiz-adv-x="1917" 
d="M1681 1477l-1265 -1504l-121 101l1173 1396h-1208v158h1421v-151z" />
    <glyph glyph-name="eight" unicode="8" horiz-adv-x="1917" 
d="M1706 500q2 -191 -213 -361q-225 -178 -535 -180q-299 -1 -538 180q-221 168 -221 361q0 159 102.5 280.5t278.5 141.5q-119 13 -202.5 101t-84.5 206q-2 203 239 333q201 108 422 109q295 2 500 -155q156 -120 158 -287q1 -118 -92 -207q-88 -84 -215 -100
q197 -26 305 -150q95 -109 96 -272zM1454 1221q2 122 -174 213q-146 75 -322 77q-171 2 -327 -77q-178 -90 -180 -213q-1 -109 131 -174q126 -62 368 -64q173 -1 306 40q196 61 198 198zM1548 494q0 203 -213 281q-135 49 -385 50q-301 2 -446.5 -74t-147.5 -257
q-1 -110 172 -238q186 -137 430 -139q236 -1 424 139q166 124 166 238z" />
    <glyph glyph-name="nine" unicode="9" horiz-adv-x="1917" 
d="M1753 829q0 -360 -247 -609t-607 -251q-208 -1 -401 99q-148 77 -254 202l127 97q202 -238 528 -240q295 -2 494.5 201t201.5 499q1 70 -10 127q-73 -299 -682 -299q-750 0 -756 484q-2 184 213 356q230 184 535 184q365 0 618 -264q240 -250 240 -586zM1497 1145
q1 102 -172 231q-194 144 -430 146q-231 1 -424 -144q-166 -125 -166 -233q0 -178 160 -258q147 -74 438 -74q301 0 449 76q143 73 145 256z" />
    <glyph glyph-name="colon" unicode=":" horiz-adv-x="569" 
d="M360 913h-157v158h157v-158zM360 0h-157v158h157v-158z" />
    <glyph glyph-name="semicolon" unicode=";" horiz-adv-x="569" 
d="M360 913h-157v158h157v-158zM360 0q0 -74 -27 -119.5t-77 -68.5l-25 45q56 27 56 143h-84v158h157v-158z" />
    <glyph glyph-name="less" unicode="&#x3c;" horiz-adv-x="1196" 
d="M1098 23l-1000 423v144l1000 424v-164l-799 -332l799 -332v-163z" />
    <glyph glyph-name="equal" unicode="=" horiz-adv-x="1196" 
d="M1116 649h-1036v150h1036v-150zM1116 236h-1036v149h1036v-149z" />
    <glyph glyph-name="greater" unicode="&#x3e;" horiz-adv-x="1196" 
d="M1098 446l-1000 -423v163l799 332l-799 332v164l1000 -424v-144z" />
    <glyph glyph-name="question" unicode="?" 
d="M1008 1090q0 -130 -52 -191q-9 -14 -55 -61q-23 -27 -72 -74l-108 -111q-16 -20 -27 -32q-7 -14 -29 -55t-24 -91l-4 -100h-180l2 102q3 153 184 330q101 99 137 158q34 55 35 131q2 112 -66.5 174t-181.5 63q-135 2 -205 -84q-67 -81 -67 -239h-180q0 94 10 153
q9 50 47 119q43 77 152.5 141.5t246.5 65.5q187 2 314 -111q123 -109 123 -288zM651 0h-198v209h198v-209z" />
    <glyph glyph-name="A" unicode="A" horiz-adv-x="1223" 
d="M100 0h-151l565 1456h172l563 -1456h-153l-174 457h-648zM872 588l-276 731l-272 -731h548z" />
    <glyph glyph-name="B" unicode="B" horiz-adv-x="1042" 
d="M272 688v-549h201q346 0 346 273q0 135 -85.5 205.5t-260.5 70.5h-201zM272 1317v-490h86q181 0 261 38q118 55 120 212q1 125 -83.5 182.5t-260.5 57.5h-123zM135 1456h271q479 0 479 -385q0 -99 -41 -172q-38 -67 -115 -115q120 -48 177.5 -138t58.5 -216
q2 -219 -123 -326q-121 -104 -385 -104h-322v1456z" />
    <glyph glyph-name="C" unicode="C" horiz-adv-x="1540" 
d="M1296 1079q-39 56 -101.5 114.5t-117.5 86.5q-119 62 -276 63q-238 2 -414 -182q-173 -180 -174 -426q-2 -262 169 -443t419 -183q299 -2 485 251h170q-206 -387 -645 -389q-324 -2 -539 221q-211 219 -211 545q0 309 224 533q215 215 518 215q213 0 388 -106.5
t277 -299.5h-172z" />
    <glyph glyph-name="D" unicode="D" horiz-adv-x="1366" 
d="M276 1317v-1180h297q280 0 430 160q146 155 148 438q1 138 -51 262t-146 205q-133 115 -415 115h-263zM135 1456h414q174 0 282 -33q129 -39 211 -110q260 -223 263 -582q2 -190 -76 -352q-134 -281 -416 -352q-107 -27 -328 -27h-350v1456z" />
    <glyph glyph-name="E" unicode="E" horiz-adv-x="1028" 
d="M279 803h612v-144h-612v-518h612v-141h-756v1456h756v-143h-612v-510z" />
    <glyph glyph-name="F" unicode="F" horiz-adv-x="991" 
d="M135 0v1456h719v-143h-578v-510h578v-144h-578v-659h-141z" />
    <glyph glyph-name="G" unicode="G" horiz-adv-x="1612" 
d="M643 698h905q0 -301 -229 -524q-209 -203 -518 -203q-317 0 -529 219q-209 216 -211 547q-2 311 226 537q111 110 243 160t289 51q203 2 377 -103q168 -101 274 -292h-176q-97 128 -217.5 191t-265.5 65q-250 3 -423.5 -178.5t-174.5 -432.5q-2 -263 167 -443
q172 -183 433 -183q196 0 357 127.5t208 332.5h-735v129z" />
    <glyph glyph-name="H" unicode="H" horiz-adv-x="1251" 
d="M279 0h-144v1456h144v-653h692v653h143v-1456h-143v664h-692v-664z" />
    <glyph glyph-name="I" unicode="I" horiz-adv-x="412" 
d="M276 0h-143v1456h143v-1456z" />
    <glyph glyph-name="J" unicode="J" horiz-adv-x="915" 
d="M641 1456h143v-981q0 -230 -59 -325q-27 -43 -59 -74q-25 -24 -80 -60q-89 -46 -197 -47q-159 -2 -262 103q-97 99 -100 282h143q0 -58 16 -96q60 -143 211 -145q130 -2 187 84t57 338v921z" />
    <glyph glyph-name="K" unicode="K" horiz-adv-x="1100" 
d="M274 449v-449h-141v1456h141v-809l674 809h170l-588 -704l578 -752h-176l-494 645z" />
    <glyph glyph-name="L" unicode="L" horiz-adv-x="844" 
d="M791 0h-656v1456h144v-1315h512v-141z" />
    <glyph glyph-name="M" unicode="M" horiz-adv-x="1692" 
d="M143 0v1456h211l504 -1266l502 1266h211v-1456h-137v1286l-512 -1286h-129l-512 1286v-1286h-138z" />
    <glyph glyph-name="N" unicode="N" horiz-adv-x="1366" 
d="M1102 174l-17 1282h142v-1456h-172l-799 1284l16 -1284h-141v1456h172z" />
    <glyph glyph-name="O" unicode="O" horiz-adv-x="1612" 
d="M211 735q0 -264 174 -446q171 -178 426 -180q242 -1 415 181.5t175 448.5q1 246 -176 428q-175 179 -424 179q-207 0 -367 -136q-101 -86 -162 -214.5t-61 -260.5zM61 737q-1 153 58 291q58 135 171 244.5t236 159.5q128 51 277 53q143 1 280 -53q134 -53 243.5 -161
t164.5 -241.5t57 -292.5q1 -155 -47.5 -282.5t-144.5 -237.5q-48 -55 -117 -106q-64 -47 -133 -78q-138 -62 -305 -62q-314 0 -526 218t-214 548z" />
    <glyph glyph-name="P" unicode="P" horiz-adv-x="1034" 
d="M262 1313v-555h211q176 0 258 65q86 68 86 209q0 281 -356 281h-199zM119 1456h309q133 0 213 -14q25 -4 70 -17q28 -7 63 -28q92 -56 146 -150q51 -91 53 -209q1 -106 -45 -204q-43 -91 -131 -148q-63 -41 -140 -57q-81 -17 -204 -17h-191v-612h-143v1456z" />
    <glyph glyph-name="Q" unicode="Q" horiz-adv-x="1612" 
d="M1313 174q42 -27 100 -45q114 -12 133 -12h19v-127h-13l-59 -4q-59 -4 -147 26q-76 26 -146 76q-83 -54 -188.5 -85.5t-208.5 -31.5q-317 0 -528.5 218.5t-213.5 547.5q-1 153 58 291q58 135 171 244.5t236 159.5q130 52 277 53q327 2 538 -223q205 -219 207 -549
q1 -159 -57 -293q-56 -130 -178 -246zM1202 264q99 99 148.5 218.5t50.5 256.5q2 246 -176 428q-175 179 -424 179q-237 0 -414 -183q-190 -197 -176 -420l6 -94l19 -94q68 31 153 53q73 19 158 19q166 0 314 -78.5t341 -284.5zM1085 178q-178 185 -299 250q-114 61 -254 61
q-71 0 -116 -16q-53 -7 -131 -47q81 -151 221 -236q132 -81 305 -84q46 -1 133 19q64 15 141 53z" />
    <glyph glyph-name="R" unicode="R" 
d="M256 1313v-1313h-141v1456h391q133 0 207 -20q83 -22 143 -64q84 -58 137 -166q50 -102 51 -213q2 -168 -102 -291q-56 -66 -113 -98t-137 -35l352 -569h-170l-432 702h138q138 0 224.5 79.5t86.5 209.5q0 143 -105 250q-32 33 -104 53q-67 19 -215 19h-211z" />
    <glyph glyph-name="S" unicode="S" horiz-adv-x="952" 
d="M57 416h140q0 -131 72.5 -212.5t193.5 -82.5q126 -2 200.5 77t75.5 218q2 193 -307 299l-35 12q-164 56 -232.5 140.5t-68.5 219.5q0 174 109 285t280 111q163 0 260 -101q101 -105 107 -284h-135q0 52 -21.5 101t-50.5 81q-58 64 -160 66q-108 2 -176.5 -70t-68.5 -180
q0 -111 86 -174q41 -30 176 -76l114 -39q133 -45 205 -141q62 -82 62 -224q0 -206 -107 -334q-114 -135 -315 -137q-176 -1 -291 123q-110 119 -113 322z" />
    <glyph glyph-name="T" unicode="T" horiz-adv-x="750" 
d="M446 0h-143v1313h-291v143h725v-143h-291v-1313z" />
    <glyph glyph-name="U" unicode="U" horiz-adv-x="1157" 
d="M113 1456h143v-921q0 -157 18 -211q5 -13 19 -43q80 -175 285 -177q160 -2 243 113q80 111 80 348v891h141v-926q0 -281 -113.5 -420.5t-340.5 -140.5q-261 -2 -376 154q-99 135 -99 407v926z" />
    <glyph glyph-name="V" unicode="V" 
d="M-41 1456h143l461 -1241l463 1241h143l-548 -1456h-113z" />
    <glyph glyph-name="W" unicode="W" horiz-adv-x="1665" 
d="M899 1456l293 -1194l364 1194h140l-451 -1456h-119l-292 1188l-293 -1188h-119l-453 1456h142l362 -1194l295 1194h131z" />
    <glyph glyph-name="X" unicode="X" horiz-adv-x="1165" 
d="M170 0h-176l506 733l-494 723h178l400 -604l399 604h176l-493 -723l505 -733h-180l-407 618z" />
    <glyph glyph-name="Y" unicode="Y" horiz-adv-x="981" 
d="M557 535v-535h-141v537l-465 919h164l372 -756l377 756h160z" />
    <glyph glyph-name="Z" unicode="Z" horiz-adv-x="938" 
d="M719 1313h-639v143h805v-137l-682 -1178h696v-141h-860v137z" />
    <glyph glyph-name="bracketleft" unicode="[" horiz-adv-x="541" 
d="M465 -293v-117h-332v1866h332v-119h-191v-1630h191z" />
    <glyph glyph-name="backslash" unicode="\" horiz-adv-x="569" 
d="M498 -190l-498 1646h119l499 -1646h-120z" />
    <glyph glyph-name="bracketright" unicode="]" horiz-adv-x="541" 
d="M76 -293h190v1630h-190v119h332v-1866h-332v117z" />
    <glyph glyph-name="asciicircum" unicode="^" horiz-adv-x="2048" 
d="M1094 1458l530 -557h-143l-457 455l-459 -455h-143l532 557h140z" />
    <glyph glyph-name="underscore" unicode="_" horiz-adv-x="1024" 
d="M1024 -383v-100h-1024v100h1024z" />
    <glyph glyph-name="grave" unicode="`" horiz-adv-x="1024" 
d="M545 1247l-269 350h152l209 -350h-92z" />
    <glyph glyph-name="a" unicode="a" horiz-adv-x="1290" 
d="M1042 557q1 170 -127 305q-123 130 -286 131q-175 2 -301 -131q-123 -129 -125 -323q-1 -183 119.5 -309t302.5 -128q167 -1 293 134q122 132 124 321zM1042 174q-71 -96 -180 -149t-241 -54q-244 -2 -404 165q-159 164 -160 409q-1 244 166 413q165 166 410 166
q128 0 231.5 -51.5t177.5 -148.5v176h138v-1100h-138v174z" />
    <glyph glyph-name="b" unicode="b" horiz-adv-x="1290" 
d="M248 1456v-541q87 103 191 155.5t241 53.5q228 2 390 -164.5t163 -408.5q2 -245 -162.5 -412.5t-413.5 -167.5q-124 0 -225 47q-94 44 -184 148v-166h-139v1456h139zM248 539q-1 -173 118 -303q121 -134 293 -134q186 0 308 136q117 131 118 319q1 181 -124 309
q-123 125 -297 127q-180 2 -301 -138q-113 -132 -115 -316z" />
    <glyph glyph-name="c" unicode="c" horiz-adv-x="1241" 
d="M993 762q-125 232 -381 235q-177 2 -294 -137q-112 -131 -113 -311q-1 -185 113 -312q117 -131 300 -133q260 -3 375 240h156q-61 -178 -201.5 -276.5t-322.5 -98.5q-240 0 -403 169t-165 409q-1 237 165.5 410t406.5 173q177 0 315 -98q135 -96 205 -270h-156z" />
    <glyph glyph-name="d" unicode="d" horiz-adv-x="1290" 
d="M1042 539q1 181 -117 314q-122 138 -300 140q-177 2 -301 -130q-121 -128 -121 -306q0 -191 123 -324q120 -129 303 -131q170 -1 293 134q119 131 120 303zM1038 926v530h142v-1456h-142v166q-151 -193 -417 -195q-234 -2 -400 170q-163 168 -164 410t161 407.5
t403 165.5q260 0 417 -198z" />
    <glyph glyph-name="e" unicode="e" horiz-adv-x="1241" 
d="M1192 506h-993q0 -92 32 -162q29 -64 99 -129q119 -111 291 -111q125 0 227 68q93 63 149 176h160q-69 -179 -211 -280q-138 -99 -321 -99q-242 0 -407 169.5t-165 412.5q0 256 161 416.5t417 162.5q242 1 403 -172q158 -170 158 -442v-10zM1036 625q-36 179 -149 276
q-110 94 -277 96q-166 2 -277 -104q-107 -101 -130 -268h833z" />
    <glyph glyph-name="f" unicode="f" horiz-adv-x="563" 
d="M309 0h-137v977h-147v123h141v30q0 169 86 256t274 87h13v-127q-121 0 -175 -47q-57 -50 -57 -169v-30h232v-123h-230v-977z" />
    <glyph glyph-name="g" unicode="g" horiz-adv-x="1280" 
d="M1174 182q0 -275 -132 -436q-142 -174 -411 -176q-186 -1 -322 92q-131 90 -172 248h164q32 -96 115 -148q87 -55 205 -55q196 0 309 133q106 126 106 326v29q-79 -110 -184 -166q-100 -53 -223 -54q-245 -2 -410.5 165t-165.5 413q0 247 161 409t402 164q259 2 420 -206
v180h138v-918zM1034 543q2 182 -122 318t-291 136t-292 -126t-126 -312q-1 -183 116 -315q121 -136 302 -138q156 -2 286 132q126 130 127 305z" />
    <glyph glyph-name="h" unicode="h" horiz-adv-x="1143" 
d="M111 1456h139v-485q125 149 338 151q224 2 336 -135q108 -133 108 -428v-559h-139v561q0 233 -74 330q-71 94 -239 96q-90 1 -168 -39q-72 -37 -115 -110q-28 -47 -37 -103q-10 -60 -10 -200v-535h-139v1456z" />
    <glyph glyph-name="i" unicode="i" horiz-adv-x="371" 
d="M256 1229h-141v227h141v-227zM115 0v1100h141v-1100h-141z" />
    <glyph glyph-name="j" unicode="j" horiz-adv-x="371" 
d="M256 1229h-141v227h141v-227zM256 1100v-1104q0 -170 -39 -245q-55 -105 -207 -105h-30v131q77 0 106 30t29 168v1125h141z" />
    <glyph glyph-name="k" unicode="k" horiz-adv-x="848" 
d="M256 0h-141v1456h141v-866l397 510h162l-399 -510l485 -590h-178l-467 573v-573z" />
    <glyph glyph-name="l" unicode="l" horiz-adv-x="371" 
d="M115 0v1456h141v-1456h-141z" />
    <glyph glyph-name="m" unicode="m" horiz-adv-x="1907" 
d="M977 928q139 194 389 194q219 0 323.5 -136.5t104.5 -430.5v-555h-135v584q0 192 -57 285q-72 116 -250 118q-92 1 -166 -39q-69 -38 -113 -110q-47 -78 -47 -303v-535h-133v616q0 180 -66 268q-75 101 -247 103q-90 1 -168 -39q-72 -37 -115 -110q-28 -47 -37 -103
q-10 -60 -10 -200v-535h-139v1100h139v-125q62 71 147 110q82 37 195 37q261 0 385 -194z" />
    <glyph glyph-name="n" unicode="n" horiz-adv-x="1143" 
d="M113 1100h137v-125q70 76 149 110q85 37 197 37q122 0 216 -45.5t149 -128.5q33 -49 53 -139q18 -79 18 -234v-575h-139v616q0 181 -65 269q-74 100 -248 102q-90 1 -168 -39q-72 -37 -115 -110q-28 -47 -37 -103q-10 -60 -10 -200v-535h-137v1100z" />
    <glyph glyph-name="o" unicode="o" horiz-adv-x="1241" 
d="M201 551q-1 -183 121 -318q117 -129 301 -129t302 134q114 128 115 315q1 190 -119.5 317t-310.5 129q-165 1 -288 -131q-119 -129 -121 -317zM53 549q0 240 165.5 413t393.5 173q236 0 405.5 -168t170.5 -404q2 -244 -166 -420q-164 -173 -399 -174q-238 -2 -404 170
t-166 410z" />
    <glyph glyph-name="p" unicode="p" horiz-adv-x="1290" 
d="M109 1100h139v-180q137 204 409 204q248 0 411 -165.5t165 -413.5q1 -242 -162 -410q-158 -162 -403 -164q-128 -1 -240 52q-107 50 -180 151v-530h-139v1456zM248 557q-2 -185 123 -321q121 -133 293 -134q178 -2 301 130q119 127 120 307q2 189 -124 323
q-121 129 -302 131q-159 1 -284.5 -131.5t-126.5 -304.5z" />
    <glyph glyph-name="q" unicode="q" horiz-adv-x="1290" 
d="M1038 1100h142v-1456h-142v522q-65 -89 -180 -143q-109 -51 -237 -52q-244 -2 -404 165q-159 164 -160 409q-1 244 166 413q165 166 410 166q124 0 229 -53q99 -50 176 -147v176zM1042 557q1 170 -127 305q-123 130 -286 131q-175 2 -301 -131q-123 -129 -125 -323
q-1 -183 119.5 -309t302.5 -128q167 -1 293 134q122 132 124 321z" />
    <glyph glyph-name="r" unicode="r" horiz-adv-x="512" 
d="M254 0h-143v1100h133v-127q89 137 258 143v-153q-134 -13 -191 -79.5t-57 -219.5v-664z" />
    <glyph glyph-name="s" unicode="s" horiz-adv-x="797" 
d="M43 346h145q0 -109 60 -176q57 -64 145 -66q81 -1 137 52t56 131q0 74 -43.5 125.5t-157.5 91.5q-207 73 -258 159q-37 62 -37 156q0 128 94 219q91 89 226 90q137 1 225 -79q33 -31 63 -99q25 -58 25 -125h-152q0 73 -47 119q-44 43 -123 45q-70 1 -114.5 -45.5
t-46.5 -116.5q-1 -41 18 -84q17 -29 64 -59q23 -15 47 -25q20 -6 69 -22l103 -35q92 -31 151 -117q49 -71 49 -186q0 -147 -103 -239q-98 -89 -247 -89q-153 0 -250.5 101.5t-97.5 273.5z" />
    <glyph glyph-name="t" unicode="t" horiz-adv-x="559" 
d="M209 0v958h-209v142h209v356h141v-356h209v-142h-209v-958h-141z" />
    <glyph glyph-name="u" unicode="u" horiz-adv-x="1143" 
d="M109 1100h139v-584q0 -226 72 -318t241 -94q89 -1 164 37q72 37 119 113q22 36 37 100q10 72 10 205v541h141v-1100h-141v119q-65 -78 -142 -112.5t-192 -35.5q-259 -2 -363 153q-85 128 -85 402v574z" />
    <glyph glyph-name="v" unicode="v" horiz-adv-x="977" 
d="M543 0h-129l-430 1100h149l352 -887l355 887h153z" />
    <glyph glyph-name="w" unicode="w" horiz-adv-x="1421" 
d="M1016 276l266 824h150l-371 -1100h-92l-258 838l-254 -838h-92l-371 1100h147l269 -824l252 824h102z" />
    <glyph glyph-name="x" unicode="x" horiz-adv-x="848" 
d="M172 1100l256 -416l274 416h162l-356 -527l354 -573h-160l-282 459l-295 -459h-156l373 571l-328 529h158z" />
    <glyph glyph-name="y" unicode="y" horiz-adv-x="944" 
d="M-33 1100h162l340 -893l356 893h164l-594 -1456h-151l147 358z" />
    <glyph glyph-name="z" unicode="z" horiz-adv-x="825" 
d="M780 0h-760v133l574 834h-510v133h666v-152l-562 -807h592v-141z" />
    <glyph glyph-name="braceleft" unicode="{" horiz-adv-x="1024" 
d="M854 1370h-37q-128 0 -175.5 -50.5t-47.5 -203.5v-242q0 -150 -31 -216q-42 -87 -166 -128q105 -29 151 -102.5t46 -241.5v-241q0 -154 44 -204t171 -50l22 2h23v-107h-47q-205 0 -274 83q-62 74 -62 286v244q0 149 -52 210q-56 67 -200 70l-22 -2h-23v109h23l22 -2
q137 0 194.5 62t57.5 218v242q0 211 62 286q70 85 274 85h47v-107z" />
    <glyph glyph-name="bar" unicode="|" horiz-adv-x="1024" 
d="M567 1565v-2048h-108v2048h108z" />
    <glyph glyph-name="braceright" unicode="}" horiz-adv-x="1024" 
d="M555 1106v-242q0 -155 54 -216t198 -64l22 2h23v-109h-23l-22 2q-137 0 -194.5 -62t-57.5 -218v-244q0 -212 -62 -286q-69 -83 -274 -83h-47v107h39q126 0 173.5 50.5t47.5 201.5v241q0 171 42 241t155 103q-124 35 -166 128q-31 67 -31 216v242q0 153 -47 205
q-44 48 -168 51l-22 -2h-23v107h47q200 0 272 -86q64 -78 64 -285z" />
    <glyph glyph-name="asciitilde" unicode="~" horiz-adv-x="1706" 
d="M1530 637q-103 -72 -203 -109q-88 -32 -184 -34q-91 -1 -260 57l-29 10l-16 6q-166 62 -273 64q-78 1 -176 -37q-77 -30 -211 -123v113q48 35 101 61q63 31 102 47q90 37 184 37q110 0 273 -61l16 -6l33 -13q145 -57 256 -59q81 -1 178 39q32 13 96 47q36 18 113 74v-113
z" />
    <glyph glyph-name="quoteleft" unicode="&#x2018;" horiz-adv-x="160" 
d="M53 1575l293 -340l-53 -57l-342 266q-49 38 -57 84q0 33 23.5 59t55.5 27q45 2 80 -39z" />
    <glyph glyph-name="quoteright" unicode="&#x2019;" horiz-adv-x="182" 
d="M266 1430q7 -27 -4 -50q-6 -24 -24 -43l-308 -319l-45 22l224 390q18 31 51 47l33 6q59 0 73 -53z" />
    <glyph glyph-name="nonbreakingspace" unicode="&#xa0;" horiz-adv-x="1384" 
d="M0 0zM1264 535q0 -231 -154 -385l119 -136l-109 -90l-116 135q-135 -88 -306 -90q-233 -2 -399 165t-166 401v536h139v-536q0 -174 123.5 -299t302.5 -127q127 -2 211 55l-137 155l107 95l141 -162q106 133 106 283q0 176 -122.5 300.5t-305.5 127.5v139
q234 0 400 -165.5t166 -401.5z" />
    <glyph glyph-name="exclamdown" unicode="&#xa1;" horiz-adv-x="1450" 
d="M1448 0h-582v113q-38 -61 -127 -103q-84 -40 -170 -41q-180 -2 -308 126t-128 311v1064h139v-1067q0 -122 86 -208t211 -86q123 0 210 87t87 210v665h140v-932h442v-139z" />
    <glyph glyph-name="cent" unicode="&#xa2;" horiz-adv-x="717" 
d="M627 725q2 -114 -78 -193q-74 -73 -187 -75q-111 -2 -190 78q-76 77 -78 190q-1 108 88 193q75 70 180 71q108 1 186 -77t79 -187z" />
    <glyph glyph-name="sterling" unicode="&#xa3;" horiz-adv-x="569" 
d="M391 840h-213v217h213v-217zM391 0h-213v217h213v-217z" />
    <glyph glyph-name="currency" unicode="&#xa4;" horiz-adv-x="682" 
d="M524 655q1 -195 -61 -430q-93 -350 -291 -649h-100q152 314 215.5 564t64.5 507q2 366 -61 600q-49 184 -217 500h104q165 -231 255 -520q89 -284 91 -572z" />
    <glyph glyph-name="yen" unicode="&#xa5;" horiz-adv-x="682" 
d="M592 -424h-100q-131 203 -226 451q-125 329 -127 628q-1 275 90 566t256 526h105q-165 -310 -217 -500q-62 -225 -62 -600q0 -495 281 -1071z" />
    <glyph glyph-name="brokenbar" unicode="&#xa6;" 
d="M973 569l-381 -381l-72 72l309 309l-307 308l72 71zM567 569l-381 -381l-71 72l309 309l-307 308l71 71z" />
    <glyph glyph-name="section" unicode="&#xa7;" 
d="M1008 260l-72 -72l-381 381l379 379l72 -71l-308 -308zM602 260l-72 -72l-380 381l378 379l72 -71l-307 -308z" />
    <glyph glyph-name="dieresis" unicode="&#xa8;" horiz-adv-x="1450" 
d="M1448 0h-582v113q-38 -61 -127 -103q-84 -40 -170 -41q-180 -2 -308 126t-128 311v1064h139v-1067q0 -122 86 -208t211 -86q123 0 210 87t87 210v665h140v-932h442v-139z" />
    <glyph glyph-name="copyright" unicode="&#xa9;" horiz-adv-x="563" 
d="M360 0h-157v158h157v-158z" />
    <glyph glyph-name="ordfeminine" unicode="&#xaa;" horiz-adv-x="199" 
d="M432 1176l-135 -52l-270 453l168 49z" />
    <glyph glyph-name="guillemotleft" unicode="&#xab;" horiz-adv-x="569" 
d="M360 0q0 -74 -27 -119.5t-77 -68.5l-25 45q56 27 56 143h-84v158h157v-158z" />
    <glyph glyph-name="logicalnot" unicode="&#xac;" horiz-adv-x="682" 
d="M592 475h-502v184h502v-184z" />
    <glyph glyph-name="minus" unicode="&#xad;" horiz-adv-x="682" 
d="M913 647q-102 -56 -182 -94q-65 -31 -213 -31q-129 0 -215.5 67t-101.5 202l143 26q26 -89 67 -124q45 -38 134 -38q113 0 176.5 13t146.5 67z" />
    <glyph glyph-name="minus" unicode="&#x2212;" horiz-adv-x="682" 
d="M913 647q-102 -56 -182 -94q-65 -31 -213 -31q-129 0 -215.5 67t-101.5 202l143 26q26 -89 67 -124q45 -38 134 -38q113 0 176.5 13t146.5 67z" />
    <glyph glyph-name="registered" unicode="&#xae;" horiz-adv-x="2048" 
d="M1812 0h-213v217h213v-217zM1130 0h-212v217h212v-217zM449 0h-213v217h213v-217z" />
    <glyph glyph-name="macron" unicode="&#xaf;" horiz-adv-x="186" 
d="M338 1552q0 -48 -16 -82q-13 -27 -43 -65l-43 -41q-13 -12 -60 -33l-98 -43l-37 -18l-35 -31l-39 -43q-9 -10 -16 -49l6 -43l-94 -21l-10 43l-7 50q0 50 17 79q13 40 47 70l51 45l51 29l76 35q34 15 86 43l45 43q18 24 21 73l-2 29l88 16l8 -45z" />
    <glyph glyph-name="macron" unicode="&#x2c9;" horiz-adv-x="186" 
d="M338 1552q0 -48 -16 -82q-13 -27 -43 -65l-43 -41q-13 -12 -60 -33l-98 -43l-37 -18l-35 -31l-39 -43q-9 -10 -16 -49l6 -43l-94 -21l-10 43l-7 50q0 50 17 79q13 40 47 70l51 45l51 29l76 35q34 15 86 43l45 43q18 24 21 73l-2 29l88 16l8 -45z" />
    <glyph glyph-name="degree" unicode="&#xb0;" horiz-adv-x="61" 
d="M195 1563l-234 -404l-129 41l188 391z" />
    <glyph glyph-name="plusminus" unicode="&#xb1;" horiz-adv-x="387" 
d="M322 1397q0 -74 -30 -121q-25 -39 -91 -84l-92 84l41 24q19 17 20 54q2 44 -15.5 69t-68.5 25t-85 -40t-36 -118q-1 -67 10 -86t23 -26l-125 -80l-31 69q-14 32 -18 68l-4 39v16q0 128 76 214.5t215 86.5q112 0 161.5 -64t49.5 -130z" />
    <glyph glyph-name="twosuperior" unicode="&#xb2;" horiz-adv-x="1679" 
d="M1564 66l-104 -119l-209 152q-76 -68 -196 -108q-108 -35 -213 -35q-281 0 -482 204q-198 201 -198 474v994h157v-988q0 -211 140 -364q151 -163 386 -163q169 0 271 79l-244 164l477 1272h170v-991q0 -268 -154 -424zM1363 635v604l-317 -813l187 -132q130 126 130 341z
" />
    <glyph glyph-name="threesuperior" unicode="&#xb3;" horiz-adv-x="1872" 
d="M1303 -31q-246 0 -377 217q-51 -100 -147.5 -158.5t-209.5 -58.5q-178 0 -305 123q-131 127 -131 314v665h139v-668q0 -130 85 -212t212 -82q124 0 210.5 86t86.5 211v665h140v-668q0 -122 86 -208t211 -86q122 0 209 86t87 211v665h140v-660q0 -182 -127.5 -312
t-308.5 -130z" />
    <glyph glyph-name="acute" unicode="&#xb4;" horiz-adv-x="1479" 
d="M1343 410h-1024v-410h-157v1092q0 240 172 409q169 167 395 168q250 2 420 -162.5t170 -414.5v-277h-158v277q0 186 -137 307q-125 110 -291 112t-290 -125t-124 -294v-525h1024v-157z" />
    <glyph glyph-name="mu1" unicode="&#xb5;" 
d="M1006 0h-734v-399h-139v1063q0 181 127.5 309.5t308.5 128.5t309 -127.5t128 -308.5v-256h-140v258q0 123 -85.5 209t-211.5 86q-121 0 -209 -86t-88 -211v-527h734v-139z" />
    <glyph glyph-name="mu1" unicode="&#x3bc;" 
d="M1006 0h-734v-399h-139v1063q0 181 127.5 309.5t308.5 128.5t309 -127.5t128 -308.5v-256h-140v258q0 123 -85.5 209t-211.5 86q-121 0 -209 -86t-88 -211v-527h734v-139z" />
    <glyph glyph-name="paragraph" unicode="&#xb6;" horiz-adv-x="1659" 
d="M1659 410h-340v-410h-158v410h-471q-264 0 -445.5 181.5t-183.5 446.5q-1 259 183 447q181 184 446 184q261 0 445 -186t184 -445v-471h340v-157zM1163 565v475q0 199 -136 334t-335 137q-195 1 -334 -137q-135 -135 -137 -334q-1 -194 136.5 -334.5t334.5 -140.5h471z
" />
    <glyph glyph-name="periodcentered" unicode="&#xb7;" horiz-adv-x="1399" 
d="M1399 0h-197v-399h-139v561q-158 -191 -430 -193q-234 -2 -396.5 166t-164.5 402q-2 233 163 399t402 166q183 0 346 -117q219 -157 219 -448v-398h197v-139zM1063 537q1 173 -123 298.5t-303 127.5q-174 1 -300 -123t-128 -303q-1 -177 122 -301.5t306 -126.5
q175 -1 299.5 122.5t126.5 305.5z" />
    <glyph glyph-name="periodcentered" unicode="&#x2219;" horiz-adv-x="1399" 
d="M1399 0h-197v-399h-139v561q-158 -191 -430 -193q-234 -2 -396.5 166t-164.5 402q-2 233 163 399t402 166q183 0 346 -117q219 -157 219 -448v-398h197v-139zM1063 537q1 173 -123 298.5t-303 127.5q-174 1 -300 -123t-128 -303q-1 -177 122 -301.5t306 -126.5
q175 -1 299.5 122.5t126.5 305.5z" />
    <glyph glyph-name="cedilla" unicode="&#xb8;" horiz-adv-x="1659" 
d="M1659 410h-340v-410h-158v1092q0 187 -143 311q-123 107 -270 108q-163 2 -289 -110q-140 -124 -140 -309v-277h-157v277q0 260 182 424q170 153 408 153q222 0 391 -164q176 -171 176 -413v-525h340v-157z" />
    <glyph glyph-name="onesuperior" unicode="&#xb9;" horiz-adv-x="1202" 
d="M1202 0h-196v-399h-140v1067q0 123 -85.5 209t-211.5 86q-121 0 -209 -86t-88 -211v-666h-139v665q0 181 127.5 309t308.5 128t309 -127.5t128 -308.5v-527h196v-139z" />
    <glyph glyph-name="ordmasculine" unicode="&#xba;" horiz-adv-x="1479" 
d="M1343 1063h-1024v-524q0 -188 144 -312q124 -107 270 -108q162 -2 289 110q139 122 139 310v276h158v-276q0 -260 -182 -424q-171 -154 -408 -154q-234 0 -400.5 171.5t-166.5 406.5v1091h157v-409h1024v-158z" />
    <glyph glyph-name="guillemotright" unicode="&#xbb;" 
d="M569 -31q-181 0 -308.5 127t-127.5 310v1064h139v-399h734v-133h-734v-535q0 -123 86 -208.5t211 -85.5q124 0 210.5 86t86.5 211v266h140v-265q0 -181 -128 -309.5t-309 -128.5z" />
    <glyph glyph-name="onequarter" unicode="&#xbc;" horiz-adv-x="1925" 
d="M1808 827q1 -238 -143 -448q-114 -165 -240 -221h271v-158h-1448v362h158v-204h548q296 0 504 215q193 200 195 454q1 248 -183 455q-203 227 -514 229q-302 1 -507 -217q-191 -203 -191 -479v-51q0 -28 8 -49l-157 -23q0 -1 -7 51q0 52 -2 72q0 361 247 608t609 248
q360 1 605 -241.5t247 -602.5z" />
    <glyph glyph-name="onehalf" unicode="&#xbd;" horiz-adv-x="1399" 
d="M1399 -399h-338v561q-160 -193 -428 -193q-234 0 -396.5 167t-164.5 401q-2 233 163 399t402 166q222 0 384 -143q181 -160 181 -422v-797h197v-139zM1065 537q1 174 -121 298q-125 126 -307 128q-174 1 -300 -123t-128 -303q-1 -177 122.5 -302.5t305.5 -125.5
q178 0 302 123t126 305z" />
    <glyph glyph-name="threequarters" unicode="&#xbe;" horiz-adv-x="1114" 
d="M1114 1063h-795v-905h549v-158h-706v1630h157v-409h795v-158z" />
    <glyph glyph-name="questiondown" unicode="&#xbf;" horiz-adv-x="948" 
d="M948 932h-676v-793h443v-139h-582v1470h139v-399h676v-139z" />
    <glyph glyph-name="Agrave" unicode="&#xc0;" horiz-adv-x="1479" 
d="M1343 0h-1181v1092q0 240 172 409q169 167 395 168q250 2 420 -162.5t170 -414.5v-277h-160l2 277q1 176 -126 298q-125 119 -302 121q-166 2 -290 -125t-124 -294v-934h1024v-158z" />
    <glyph glyph-name="Aacute" unicode="&#xc1;" 
d="M1006 -399h-873v1063q0 181 127.5 309.5t308.5 128.5t309 -127.5t128 -308.5v-666h-140v668q0 123 -85.5 209t-211.5 86q-121 0 -209 -86t-88 -211v-926h734v-139z" />
    <glyph glyph-name="Acircumflex" unicode="&#xc2;" horiz-adv-x="2015" 
d="M2011 825h-137q0 -359 -249 -611.5t-607 -254.5q-183 -1 -338 70q0 34 -4 55v45q0 370 262 616q253 238 592 238h166q-55 226 -247.5 376.5t-432.5 151.5q-286 2 -491.5 -203.5t-205.5 -492.5v-815h-157v815q0 357 250 606q248 246 606 248q308 1 543 -194
q232 -193 297 -492h153v-158zM1716 825h-188q-287 0 -489.5 -196t-207.5 -482q51 -12 111 -28q3 0 27 -1t47 -1q293 -3 497 207q200 206 203 501z" />
    <glyph glyph-name="Atilde" unicode="&#xc3;" horiz-adv-x="1397" 
d="M1397 535h-133q0 -237 -154 -388q-180 -176 -437 -176q-61 0 -110 13q-7 54 -7 105q0 221 132 380q164 197 416 203q-37 120 -154 205t-245 86q-176 2 -303 -121q-130 -126 -130 -314v-927h-139v924q0 239 169 408t407 169q197 0 344 -121q143 -117 192 -307h152v-139z
M1126 535q-184 0 -311 -134q-111 -117 -117 -292q191 0 322 147q100 112 106 279z" />
    <glyph glyph-name="Adieresis" unicode="&#xc4;" horiz-adv-x="1659" 
d="M1659 1063h-340v-471q0 -258 -184 -447q-180 -184 -445 -184q-263 0 -446 184t-183 447q0 261 184 445t445 184h471v409h158v-409h340v-158zM1163 590v475h-471q-197 0 -333 -138.5t-138 -336.5q-1 -198 135.5 -333.5t335.5 -137.5q196 -1 333.5 136.5t137.5 334.5z" />
    <glyph glyph-name="Aring" unicode="&#xc5;" horiz-adv-x="1399" 
d="M1399 932h-197v-397q0 -235 -165 -400.5t-400 -165.5q-237 0 -400 157.5t-165 393.5q-1 228 162 389.5t397 161.5h432v399h139v-399h197v-139zM1063 535v397h-426q-180 0 -304 -116.5t-124 -295.5q0 -177 123 -295q120 -116 305 -116q180 0 303 123t123 303z" />
    <glyph glyph-name="AE" unicode="&#xc6;" horiz-adv-x="1479" 
d="M1319 426h-158v276q0 187 -137 308q-125 110 -291 112q-167 2 -290.5 -125.5t-123.5 -294.5v-702h-157v1630h157v-536q82 87 189 135q111 50 221 51q249 2 419.5 -163.5t170.5 -414.5v-276z" />
    <glyph glyph-name="Ccedilla" unicode="&#xc7;" 
d="M1006 0h-140v668q0 125 -86 210t-211 85q-122 0 -209.5 -87.5t-87.5 -209.5v-1065h-139v1869h139v-503q40 55 126 94.5t171 40.5q175 2 308 -129q129 -128 129 -307v-666z" />
    <glyph glyph-name="Egrave" unicode="&#xc8;" horiz-adv-x="1114" 
d="M1114 0h-952v1630h157v-1472h795v-158z" />
    <glyph glyph-name="Eacute" unicode="&#xc9;" horiz-adv-x="555" 
d="M555 -399h-422v1470h139v-1331h283v-139z" />
    <glyph glyph-name="Ecircumflex" unicode="&#xca;" horiz-adv-x="2120" 
d="M1974 539q0 -260 -182 -424q-171 -154 -408 -154q-223 0 -391 164q-176 172 -176 414v524h-498v-1063h-157v1630h157v-409h656v-682q0 -189 143 -312q124 -107 271 -108q161 -2 288 110q140 123 140 310v682h157v-682z" />
    <glyph glyph-name="Edieresis" unicode="&#xcb;" horiz-adv-x="1872" 
d="M1739 0h-133v113q-43 -65 -134 -106q-84 -37 -169 -38q-172 -2 -307 117q-139 123 -142 293q0 22 2 33l23 262q11 122 -91 208q-95 81 -219 81q-122 0 -209.5 -87.5t-87.5 -209.5v-1065h-139v1869h139v-503q40 55 126 94.5t171 40.5q172 2 307 -117q139 -123 142 -293
q0 -22 -2 -33l-23 -262q-10 -115 85.5 -201.5t224.5 -86.5q123 0 209.5 87t86.5 210v665h140v-1071z" />
    <glyph glyph-name="Igrave" unicode="&#xcc;" horiz-adv-x="1913" 
d="M1812 795q2 -349 -249 -594q-246 -240 -607 -242q-357 -1 -608 240q-246 237 -248 596q-1 227 123 428q112 181 273 252l-336 -2v157h1573v-157l-340 2q168 -63 288 -244q130 -196 131 -436zM1655 795q1 284 -205 481q-201 192 -496 194q-290 1 -492 -191
q-204 -195 -204 -484t201 -484q198 -192 495 -194q291 -1 495 193.5t206 484.5z" />
    <glyph glyph-name="Iacute" unicode="&#xcd;" horiz-adv-x="1335" 
d="M1202 535q2 -237 -163 -401t-402 -165q-241 -2 -404 164q-159 162 -161 402q-2 236 162.5 400t400.5 167q26 0 45 -4q23 -2 35 -8l-230 264l185 164l94 -107l-82 -70l238 -270h282v-139h-176q79 -62 129 -180q46 -110 47 -217zM1065 535q2 191 -145 322
q-117 105 -283 106q-177 1 -301.5 -123.5t-126.5 -304.5q-2 -179 123.5 -301.5t304.5 -124.5q174 -1 300 121.5t128 304.5z" />
    <glyph glyph-name="Icircumflex" unicode="&#xce;" horiz-adv-x="1479" 
d="M1319 0h-158v537q-171 -187 -409 -187q-250 0 -420 164t-170 414v702h157v-702q0 -176 126 -297t303 -123q140 -1 268 106q145 122 145 314v170h158v-1098z" />
    <glyph glyph-name="Idieresis" unicode="&#xcf;" 
d="M1006 -399h-140v512q-38 -61 -127 -103q-84 -40 -170 -41q-180 -2 -308 126t-128 311v1064h139v-1067q0 -122 86 -208t211 -86q123 0 210 87t87 210v665h140v-1470z" />
    <glyph glyph-name="Eth" unicode="&#xd0;" horiz-adv-x="1229" 
d="M1114 0h-158v412q0 155 -110 256q-118 108 -334 108h-426v139h434q164 0 256 86q80 76 82 195q1 114 -80 193q-86 84 -243 84h-449v157h453q207 0 338 -111q139 -119 139 -323q0 -120 -66 -215q-73 -106 -194 -129q134 -12 243 -133q115 -128 115 -303v-416z" />
    <glyph glyph-name="Ntilde" unicode="&#xd1;" 
d="M1006 0h-140v668q0 125 -86 210t-211 85q-122 0 -209.5 -87.5t-87.5 -209.5v-666h-139v1470h139v-503q40 55 126 94.5t171 40.5q175 2 308 -129q129 -128 129 -307v-666z" />
    <glyph glyph-name="Ograve" unicode="&#xd2;" horiz-adv-x="1925" 
d="M1812 827q1 -214 -90 -397q-57 -115 -153 -215l188 -84l-71 -137l-254 110q-89 -63 -220 -104q-127 -40 -256 -41q-212 -2 -413 109q-217 120 -219 292q-1 55 22 107q59 135 232 135q165 0 399 -110l436 -205q123 106 186 256q56 132 56 284q0 246 -185 455
q-202 227 -514 229q-306 1 -507 -213q-191 -203 -191 -483v-53q0 -26 6 -47l-155 -23l-7 49q0 54 -2 74q0 346 244 600t612 256q354 1 604 -244.5t252 -599.5zM1260 188l-347 158q-102 46 -145 62q-119 43 -182 43q-71 0 -97 -50q-5 -14 -8 -43q0 -96 168 -172
q148 -67 309 -69q57 -1 138 14q104 19 164 57z" />
    <glyph glyph-name="Oacute" unicode="&#xd3;" horiz-adv-x="1335" 
d="M1202 0h-565q-240 0 -400 149q-163 151 -165 386q-1 150 58 255q68 121 265 285l152 127q30 14 4 45l-107 125l160 139l96 -102l-59 -49l18 -21q60 -56 60 -106q0 -57 -72 -119l-14 -12q236 0 402.5 -165.5t166.5 -401.5v-535zM1065 535q0 178 -123 302t-305 126
q-177 1 -301.5 -122.5t-126.5 -305.5q-1 -170 126 -284q124 -111 302 -111h429z" />
    <glyph glyph-name="Ocircumflex" unicode="&#xd4;" horiz-adv-x="1659" 
d="M1659 0h-498v1092q0 187 -143 311q-123 107 -270 108q-163 2 -289 -110q-140 -124 -140 -309v-277h-157v277q0 260 182 424q170 153 408 153q222 0 391 -164q176 -171 176 -413v-934h340v-158z" />
    <glyph glyph-name="Otilde" unicode="&#xd5;" horiz-adv-x="1202" 
d="M1202 -399h-336v1067q0 123 -85.5 209t-211.5 86q-121 0 -209 -86t-88 -211v-666h-139v663q0 181 128 310t308 129q181 0 309 -127.5t128 -308.5v-926h196v-139z" />
    <glyph glyph-name="Odieresis" unicode="&#xd6;" horiz-adv-x="1745" 
d="M1581 0h-1417v422q0 374 229 696q77 108 164 185l-412 213l76 137l469 -244q155 104 309 158q180 63 392 63h127v-157h-125q-281 0 -543 -148l149 -78q252 -132 408 -342q174 -234 174 -493v-412zM1423 158v256q0 196 -138 388t-359 308l-219 115q-143 -115 -254 -318
q-131 -241 -131 -487v-262h1101z" />
    <glyph glyph-name="multiply" unicode="&#xd7;" horiz-adv-x="1397" 
d="M1264 0h-566q-239 0 -400 148q-163 152 -165 387q-1 119 49 229q48 105 127 168h-176v139h307l498 434l94 -104l-338 -299q234 0 402 -165.5t168 -401.5v-535zM1126 535q0 178 -122.5 302t-305.5 126q-176 1 -301 -123t-127 -305q-1 -169 128 -284q125 -111 300 -111h428
v395z" />
    <glyph glyph-name="Oslash" unicode="&#xd8;" horiz-adv-x="1659" 
d="M1659 1473h-340v-934q0 -241 -170.5 -409t-396.5 -169q-249 -2 -419.5 163.5t-170.5 414.5v1091h157v-1091q0 -177 127 -299q124 -119 302 -121q140 -1 268 106q145 122 145 314v1091h498v-157z" />
    <glyph glyph-name="Ugrave" unicode="&#xd9;" horiz-adv-x="1202" 
d="M1202 1331h-196v-925q0 -181 -128 -309t-309 -128t-308.5 127t-127.5 310v665h139v-668q0 -123 86 -208.5t211 -85.5q124 0 210.5 86t86.5 211v1064h336v-139z" />
    <glyph glyph-name="Uacute" unicode="&#xda;" horiz-adv-x="1815" 
d="M1706 500q2 -191 -217 -361q-230 -178 -543 -180q-311 -1 -543 201q-197 172 -200 352l157 12q0 -129 166 -262q180 -143 420 -145q235 -1 430 139q172 124 172 238q0 173 -149 258q-128 73 -375 73h-924v158h920q185 0 309 66t125 172q2 122 -174 213q-146 75 -322 77
q-147 1 -294 -61q-164 -70 -201 -184l-154 57q38 136 221 240q188 107 422 108q262 2 460 -128t200 -314q1 -114 -78 -203q-69 -78 -168 -104q149 -26 245 -149q94 -119 95 -273z" />
    <glyph glyph-name="Ucircumflex" unicode="&#xdb;" horiz-adv-x="459" 
d="M326 -176q0 -96 -63.5 -159.5t-178.5 -63.5h-84v137h86q100 0 100 88v1245h140v-1247z" />
    <glyph glyph-name="Udieresis" unicode="&#xdc;" horiz-adv-x="1659" 
d="M1497 539q0 -260 -182 -424q-171 -154 -408 -154q-234 0 -400.5 171.5t-166.5 406.5v934h-340v157h498v-1091q0 -189 143 -312q124 -107 270 -108q162 -2 289 110q139 122 139 310v276h158v-276z" />
    <glyph glyph-name="Yacute" unicode="&#xdd;" horiz-adv-x="1202" 
d="M633 -31q-181 0 -308.5 127t-127.5 310v925h-197v139h336v-1067q0 -123 86 -208.5t211 -85.5q123 0 210 85.5t87 211.5v665h139v-664q0 -181 -127.5 -309.5t-308.5 -128.5z" />
    <glyph glyph-name="Thorn" unicode="&#xde;" horiz-adv-x="1925" 
d="M1808 813q3 -343 -245 -602q-241 -252 -611 -254q-363 -1 -616 258q-240 246 -240 586q0 295 166 524q181 251 522 328l-163 71l69 144l815 -363l-65 -143l-219 96q-118 52 -269 53q-296 2 -498 -207q-198 -206 -200 -503q-1 -247 184 -455q202 -227 514 -229
q303 -1 508 217q191 203 191 479q0 20 -2 47q0 17 -4 53l155 23q7 -29 8 -123z" />
    <glyph glyph-name="germandbls" unicode="&#xdf;" horiz-adv-x="1274" 
d="M1202 535q0 -187 -112 -340q-99 -136 -254 -189l-572 -196q-25 -9 -28 -35q0 -35 43 -35h882v-139h-880q-88 0 -137.5 50.5t-49.5 121.5q0 91 69 140q24 18 60 30l555 190q126 43 206 152.5t81 242.5q2 189 -133 318q-123 117 -291 117q-180 0 -305 -121t-127 -301
q-1 -67 16 -119l-129 -47q-24 68 -24 160q0 248 174 411q165 155 393 156q229 1 396 -163.5t167 -403.5z" />
    <glyph glyph-name="agrave" unicode="&#xe0;" horiz-adv-x="1479" 
d="M1319 0h-158v1092q0 186 -137 307q-125 110 -291 112t-290 -125t-124 -294v-1092h-157v1092q0 240 172 409q169 167 395 168q250 2 420 -162.5t170 -414.5v-1092z" />
    <glyph glyph-name="aacute" unicode="&#xe1;" 
d="M1006 0h-140v668q0 123 -85.5 209t-211.5 86q-121 0 -209 -87.5t-88 -209.5v-666h-139v665q0 181 127.5 309t308.5 128t309 -127.5t128 -308.5v-666z" />
    <glyph glyph-name="acircumflex" unicode="&#xe2;" horiz-adv-x="1925" 
d="M1812 827q0 -296 -165 -524q-180 -249 -523 -328l164 -71l-69 -144l-816 363l66 143l219 -96q99 -43 188 -50q33 -3 80 -3q286 0 488 198q209 206 211 512q1 245 -185 455q-202 227 -514 229q-302 1 -507 -217q-191 -203 -191 -479v-49q0 -24 6 -51l-155 -23q0 8 -7 53
q0 48 -2 70q0 346 244 600t612 256q364 1 617 -258q239 -245 239 -586z" />
    <glyph glyph-name="atilde" unicode="&#xe3;" horiz-adv-x="692" 
d="M690 -399h-409q-88 0 -137.5 50.5t-49.5 121.5q0 56 33 104q32 45 96 66l88 28q75 24 111 58q44 41 45 98q2 81 -64 129q-51 37 -133 37q-83 0 -127 -33q-42 73 -59 158q-12 56 -12 117q0 248 174 411q163 153 393 156l2 -139q-180 0 -305 -121t-127 -301q-1 -67 16 -119
q39 9 72 10q115 2 209 -80q98 -86 100 -219q1 -124 -71 -196q-55 -55 -181 -97l-90 -30q-25 -8 -28 -35q0 -35 43 -35h411v-139z" />
    <glyph glyph-name="adieresis" unicode="&#xe4;" horiz-adv-x="1976" 
d="M1812 0h-157v870q0 271 -182 457q-179 183 -443 186v-1079h-158v1079q-259 0 -439 -193q-175 -189 -175 -450v-86h-158v86q0 352 252 580q244 219 600 221q334 1 597 -234t263 -567v-870z" />
    <glyph glyph-name="aring" unicode="&#xe5;" horiz-adv-x="1872" 
d="M1739 -399h-140v512q-41 -65 -131 -106q-82 -37 -165 -38q-243 -4 -377 217q-57 -112 -164 -168q-94 -49 -193 -49q-182 0 -309 127t-127 310v665h139v-668q0 -122 86 -208t211 -86q123 0 210 87t87 210v665h140v-668q0 -124 86.5 -209t210.5 -85q123 0 209.5 87
t86.5 210v665h140v-1470z" />
    <glyph glyph-name="ae" unicode="&#xe6;" horiz-adv-x="1925" 
d="M1653 827q0 249 -178 451q-205 233 -539 233q-291 0 -494 -223q-177 -194 -180 -411l105 14q144 19 286 20q398 2 629 -174q183 -140 186 -327q0 -20 -2 -29q101 110 150 248q37 105 37 198zM954 158q101 0 185 24t164 76q0 25 4 39q1 14 4 43q0 225 -223 333
q-168 81 -422 83q-117 1 -279 -23l-278 -41q-6 25 -7 74q0 32 -2 82q0 326 251 574t585 249q394 2 645 -264q227 -240 227 -580q0 -240 -143 -448q-114 -165 -240 -221h271v-158h-1448v362h158v-204h548z" />
    <glyph glyph-name="ccedilla" unicode="&#xe7;" horiz-adv-x="1274" 
d="M1202 535q0 -179 -100 -324q-101 -148 -266 -205l-572 -196q-25 -9 -28 -35q0 -35 43 -35h882v-139h-880q-84 0 -135.5 47.5t-51.5 124.5q0 126 129 170l416 143q0 225 -227 231q-66 2 -129 -22l-131 -49q-80 118 -80 289q0 236 165.5 400.5t401.5 166.5q232 1 396 -161
q167 -165 167 -406zM1065 528q2 181 -122 308t-302 127q-177 0 -303 -121.5t-129 -300.5q-1 -63 21 -131q78 47 200 47q157 0 251 -90t97 -234q132 49 210 159q76 107 77 236z" />
    <glyph glyph-name="egrave" unicode="&#xe8;" horiz-adv-x="1659" 
d="M1659 410h-340v-410h-158v1092q0 186 -137 307q-125 110 -291 112t-290 -125t-124 -294v-1092h-157v1092q0 240 172 409q169 167 395 168q250 2 420 -162.5t170 -414.5v-525h340v-157z" />
    <glyph glyph-name="eacute" unicode="&#xe9;" horiz-adv-x="1397" 
d="M1272 0h-408v139q121 47 194 150q76 107 77 246q2 176 -122.5 301t-305.5 127q-175 1 -300.5 -123.5t-125.5 -304.5v-535h-140v533q0 235 166 402t400 167t399.5 -166t165.5 -401q0 -308 -201 -396h201v-139z" />
    <glyph glyph-name="ecircumflex" unicode="&#xea;" horiz-adv-x="1479" 
d="M1319 539q0 -260 -182 -424q-171 -154 -408 -154q-234 0 -400.5 171.5t-166.5 406.5v1091h157v-1091q0 -188 144 -312q124 -107 270 -108q162 -2 289 110q139 122 139 310v1091h158v-1091z" />
    <glyph glyph-name="edieresis" unicode="&#xeb;" 
d="M569 -31q-181 0 -308.5 127t-127.5 310v665h139v-668q0 -123 86 -208.5t211 -85.5q124 0 210.5 86t86.5 211v665h140v-664q0 -181 -128 -309.5t-309 -128.5z" />
    <glyph glyph-name="igrave" unicode="&#xec;" horiz-adv-x="1659" 
d="M1659 0h-498v537q-171 -187 -409 -187q-250 0 -420 164t-170 414v276h157v-276q0 -176 126 -297t303 -123q140 -1 268 106q145 122 145 314v702h158v-1472h340v-158z" />
    <glyph glyph-name="iacute" unicode="&#xed;" horiz-adv-x="1202" 
d="M1202 -399h-336v512q-38 -61 -127 -103q-84 -40 -170 -41q-180 -2 -308 126t-128 311v665h139v-668q0 -122 86 -208t211 -86q123 0 210 87t87 210v1064h140v-1730h196v-139z" />
    <glyph glyph-name="icircumflex" unicode="&#xee;" horiz-adv-x="1642" 
d="M1563 1227l-144 -68q-99 170 -266 262q-161 89 -342 90q-212 2 -379 -106q-147 -94 -147 -189q0 -120 168 -188q42 -17 233 -61l287 -66q211 -49 352 -123q203 -108 221 -256q0 -20 2 -39q0 -204 -241 -368q-226 -154 -469 -154q-293 0 -510 150q-157 109 -265 288
l140 78q97 -167 248 -260q160 -98 380 -98q162 0 347 99q213 115 213 263q0 15 -2 21q-14 96 -138 153q-89 41 -317 93l-285 65q-234 53 -319 96q-198 99 -201 287q0 1 -2 8q0 209 248 348q211 118 436 119q277 1 498 -158q164 -118 254 -286z" />
    <glyph glyph-name="idieresis" unicode="&#xef;" horiz-adv-x="1872" 
d="M1739 0h-140v668q0 123 -85.5 209t-210.5 86q-122 0 -209.5 -86.5t-87.5 -210.5v-666h-134v113q-38 -60 -124 -101.5t-179 -42.5q-176 -2 -306 126.5t-130 310.5v665h139v-668q0 -123 86 -208.5t211 -85.5q124 0 210.5 86t86.5 211v665h133v-113q40 61 125 102t179 42
q177 2 306.5 -127t129.5 -309v-666z" />
    <glyph glyph-name="eth" unicode="&#xf0;" horiz-adv-x="1479" 
d="M1319 815h-156v277q0 187 -139 307q-127 110 -291 112q-166 2 -290 -125t-124 -294v-1092h-157v1092q0 240 172 409q169 167 395 168q250 2 420 -162.5t170 -414.5v-277z" />
    <glyph glyph-name="ntilde" unicode="&#xf1;" 
d="M1006 0h-140v668q0 123 -85.5 209t-211.5 86q-121 0 -209 -86t-88 -211v-1065h-139v1064q0 181 127.5 309t308.5 128q190 0 315 -128q122 -124 122 -308v-666z" />
    <glyph glyph-name="ograve" unicode="&#xf2;" horiz-adv-x="1794" 
d="M1706 508q0 -200 -229.5 -373.5t-530.5 -175.5q-276 -1 -504 156q-238 165 -241 397l157 12q14 -164 205 -288q181 -118 387 -119q177 -1 371 104q225 121 227 283q2 131 -106 217q-130 104 -410 104h-932v158h357q-64 6 -119 90q-52 80 -53 164q-2 187 217 317
q198 117 444 117q232 0 430 -106q238 -127 238 -340q0 -92 -80 -193q-87 -110 -207 -110q145 -13 262 -134t117 -280zM1452 1229q2 118 -176 205q-154 75 -330 77q-171 1 -328 -75q-172 -84 -172 -205q0 -247 492 -250q511 -3 514 248z" />
    <glyph glyph-name="oacute" unicode="&#xf3;" horiz-adv-x="1335" 
d="M1202 39q0 -190 -148 -315q-144 -123 -358 -123h-106v135h106q155 0 258 83q107 86 107 222v121q-158 -191 -428 -193q-234 -2 -396.5 166t-164.5 402q-2 233 163 399t402 166q225 0 385 -141q180 -159 180 -424v-498zM1065 537q1 174 -121 298q-125 126 -307 128
q-174 1 -300 -123t-128 -303q-1 -177 122 -301.5t306 -126.5q178 -1 302 122.5t126 305.5z" />
    <glyph glyph-name="ocircumflex" unicode="&#xf4;" horiz-adv-x="662" 
d="M662 825h-343v-825h-157v1630h157v-647h343v-158z" />
    <glyph glyph-name="otilde" unicode="&#xf5;" horiz-adv-x="715" 
d="M715 0h-582v1071h139v-932h443v-139z" />
    <glyph glyph-name="odieresis" unicode="&#xf6;" horiz-adv-x="1917" 
d="M1812 815q0 -334 -224.5 -567t-557.5 -236v-63h-158v63q-321 0 -545.5 232t-226.5 571q-1 329 224 567q222 234 548 234v65h158v-65q334 0 558 -233t224 -568zM1655 815q0 271 -182 457q-179 183 -443 186v-1288q255 0 440 186t185 459zM872 172v1286q-253 0 -432.5 -187
t-181.5 -456q-2 -271 182 -457q181 -183 432 -186z" />
    <glyph glyph-name="divide" unicode="&#xf7;" horiz-adv-x="1872" 
d="M1739 0h-140v668q0 123 -86 209t-210 86q-123 0 -210 -87t-87 -210v-1065h-140v512q-38 -61 -127 -103q-84 -40 -170 -41q-180 -2 -308 126t-128 311v665h139v-668q0 -122 86 -208t211 -86q123 0 210 87t87 210v1064h140v-512q42 66 131 106q81 37 166 38q174 2 307 -129
q129 -128 129 -307v-666z" />
    <glyph glyph-name="oslash" unicode="&#xf8;" horiz-adv-x="1659" 
d="M1534 164h-1036v-164h-158v164h-340v158h340v778q0 243 170.5 405.5t396.5 163.5q239 2 408 -151q180 -163 182 -426q1 -252 -172 -416q-170 -160 -418 -162q-118 -1 -233 58q-120 62 -176 161v-411h1036v-158zM1339 1096q1 171 -122 297q-121 123 -299 123
q-175 0 -297.5 -122.5t-122.5 -297.5t122.5 -297.5t297.5 -122.5q174 0 296.5 122.5t124.5 297.5z" />
    <glyph glyph-name="ugrave" unicode="&#xf9;" horiz-adv-x="1399" 
d="M1327 537q0 -234 -158 -399q-163 -169 -403 -169q-266 0 -428 213v-370h973v-140h-973v-71h-141v71h-197v140h197v725q0 248 166 409q162 156 399 156q234 0 399.5 -166.5t165.5 -398.5zM1190 537q1 171 -121 297q-126 127 -307 129q-174 1 -299 -123t-127 -303
q-1 -175 120 -299q124 -127 306 -129q178 -1 302 122.5t126 305.5z" />
    <glyph glyph-name="uacute" unicode="&#xfa;" horiz-adv-x="1917" 
d="M1812 815q0 -360 -248 -607t-608 -249q-355 -1 -606 250q-248 248 -250 606q-1 357 249 606q249 246 607 248q350 1 605 -250q251 -248 251 -604zM1655 815q1 286 -207 492q-205 203 -494 204q-290 1 -493 -202.5t-203 -493.5q0 -292 202 -494t494 -204q285 -1 494 205
q206 203 207 493z" />
    <glyph glyph-name="ucircumflex" unicode="&#xfb;" horiz-adv-x="1274" 
d="M1202 535q0 -234 -166 -402q-161 -162 -399 -164q-236 -2 -401 164q-162 162 -164 402q-2 237 163 402t402 165q236 0 400.5 -165.5t164.5 -401.5zM1065 535q2 191 -145 322q-117 105 -283 106q-178 1 -301 -124.5t-125 -303.5t123 -301t303 -125q174 -1 300 121.5
t128 304.5z" />
    <glyph glyph-name="udieresis" unicode="&#xfc;" horiz-adv-x="1913" 
d="M1810 782q0 -315 -237 -561q-251 -260 -621 -262q-362 -1 -616 268q-244 259 -236 568l2 77l158 -10l-2 -67q-7 -226 166 -433q177 -211 453 -241v887q-188 0 -319 91.5t-132 235.5q-2 159 145 246q165 98 377 88l86 -4v-508q390 0 555 -63q221 -84 221 -312zM879 1165
v342q-128 0 -213 -45q-80 -43 -82 -123q-1 -78 84 -127q76 -44 211 -47zM1651 782q1 128 -189 179q-131 35 -428 38v-878q234 24 416 198q199 190 201 463z" />
    <glyph glyph-name="yacute" unicode="&#xfd;" horiz-adv-x="1501" 
d="M1427 537q2 -225 -165.5 -396.5t-397.5 -171.5h-47v-368h-139v368h-47q-228 0 -395.5 166.5t-167.5 394.5v80h139v-73q0 -188 127 -308q113 -107 301 -120l43 -3v857h-51q-115 0 -197 55q-101 67 -102 196q-2 135 106 203q84 53 201 53h182l2 -368h62q226 0 395 -191
q150 -169 151 -374zM678 1102v229h-47q-79 0 -115 -22q-49 -30 -49 -99q0 -52 45 -80t119 -28h47zM1288 537q0 170 -118 296q-121 130 -289 130h-64v-857h47q178 0 301 132t123 299z" />
    <glyph glyph-name="thorn" unicode="&#xfe;" horiz-adv-x="455" 
d="M258 1311q0 -72 -29 -121q-26 -43 -75 -68l-25 45q55 28 55 144h-84v157h158v-157z" />
    <glyph glyph-name="ydieresis" unicode="&#xff;" horiz-adv-x="455" 
d="M258 1311q0 -72 -29 -121q-26 -43 -75 -68l-25 45q55 28 55 144h-84v157h158v-157z" />
    </font>
</defs>
</svg>
