<?xml version="1.0" encoding="utf-8"?>
<!-- Generator: Adobe Illustrator 17.0.0, SVG Export Plug-In . SVG Version: 6.00 Build 0)  -->
<!DOCTYPE svg PUBLIC "-//W3C//DTD SVG 1.1//EN" "http://www.w3.org/Graphics/SVG/1.1/DTD/svg11.dtd">
<svg version="1.1" id="Layer_1" xmlns="http://www.w3.org/2000/svg" xmlns:xlink="http://www.w3.org/1999/xlink" x="0px" y="0px"
	 width="214.93px" height="64px" viewBox="0 0 214.93 64" enable-background="new 0 0 214.93 64" xml:space="preserve">
<path fill="#231F20" d="M2.758,60.719L2.81,3.09l209.364,0.191L212.12,60.91L2.758,60.719z M0.058,0L0,63.805L214.873,64
	l0.057-63.805L0.058,0z"/>
<g>
	<defs>
		<rect id="SVGID_1_" width="214.93" height="64"/>
	</defs>
	<clipPath id="SVGID_2_">
		<use xlink:href="#SVGID_1_"  overflow="visible"/>
	</clipPath>
	<path clip-path="url(#SVGID_2_)" fill="#231F20" d="M1.392,1.336L1.337,62.74l51.633,0.047l0.055-61.404L1.392,1.336z
		 M30.789,32.705c0.644-0.873,1.52-1.691,2.624-2.451c1.105-0.76,2.279-1.507,3.522-2.245c0.046,1.014,0,1.992-0.138,2.935
		c-0.138,0.945-0.495,1.831-1.07,2.658c-0.577,0.83-1.336,1.59-2.279,2.281c-0.945,0.689-1.992,1.357-3.143,2.003v3.382l0.484-0.828
		c0.644-0.874,1.52-1.692,2.624-2.451c1.105-0.761,2.279-1.508,3.522-2.244c0.046,1.013,0,1.991-0.138,2.935s-0.495,1.83-1.07,2.658
		c-0.577,0.829-1.336,1.589-2.279,2.279c-0.945,0.692-1.992,1.359-3.143,2.003v2.693h-2.9V45.62
		c-1.151-0.644-2.199-1.311-3.143-2.003c-0.943-0.69-1.715-1.427-2.312-2.21c-0.553-0.874-0.899-1.783-1.037-2.727
		c-0.138-0.944-0.184-1.922-0.138-2.935c1.243,0.736,2.417,1.483,3.522,2.244c1.105,0.759,1.98,1.577,2.625,2.451l0.483,0.828
		v-3.382c-1.151-0.646-2.199-1.314-3.143-2.003c-0.943-0.691-1.703-1.451-2.279-2.281c-0.575-0.827-0.932-1.713-1.07-2.658
		c-0.138-0.943-0.184-1.921-0.138-2.935c1.243,0.738,2.417,1.485,3.522,2.245s1.98,1.578,2.625,2.451l0.483,0.829V30.15
		c-1.151-0.644-2.199-1.312-3.143-2.003c-0.943-0.69-1.703-1.45-2.279-2.279c-0.575-0.828-0.932-1.714-1.07-2.658
		c-0.138-0.943-0.184-1.922-0.138-2.935c1.243,0.737,2.417,1.485,3.522,2.244s1.98,1.578,2.625,2.452
		c0.138,0.184,0.252,0.415,0.345,0.691c-0.231-0.921-0.369-1.819-0.415-2.693c0-1.106,0.196-2.222,0.588-3.35
		c0.391-1.128,0.84-2.267,1.347-3.419c0.552,1.06,1.023,2.141,1.415,3.246c0.39,1.106,0.61,2.21,0.656,3.315
		c0,0.966-0.138,1.911-0.415,2.831l0.346-0.621c0.644-0.874,1.52-1.693,2.624-2.452c1.105-0.759,2.279-1.507,3.522-2.244
		c0.046,1.013,0,1.992-0.138,2.935c-0.138,0.944-0.495,1.83-1.07,2.658c-0.577,0.829-1.336,1.589-2.279,2.279
		c-0.945,0.691-1.992,1.359-3.143,2.003v3.384L30.789,32.705z"/>
</g>
<text transform="matrix(1 0 0 1 67.0146 38.9746)"><tspan x="0" y="0" font-family="'ModernSans'" font-size="21.3616" letter-spacing="4">MI</tspan><tspan x="34.652" y="0" font-family="'ModernSans'" font-size="21.3616" letter-spacing="4">E</tspan><tspan x="51.951" y="0" font-family="'ModernSans'" font-size="21.3616" letter-spacing="4">QUI</tspan><tspan x="102.735" y="0" font-family="'ModernSans'" font-size="21.3616" letter-spacing="4">T</tspan><tspan x="120.035" y="0" font-family="'ModernSans'" font-size="21.3616">Y</tspan></text>
</svg>
