<svg xmlns="http://www.w3.org/2000/svg" viewBox="0 0 426.667 426.667"><path d="M117.043 26.859c-.017.043-.043.064-.051.102l-2.3 3.972c-.051.081-.09.171-.124.256L75.102 99.503l83.541 48.23 38.34-66.402 4.8-8.311 11.558-20.006 27.831-48.235h-83.533c-17.014-.009-31.99 8.789-40.596 22.08z" fill="#6ac259"/><path d="M310.793 28.885c-4.083-7.095-10.048-13.257-17.651-17.651a48.055 48.055 0 0 0-24.124-6.464H157.645c16.981 0 31.91 8.742 40.542 21.973l2.607 4.548 67.251 116.433 83.52-48.226-40.772-70.613z" fill="#6ac259"/><path fill="#6ac259" d="M227.925 147.729h95.8l47.902-82.952z"/><path d="M421.35 220.378c-.017-.03-.026-.055-.068-.09l-2.291-3.981c-.034-.09-.107-.171-.141-.239l-39.441-68.331-83.541 48.23 38.349 66.402 4.8 8.32L350.55 290.7l27.857 48.222 41.775-72.341c8.511-14.737 8.375-32.102 1.168-46.203z" fill="#8ee213"/><path d="M322.718 387.166a47.977 47.977 0 0 0 24.107-6.464 48.099 48.099 0 0 0 17.66-17.651l41.766-72.346 13.935-24.124c-8.499 14.699-23.518 23.266-39.292 24.111h-5.265l-134.451.013v96.457h81.54v.004z" fill="#94f506"/><path fill="#94f506" d="M261.218 255.983l-47.876 82.952 47.876 82.962z"/><path d="M185.476 290.697H99.183l-23.1-.004-55.684.004 41.758 72.346c8.516 14.733 23.607 23.305 39.424 24.111.043-.004.068 0 .115 0h4.591c.09.013.192 0 .29-.013l78.891.013v-96.457h.008z" fill="#6ac259"/><path d="M6.451 218.347C2.377 225.438 0 233.673 0 242.462c0 8.785 2.377 17.011 6.451 24.111l41.775 72.337 13.935 24.128c-8.482-14.699-8.384-32-1.242-46.093l2.624-4.548 67.226-116.442-83.541-48.235-40.777 70.627z" fill="#6ac259"/><path fill="#6ac259" d="M150.81 230.682l-47.885-82.953-95.791-.013z"/></svg>