<svg xmlns="http://www.w3.org/2000/svg" viewBox="9.48 75 37.307 37.307">
  <defs>
    <style>
      .cls-1 {
        fill: #f2f2f2;
      }

      .cls-2 {
        fill: #cdd6e0;
      }

      .cls-3 {
        fill: #ffd15c;
      }

      .cls-4 {
        fill: #f8b64c;
      }

      .cls-5 {
        fill: #ff7058;
      }
    </style>
  </defs>
  <g id="exchange" transform="translate(9.48 75)">
    <circle id="Ellipse_60" data-name="Ellipse 60" class="cls-1" cx="12.436" cy="12.436" r="12.436" transform="translate(0 0)"/>
    <circle id="Ellipse_61" data-name="Ellipse 61" class="cls-2" cx="10.337" cy="10.337" r="10.337" transform="translate(2.099 2.099)"/>
    <path id="Path_319" data-name="Path 319" class="cls-1" d="M107.87,87.116a4.377,4.377,0,0,1-4.741,4.119,4.232,4.232,0,0,1-3.42-1.4,6.57,6.57,0,0,1-1.554-3.575H97.067V85.1H98V83.929h-.933V82.764h1.088a5.54,5.54,0,0,1,1.865-3.653,4.684,4.684,0,0,1,3.109-1.244,4.751,4.751,0,0,1,3.187,1.01,4.415,4.415,0,0,1,1.554,2.953l-2.176.233c-.311-1.632-1.166-2.487-2.565-2.487a2.054,2.054,0,0,0-1.632.777,3.562,3.562,0,0,0-.933,2.332h2.953v1.166h-3.031v1.166h3.031v1.166h-2.953a3.658,3.658,0,0,0,1.088,2.332,2.842,2.842,0,0,0,1.788.777,1.957,1.957,0,0,0,1.554-.7,2.9,2.9,0,0,0,.777-1.788Z" transform="translate(-89.994 -72.193)"/>
    <circle id="Ellipse_62" data-name="Ellipse 62" class="cls-3" cx="12.436" cy="12.436" r="12.436" transform="translate(12.436 12.436)"/>
    <circle id="Ellipse_63" data-name="Ellipse 63" class="cls-4" cx="10.182" cy="10.182" r="10.182" transform="translate(14.69 14.69)"/>
    <path id="Path_320" data-name="Path 320" class="cls-3" d="M285.331,260.656a5.948,5.948,0,0,1-3.731-1.632l1.244-1.71a4.07,4.07,0,0,0,2.487,1.321v-2.409c-1.632-.389-3.342-1.01-3.342-3.109a3.272,3.272,0,0,1,3.342-3.109v-1.477h1.477v1.477a5.7,5.7,0,0,1,3.187,1.4l-1.244,1.632a3.916,3.916,0,0,0-1.943-1.01V254.2c1.632.389,3.42,1.01,3.42,3.187,0,1.71-1.166,3.109-3.42,3.342v1.4h-1.477v-1.477Zm0-6.84v-1.865c-.7.078-1.088.466-1.088,1.01C284.243,253.428,284.709,253.661,285.331,253.816Zm1.477,2.8v2.1c.777-.155,1.166-.622,1.166-1.088C287.973,257.081,287.507,256.848,286.807,256.614Z" transform="translate(-261.081 -230.422)"/>
    <g id="Group_312" data-name="Group 312" transform="translate(1.477 0)">
      <path id="Path_321" data-name="Path 321" class="cls-5" d="M356.438,9.871a9.061,9.061,0,0,0-6.062-9.4A7.9,7.9,0,0,0,347.733,0V2.021a6.206,6.206,0,0,1,2.021.389,7.191,7.191,0,0,1,4.741,7.539H352.63l2.876,3.731,2.8-3.886Z" transform="translate(-323.872 0)"/>
      <path id="Path_322" data-name="Path 322" class="cls-5" d="M22.131,328.075a9.247,9.247,0,0,0,6.062,9.4,7.9,7.9,0,0,0,2.643.466v-2.021a6.206,6.206,0,0,1-2.021-.389A7.191,7.191,0,0,1,24.074,328H25.94l-2.876-3.731-2.8,3.886Z" transform="translate(-20.266 -300.639)"/>
    </g>
  </g>
</svg>
