<?xml version="1.0" encoding="utf-8"?>
<!-- Generator: Adobe Illustrator 21.1.0, SVG Export Plug-In . SVG Version: 6.00 Build 0)  -->
<svg version="1.1" id="Capa_1" xmlns="http://www.w3.org/2000/svg" xmlns:xlink="http://www.w3.org/1999/xlink" x="0px" y="0px"
	 viewBox="0 0 25 25" style="enable-background:new 0 0 25 25;" xml:space="preserve">
<style type="text/css">
	.st0{fill:#FFFFFF;}
</style>
<g id="BTC_2_">
	<path class="st0" d="M14.3,14.4c-0.2-0.3-0.7-0.7-1.4-1.1c-0.7-0.4-1.6-0.7-1.6-0.7l-1.4,3c0,0,0.9,0.5,1.6,0.7
		c0.6,0.2,1.4,0.4,1.8,0.4c0.4,0,0.9-0.1,1.2-0.8C14.8,15.2,14.5,14.7,14.3,14.4z"/>
	<path class="st0" d="M13.2,11.8c0.5,0.2,1.1,0.4,1.6,0.3c0.5,0,0.9-0.3,1.1-0.8c0.2-0.5,0.1-1.1-0.4-1.6c-0.5-0.4-0.9-0.6-1.3-0.9
		c-0.4-0.2-0.9-0.4-0.9-0.4L12,11.2C12,11.2,12.7,11.5,13.2,11.8z"/>
	<path class="st0" d="M17.9,1.2c-6.2-3-13.7-0.3-16.7,5.9c-3,6.2-0.3,13.7,5.9,16.7s13.7,0.3,16.7-5.9C26.8,11.6,24.1,4.2,17.9,1.2z
		 M15,19c-1.1,0.2-2.1-0.1-2.5-0.3c-0.2-0.1-0.6-0.2-0.9-0.3l-1.1,2.3L9.2,20l1.1-2.2c-0.3-0.1-0.6-0.3-1.1-0.5l-1.1,2.2l-1.4-0.7
		l1.1-2.2C6.4,15.9,5,15.3,5,15.3l1.1-1.5c0,0,0.6,0.3,0.8,0.4c0.3,0.1,0.4,0.2,0.6,0.1c0.2-0.1,0.3-0.2,0.3-0.3
		c0.1-0.1,2.6-5.4,2.7-5.8c0.2-0.4,0.2-0.5,0.1-0.7c-0.1-0.3-0.5-0.5-0.7-0.6C9.8,6.7,9.2,6.4,9.2,6.4L9.9,5c0,0,1.3,0.6,2.7,1.3
		l1.1-2.2l1.4,0.7L14,7c0.4,0.2,0.8,0.4,1.1,0.5l1.1-2.2l1.4,0.7l-1.1,2.3c1,0.6,1.7,1.1,2.1,1.9c0.6,1.1,0,2.2-0.2,2.4
		c-0.1,0.3-0.5,0.7-0.9,0.9c-0.4,0.2-1.1,0.3-1.1,0.3s0.6,0.5,0.9,1c0.3,0.6,0.4,1.4-0.1,2.3C16.8,18,16.2,18.8,15,19z"/>
</g>
</svg>
