<?xml version="1.0" encoding="utf-8"?>
<!-- Generator: Adobe Illustrator 21.1.0, SVG Export Plug-In . SVG Version: 6.00 Build 0)  -->
<svg version="1.1" id="Capa_1" xmlns="http://www.w3.org/2000/svg" xmlns:xlink="http://www.w3.org/1999/xlink" x="0px" y="0px"
	 viewBox="0 0 25 25" style="enable-background:new 0 0 25 25;" xml:space="preserve">
<style type="text/css">
	.st0{fill:#FFFFFF;}
</style>
<g>
	<path class="st0" d="M17.9,1.6l-2.8,0c-3.2,0-5.2,2.1-5.2,5.4v2.5H7.1c-0.2,0-0.4,0.2-0.4,0.4v3.6c0,0.2,0.2,0.4,0.4,0.4h2.8v9
		c0,0.2,0.2,0.4,0.4,0.4H14c0.2,0,0.4-0.2,0.4-0.4v-9h3.3c0.2,0,0.4-0.2,0.4-0.4l0-3.6c0-0.1,0-0.2-0.1-0.3
		c-0.1-0.1-0.2-0.1-0.3-0.1h-3.3V7.3c0-1,0.2-1.5,1.6-1.5l1.9,0c0.2,0,0.4-0.2,0.4-0.4V2.1C18.4,1.8,18.2,1.6,17.9,1.6z"/>
</g>
</svg>
