<?xml version="1.0" encoding="utf-8"?>
<!-- Generator: Adobe Illustrator 21.1.0, SVG Export Plug-In . SVG Version: 6.00 Build 0)  -->
<svg version="1.1" id="Capa_1" xmlns="http://www.w3.org/2000/svg" xmlns:xlink="http://www.w3.org/1999/xlink" x="0px" y="0px"
	 viewBox="0 0 25 25" style="enable-background:new 0 0 25 25;" xml:space="preserve">
<style type="text/css">
	.st0{fill:#FFFFFF;}
</style>
<g>
	<path class="st0" d="M23.3,6.5c-1.1-1.9-2.6-3.4-4.5-4.5c-1.9-1.1-4-1.7-6.3-1.7c-2.3,0-4.4,0.6-6.3,1.7C4.3,3.1,2.8,4.6,1.7,6.5
		C0.6,8.4,0,10.5,0,12.8c0,2.7,0.8,5.2,2.4,7.3C4,22.3,6,23.8,8.5,24.7c0.3,0.1,0.5,0,0.7-0.1c0.1-0.1,0.2-0.3,0.2-0.5
		c0,0,0-0.3,0-0.9c0-0.6,0-1,0-1.4L9,21.8c-0.2,0-0.5,0.1-0.9,0.1c-0.4,0-0.7,0-1.1-0.1c-0.4-0.1-0.8-0.2-1.1-0.5
		c-0.3-0.3-0.6-0.6-0.7-1L5,19.9c-0.1-0.2-0.3-0.5-0.5-0.8c-0.2-0.3-0.5-0.5-0.7-0.6l-0.1-0.1c-0.1-0.1-0.1-0.1-0.2-0.2
		c-0.1-0.1-0.1-0.2-0.1-0.2c0-0.1,0-0.1,0.1-0.2c0.1,0,0.2-0.1,0.5-0.1l0.3,0c0.2,0,0.5,0.2,0.8,0.4c0.3,0.2,0.6,0.5,0.8,0.8
		c0.2,0.4,0.6,0.8,0.9,1c0.4,0.2,0.7,0.3,1.1,0.3c0.4,0,0.7,0,0.9-0.1C9,20.2,9.2,20.1,9.4,20c0.1-0.7,0.4-1.3,0.8-1.7
		C9.6,18.3,9,18.2,8.6,18c-0.5-0.1-1-0.3-1.5-0.6c-0.5-0.3-1-0.7-1.3-1.1c-0.3-0.4-0.6-1-0.9-1.7c-0.2-0.7-0.3-1.5-0.3-2.4
		c0-1.3,0.4-2.4,1.3-3.4c-0.4-1-0.4-2.1,0.1-3.3c0.3-0.1,0.8,0,1.4,0.2c0.6,0.2,1.1,0.5,1.4,0.6C9,6.5,9.2,6.6,9.4,6.8
		c1-0.3,2.1-0.4,3.1-0.4s2.1,0.1,3.1,0.4l0.6-0.4c0.4-0.3,0.9-0.5,1.5-0.7c0.6-0.2,1-0.3,1.3-0.2c0.5,1.2,0.5,2.3,0.1,3.3
		c0.9,0.9,1.3,2,1.3,3.4c0,0.9-0.1,1.7-0.3,2.4c-0.2,0.7-0.5,1.3-0.9,1.7c-0.4,0.4-0.8,0.8-1.3,1.1c-0.5,0.3-1,0.5-1.5,0.6
		c-0.5,0.1-1,0.2-1.7,0.3c0.6,0.5,0.8,1.3,0.8,2.3v3.4c0,0.2,0.1,0.4,0.2,0.5c0.1,0.1,0.3,0.2,0.6,0.1c2.5-0.8,4.6-2.3,6.2-4.5
		c1.6-2.2,2.4-4.6,2.4-7.3C25,10.5,24.4,8.4,23.3,6.5z"/>
</g>
</svg>
