<?xml version="1.0" encoding="utf-8"?>
<!-- Generator: Adobe Illustrator 21.1.0, SVG Export Plug-In . SVG Version: 6.00 Build 0)  -->
<svg version="1.1" id="Capa_1" xmlns="http://www.w3.org/2000/svg" xmlns:xlink="http://www.w3.org/1999/xlink" x="0px" y="0px"
	 viewBox="0 0 25 25" style="enable-background:new 0 0 25 25;" xml:space="preserve">
<style type="text/css">
	.st0{fill:#FFFFFF;}
</style>
<path class="st0" d="M3.5,1.1h17.9c1.3,0,2.4,1.1,2.4,2.4v17.9c0,1.3-1.1,2.4-2.4,2.4H3.5c-1.3,0-2.4-1.1-2.4-2.4V3.5
	C1.1,2.2,2.2,1.1,3.5,1.1z M4.2,11.4c0,1.3,0.5,2.6,1.2,3.5C5.9,15.5,7.1,16.7,8,17c-0.2,1.4-1.3,3.6-0.4,3.2l2-1.3
	c1.8-1.3,1-0.8,3.1-0.8c4.1,0,8.1-2.7,8.1-6.6c0-4-4.1-6.5-8.4-6.5C8.3,4.9,4.2,7.5,4.2,11.4z M9.1,10H8.3v3c0,0.1-0.1,0.3-0.1,0.3
	c-0.1,0.1-0.2,0.1-0.3,0.1c-0.1,0-0.2,0-0.3-0.1c-0.1-0.1-0.1-0.2-0.1-0.3v-3H6.6c-0.1,0-0.2,0-0.3,0C6.2,9.9,6.2,9.8,6.2,9.7
	c0-0.1,0-0.2,0.1-0.2c0.1-0.1,0.2-0.1,0.3-0.1h2.5c0.2,0,0.3,0,0.3,0.1c0.1,0,0.1,0.1,0.1,0.2c0,0.1,0,0.2-0.1,0.3
	C9.4,10,9.3,10,9.1,10z M11.7,12.8l-0.2-0.4H9.9l-0.2,0.5c-0.1,0.1-0.1,0.3-0.2,0.3c0,0.1-0.1,0.1-0.2,0.1s-0.2,0-0.3-0.1
	c-0.1,0-0.1-0.1-0.1-0.2s0-0.1,0-0.2c0,0,0.1-0.1,0.1-0.2l1-2.5c0-0.1,0.1-0.2,0.1-0.3s0.1-0.2,0.1-0.2c0.1-0.1,0.1-0.2,0.2-0.2
	c0.1-0.1,0.2-0.1,0.3-0.1s0.2,0,0.3,0.1l0.1,0.1c0.1,0.1,0.1,0.2,0.1,0.3c0.1,0,0.1,0.1,0.2,0.3l1,2.5c0.1,0.2,0.1,0.3,0.1,0.4
	s0,0.2-0.1,0.2c-0.1,0.1-0.2,0.1-0.3,0.1H12c-0.1,0-0.1,0-0.2-0.1c0,0,0-0.1-0.1-0.1C11.7,13,11.7,12.9,11.7,12.8z M10.1,11.8h1.2
	l-0.6-1.6L10.1,11.8z M13.5,9.8v2.8h1.1c0.1,0,0.2,0.1,0.3,0.1C15,12.8,15,12.9,15,13s0,0.1-0.1,0.2s-0.2,0.1-0.3,0.1h-1.4
	c-0.2,0-0.3-0.1-0.4-0.1c-0.1-0.1-0.1-0.2-0.1-0.4V9.8c0-0.2,0-0.3,0.1-0.4c0.1,0,0.1-0.1,0.3-0.1c0.1,0,0.2,0.1,0.2,0.1
	C13.4,9.4,13.5,9.5,13.5,9.8z M16,9.8v1.4l1.6-1.6c0.1-0.1,0.1-0.2,0.2-0.2c0-0.1,0.1-0.1,0.2-0.1s0.2,0.1,0.3,0.1
	c0,0.1,0.1,0.2,0.1,0.3c0,0.1-0.1,0.2-0.2,0.3l-1,0.9l1.1,1.6c0.1,0.1,0.2,0.2,0.2,0.3c0.1,0.1,0.1,0.1,0.1,0.2s-0.1,0.2-0.1,0.3
	c-0.1,0-0.2,0-0.3,0c-0.1,0-0.2,0-0.3,0c0-0.1-0.1-0.1-0.1-0.2c-0.1-0.1-0.1-0.2-0.2-0.2l-0.9-1.5L16,12.1v0.8c0,0.1,0,0.3-0.1,0.3
	c0,0.1-0.1,0.1-0.2,0.1s-0.2,0-0.2,0c-0.1,0-0.2-0.1-0.2-0.1c0-0.1,0-0.2,0-0.2c0-0.1,0-0.2,0-0.3v-3c0-0.2,0-0.3,0.1-0.4
	c0,0,0.1-0.1,0.3-0.1c0.1,0,0.2,0.1,0.2,0.1C16,9.4,16,9.5,16,9.8z"/>
</svg>
