<?xml version="1.0" encoding="utf-8"?>
<!-- Generator: Adobe Illustrator 21.1.0, SVG Export Plug-In . SVG Version: 6.00 Build 0)  -->
<svg version="1.1" id="Capa_1" xmlns="http://www.w3.org/2000/svg" xmlns:xlink="http://www.w3.org/1999/xlink" x="0px" y="0px"
	 viewBox="0 0 25 25" style="enable-background:new 0 0 25 25;" xml:space="preserve">
<style type="text/css">
	.st0{fill:#FFFFFF;}
</style>
<g>
	<path id="LinkedIn" class="st0" d="M25,15.2v9.2h-5.4v-8.6c0-2.2-0.8-3.6-2.7-3.6c-1.5,0-2.4,1-2.7,2C14,14.5,14,15,14,15.4v9H8.6
		c0,0,0.1-14.6,0-16.1H14v2.3c0,0,0,0,0,0.1h0v-0.1C14.7,9.5,16,8,18.8,8C22.3,8,25,10.3,25,15.2z M3,0.6c-1.8,0-3,1.2-3,2.8
		c0,1.5,1.2,2.8,3,2.8h0c1.9,0,3-1.2,3-2.8C6,1.8,4.9,0.6,3,0.6z M0.3,24.4h5.4V8.3H0.3V24.4z"/>
</g>
</svg>
