<?xml version="1.0" encoding="utf-8"?>
<!-- Generator: Adobe Illustrator 21.1.0, SVG Export Plug-In . SVG Version: 6.00 Build 0)  -->
<svg version="1.1" id="Capa_1" xmlns="http://www.w3.org/2000/svg" xmlns:xlink="http://www.w3.org/1999/xlink" x="0px" y="0px"
	 viewBox="0 0 25 25" style="enable-background:new 0 0 25 25;" xml:space="preserve">
<style type="text/css">
	.st0{fill:#FFFFFF;}
</style>
<g>
	<path class="st0" d="M20.1,23.7c-0.2,0-0.4-0.1-0.6-0.2l-6.3-4.3l-3.4,2.4c-0.3,0.2-0.6,0.2-0.9,0.1c-0.3-0.1-0.5-0.4-0.6-0.7
		l-1.7-6.4l-6-2.3C0.3,12.2,0,11.9,0,11.5c0-0.4,0.2-0.8,0.6-0.9l23-9.2c0.1,0,0.2-0.1,0.3-0.1c0,0,0.1,0,0.1,0
		c0.2,0,0.5,0.1,0.6,0.3c0,0,0,0,0.1,0.1C24.9,1.8,25,2,25,2.2c0,0.1,0,0.1,0,0.2c0,0,0,0.1,0,0.1l-3.9,20.4
		c-0.1,0.3-0.3,0.6-0.6,0.7C20.4,23.7,20.3,23.7,20.1,23.7z M13.8,17.2l5.6,3.8l3-15.8L11.5,15.7L13.8,17.2
		C13.8,17.2,13.8,17.2,13.8,17.2z M9.2,16.4l0.7,2.8l1.6-1.2l-2.1-1.4C9.3,16.6,9.2,16.5,9.2,16.4z M3.7,11.5L7.9,13
		c0.3,0.1,0.5,0.4,0.6,0.7l0.5,2c0-0.2,0.1-0.4,0.3-0.6l10.4-10L3.7,11.5z"/>
</g>
</svg>
