<?xml version="1.0" standalone="no"?>
<!DOCTYPE svg PUBLIC "-//W3C//DTD SVG 1.1//EN" "http://www.w3.org/Graphics/SVG/1.1/DTD/svg11.dtd" >
<svg xmlns="http://www.w3.org/2000/svg" xmlns:xlink="http://www.w3.org/1999/xlink" version="1.1">
<metadata>
Created by FontForge 20170910 at Tue Jan  5 18:03:58 2016
 By Jimmy Wärting
Copyright \(c\) 2015 by Jonathan Hill. All rights reserved.
</metadata>
<defs>
<font id="Celdum-Bold" horiz-adv-x="0" >
  <font-face 
    font-family="Celdum Bold"
    font-weight="700"
    font-stretch="normal"
    units-per-em="1000"
    panose-1="0 0 8 0 0 0 0 0 0 0"
    ascent="750"
    descent="-250"
    x-height="500"
    cap-height="700"
    bbox="-911.63 -302.642 1320.03 1161.79"
    underline-thickness="50"
    underline-position="-100"
    stemh="124"
    stemv="132"
    unicode-range="U+0020-FB02"
  />
<missing-glyph horiz-adv-x="500" 
d="M410 750v-1000h-317v1000h317zM333 683h-165v-33h65v-37h-66v-33h166v33h-66v37h66v33zM267 554h-100v-104h166v34h-66v70zM233 520v-36h-33v36h33zM333 423h-166v-33h66v-37h-66v-33h100v70h66v33zM333 363h-33v-66h-133v-34h166v100zM333 241h-100v-56h34v23h33v-47
h-100v80h-33v-113h166v113zM333 68h-166v-113h166v113zM300 35v-47h-100v47h100zM333 -68h-166v-33h70l-70 -47v-33h166v33h-102l70 47h32v33z" />
    <glyph glyph-name="f_f_i" unicode="ffi" horiz-adv-x="1045" 
d="M907.87 500l-0.00195312 -500h-125.6v386.81h-213.62v-386.81h-125.6v386.81h-213.62v-386.81h-125.6v386.81h-76.7695v113.19h76.7695v50c0 104 56 160 160 160h121.23v-114.95h-107.68c-37.4902 0 -47.9502 -9.16016 -47.9502 -55.7998v-39.25h213.62v50
c0 104 56 160 160 160h121.23v-114.95h-107.68c-37.4902 0 -47.9502 -9.16016 -47.9502 -55.7998v-39.25h339.22z" />
    <glyph glyph-name="f_f_l" unicode="ffl" horiz-adv-x="988" 
d="M443.05 550c0 104 55.998 160 159.998 160h121.23v-114.95h-107.68c-37.4902 0 -47.9502 -9.16016 -47.9502 -55.7998v-39.25h129.71v-113.19h-129.71v-386.81h-125.6v386.81h-213.62v-386.81h-125.6v386.81h-76.7695v113.19h76.7695v50c0 104 56 160 160 160h121.23
v-114.95h-107.68c-37.4902 0 -47.9502 -9.16016 -47.9502 -55.7998v-39.25h213.62v50zM798.098 700h125.6v-700h-125.6v700z" />
    <glyph glyph-name="fi" unicode="fi" horiz-adv-x="638" 
d="M566.59 500l-0.000976562 -500h-125.6v386.81h-213.62v-386.81h-125.6v386.81h-76.7695v113.19h76.7695v50c0 104 56 160 160 160h121.23v-114.95h-107.68c-37.4902 0 -47.9502 -9.16016 -47.9502 -55.7998v-39.25h339.22z" />
    <glyph glyph-name="fl" unicode="fl" horiz-adv-x="648" 
d="M103.83 550c0 104 55.999 160 159.999 160h121.23v-114.95h-107.68c-37.4902 0 -47.9502 -9.16016 -47.9502 -55.7998v-39.25h129.71v-113.19h-129.71v-386.81h-125.6v386.81h-76.7695v113.19h76.7695v50zM458.879 700h125.6v-700h-125.6v700z" />
    <glyph glyph-name=".notdef" horiz-adv-x="500" 
d="M410 750v-1000h-317v1000h317zM333 683h-165v-33h65v-37h-66v-33h166v33h-66v37h66v33zM267 554h-100v-104h166v34h-66v70zM233 520v-36h-33v36h33zM333 423h-166v-33h66v-37h-66v-33h100v70h66v33zM333 363h-33v-66h-133v-34h166v100zM333 241h-100v-56h34v23h33v-47
h-100v80h-33v-113h166v113zM333 68h-166v-113h166v113zM300 35v-47h-100v47h100zM333 -68h-166v-33h70l-70 -47v-33h166v33h-102l70 47h32v33z" />
    <glyph glyph-name="A" unicode="A" horiz-adv-x="751" 
d="M584.31 0l-51.2891 155.03h-314.65l-51.29 -155.03h-141.2l241.42 700h85.4502h99.8799h31.46l241.43 -700h-141.21zM259.261 278.63h232.88l-98.5098 297.77h-35.8701z" />
    <glyph glyph-name="Aacute" unicode="&#xc1;" horiz-adv-x="751" 
d="M614.3 965.28l-152.16 -165.55h-136.42l137.79 165.55h150.79zM584.31 0l-51.2891 155.03h-314.65l-51.29 -155.03h-141.2l241.42 700h85.4502h99.8799h31.46l241.43 -700h-141.21zM259.261 278.63h232.88l-98.5098 297.77h-35.8701z" />
    <glyph glyph-name="Abreve" unicode="&#x102;" horiz-adv-x="751" 
d="M302.25 799.8c-70.8096 0 -108.952 38.6104 -108.952 109.42v55.5898h110.61v-45.9102c0 -22.7402 8.90039 -23.5303 23.4404 -23.5303h95.7803c14.5303 0 23.4404 0.790039 23.4404 23.5303v45.9102h110.6v-55.5898c0 -70.8096 -38.1396 -109.42 -108.949 -109.42
h-145.97zM584.307 -0l-51.2891 155.03h-314.65l-51.29 -155.03h-141.2l241.42 700h85.4502h99.8799h31.46l241.43 -700h-141.21zM259.258 278.63h232.88l-98.5098 297.77h-35.8701z" />
    <glyph glyph-name="uni01CD" unicode="&#x1cd;" horiz-adv-x="751" 
d="M300.36 793.26l-145.301 165.56h144.79l76.5801 -91.8799l76.5703 91.8799h144.79l-145.3 -165.56h-152.13zM584.31 -0.000976562l-51.2891 155.03h-314.65l-51.29 -155.03h-141.2l241.42 700h85.4502h99.8799h31.46l241.43 -700h-141.21zM259.261 278.629h232.88
l-98.5098 297.77h-35.8701z" />
    <glyph glyph-name="Acircumflex" unicode="&#xc2;" horiz-adv-x="751" 
d="M375.92 885.14l-76.5801 -91.8799h-144.79l145.3 165.56h137.48h14.6504l145.3 -165.56h-144.79zM584.31 -0l-51.2891 155.03h-314.65l-51.29 -155.03h-141.2l241.42 700h85.4502h99.8799h31.46l241.43 -700h-141.21zM259.261 278.63h232.88l-98.5098 297.77h-35.8701z
" />
    <glyph glyph-name="Adieresis" unicode="&#xc4;" horiz-adv-x="751" 
d="M330.88 923.45v-132.54h-132.54v132.54h132.54zM554.8 923.45v-132.54h-132.54v132.54h132.54zM584.31 0l-51.2891 155.03h-314.65l-51.29 -155.03h-141.2l241.42 700h85.4502h99.8799h31.46l241.43 -700h-141.21zM259.261 278.63h232.88l-98.5098 297.77h-35.8701z" />
    <glyph glyph-name="Agrave" unicode="&#xc0;" horiz-adv-x="751" 
d="M441.17 799.73h-136.43l-152.15 165.55h150.79zM584.311 0l-51.2891 155.03h-314.65l-51.29 -155.03h-141.2l241.42 700h85.4502h99.8799h31.46l241.43 -700h-141.21zM259.262 278.63h232.88l-98.5098 297.77h-35.8701z" />
    <glyph glyph-name="Amacron" unicode="&#x100;" horiz-adv-x="751" 
d="M519.91 904.04v-104.31h-289.54v104.31h289.54zM584.311 0l-51.2891 155.03h-314.65l-51.29 -155.03h-141.2l241.42 700h85.4502h99.8799h31.46l241.43 -700h-141.21zM259.262 278.63h232.88l-98.5098 297.77h-35.8701z" />
    <glyph glyph-name="Aogonek" unicode="&#x104;" horiz-adv-x="751" 
d="M644.61 -131.89c12.3496 0.169922 27.6699 2.4502 46.4199 7.43066l0.650391 -81.1299c-29.8301 -11.9902 -59.9102 -18.6699 -86.6406 -18.6699c-54.5801 0 -85.7598 26.7305 -98.0195 59.0303c-17.3799 48.0596 4.12988 113.81 77.6602 165.229h-0.379883
l-51.29 155.03h-314.65l-51.29 -155.03h-141.2l241.42 700h85.4502h99.8799h31.46l241.43 -700h-39c-58.4697 -36.25 -96.2695 -81.0596 -82.9199 -113.5c4.61035 -11.1904 17.29 -18.7002 41.0205 -18.3906zM259.251 278.63h232.88l-98.5098 297.77h-35.8701z" />
    <glyph glyph-name="Aring" unicode="&#xc5;" horiz-adv-x="751" 
d="M324.75 761.57c-52.2305 0 -80.3613 28.4805 -80.3613 80.7002v65.8096c0 52.8896 26.9805 80.6797 79.5303 80.6797h101.38c54.2402 0 79.5205 -29.9297 79.5205 -80.6797v-65.8096c0 -52.2197 -28.1299 -80.7002 -80.3496 -80.7002h-99.7197zM328.289 896.28
l-0.000976562 -42.2305c0.179688 -15.9697 6.25977 -16.5195 16.46 -16.5195h59.71c10.21 0 16.2803 0.549805 16.46 16.5195v42.2305c-0.179688 16.1396 -6.26953 16.5498 -16.46 16.5498h-59.71c-10.1797 0 -16.2793 -0.410156 -16.459 -16.5498zM584.308 -0
l-51.2891 155.03h-314.65l-51.29 -155.03h-141.2l241.42 700h85.4502h99.8799h31.46l241.43 -700h-141.21zM259.259 278.63h232.88l-98.5098 297.77h-35.8701z" />
    <glyph glyph-name="Atilde" unicode="&#xc3;" horiz-adv-x="751" 
d="M362.5 821.15c-56.2402 34.6699 -72.5693 32.4297 -109.14 -39.8604l-70.1602 44.5898c39.3496 79.6201 78.8096 115.7 126.25 116.61c34.6201 0.410156 60.5605 -17.7197 90.2803 -36.4297c54.75 -33.71 73.5898 -31.1104 106.58 35.7197l69.9697 -44.5195
c-39.2402 -77.9297 -77.29 -111.13 -119.73 -112.55c-33.7803 -1.53027 -64.4199 17.7793 -94.0498 36.4395zM584.311 0l-51.2891 155.03h-314.65l-51.29 -155.03h-141.2l241.42 700h85.4502h99.8799h31.46l241.43 -700h-141.21zM259.262 278.63h232.88l-98.5098 297.77
h-35.8701z" />
    <glyph glyph-name="AE" unicode="&#xc6;" horiz-adv-x="1028" 
d="M972.25 576.4l-360.45 -0.00195312v-159.6h321.23v-123.6h-321.23v-169.6h360.45v-123.6h-431.08h-60.9697v155.03h-221.33l-82.96 -155.03h-150.03l381.98 700h83.0898h120.85h360.45v-123.6zM325.01 278.629h155.19v290z" />
    <glyph glyph-name="B" unicode="B" horiz-adv-x="710" 
d="M575.82 369.41c55.5098 -16.21 84.9102 -61.25 84.9102 -130.88v-68.5303c0 -110.5 -59.5 -170 -170 -170h-305.74h-99.1104v700h131.6h240.25c110.5 0 170 -59.5 170 -170v-54.0498c0 -51.3701 -17.8496 -87.4297 -51.9092 -106.54zM443.23 576.19l-225.75 -0.000976562
v-158.06h225.75c41.4004 0 52.9004 10.1699 52.9004 60.0801v37.9004c0 49.9102 -11.5 60.0801 -52.9004 60.0801zM529.131 183.27v51.5898c0 49.5703 -12.2402 59.6699 -53.3701 59.6699h-258.28v-170.93h258.28c41.1299 0 53.3701 10.0996 53.3701 59.6699z" />
    <glyph glyph-name="C" unicode="C" horiz-adv-x="632" 
d="M268.53 -10c-128.47 0 -197.649 70 -197.649 200v320c0 130 69.1797 200 197.649 200h315.08v-123.81h-304.78c-58 0 -76.3398 -16.96 -76.3398 -87.1104v-298.37c0 -70.1504 18.3398 -87.1104 76.3398 -87.1104h304.78v-123.6h-315.08z" />
    <glyph glyph-name="Cacute" unicode="&#x106;" horiz-adv-x="632" 
d="M295.54 799.73l137.79 165.55h150.79l-152.16 -165.55h-136.42zM268.53 -10c-128.47 0 -197.649 70 -197.649 200v320c0 130 69.1797 200 197.649 200h315.08v-123.81h-304.78c-58 0 -76.3398 -16.96 -76.3398 -87.1104v-298.37
c0 -70.1504 18.3398 -87.1104 76.3398 -87.1104h304.78v-123.6h-315.08z" />
    <glyph glyph-name="Ccaron" unicode="&#x10c;" horiz-adv-x="632" 
d="M270.18 793.26l-145.301 165.56h144.79l76.5801 -91.8799l76.5703 91.8799h144.79l-145.3 -165.56h-152.13zM278.829 586.189c-58 0 -76.3398 -16.96 -76.3398 -87.1104v-298.37c0 -70.1504 18.3398 -87.1104 76.3398 -87.1104h304.78v-123.6h-315.08
c-128.47 0 -197.649 70 -197.649 200v320c0 130 69.1797 200 197.649 200h315.08v-123.81h-304.78z" />
    <glyph glyph-name="Ccedilla" unicode="&#xc7;" horiz-adv-x="632" 
d="M278.83 586.19c-58 0 -76.3506 -16.96 -76.3506 -87.1104v-298.37c0 -70.1504 18.3398 -87.1104 76.3398 -87.1104h304.78v-123.6h-195.7l-8.54004 -24.5703h35.6904c51.6904 0 75.7803 -28.5195 75.7803 -76.8799v-48.5498
c0 -49.7695 -26.7998 -76.8994 -76.5693 -76.8994h-168.52v78.3701h138.54c10.0098 0 16.1494 0.540039 16.1494 16.21v25.7695c0 15.8398 -6.16016 16.2402 -16.1504 16.2402h-27.7695v-0.0400391l-72.4902 0.0400391l24.4902 90.3096h-39.9805
c-128.47 0 -197.649 70 -197.649 200v320c0 130 69.1797 200 197.649 200h315.08v-123.81h-304.78z" />
    <glyph glyph-name="Cdotaccent" unicode="&#x10a;" horiz-adv-x="632" 
d="M280.68 790.91v133.36h133.36v-133.36h-133.36zM268.529 -9.99902c-128.47 0 -197.649 70 -197.649 200v320c0 130 69.1797 200 197.649 200h315.08v-123.81h-304.78c-58 0 -76.3398 -16.96 -76.3398 -87.1104v-298.37c0 -70.1504 18.3398 -87.1104 76.3398 -87.1104
h304.78v-123.6h-315.08z" />
    <glyph glyph-name="D" unicode="D" horiz-adv-x="738" 
d="M469.92 700c128.48 0 197.65 -70 197.65 -200v-300c0 -130 -69.1699 -200 -197.65 -200h-312.13h-71.9102v700h131.6h252.44zM535.979 210.71v278.369c0 70.1504 -18.3398 87.1104 -76.3398 87.1104h-242.15v-452.59h242.15c58 0 76.3398 16.96 76.3398 87.1104z" />
    <glyph glyph-name="Eth" unicode="&#xd0;" horiz-adv-x="757" 
d="M488.58 700c128.48 0 197.65 -69.999 197.65 -199.999v-300c0 -130 -69.1699 -200 -197.65 -200h-312.13h-71.9102v291.14h-104.54v117.72h104.54v291.14h131.6h252.44zM554.64 210.711v278.369c0 70.1504 -18.3398 87.1104 -76.3398 87.1104h-242.15v-167.33h164.29
v-117.72h-164.29v-167.54h242.15c58 0 76.3398 16.96 76.3398 87.1104z" />
    <glyph glyph-name="Dcaron" unicode="&#x10e;" horiz-adv-x="738" 
d="M288.94 793.26l-145.291 165.56h144.78l76.5801 -91.8799l76.5801 91.8799h144.79l-145.3 -165.56h-152.14zM469.919 699.999c128.48 0 197.65 -70 197.65 -200v-300c0 -130 -69.1699 -200 -197.65 -200h-312.13h-71.9102v700h131.6h252.44zM535.979 210.709v278.369
c0 70.1504 -18.3398 87.1104 -76.3398 87.1104h-242.15v-452.59h242.15c58 0 76.3398 16.96 76.3398 87.1104z" />
    <glyph glyph-name="Dcroat" unicode="&#x110;" horiz-adv-x="757" 
d="M488.58 700c128.48 0 197.65 -69.999 197.65 -199.999v-300c0 -130 -69.1699 -200 -197.65 -200h-312.13h-71.9102v291.14h-104.54v117.72h104.54v291.14h131.6h252.44zM554.64 210.711v278.369c0 70.1504 -18.3398 87.1104 -76.3398 87.1104h-242.15v-167.33h164.29
v-117.72h-164.29v-167.54h242.15c58 0 76.3398 16.96 76.3398 87.1104z" />
    <glyph glyph-name="E" unicode="E" horiz-adv-x="651" 
d="M595.57 576.4l-378.09 -0.00195312v-159.6h338.87v-123.6h-338.87v-169.6h378.09v-123.6h-448.72h-60.9697v700h131.6h378.09v-123.6z" />
    <glyph glyph-name="Eacute" unicode="&#xc9;" horiz-adv-x="651" 
d="M574.52 965.28l-152.15 -165.55h-136.42l137.79 165.55h150.78zM595.569 576.4l-378.09 -0.00195312v-159.6h338.87v-123.6h-338.87v-169.6h378.09v-123.6h-448.72h-60.9697v700h131.6h378.09v-123.6z" />
    <glyph glyph-name="Ecaron" unicode="&#x11a;" horiz-adv-x="651" 
d="M260.58 793.26l-145.291 165.56h144.78l76.5801 -91.8799l76.5801 91.8799h144.79l-145.3 -165.56h-152.14zM595.569 576.399l-378.09 -0.00195312v-159.6h338.87v-123.6h-338.87v-169.6h378.09v-123.6h-448.72h-60.9697v700h131.6h378.09v-123.6z" />
    <glyph glyph-name="Ecircumflex" unicode="&#xca;" horiz-adv-x="651" 
d="M336.14 885.14l-76.5801 -91.8799h-144.78l145.29 165.56h137.49h14.6504l145.3 -165.56h-144.79zM595.569 576.399l-378.09 -0.00195312v-159.6h338.87v-123.6h-338.87v-169.6h378.09v-123.6h-448.72h-60.9697v700h131.6h378.09v-123.6z" />
    <glyph glyph-name="Edieresis" unicode="&#xcb;" horiz-adv-x="651" 
d="M291.11 923.45v-132.54h-132.54v132.54h132.54zM515.021 923.45v-132.54h-132.54v132.54h132.54zM595.57 576.4l-378.09 -0.00195312v-159.6h338.87v-123.6h-338.87v-169.6h378.09v-123.6h-448.72h-60.9697v700h131.6h378.09v-123.6z" />
    <glyph glyph-name="Edotaccent" unicode="&#x116;" horiz-adv-x="651" 
d="M404.45 924.27v-133.36h-133.36v133.36h133.36zM595.57 576.399l-378.09 -0.00195312v-159.6h338.87v-123.6h-338.87v-169.6h378.09v-123.6h-448.72h-60.9697v700h131.6h378.09v-123.6z" />
    <glyph glyph-name="Egrave" unicode="&#xc8;" horiz-adv-x="651" 
d="M401.4 799.73h-136.43l-152.15 165.55h150.78zM595.57 576.4l-378.09 -0.00195312v-159.6h338.87v-123.6h-338.87v-169.6h378.09v-123.6h-448.72h-60.9697v700h131.6h378.09v-123.6z" />
    <glyph glyph-name="Emacron" unicode="&#x112;" horiz-adv-x="651" 
d="M480.13 904.04v-104.31h-289.53v104.31h289.53zM595.57 576.4l-378.09 -0.00195312v-159.6h338.87v-123.6h-338.87v-169.6h378.09v-123.6h-448.72h-60.9697v700h131.6h378.09v-123.6z" />
    <glyph glyph-name="Eogonek" unicode="&#x118;" horiz-adv-x="651" 
d="M600.3 -124.52l0.650391 -81.1201c-29.8398 -11.9902 -59.9102 -18.6807 -86.6406 -18.6807c-54.5801 0 -85.7705 26.7402 -98.0205 59.04c-17.3896 48.0703 4.14062 113.851 77.7305 165.28h-347.17h-60.9697v700h131.6h378.09v-123.6h-378.09v-159.6h338.87v-123.6
h-338.87v-169.6h378.09v-123.6c-58.6904 -36.4199 -96.0801 -81.1104 -82.7197 -113.551c4.61035 -11.1904 17.29 -18.7002 41.0205 -18.3906c12.3398 0.169922 27.6797 2.4502 46.4297 7.41992z" />
    <glyph glyph-name="F" unicode="F" horiz-adv-x="641" 
d="M585.57 576.4l-368.09 -0.000976562v-174.6h328.87v-123.6h-328.87v-278.2h-131.6v700h131.6h368.09v-123.6z" />
    <glyph glyph-name="G" unicode="G" horiz-adv-x="739" 
d="M406 409.79h252.37v-123.6v-96.1904c0 -130 -69.1797 -200 -197.66 -200h-192.17c-128.47 0 -197.649 70 -197.649 200v320c0 130 69.1797 200 197.649 200h339.91v-123.81h-329.61c-58 0 -76.3398 -16.96 -76.3398 -87.1104v-298.37
c0 -70.1504 18.3398 -87.1104 76.3398 -87.1104h171.58c58 0 76.3398 16.96 76.3398 87.1104v85.4805h-120.76v123.6z" />
    <glyph glyph-name="Gbreve" unicode="&#x11e;" horiz-adv-x="739" 
d="M301.52 799.8c-70.8096 0 -108.952 38.6104 -108.952 109.42v55.5898h110.6v-45.9102c0 -22.7402 8.91016 -23.5303 23.4404 -23.5303h95.7803c14.54 0 23.4404 0.790039 23.4404 23.5303v45.9102h110.61v-55.5898c0 -70.8096 -38.1396 -109.42 -108.949 -109.42h-145.97
zM405.997 409.79h252.37v-123.6v-96.1904c0 -130 -69.1797 -200 -197.66 -200h-192.17c-128.47 0 -197.649 70 -197.649 200v320c0 130 69.1797 200 197.649 200h339.91v-123.81h-329.61c-58 0 -76.3398 -16.96 -76.3398 -87.1104v-298.37
c0 -70.1504 18.3398 -87.1104 76.3398 -87.1104h171.58c58 0 76.3398 16.96 76.3398 87.1104v85.4805h-120.76v123.6z" />
    <glyph glyph-name="Gcommaaccent" unicode="&#x122;" horiz-adv-x="739" 
d="M406 409.79h252.37v-123.6v-96.1904c0 -130 -69.1797 -200 -197.66 -200h-192.17c-128.47 0 -197.649 70 -197.649 200v320c0 130 69.1797 200 197.649 200h339.91v-123.81h-329.61c-58 0 -76.3398 -16.96 -76.3398 -87.1104v-298.37
c0 -70.1504 18.3398 -87.1104 76.3398 -87.1104h171.58c58 0 76.3398 16.96 76.3398 87.1104v85.4805h-120.76v123.6zM318.101 -191.65l0.000976562 131.6h131.6v-131.6l-50.6699 -110.99h-97.8301l50.6797 110.99h-33.7803z" />
    <glyph glyph-name="Gdotaccent" unicode="&#x120;" horiz-adv-x="739" 
d="M443.49 924.27v-133.36h-133.37v133.36h133.37zM406 409.789h252.37v-123.6v-96.1904c0 -130 -69.1797 -200 -197.66 -200h-192.17c-128.47 0 -197.649 70 -197.649 200v320c0 130 69.1797 200 197.649 200h339.91v-123.81h-329.61
c-58 0 -76.3398 -16.96 -76.3398 -87.1104v-298.37c0 -70.1504 18.3398 -87.1104 76.3398 -87.1104h171.58c58 0 76.3398 16.96 76.3398 87.1104v85.4805h-120.76v123.6z" />
    <glyph glyph-name="H" unicode="H" horiz-adv-x="775" 
d="M557.7 700h131.6v-700h-131.6v293.2h-340.22v-293.2h-131.6v700h131.6v-283.2h340.22v283.2z" />
    <glyph glyph-name="Hbar" unicode="&#x126;" horiz-adv-x="774" 
d="M754.01 605.56v-117.72h-66.5801v-487.84h-131.6v293.2h-340.22v-293.2h-131.6v487.84h-64.0098v117.72h64.0098v94.4404h131.6v-94.4404h340.22v94.4404h131.6v-94.4404h66.5801zM555.83 416.8v71.04h-340.22v-71.04h340.22z" />
    <glyph glyph-name="I" unicode="I" horiz-adv-x="303" 
d="M85.8799 0v700h131.6v-700h-131.6z" />
    <glyph glyph-name="Iacute" unicode="&#xcd;" horiz-adv-x="303" 
d="M100.07 799.73l137.79 165.55h150.79l-152.16 -165.55h-136.42zM85.8799 0v700h131.6v-700h-131.6z" />
    <glyph glyph-name="uni01CF" unicode="&#x1cf;" horiz-adv-x="303" 
d="M227.36 958.82h144.78l-145.29 -165.56h-137.49h-14.6504l-145.3 165.56h144.79l76.5801 -91.8799zM85.8809 0v700h131.6v-700h-131.6z" />
    <glyph glyph-name="Icircumflex" unicode="&#xce;" horiz-adv-x="303" 
d="M226.34 958.82l145.29 -165.56h-144.78l-76.5801 91.8799l-76.5801 -91.8799h-144.79l145.3 165.56h137.48h14.6602zM85.8799 0.000976562v700h131.6v-700h-131.6z" />
    <glyph glyph-name="Idieresis" unicode="&#xcf;" horiz-adv-x="303" 
d="M-27.3096 790.91v132.54h132.54v-132.54h-132.54zM196.61 790.91v132.54h132.54v-132.54h-132.54zM85.8799 0v700h131.6v-700h-131.6z" />
    <glyph glyph-name="Idotaccent" unicode="&#x130;" horiz-adv-x="303" 
d="M85.21 790.91v133.36h133.36v-133.36h-133.36zM85.8799 0.000976562v700h131.6v-700h-131.6z" />
    <glyph glyph-name="Igrave" unicode="&#xcc;" horiz-adv-x="303" 
d="M79.0996 799.73l-152.16 165.55h150.79l137.79 -165.55h-136.42zM85.8799 0v700h131.6v-700h-131.6z" />
    <glyph glyph-name="Imacron" unicode="&#x12a;" horiz-adv-x="303" 
d="M4.71973 799.73v104.31h289.54v-104.31h-289.54zM85.8799 0v700h131.6v-700h-131.6z" />
    <glyph glyph-name="Iogonek" unicode="&#x12e;" horiz-adv-x="303" 
d="M217.48 0c-62.2002 -36.9102 -103.38 -83.8516 -89.5195 -117.502c4.59961 -11.1904 17.2793 -18.7002 41.0098 -18.3799c12.3496 0.160156 27.6895 2.44043 46.4297 7.4209l0.650391 -81.1299c-29.8301 -11.9902 -59.9102 -18.6699 -86.6406 -18.6699
c-54.5801 0 -85.7598 26.7305 -98.0195 59.0303c-17.7197 49 4.98047 117.37 82.04 169.23h-27.5498v700h131.6v-700z" />
    <glyph glyph-name="J" unicode="J" horiz-adv-x="504" 
d="M25.8799 -10v123.6h182.59c62.5195 0 84.0898 21.3496 84.04 93.21l-0.360352 493.19h131.6l0.360352 -510c0.0898438 -130 -69.1797 -200 -197.649 -200h-200.58z" />
    <glyph glyph-name="K" unicode="K" horiz-adv-x="729" 
d="M533.4 -0.0302734l-240.761 293.23h-75.1602v-293.2h-131.6v700h131.6v-283.2h73.2803l232.61 283.28l167.24 -0.0800781l-288.88 -343.78l301.88 -356.19z" />
    <glyph glyph-name="Kcommaaccent" unicode="&#x136;" horiz-adv-x="729" 
d="M401.73 356.22l301.879 -356.19l-170.21 -0.0595703l-240.76 293.23h-75.1602v-293.2h-131.6v700h131.6v-283.2h73.2803l232.61 283.28l167.24 -0.0800781zM309.829 -191.65v131.6h131.6v-131.6l-50.6797 -110.99h-97.8203l50.6699 110.99h-33.7695z" />
    <glyph glyph-name="L" unicode="L" horiz-adv-x="599" 
d="M217.48 123.6h356.09v-123.6h-426.72h-60.9697v700h131.6v-576.4z" />
    <glyph glyph-name="Lacute" unicode="&#x139;" horiz-adv-x="599" 
d="M559.3 965.28l-152.16 -165.55h-136.42l137.79 165.55h150.79zM217.479 123.601h356.09v-123.6h-426.72h-60.9697v700h131.6v-576.4z" />
    <glyph glyph-name="Lcaron" unicode="&#x13d;" horiz-adv-x="599" 
d="M217.48 123.6h356.09v-123.6h-426.72h-60.9697v700h131.6v-576.4zM470.67 457.409h-97.8203l50.6699 110.99h-33.7695v131.6h131.6v-131.6z" />
    <glyph glyph-name="Lcommaaccent" unicode="&#x13b;" horiz-adv-x="599" 
d="M217.48 123.6h356.09v-123.6h-426.72h-60.9697v700h131.6v-576.4zM263.83 -191.65v131.6h131.6v-131.6l-50.6797 -110.99h-97.8203l50.6699 110.99h-33.7695z" />
    <glyph glyph-name="Lslash" unicode="&#x141;" horiz-adv-x="609" 
d="M366.63 63.0303l-65.2715 -63.0312l-122.54 286.89l-76.1299 -155.55l-65.8496 64.5303l96.5498 197.36l-7.83984 18.3701l31.9102 30.8096l71.54 146.24l65.96 -64.46l-66.9102 -136.72l98.4404 -230.46l-92.3896 70.5303l0.0800781 -10.6699l99.0898 -75.7402z
M338.729 136.959l-5.45996 4.16992l-6.78027 15.8799l12.2402 -9.33984v-10.71z" />
    <glyph glyph-name="M" unicode="M" horiz-adv-x="943" 
d="M856.64 700l0.00878906 -700h-131.6v576.4h-19.8604l-139.31 -502.36h-64.46h-111.72h-18.0498l-139.31 502.36h-19.8496v-576.4h-131.6v700h117.18h99.54h30.8096l138.84 -502.36h3l138.84 502.36h115.94h131.6z" />
    <glyph glyph-name="N" unicode="N" horiz-adv-x="785" 
d="M572.76 700h131.6v-700h-102.04h-93.46h-40.0996l-235.78 576.4h-20.5v-576.4h-131.6v700h101.54h87.6299h45.9297l235.78 -576.4h21v576.4z" />
    <glyph glyph-name="Nacute" unicode="&#x143;" horiz-adv-x="785" 
d="M632.94 965.28l-152.15 -165.55h-136.42l137.79 165.55h150.78zM572.76 700h131.6v-700h-102.04h-93.46h-40.0996l-235.78 576.4h-20.5v-576.4h-131.6v700h101.54h87.6299h45.9297l235.78 -576.4h21v576.4z" />
    <glyph glyph-name="Ncaron" unicode="&#x147;" horiz-adv-x="785" 
d="M319 793.26l-145.291 165.56h144.78l76.5801 -91.8799l76.5801 91.8799h144.79l-145.3 -165.56h-152.14zM572.759 699.999h131.6v-700h-102.04h-93.46h-40.0996l-235.78 576.4h-20.5v-576.4h-131.6v700h101.54h87.6299h45.9297l235.78 -576.4h21v576.4z" />
    <glyph glyph-name="Ncommaaccent" unicode="&#x145;" horiz-adv-x="785" 
d="M572.76 700h131.6v-700h-102.04h-93.46h-40.0996l-235.78 576.4h-20.5v-576.4h-131.6v700h101.54h87.6299h45.9297l235.78 -576.4h21v576.4zM337.479 -191.65v131.6h131.6v-131.6l-50.6797 -110.99h-97.8301l50.6797 110.99h-33.7695z" />
    <glyph glyph-name="Eng" unicode="&#x14a;" horiz-adv-x="789" 
d="M704.34 700l0.360352 -714.31c0.0595703 -130 -69.1807 -199.77 -197.65 -200h-200.58v123.6h182.59c61.79 0 83.5703 20.8496 84.04 90.71h-104.34l-235.78 576.4h-20.5v-576.4h-131.6v700h101.54h87.6299h45.9297l235.78 -576.4h21.2803l-0.299805 576.4h131.6z" />
    <glyph glyph-name="Ntilde" unicode="&#xd1;" horiz-adv-x="785" 
d="M381.15 821.15c-56.2402 34.6699 -72.5693 32.4297 -109.14 -39.8604l-70.1602 44.5898c39.3496 79.6201 78.8096 115.7 126.25 116.61c34.6201 0.410156 60.5605 -17.7197 90.2803 -36.4297c54.75 -33.71 73.5801 -31.1104 106.58 35.7197l69.96 -44.5195
c-39.2305 -77.9297 -77.29 -111.13 -119.72 -112.55c-33.7803 -1.53027 -64.4307 17.7793 -94.0508 36.4395zM572.762 700h131.6v-700h-102.04h-93.46h-40.0996l-235.78 576.4h-20.5v-576.4h-131.6v700h101.54h87.6299h45.9297l235.78 -576.4h21v576.4z" />
    <glyph glyph-name="O" unicode="O" horiz-adv-x="765" 
d="M274.41 -10c-128.47 0 -197.649 70 -197.649 200v320c0 130 69.1797 200 197.649 200h216c128.47 0 197.649 -70 197.649 -200v-320c0 -130 -69.1797 -200 -197.649 -200h-216zM284.71 113.6h195.4c58 0 76.3398 16.96 76.3398 87.1104v298.37
c0 70.1504 -18.3398 87.1104 -76.3398 87.1104h-195.4c-58 0 -76.3398 -16.96 -76.3398 -87.1104v-298.37c0 -70.1504 18.3398 -87.1104 76.3398 -87.1104z" />
    <glyph glyph-name="Oacute" unicode="&#xd3;" horiz-adv-x="765" 
d="M335.46 799.73l137.79 165.55h150.79l-152.16 -165.55h-136.42zM274.41 -10c-128.47 0 -197.649 70 -197.649 200v320c0 130 69.1797 200 197.649 200h216c128.47 0 197.649 -70 197.649 -200v-320c0 -130 -69.1797 -200 -197.649 -200h-216zM284.71 113.6h195.4
c58 0 76.3398 16.96 76.3398 87.1104v298.37c0 70.1504 -18.3398 87.1104 -76.3398 87.1104h-195.4c-58 0 -76.3398 -16.96 -76.3398 -87.1104v-298.37c0 -70.1504 18.3398 -87.1104 76.3398 -87.1104z" />
    <glyph glyph-name="uni01D1" unicode="&#x1d1;" horiz-adv-x="765" 
d="M310.1 793.26l-145.301 165.56h144.79l76.5801 -91.8799l76.5703 91.8799h144.79l-145.3 -165.56h-152.13zM490.409 709.999c128.47 0 197.649 -70 197.649 -200v-320c0 -130 -69.1797 -200 -197.649 -200h-216c-128.47 0 -197.649 70 -197.649 200v320
c0 130 69.1797 200 197.649 200h216zM556.459 200.709v298.37c0 70.1504 -18.3398 87.1104 -76.3398 87.1104h-195.4c-58 0 -76.3398 -16.96 -76.3398 -87.1104v-298.37c0 -70.1504 18.3398 -87.1104 76.3398 -87.1104h195.4c58 0 76.3398 16.96 76.3398 87.1104z" />
    <glyph glyph-name="Ocircumflex" unicode="&#xd4;" horiz-adv-x="765" 
d="M385.66 885.14l-76.5801 -91.8799h-144.79l145.3 165.56h137.48h14.6504l145.3 -165.56h-144.79zM490.41 710c128.47 0 197.649 -70 197.649 -200v-320c0 -130 -69.1797 -200 -197.649 -200h-216c-128.47 0 -197.649 70 -197.649 200v320c0 130 69.1797 200 197.649 200
h216zM556.46 200.71v298.37c0 70.1504 -18.3398 87.1104 -76.3398 87.1104h-195.4c-58 0 -76.3398 -16.96 -76.3398 -87.1104v-298.37c0 -70.1504 18.3398 -87.1104 76.3398 -87.1104h195.4c58 0 76.3398 16.96 76.3398 87.1104z" />
    <glyph glyph-name="Odieresis" unicode="&#xd6;" horiz-adv-x="765" 
d="M208.08 790.91v132.54h132.54v-132.54h-132.54zM432 790.91v132.54h132.54v-132.54h-132.54zM274.41 -10c-128.47 0 -197.649 70 -197.649 200v320c0 130 69.1797 200 197.649 200h216c128.47 0 197.649 -70 197.649 -200v-320c0 -130 -69.1797 -200 -197.649 -200h-216z
M284.71 113.6h195.4c58 0 76.3398 16.96 76.3398 87.1104v298.37c0 70.1504 -18.3398 87.1104 -76.3398 87.1104h-195.4c-58 0 -76.3398 -16.96 -76.3398 -87.1104v-298.37c0 -70.1504 18.3398 -87.1104 76.3398 -87.1104z" />
    <glyph glyph-name="Ograve" unicode="&#xd2;" horiz-adv-x="765" 
d="M314.48 799.73l-152.15 165.55h150.79l137.79 -165.55h-136.43zM274.41 -10c-128.47 0 -197.649 70 -197.649 200v320c0 130 69.1797 200 197.649 200h216c128.47 0 197.649 -70 197.649 -200v-320c0 -130 -69.1797 -200 -197.649 -200h-216zM284.71 113.6h195.4
c58 0 76.3398 16.96 76.3398 87.1104v298.37c0 70.1504 -18.3398 87.1104 -76.3398 87.1104h-195.4c-58 0 -76.3398 -16.96 -76.3398 -87.1104v-298.37c0 -70.1504 18.3398 -87.1104 76.3398 -87.1104z" />
    <glyph glyph-name="Ohungarumlaut" unicode="&#x150;" horiz-adv-x="765" 
d="M206.24 799.73l131.55 165.55h149.02l-145.81 -165.55h-134.76zM413.99 799.73l131.551 165.55h149.02l-145.91 -165.55h-134.66zM274.411 -10c-128.47 0 -197.649 70 -197.649 200v320c0 130 69.1797 200 197.649 200h216c128.47 0 197.649 -70 197.649 -200v-320
c0 -130 -69.1797 -200 -197.649 -200h-216zM284.711 113.6h195.4c58 0 76.3398 16.96 76.3398 87.1104v298.37c0 70.1504 -18.3398 87.1104 -76.3398 87.1104h-195.4c-58 0 -76.3398 -16.96 -76.3398 -87.1104v-298.37c0 -70.1504 18.3398 -87.1104 76.3398 -87.1104z" />
    <glyph glyph-name="Omacron" unicode="&#x14c;" horiz-adv-x="765" 
d="M240.11 799.73v104.31h289.54v-104.31h-289.54zM274.41 -10c-128.47 0 -197.649 70 -197.649 200v320c0 130 69.1797 200 197.649 200h216c128.47 0 197.649 -70 197.649 -200v-320c0 -130 -69.1797 -200 -197.649 -200h-216zM284.71 113.6h195.4
c58 0 76.3398 16.96 76.3398 87.1104v298.37c0 70.1504 -18.3398 87.1104 -76.3398 87.1104h-195.4c-58 0 -76.3398 -16.96 -76.3398 -87.1104v-298.37c0 -70.1504 18.3398 -87.1104 76.3398 -87.1104z" />
    <glyph glyph-name="Oslash" unicode="&#xd8;" horiz-adv-x="753" 
d="M576.48 694.47c69.2002 -27.2803 105.7 -90.0488 105.7 -184.469v-320c0 -130 -69.1797 -200 -197.649 -200h-191.93l-28.2002 -70h-122.28l34.46 85.5195c-69.21 27.2803 -105.7 90.0498 -105.7 184.479v320c0 130 69.1797 200 197.649 200h191.92l28.21 70h122.28z
M202.48 200.711c0 -40.4805 6.10059 -63.25 22.4102 -75.2695l185.66 460.75h-131.73c-58 0 -76.3398 -16.96 -76.3398 -87.1104v-298.37zM550.57 200.711l0.00976562 298.37c0 40.54 -6.12012 63.3096 -22.4902 75.3193l-185.68 -460.8h131.82
c58 0 76.3398 16.96 76.3398 87.1104z" />
    <glyph glyph-name="Otilde" unicode="&#xd5;" horiz-adv-x="765" 
d="M263.1 781.29l-70.1592 44.5898c39.3496 79.6201 78.8096 115.7 126.25 116.61c34.6201 0.410156 60.5605 -17.7197 90.2803 -36.4297c54.75 -33.71 73.5898 -31.1104 106.58 35.7197l69.9697 -44.5195c-39.2402 -77.9297 -77.29 -111.13 -119.73 -112.55
c-33.7803 -1.53027 -64.4199 17.7793 -94.0498 36.4395c-56.2402 34.6699 -72.5703 32.4297 -109.141 -39.8604zM274.41 -10c-128.47 0 -197.649 70 -197.649 200v320c0 130 69.1797 200 197.649 200h216c128.47 0 197.649 -70 197.649 -200v-320
c0 -130 -69.1797 -200 -197.649 -200h-216zM284.71 113.6h195.4c58 0 76.3398 16.96 76.3398 87.1104v298.37c0 70.1504 -18.3398 87.1104 -76.3398 87.1104h-195.4c-58 0 -76.3398 -16.96 -76.3398 -87.1104v-298.37c0 -70.1504 18.3398 -87.1104 76.3398 -87.1104z" />
    <glyph glyph-name="OE" unicode="&#x152;" horiz-adv-x="1116" 
d="M1060.28 576.4l-378.099 -0.00195312v-159.6h338.88v-123.6h-338.88v-169.6h378.1v-123.6h-448.73h-43.5898c-23.4805 -6.62988 -51.1201 -10 -83.4297 -10h-216c-128.47 0 -197.649 70 -197.649 200v320c0 130 69.1797 200 197.649 200h216
c32.3096 0 59.9492 -3.37012 83.4297 -10h114.22h378.1v-123.6zM474.231 113.599c58 0 76.3398 16.96 76.3398 87.1104v298.37c0 70.1504 -18.3398 87.1104 -76.3398 87.1104h-195.4c-58 0 -76.3398 -16.96 -76.3398 -87.1104v-298.37
c0 -70.1504 18.3398 -87.1104 76.3398 -87.1104h195.4z" />
    <glyph glyph-name="P" unicode="P" horiz-adv-x="710" 
d="M465.24 700c117.01 0 180.01 -63.8291 180.01 -182.359v-113.73c0 -118.53 -63 -182.36 -180.01 -182.36h-247.76v-221.55h-131.6v700h131.6h247.76zM513.66 414.621v92.1006c0 58.9102 -12.4805 69.4697 -58.7109 69.4697h-237.47v-231.04h237.47
c46.2305 0 58.7109 10.5596 58.7109 69.4697z" />
    <glyph glyph-name="Thorn" unicode="&#xde;" horiz-adv-x="710" 
d="M465.24 586.96c117.01 0 180.01 -63.8291 180.01 -182.359v-113.73c0 -118.53 -63 -182.36 -180.01 -182.36h-247.76v-108.51h-131.6v700h131.6v-113.04h247.76zM513.66 301.581v92.1006c0 58.9102 -12.4805 69.4697 -58.7109 69.4697h-237.47v-231.04h237.47
c46.2305 0 58.7109 10.5596 58.7109 69.4697z" />
    <glyph glyph-name="Q" unicode="Q" horiz-adv-x="764" 
d="M715.77 -78.5498l-87.0898 -73.0811l-119.6 142.53c-7.92969 -0.599609 -16.1094 -0.899414 -24.5498 -0.899414h-216c-128.47 0 -197.649 70 -197.649 200v320c0 130 69.1797 200 197.649 200h216c128.47 0 197.649 -70 197.649 -200v-320
c0 -70.7002 -20.46 -123.66 -59.7998 -157.26zM278.83 113.6h127.289l-63.5996 75.79l87.0898 73.0801l107.45 -128.05c9.69043 13.2998 13.5107 34.2402 13.5107 66.29v298.37c0 70.1504 -18.3398 87.1104 -76.3398 87.1104h-195.4
c-58 0 -76.3398 -16.96 -76.3398 -87.1104v-298.37c0 -70.1504 18.3398 -87.1104 76.3398 -87.1104z" />
    <glyph glyph-name="R" unicode="R" horiz-adv-x="710" 
d="M517.46 0l-161.819 238.73h-138.16v-238.73h-131.6v700h131.6h247.76c117.01 0 180.01 -63.8301 180.01 -182.36v-96.5498c0 -104.91 -49.3496 -166.96 -141.81 -179.84l170.64 -241.25h-156.62zM217.48 576.19v-213.859h237.47
c46.2305 0 58.7109 10.5596 58.7109 69.4697v74.9199c0 58.9102 -12.4805 69.4697 -58.7109 69.4697h-237.47z" />
    <glyph glyph-name="Racute" unicode="&#x154;" horiz-adv-x="710" 
d="M592.3 965.28l-152.16 -165.55h-136.42l137.79 165.55h150.79zM517.46 -0.00976562l-161.819 238.73h-138.16v-238.73h-131.6v700h131.6h247.76c117.01 0 180.01 -63.8301 180.01 -182.36v-96.5498c0 -104.91 -49.3496 -166.96 -141.81 -179.84l170.64 -241.25h-156.62z
M217.48 576.181v-213.859h237.47c46.2305 0 58.7109 10.5596 58.7109 69.4697v74.9199c0 58.9102 -12.4805 69.4697 -58.7109 69.4697h-237.47z" />
    <glyph glyph-name="Rcaron" unicode="&#x158;" horiz-adv-x="710" 
d="M278.36 793.26l-145.301 165.56h144.79l76.5801 -91.8799l76.5703 91.8799h144.79l-145.3 -165.56h-152.13zM517.46 -0.0107422l-161.819 238.73h-138.16v-238.73h-131.6v700h131.6h247.76c117.01 0 180.01 -63.8301 180.01 -182.36v-96.5498
c0 -104.91 -49.3496 -166.96 -141.81 -179.84l170.64 -241.25h-156.62zM217.48 576.18v-213.859h237.47c46.2305 0 58.7109 10.5596 58.7109 69.4697v74.9199c0 58.9102 -12.4805 69.4697 -58.7109 69.4697h-237.47z" />
    <glyph glyph-name="Rcommaaccent" unicode="&#x156;" horiz-adv-x="710" 
d="M503.44 241.25l170.641 -241.25h-156.62l-161.82 238.73h-138.16v-238.73h-131.6v700h131.6h247.76c117.01 0 180.01 -63.8301 180.01 -182.36v-96.5498c0 -104.91 -49.3496 -166.96 -141.81 -179.84zM217.481 576.19v-213.859h237.47
c46.2305 0 58.7109 10.5596 58.7109 69.4697v74.9199c0 58.9102 -12.4805 69.4697 -58.7109 69.4697h-237.47zM296.831 -191.649v131.6h131.6v-131.6l-50.6797 -110.99h-97.8203l50.6699 110.99h-33.7695z" />
    <glyph glyph-name="S" unicode="S" horiz-adv-x="655" 
d="M74.2695 -10l0.00976562 123.6h338.8c56.7998 0 57.2002 17.7998 57.2002 90.4199c0 71.8398 -0.44043 89.5801 -57.2002 89.5801h-171.11c-141.7 0 -189.13 76.4004 -189.02 207.24c0.110352 138.34 52.8506 209.16 189.021 209.16h308.02v-123.81l-295.47 0.169922
c-62.8604 0.0302734 -70.0303 -16.4102 -69.9707 -85.7803c-0.0595703 -67.46 7.03027 -83.3799 69.9707 -83.3799h173c129.07 0 174.351 -67.71 174.351 -212.92c0 -145.45 -45.5703 -214.28 -174.351 -214.28h-353.25z" />
    <glyph glyph-name="Sacute" unicode="&#x15a;" horiz-adv-x="655" 
d="M258.66 799.73l137.79 165.55h150.79l-152.16 -165.55h-136.42zM74.2705 -10l0.00976562 123.6h338.8c56.7998 0 57.2002 17.7998 57.2002 90.4199c0 71.8398 -0.44043 89.5801 -57.2002 89.5801h-171.11c-141.7 0 -189.13 76.4004 -189.02 207.24
c0.110352 138.34 52.8506 209.16 189.021 209.16h308.02v-123.81l-295.47 0.169922c-62.8604 0.0302734 -70.0303 -16.4102 -69.9707 -85.7803c-0.0595703 -67.46 7.03027 -83.3799 69.9707 -83.3799h173c129.07 0 174.351 -67.71 174.351 -212.92
c0 -145.45 -45.5703 -214.28 -174.351 -214.28h-353.25z" />
    <glyph glyph-name="Scaron" unicode="&#x160;" horiz-adv-x="655" 
d="M233.3 793.26l-145.301 165.56h144.79l76.5801 -91.8799l76.5703 91.8799h144.79l-145.3 -165.56h-152.13zM427.519 417.199c129.07 0 174.36 -67.71 174.36 -212.92c0 -145.45 -45.5703 -214.28 -174.351 -214.28h-353.25v123.6h338.8
c56.7998 0 57.2002 17.7998 57.2002 90.4199c0 71.8398 -0.44043 89.5801 -57.2002 89.5801h-171.11c-141.7 0 -189.13 76.4004 -189.02 207.24c0.110352 138.34 52.8506 209.16 189.021 209.16h308.02v-123.81l-295.47 0.169922
c-62.8604 0.0302734 -70.0303 -16.4102 -69.9707 -85.7803c-0.0595703 -67.46 7.03027 -83.3799 69.9707 -83.3799h173z" />
    <glyph glyph-name="Scedilla" unicode="&#x15e;" horiz-adv-x="655" 
d="M427.52 -10h-76.4912l-8.54004 -24.5703h35.6904c51.6904 0 75.7803 -28.5195 75.7803 -76.8799v-48.5498c0 -49.7695 -26.7998 -76.8994 -76.5693 -76.8994h-168.52v78.3701h138.54c10.0098 0 16.1494 0.540039 16.1494 16.21v25.7695
c0 15.8398 -6.16016 16.2402 -16.1504 16.2402h-27.7695v-0.0400391l-72.4902 0.0400391l24.4902 90.3096h-197.36v123.6h338.8c56.7998 0 57.2002 17.7998 57.2002 90.4199c0 71.8398 -0.44043 89.5801 -57.2002 89.5801h-171.11c-141.7 0 -189.13 76.4004 -189.02 207.24
c0.110352 138.34 52.8506 209.16 189.021 209.16h308.02v-123.81l-295.47 0.169922c-62.8604 0.0302734 -70.0303 -16.4102 -69.9707 -85.7803c-0.0595703 -67.46 7.03027 -83.3799 69.9707 -83.3799h173c129.07 0 174.351 -67.71 174.351 -212.92
c0 -145.45 -45.5703 -214.28 -174.351 -214.28z" />
    <glyph glyph-name="Scommaaccent" unicode="&#x218;" horiz-adv-x="655" 
d="M427.52 417.2c129.07 0 174.36 -67.71 174.36 -212.92c0 -145.45 -45.5703 -214.28 -174.351 -214.28h-353.25v123.6h338.8c56.7998 0 57.2002 17.7998 57.2002 90.4199c0 71.8398 -0.44043 89.5801 -57.2002 89.5801h-171.11c-141.7 0 -189.13 76.4004 -189.02 207.24
c0.110352 138.34 52.8506 209.16 189.021 209.16h308.02v-123.81l-295.47 0.169922c-62.8604 0.0302734 -70.0303 -16.4102 -69.9707 -85.7803c-0.0595703 -67.46 7.03027 -83.3799 69.9707 -83.3799h173zM251.779 -191.649v131.6h131.6v-131.6l-50.6797 -110.99h-97.8203
l50.6699 110.99h-33.7695z" />
    <glyph glyph-name="T" unicode="T" horiz-adv-x="651" 
d="M622.7 700v-123.6h-231.58v-576.4h-131.6v576.4h-231.58v123.6h363.18h231.58z" />
    <glyph glyph-name="Tbar" unicode="&#x166;" horiz-adv-x="651" 
d="M622.7 576.4h-231.58v-167.54h134.42v-117.72h-134.42v-291.14h-131.6v291.14h-134.42v117.72h134.42v167.54h-231.58v123.6h363.18h231.58v-123.6z" />
    <glyph glyph-name="Tcaron" unicode="&#x164;" horiz-adv-x="651" 
d="M249 793.26l-145.301 165.56h144.79l76.5801 -91.8799l76.5801 91.8799h144.78l-145.29 -165.56h-152.14zM622.689 699.999v-123.6h-231.58v-576.4h-131.6v576.4h-231.58v123.6h363.18h231.58z" />
    <glyph glyph-name="uni0162" unicode="&#x162;" horiz-adv-x="651" 
d="M391.12 0h-20.9199l-12.0098 -34.5703h35.7002c51.6797 0 75.7793 -28.5195 75.7793 -76.8799v-48.5498c0 -49.7695 -26.8096 -76.8994 -76.5791 -76.8994h-168.52v78.3701h138.54c10.0195 0 16.1592 0.540039 16.1592 16.21v25.7695
c0 15.8398 -6.16016 16.2402 -16.1602 16.2402h-27.7695v-0.0400391l-72.4902 0.0400391l27.21 100.31h-30.54v576.4h-231.58v123.6h363.18h231.58v-123.6h-231.58v-576.4z" />
    <glyph glyph-name="uni021A" unicode="&#x21a;" horiz-adv-x="651" 
d="M622.7 700v-123.6h-231.58v-576.4h-131.6v576.4h-231.58v123.6h594.76zM267.48 -191.649l0.000976562 131.6h131.6v-131.6l-50.6797 -110.99h-97.8203l50.6797 110.99h-33.7803z" />
    <glyph glyph-name="U" unicode="U" horiz-adv-x="748" 
d="M283.41 -10c-128.35 0 -197.529 70 -197.529 200v510h131.6v-499.29c0 -70.3398 18.3398 -87.1094 76.2295 -87.1094h165.32c57.8799 0 76.2295 16.7695 76.2295 87.1094v499.29h131.6v-510c0 -130 -69.1797 -200 -197.529 -200h-185.92z" />
    <glyph glyph-name="Uacute" unicode="&#xda;" horiz-adv-x="748" 
d="M324.89 799.73l137.8 165.55h150.78l-152.15 -165.55h-136.43zM283.409 -10c-128.35 0 -197.529 70 -197.529 200v510h131.6v-499.29c0 -70.3398 18.3398 -87.1094 76.2295 -87.1094h165.32c57.8799 0 76.2295 16.7695 76.2295 87.1094v499.29h131.6v-510
c0 -130 -69.1797 -200 -197.529 -200h-185.92z" />
    <glyph glyph-name="uni01D3" unicode="&#x1d3;" horiz-adv-x="748" 
d="M299.53 793.26l-145.291 165.56h144.78l76.5801 -91.8799l76.5801 91.8799h144.79l-145.3 -165.56h-152.14zM535.259 699.999h131.6v-510c0 -130 -69.1797 -200 -197.529 -200h-185.92c-128.35 0 -197.529 70 -197.529 200v510h131.6v-499.29
c0 -70.3398 18.3398 -87.1094 76.2295 -87.1094h165.32c57.8799 0 76.2295 16.7695 76.2295 87.1094v499.29z" />
    <glyph glyph-name="Ucircumflex" unicode="&#xdb;" horiz-adv-x="748" 
d="M375.09 885.14l-76.5801 -91.8799h-144.78l145.29 165.56h137.48h14.6602l145.3 -165.56h-144.79zM535.26 700h131.6v-510c0 -130 -69.1797 -200 -197.529 -200h-185.92c-128.35 0 -197.529 70 -197.529 200v510h131.6v-499.29
c0 -70.3398 18.3398 -87.1094 76.2295 -87.1094h165.32c57.8799 0 76.2295 16.7695 76.2295 87.1094v499.29z" />
    <glyph glyph-name="Udieresis" unicode="&#xdc;" horiz-adv-x="748" 
d="M197.51 790.91v132.54h132.54v-132.54h-132.54zM421.43 790.91v132.54h132.54v-132.54h-132.54zM283.41 -10c-128.35 0 -197.529 70 -197.529 200v510h131.6v-499.29c0 -70.3398 18.3398 -87.1094 76.2295 -87.1094h165.32c57.8799 0 76.2295 16.7695 76.2295 87.1094
v499.29h131.6v-510c0 -130 -69.1797 -200 -197.529 -200h-185.92z" />
    <glyph glyph-name="uni01D7" unicode="&#x1d7;" horiz-adv-x="748" 
d="M324.89 996.24l137.8 165.55h150.78l-152.15 -165.55h-136.43zM197.51 790.91v132.54h132.54v-132.54h-132.54zM421.43 790.91v132.54h132.54v-132.54h-132.54zM283.41 -10c-128.35 0 -197.529 70 -197.529 200v510h131.6v-499.29
c0 -70.3398 18.3398 -87.1094 76.2295 -87.1094h165.32c57.8799 0 76.2295 16.7695 76.2295 87.1094v499.29h131.6v-510c0 -130 -69.1797 -200 -197.529 -200h-185.92z" />
    <glyph glyph-name="uni01D9" unicode="&#x1d9;" horiz-adv-x="748" 
d="M299.53 996.24l-145.291 165.55h144.78l76.5801 -91.8701l76.5801 91.8701h144.79l-145.3 -165.55h-152.14zM197.509 790.91v132.54h132.54v-132.54h-132.54zM421.429 790.91v132.54h132.54v-132.54h-132.54zM535.259 700h131.6v-510c0 -130 -69.1797 -200 -197.529 -200
h-185.92c-128.35 0 -197.529 70 -197.529 200v510h131.6v-499.29c0 -70.3398 18.3398 -87.1094 76.2295 -87.1094h165.32c57.8799 0 76.2295 16.7695 76.2295 87.1094v499.29z" />
    <glyph glyph-name="uni01DB" unicode="&#x1db;" horiz-adv-x="748" 
d="M303.92 996.24l-152.15 165.55h150.78l137.8 -165.55h-136.43zM197.51 790.91v132.54h132.54v-132.54h-132.54zM421.43 790.91v132.54h132.54v-132.54h-132.54zM283.41 -10c-128.35 0 -197.529 70 -197.529 200v510h131.6v-499.29
c0 -70.3398 18.3398 -87.1094 76.2295 -87.1094h165.32c57.8799 0 76.2295 16.7695 76.2295 87.1094v499.29h131.6v-510c0 -130 -69.1797 -200 -197.529 -200h-185.92z" />
    <glyph glyph-name="uni01D5" unicode="&#x1d5;" horiz-adv-x="748" 
d="M229.55 996.24v104.31h289.53v-104.31h-289.53zM197.51 790.91v132.54h132.54v-132.54h-132.54zM421.43 790.91v132.54h132.54v-132.54h-132.54zM283.41 -10c-128.35 0 -197.529 70 -197.529 200v510h131.6v-499.29c0 -70.3398 18.3398 -87.1094 76.2295 -87.1094h165.32
c57.8799 0 76.2295 16.7695 76.2295 87.1094v499.29h131.6v-510c0 -130 -69.1797 -200 -197.529 -200h-185.92z" />
    <glyph glyph-name="Ugrave" unicode="&#xd9;" horiz-adv-x="748" 
d="M303.92 799.73l-152.15 165.55h150.78l137.8 -165.55h-136.43zM283.409 -10c-128.35 0 -197.529 70 -197.529 200v510h131.6v-499.29c0 -70.3398 18.3398 -87.1094 76.2295 -87.1094h165.32c57.8799 0 76.2295 16.7695 76.2295 87.1094v499.29h131.6v-510
c0 -130 -69.1797 -200 -197.529 -200h-185.92z" />
    <glyph glyph-name="Uhungarumlaut" unicode="&#x170;" horiz-adv-x="748" 
d="M195.67 799.73l131.561 165.55h149.02l-145.92 -165.55h-134.66zM403.421 799.73l131.561 165.55h149.02l-145.92 -165.55h-134.66zM283.411 -10c-128.35 0 -197.529 70 -197.529 200v510h131.6v-499.29c0 -70.3398 18.3398 -87.1094 76.2295 -87.1094h165.32
c57.8799 0 76.2295 16.7695 76.2295 87.1094v499.29h131.6v-510c0 -130 -69.1797 -200 -197.529 -200h-185.92z" />
    <glyph glyph-name="Umacron" unicode="&#x16a;" horiz-adv-x="748" 
d="M229.55 799.73v104.31h289.53v-104.31h-289.53zM283.41 -10c-128.35 0 -197.529 70 -197.529 200v510h131.6v-499.29c0 -70.3398 18.3398 -87.1094 76.2295 -87.1094h165.32c57.8799 0 76.2295 16.7695 76.2295 87.1094v499.29h131.6v-510
c0 -130 -69.1797 -200 -197.529 -200h-185.92z" />
    <glyph glyph-name="Uogonek" unicode="&#x172;" horiz-adv-x="748" 
d="M535.26 700l131.601 -0.00195312v-510c0 -89.54 -32.8203 -150.62 -95.1904 -179.96c-48.8604 -34.04 -78.46 -73.3896 -66.4102 -102.659c4.61035 -11.1904 17.29 -18.7002 41.0205 -18.3799c12.3496 0.160156 27.6797 2.44043 46.4297 7.4209l0.650391 -81.1299
c-29.8398 -11.9902 -59.9102 -18.6699 -86.6406 -18.6699c-54.5801 0 -85.7705 26.7305 -98.0205 59.0303c-14.0498 38.8604 -2.68945 89.29 41.0508 134.35h-166.34c-128.35 0 -197.529 70 -197.529 200v510h131.6v-499.29c0 -70.3398 18.3398 -87.1094 76.2295 -87.1094
h165.32c57.8799 0 76.2295 16.7695 76.2295 87.1094v499.29z" />
    <glyph glyph-name="Uring" unicode="&#x16e;" horiz-adv-x="748" 
d="M323.92 761.57c-52.2197 0 -80.3506 28.4805 -80.3506 80.7002v65.8096c0 52.8896 26.9805 80.6797 79.5205 80.6797h101.38c54.2402 0 79.5303 -29.9297 79.5303 -80.6797v-65.8096c0 -52.2197 -28.1299 -80.7002 -80.3604 -80.7002h-99.7197zM343.929 837.53h59.709
c10.2002 0 16.2803 0.549805 16.46 16.5195v42.2305c-0.179688 16.1396 -6.2793 16.5498 -16.459 16.5498h-59.71c-10.1904 0 -16.2803 -0.410156 -16.46 -16.5498v-42.2305c0.179688 -15.9697 6.25 -16.5195 16.46 -16.5195zM283.407 -10
c-128.35 0 -197.529 70 -197.529 200v510h131.6v-499.29c0 -70.3398 18.3398 -87.1094 76.2295 -87.1094h165.32c57.8799 0 76.2295 16.7695 76.2295 87.1094v499.29h131.6v-510c0 -130 -69.1797 -200 -197.529 -200h-185.92z" />
    <glyph glyph-name="V" unicode="V" horiz-adv-x="708" 
d="M541.35 700h141.211l-218.78 -700h-87.7803h-95.8203h-35.5195l-218.78 700h141.2l172.03 -576.4h30.2197z" />
    <glyph glyph-name="W" unicode="W" horiz-adv-x="1032" 
d="M869.61 700h136.511l-150.71 -700h-96.0898h-104.13h-29.9004l-105.25 535.67h-8.08984l-105.24 -535.67h-99.6201h-80.2803h-50.2197l-150.71 700h136.5l119.16 -576.4h15.6104l106.05 535.67h92.5596h85.79h47.2402l106.06 -535.67h15.5996z" />
    <glyph glyph-name="Wacute" unicode="&#x1e82;" horiz-adv-x="1032" 
d="M753.89 965.28l-152.15 -165.55h-136.43l137.8 165.55h150.78zM869.609 700h136.511l-150.71 -700h-96.0898h-104.13h-29.9004l-105.25 535.67h-8.08984l-105.24 -535.67h-99.6201h-80.2803h-50.2197l-150.71 700h136.5l119.16 -576.4h15.6104l106.05 535.67h92.5596
h85.79h47.2402l106.06 -535.67h15.5996z" />
    <glyph glyph-name="Wcircumflex" unicode="&#x174;" horiz-adv-x="1032" 
d="M515.51 885.14l-76.5801 -91.8799h-144.78l145.29 165.56h137.48h14.6602l145.3 -165.56h-144.79zM869.609 700h136.511l-150.71 -700h-96.0898h-104.13h-29.9004l-105.25 535.67h-8.08984l-105.24 -535.67h-99.6201h-80.2803h-50.2197l-150.71 700h136.5l119.16 -576.4
h15.6104l106.05 535.67h92.5596h85.79h47.2402l106.06 -535.67h15.5996z" />
    <glyph glyph-name="Wdieresis" unicode="&#x1e84;" horiz-adv-x="1032" 
d="M470.47 923.45v-132.54h-132.54v132.54h132.54zM694.39 923.45v-132.54h-132.54v132.54h132.54zM869.609 700h136.511l-150.71 -700h-96.0898h-104.13h-29.9004l-105.25 535.67h-8.08984l-105.24 -535.67h-99.6201h-80.2803h-50.2197l-150.71 700h136.5l119.16 -576.4
h15.6104l106.05 535.67h92.5596h85.79h47.2402l106.06 -535.67h15.5996z" />
    <glyph glyph-name="Wgrave" unicode="&#x1e80;" horiz-adv-x="1032" 
d="M580.76 799.73h-136.42l-152.15 165.55h150.78zM869.609 700h136.511l-150.71 -700h-96.0898h-104.13h-29.9004l-105.25 535.67h-8.08984l-105.24 -535.67h-99.6201h-80.2803h-50.2197l-150.71 700h136.5l119.16 -576.4h15.6104l106.05 535.67h92.5596h85.79h47.2402
l106.06 -535.67h15.5996z" />
    <glyph glyph-name="X" unicode="X" horiz-adv-x="750" 
d="M190.59 0h-164.711l262.8 356.3l-252.15 343.68l165.19 0.0302734l179.65 -246.14l166.45 246.17l163.96 -0.0400391l-246.38 -353.05l258.41 -346.94h-165.05l-185.74 250.12z" />
    <glyph glyph-name="Y" unicode="Y" horiz-adv-x="722" 
d="M696.54 699.91l-269.331 -482.851v-217.06h-131.6v216.75l-269.72 483.16l148 0.0898438l187.33 -341.73l187.32 341.73z" />
    <glyph glyph-name="Yacute" unicode="&#xdd;" horiz-adv-x="722" 
d="M599.12 965.28l-152.15 -165.55h-136.43l137.79 165.55h150.79zM696.54 699.91l-269.331 -482.851v-217.06h-131.6v216.75l-269.72 483.16l148 0.0898438l187.33 -341.73l187.32 341.73z" />
    <glyph glyph-name="Ycircumflex" unicode="&#x176;" horiz-adv-x="722" 
d="M360.74 885.14l-76.5801 -91.8799h-144.79l145.3 165.56h137.48h14.6602l145.29 -165.56h-144.78zM696.54 699.91l-269.331 -482.851v-217.06h-131.6v216.75l-269.72 483.16l148 0.0898438l187.33 -341.73l187.32 341.73z" />
    <glyph glyph-name="Ydieresis" unicode="&#x178;" horiz-adv-x="722" 
d="M315.7 923.45v-132.54h-132.54v132.54h132.54zM539.62 923.45v-132.54h-132.54v132.54h132.54zM696.54 699.91l-269.331 -482.851v-217.06h-131.6v216.75l-269.72 483.16l148 0.0898438l187.33 -341.73l187.32 341.73z" />
    <glyph glyph-name="Ygrave" unicode="&#x1ef2;" horiz-adv-x="722" 
d="M425.99 799.73h-136.42l-152.16 165.55h150.79zM696.54 699.91l-269.331 -482.851v-217.06h-131.6v216.75l-269.72 483.16l148 0.0898438l187.33 -341.73l187.32 341.73z" />
    <glyph glyph-name="Z" unicode="Z" horiz-adv-x="652" 
d="M228.46 123.6h370.9v-123.6h-546.42v112.39l363.94 464.01h-351.82v123.6h526.18v-113.88z" />
    <glyph glyph-name="Zacute" unicode="&#x179;" horiz-adv-x="652" 
d="M564.33 965.28l-152.16 -165.55h-136.42l137.79 165.55h150.79zM228.46 123.601h370.9v-123.6h-546.42v112.39l363.94 464.01h-351.82v123.6h526.18v-113.88z" />
    <glyph glyph-name="Zcaron" unicode="&#x17d;" horiz-adv-x="652" 
d="M250.39 793.26l-145.301 165.56h144.79l76.5801 -91.8799l76.5801 91.8799h144.78l-145.3 -165.56h-152.13zM228.459 123.6h370.9v-123.6h-546.42v112.39l363.94 464.01h-351.82v123.6h526.18v-113.88z" />
    <glyph glyph-name="Zdotaccent" unicode="&#x17b;" horiz-adv-x="652" 
d="M394.25 924.27v-133.36h-133.36v133.36h133.36zM228.46 123.6h370.9v-123.6h-546.42v112.39l363.94 464.01h-351.82v123.6h526.18v-113.88z" />
    <glyph glyph-name="a" unicode="a" horiz-adv-x="574" 
d="M369.29 510c94.2695 0 141.049 -54.25 141.049 -145.46v-364.54h-114.63l-4.63965 54.9004c-21.5498 -42.5596 -63.7197 -64.8994 -124.46 -64.8994h-76.7402c-99.79 0 -141.06 55.0596 -141.06 157.739c0 108.08 49.25 158.11 145.19 158.28h189.41v34.4697
c0 46.6396 -9.59961 55.79 -44 55.79h-245.45v113.72h275.33zM320.459 104.95c41.5801 0 62.9395 23.0898 62.9395 65.96v35.4004h-164.89c-31.8896 -0.110352 -42.7197 -11.3008 -42.8594 -51.5605c0.139648 -41.5 12.1992 -49.7998 42.8594 -49.7998h101.95z" />
    <glyph glyph-name="aacute" unicode="&#xe1;" horiz-adv-x="574" 
d="M525.7 765.28l-152.15 -165.55h-136.42l137.79 165.55h150.78zM369.29 510c94.2695 0 141.049 -54.25 141.049 -145.46v-364.54h-114.63l-4.63965 54.9004c-21.5498 -42.5596 -63.7197 -64.8994 -124.46 -64.8994h-76.7402c-99.79 0 -141.06 55.0596 -141.06 157.739
c0 108.08 49.25 158.11 145.19 158.28h189.41v34.4697c0 46.6396 -9.59961 55.79 -44 55.79h-245.45v113.72h275.33zM320.459 104.95c41.5801 0 62.9395 23.0898 62.9395 65.96v35.4004h-164.89c-31.8896 -0.110352 -42.7197 -11.3008 -42.8594 -51.5605
c0.139648 -41.5 12.1992 -49.7998 42.8594 -49.7998h101.95z" />
    <glyph glyph-name="abreve" unicode="&#x103;" horiz-adv-x="574" 
d="M213.66 599.8c-70.8096 0 -108.952 38.6104 -108.952 109.42v55.5898h110.6v-45.9102c0 -22.7402 8.91016 -23.5303 23.4404 -23.5303h95.79c14.5303 0 23.4307 0.790039 23.4307 23.5303v45.9102h110.61v-55.5898c0 -70.8096 -38.1396 -109.42 -108.949 -109.42h-145.97
zM369.287 510c94.2695 0 141.049 -54.25 141.049 -145.46v-364.54h-114.63l-4.63965 54.9004c-21.5498 -42.5596 -63.7197 -64.8994 -124.46 -64.8994h-76.7402c-99.79 0 -141.06 55.0596 -141.06 157.739c0 108.08 49.25 158.11 145.19 158.28h189.41v34.4697
c0 46.6396 -9.59961 55.79 -44 55.79h-245.45v113.72h275.33zM320.456 104.95c41.5801 0 62.9395 23.0898 62.9395 65.96v35.4004h-164.89c-31.8896 -0.110352 -42.7197 -11.3008 -42.8594 -51.5605c0.139648 -41.5 12.1992 -49.7998 42.8594 -49.7998h101.95z" />
    <glyph glyph-name="uni01CE" unicode="&#x1ce;" horiz-adv-x="574" 
d="M217.7 595.94l-115.648 166.07h132.55l52.3799 -88.4199l52.3896 88.4199h132.55l-115.65 -166.07h-138.57zM369.292 510.011c94.2695 0 141.049 -54.25 141.049 -145.46v-364.54h-114.63l-4.63965 54.9004c-21.5498 -42.5596 -63.7197 -64.8994 -124.46 -64.8994
h-76.7402c-99.79 0 -141.06 55.0596 -141.06 157.739c0 108.08 49.25 158.11 145.19 158.28h189.41v34.4697c0 46.6396 -9.59961 55.79 -44 55.79h-245.45v113.72h275.33zM320.461 104.961c41.5801 0 62.9395 23.0898 62.9395 65.96v35.4004h-164.89
c-31.8896 -0.110352 -42.7197 -11.3008 -42.8594 -51.5605c0.139648 -41.5 12.1992 -49.7998 42.8594 -49.7998h101.95z" />
    <glyph glyph-name="acircumflex" unicode="&#xe2;" horiz-adv-x="574" 
d="M288.71 684.37l-52.3916 -88.4297h-132.55l115.65 166.07h115.29h23.2803l115.65 -166.07h-132.55zM369.288 510c94.2695 0 141.049 -54.25 141.049 -145.46v-364.54h-114.63l-4.63965 54.9004c-21.5498 -42.5596 -63.7197 -64.8994 -124.46 -64.8994h-76.7402
c-99.79 0 -141.06 55.0596 -141.06 157.739c0 108.08 49.25 158.11 145.19 158.28h189.41v34.4697c0 46.6396 -9.59961 55.79 -44 55.79h-245.45v113.72h275.33zM320.457 104.95c41.5801 0 62.9395 23.0898 62.9395 65.96v35.4004h-164.89
c-31.8896 -0.110352 -42.7197 -11.3008 -42.8594 -51.5605c0.139648 -41.5 12.1992 -49.7998 42.8594 -49.7998h101.95z" />
    <glyph glyph-name="adieresis" unicode="&#xe4;" horiz-adv-x="574" 
d="M242.29 723.45v-132.54h-132.54v132.54h132.54zM466.2 723.45v-132.54h-132.54v132.54h132.54zM369.29 510c94.2695 0 141.049 -54.25 141.049 -145.46v-364.54h-114.63l-4.63965 54.9004c-21.5498 -42.5596 -63.7197 -64.8994 -124.46 -64.8994h-76.7402
c-99.79 0 -141.06 55.0596 -141.06 157.739c0 108.08 49.25 158.11 145.19 158.28h189.41v34.4697c0 46.6396 -9.59961 55.79 -44 55.79h-245.45v113.72h275.33zM320.459 104.95c41.5801 0 62.9395 23.0898 62.9395 65.96v35.4004h-164.89
c-31.8896 -0.110352 -42.7197 -11.3008 -42.8594 -51.5605c0.139648 -41.5 12.1992 -49.7998 42.8594 -49.7998h101.95z" />
    <glyph glyph-name="agrave" unicode="&#xe0;" horiz-adv-x="574" 
d="M352.58 599.73h-136.43l-152.15 165.55h150.78zM369.29 510c94.2695 0 141.049 -54.25 141.049 -145.46v-364.54h-114.63l-4.63965 54.9004c-21.5498 -42.5596 -63.7197 -64.8994 -124.46 -64.8994h-76.7402c-99.79 0 -141.06 55.0596 -141.06 157.739
c0 108.08 49.25 158.11 145.19 158.28h189.41v34.4697c0 46.6396 -9.59961 55.79 -44 55.79h-245.45v113.72h275.33zM320.459 104.95c41.5801 0 62.9395 23.0898 62.9395 65.96v35.4004h-164.89c-31.8896 -0.110352 -42.7197 -11.3008 -42.8594 -51.5605
c0.139648 -41.5 12.1992 -49.7998 42.8594 -49.7998h101.95z" />
    <glyph glyph-name="amacron" unicode="&#x101;" horiz-adv-x="574" 
d="M431.31 704.04v-104.31h-289.53v104.31h289.53zM369.29 510c94.2695 0 141.049 -54.25 141.049 -145.46v-364.54h-114.63l-4.63965 54.9004c-21.5498 -42.5596 -63.7197 -64.8994 -124.46 -64.8994h-76.7402c-99.79 0 -141.06 55.0596 -141.06 157.739
c0 108.08 49.25 158.11 145.19 158.28h189.41v34.4697c0 46.6396 -9.59961 55.79 -44 55.79h-245.45v113.72h275.33zM320.459 104.95c41.5801 0 62.9395 23.0898 62.9395 65.96v35.4004h-164.89c-31.8896 -0.110352 -42.7197 -11.3008 -42.8594 -51.5605
c0.139648 -41.5 12.1992 -49.7998 42.8594 -49.7998h101.95z" />
    <glyph glyph-name="aogonek" unicode="&#x105;" horiz-adv-x="574" 
d="M493.84 0c-57.5801 -36.0801 -94.5996 -80.3809 -81.3594 -112.521c4.50977 -11.1904 17.29 -18.7002 41.0205 -18.3906c12.3398 0.160156 27.6797 2.44043 46.4297 7.4209l0.650391 -81.1201c-29.8398 -11.9902 -59.9102 -18.6807 -86.6504 -18.6807
c-54.5703 0 -85.7607 26.7305 -98.0107 59.04c-17.54 48.4805 4.5 114.961 79.5898 166.571l-4.44043 52.5801c-21.5498 -42.5596 -63.7197 -64.8994 -124.46 -64.8994h-76.7402c-99.79 0 -141.06 55.0596 -141.06 157.739c0 108.08 49.25 158.11 145.19 158.28h189.41
v34.4697c0 46.6396 -9.59961 55.79 -44 55.79h-245.45v113.72h275.33c94.2695 0 141.06 -54.25 141.06 -145.46v-364.54h-16.5098zM320.45 104.949c41.5801 0 62.9395 23.0898 62.9395 65.96v35.4004h-164.89c-31.8896 -0.110352 -42.7197 -11.3008 -42.8594 -51.5605
c0.139648 -41.5 12.1992 -49.7998 42.8594 -49.7998h101.95z" />
    <glyph glyph-name="aring" unicode="&#xe5;" horiz-adv-x="574" 
d="M236.16 561.57c-52.2305 0 -80.3604 28.4805 -80.3604 80.7002v65.8096c0 52.8896 26.9805 80.6797 79.5205 80.6797h101.39c54.2402 0 79.5205 -29.9297 79.5205 -80.6797v-65.8096c0 -52.2197 -28.1299 -80.7002 -80.3604 -80.7002h-99.71zM239.7 696.28
l-0.000976562 -42.2305c0.179688 -15.9697 6.25 -16.5195 16.46 -16.5195h59.71c10.21 0 16.2803 0.549805 16.46 16.5195v42.2305c-0.179688 16.1396 -6.2793 16.5498 -16.459 16.5498h-59.71c-10.1904 0 -16.2803 -0.410156 -16.46 -16.5498zM369.289 510
c94.2695 0 141.049 -54.25 141.049 -145.46v-364.54h-114.63l-4.63965 54.9004c-21.5498 -42.5596 -63.7197 -64.8994 -124.46 -64.8994h-76.7402c-99.79 0 -141.06 55.0596 -141.06 157.739c0 108.08 49.25 158.11 145.19 158.28h189.41v34.4697
c0 46.6396 -9.59961 55.79 -44 55.79h-245.45v113.72h275.33zM320.458 104.95c41.5801 0 62.9395 23.0898 62.9395 65.96v35.4004h-164.89c-31.8896 -0.110352 -42.7197 -11.3008 -42.8594 -51.5605c0.139648 -41.5 12.1992 -49.7998 42.8594 -49.7998h101.95z" />
    <glyph glyph-name="atilde" unicode="&#xe3;" horiz-adv-x="574" 
d="M273.91 621.15c-56.2402 34.6699 -72.5693 32.4297 -109.14 -39.8604l-70.1602 44.5898c39.3496 79.6201 78.8096 115.7 126.25 116.61c34.6201 0.410156 60.5605 -17.7197 90.2803 -36.4297c54.75 -33.71 73.5801 -31.1104 106.58 35.7197l69.96 -44.5195
c-39.2305 -77.9297 -77.29 -111.13 -119.72 -112.55c-33.7803 -1.53027 -64.4307 17.7793 -94.0508 36.4395zM369.291 510c94.2695 0 141.049 -54.25 141.049 -145.46v-364.54h-114.63l-4.63965 54.9004c-21.5498 -42.5596 -63.7197 -64.8994 -124.46 -64.8994h-76.7402
c-99.79 0 -141.06 55.0596 -141.06 157.739c0 108.08 49.25 158.11 145.19 158.28h189.41v34.4697c0 46.6396 -9.59961 55.79 -44 55.79h-245.45v113.72h275.33zM320.46 104.95c41.5801 0 62.9395 23.0898 62.9395 65.96v35.4004h-164.89
c-31.8896 -0.110352 -42.7197 -11.3008 -42.8594 -51.5605c0.139648 -41.5 12.1992 -49.7998 42.8594 -49.7998h101.95z" />
    <glyph glyph-name="ae" unicode="&#xe6;" horiz-adv-x="890" 
d="M510.35 189.82l-0.00878906 -28.0205c0 -46.6396 12.3496 -56.8496 50.8193 -56.8496h260.61v-114.95h-275.55c-57.5898 0 -100.59 16.8496 -127.689 49.2197c-24.0498 -32.3496 -63.5898 -49.2197 -116.37 -49.2197h-112.28c-100.71 0 -141.06 55.2197 -141.06 159.71
c0 106.22 46.6699 158.37 141.06 158.37h193.53v32.4102c0 46.6396 -9.59961 55.79 -44 55.79h-245.45v113.72h275.33c39.1504 0 67.6699 -11.9404 85.7598 -33.79c19.8096 22.2305 50.5 33.79 91.1797 33.79h131.06c105 0 164.13 -56 164.13 -160v-160.18h-331.07z
M559.531 395.05c-38.46 0 -49.1895 -9.16016 -49.1895 -55.7998v-43.2402h205.47v43.2402c0 46.6396 -10.7305 55.7998 -49.2002 55.7998h-107.08zM320.462 104.95c41.5801 0 62.9404 23.0889 62.9404 65.959v32.9902h-166.95
c-31.9502 0 -40.5303 -10.4902 -40.7002 -50.2998c0.169922 -39.8096 8.75 -48.6494 40.7002 -48.6494h104.01z" />
    <glyph glyph-name="b" unicode="b" horiz-adv-x="590" 
d="M363.46 510c104 0 160 -56 160 -160v-211.99c0 -96.21 -51.7998 -148.01 -148.01 -148.01h-150.16c-104 0 -160 56 -160 160v550h123.95v-236.23c24.3203 30.4004 63.4805 46.2305 116.2 46.2305h58.0195zM399.51 160.74l-0.000976562 178.511
c0 46.6396 -10.46 55.7998 -47.9502 55.7998h-97.1201c-38.3701 0 -60.8896 -18.4902 -65.1992 -53.1006v-181.21c0 -46.6396 10.46 -55.79 47.9502 -55.79h114.37c37.4902 0 47.9502 9.15039 47.9502 55.79z" />
    <glyph glyph-name="c" unicode="c" horiz-adv-x="486" 
d="M213.82 -10c-104 0 -160 56 -160 160v200c0 104 56 160 160 160h223.6v-114.95h-210.05c-37.4902 0 -47.9502 -9.16016 -47.9502 -55.7998v-178.51c0 -46.6396 10.46 -55.79 47.9502 -55.79h210.05v-114.95h-223.6z" />
    <glyph glyph-name="cacute" unicode="&#x107;" horiz-adv-x="486" 
d="M205.71 599.73l137.8 165.55h150.78l-152.15 -165.55h-136.43zM213.819 -10c-104 0 -160 56 -160 160v200c0 104 56 160 160 160h223.6v-114.95h-210.05c-37.4902 0 -47.9502 -9.16016 -47.9502 -55.7998v-178.51c0 -46.6396 10.46 -55.79 47.9502 -55.79h210.05v-114.95
h-223.6z" />
    <glyph glyph-name="ccaron" unicode="&#x10d;" horiz-adv-x="486" 
d="M186.28 595.94l-115.639 166.07h132.54l52.3896 -88.4199l52.3896 88.4199h132.55l-115.65 -166.07h-138.58zM53.8213 350.001c0 104 56 160 160 160h223.6v-114.95h-210.05c-37.4902 0 -47.9502 -9.16016 -47.9502 -55.7998v-178.51
c0 -46.6396 10.46 -55.79 47.9502 -55.79h210.05v-114.95h-223.6c-104 0 -160 56 -160 160v200z" />
    <glyph glyph-name="ccedilla" unicode="&#xe7;" horiz-adv-x="486" 
d="M227.37 395.05c-37.4902 0 -47.96 -9.16016 -47.96 -55.7998v-178.51c0 -46.6396 10.46 -55.79 47.9502 -55.79h210.05v-114.95h-139.34l-8.54004 -24.5703h35.7002c51.6904 0 75.7803 -28.5195 75.7803 -76.8799v-48.5498
c0 -49.7695 -26.8096 -76.8994 -76.5693 -76.8994h-168.52v78.3701h138.54c10.0098 0 16.1494 0.540039 16.1494 16.21v25.7695c0 15.8398 -6.16016 16.2402 -16.1504 16.2402h-27.7803v-0.0400391l-72.4902 0.0400391l24.5 90.3096h-4.87012c-104 0 -160 56 -160 160v200
c0 104 56 160 160 160h223.6v-114.95h-210.05z" />
    <glyph glyph-name="cdotaccent" unicode="&#x10b;" horiz-adv-x="486" 
d="M190.85 590.91v133.36h133.37v-133.36h-133.37zM213.819 -9.99902c-104 0 -160 56 -160 160v200c0 104 56 160 160 160h223.6v-114.95h-210.05c-37.4902 0 -47.9502 -9.16016 -47.9502 -55.7998v-178.51c0 -46.6396 10.46 -55.79 47.9502 -55.79h210.05v-114.95h-223.6z
" />
    <glyph glyph-name="d" unicode="d" horiz-adv-x="585" 
d="M392.88 700l125.602 -0.000976562v-700h-112.65l-4.88965 55.0703c-22.3203 -42.6699 -66.0801 -65.0703 -129.15 -65.0703h-71.6904c-95.0801 0 -146.28 50.9102 -146.28 145.45v214.55c0 104 56.3203 160 160.91 160h61.3604
c52.9697 0 92.3193 -15.7998 116.789 -46.1494v236.15zM322.531 104.949c43.2695 0 69.7295 23.0488 70.3496 64.4092v172.59c-4.41992 34.6104 -27.46 53.1006 -66.0498 53.1006h-98.7197c-38.0703 0 -48.6904 -9.16016 -48.6904 -55.7998v-178.51
c0 -46.6396 10.6201 -55.79 48.6904 -55.79h94.4199z" />
    <glyph glyph-name="eth" unicode="&#xf0;" horiz-adv-x="586" 
d="M590.72 606.91l-72.8193 -25.3096c0.330078 -5.73047 0.490234 -11.5908 0.490234 -17.6006v-422.63c0 -98.4404 -52.4502 -151.49 -150.891 -151.44l-162.23 0.0703125c-98.4502 0.0400391 -151.45 53 -151.45 151.45v198.55c0 104 56 160 160 160h61.4004
c53.54 0 93.1602 -16.1396 117.57 -47.1299v85.25l-75.0898 -26.0996l-30.9902 85.7402l80.4697 27.96c-11 6.32031 -25.9902 8.81055 -45.8604 8.81055h-221.66v112.89h235.21c76.8398 0 130.83 -26.6504 159.53 -77.4805l65.3301 22.7002zM392.79 160.671
l-0.000976562 158.41c0 42.8799 -23.71 65.9697 -66.8301 65.9697h-98.5898c-37.4902 0 -47.9502 -9.16016 -47.9502 -55.7998v-168.51c0 -46.6396 10.46 -55.7695 47.9502 -55.7891l118.03 -0.0703125c37.4902 -0.0302734 47.3906 9.14941 47.3906 55.7891z" />
    <glyph glyph-name="dcaron" unicode="&#x10f;" horiz-adv-x="585" 
d="M392.88 463.85l0.00195312 236.149h125.6v-700h-112.65l-4.88965 55.0703c-22.3203 -42.6699 -66.0801 -65.0703 -129.15 -65.0703h-71.6904c-95.0801 0 -146.28 50.9102 -146.28 145.45v214.55c0 104 56.3203 160 160.91 160h61.3604
c52.9697 0 92.3193 -15.7998 116.789 -46.1494zM589.172 699.999h131.601v-131.6l-50.6699 -110.99h-97.8301l50.6797 110.99h-33.7803v131.6zM322.532 104.949c43.2695 0 69.7295 23.0488 70.3496 64.4092v172.59c-4.41992 34.6104 -27.46 53.1006 -66.0498 53.1006
h-98.7197c-38.0703 0 -48.6904 -9.16016 -48.6904 -55.7998v-178.51c0 -46.6396 10.6201 -55.79 48.6904 -55.79h94.4199z" />
    <glyph glyph-name="dcroat" unicode="&#x111;" horiz-adv-x="585" 
d="M615.74 660.58l0.00195312 -112.371h-97.2598v-548.21h-112.65l-4.88965 55.0703c-22.3203 -42.6699 -66.0801 -65.0703 -129.15 -65.0703h-71.6904c-95.0801 0 -146.28 50.9102 -146.28 145.45v214.55c0 104 56.3203 160 160.91 160h61.3604
c52.9697 0 92.3193 -15.7998 116.789 -46.1494v84.3604h-148.46v112.37h148.46v39.4199h125.6v-39.4199h97.2598zM322.532 104.949c43.2695 0 69.7295 23.0488 70.3496 64.4092v172.59c-4.41992 34.6104 -27.46 53.1006 -66.0498 53.1006h-98.7197
c-38.0703 0 -48.6904 -9.16016 -48.6904 -55.7998v-178.51c0 -46.6396 10.6201 -55.79 48.6904 -55.79h94.4199z" />
    <glyph glyph-name="e" unicode="e" horiz-adv-x="562" 
d="M178.79 191.06v-29.2598c0 -46.6396 12.9502 -56.8496 52.1104 -56.8496h263.02v-114.95h-277.48c-105.71 0 -162.62 56 -162.62 160v200c0 104 56.9102 160 162.62 160h131.82c105.7 0 165.21 -56 165.21 -160v-158.94h-334.68zM228.88 395.05
c-39.1699 0 -50.0898 -9.16016 -50.0898 -55.7998v-44.4805h209.76v44.4805c0 46.6396 -10.9297 55.7998 -50.0898 55.7998h-109.58z" />
    <glyph glyph-name="eacute" unicode="&#xe9;" horiz-adv-x="562" 
d="M521.62 765.28l-152.15 -165.55h-136.43l137.79 165.55h150.79zM348.26 510c105.7 0 165.21 -56 165.21 -160v-158.94h-124.92h-209.76v-29.2598c0 -46.6396 12.9502 -56.8496 52.1104 -56.8496h263.02v-114.95h-277.48c-105.71 0 -162.62 56 -162.62 160v200
c0 104 56.9102 160 162.62 160h131.82zM178.79 294.77h209.76v44.4805c0 46.6396 -10.9297 55.7998 -50.0898 55.7998h-109.58c-39.1699 0 -50.0898 -9.16016 -50.0898 -55.7998v-44.4805z" />
    <glyph glyph-name="ecaron" unicode="&#x11b;" horiz-adv-x="562" 
d="M213.61 595.94l-115.648 166.07h132.55l52.3896 -88.4199l52.3896 88.4199h132.54l-115.65 -166.07h-138.57zM178.792 191.061v-29.2598c0 -46.6396 12.9502 -56.8496 52.1104 -56.8496h263.02v-114.95h-277.48c-105.71 0 -162.62 56 -162.62 160v200
c0 104 56.9102 160 162.62 160h131.82c105.7 0 165.21 -56 165.21 -160v-158.94h-334.68zM228.882 395.051c-39.1699 0 -50.0898 -9.16016 -50.0898 -55.7998v-44.4805h209.76v44.4805c0 46.6396 -10.9297 55.7998 -50.0898 55.7998h-109.58z" />
    <glyph glyph-name="ecircumflex" unicode="&#xea;" horiz-adv-x="562" 
d="M284.62 684.37l-52.3818 -88.4297h-132.55l115.65 166.07h115.28h23.29l115.65 -166.07h-132.55zM178.788 191.061v-29.2598c0 -46.6396 12.9502 -56.8496 52.1104 -56.8496h263.02v-114.95h-277.48c-105.71 0 -162.62 56 -162.62 160v200c0 104 56.9102 160 162.62 160
h131.82c105.7 0 165.21 -56 165.21 -160v-158.94h-334.68zM228.878 395.051c-39.1699 0 -50.0898 -9.16016 -50.0898 -55.7998v-44.4805h209.76v44.4805c0 46.6396 -10.9297 55.7998 -50.0898 55.7998h-109.58z" />
    <glyph glyph-name="edieresis" unicode="&#xeb;" horiz-adv-x="562" 
d="M238.2 723.45v-132.54h-132.54v132.54h132.54zM462.12 723.45v-132.54h-132.54v132.54h132.54zM178.79 191.061v-29.2598c0 -46.6396 12.9502 -56.8496 52.1104 -56.8496h263.02v-114.95h-277.48c-105.71 0 -162.62 56 -162.62 160v200c0 104 56.9102 160 162.62 160
h131.82c105.7 0 165.21 -56 165.21 -160v-158.94h-334.68zM228.88 395.051c-39.1699 0 -50.0898 -9.16016 -50.0898 -55.7998v-44.4805h209.76v44.4805c0 46.6396 -10.9297 55.7998 -50.0898 55.7998h-109.58z" />
    <glyph glyph-name="edotaccent" unicode="&#x117;" horiz-adv-x="562" 
d="M351.55 724.27v-133.36h-133.37v133.36h133.37zM178.79 191.06v-29.2598c0 -46.6396 12.9502 -56.8496 52.1104 -56.8496h263.02v-114.95h-277.48c-105.71 0 -162.62 56 -162.62 160v200c0 104 56.9102 160 162.62 160h131.82c105.7 0 165.21 -56 165.21 -160v-158.94
h-334.68zM228.88 395.05c-39.1699 0 -50.0898 -9.16016 -50.0898 -55.7998v-44.4805h209.76v44.4805c0 46.6396 -10.9297 55.7998 -50.0898 55.7998h-109.58z" />
    <glyph glyph-name="egrave" unicode="&#xe8;" horiz-adv-x="562" 
d="M348.49 599.73h-136.42l-152.16 165.55h150.79zM178.79 191.061v-29.2598c0 -46.6396 12.9502 -56.8496 52.1104 -56.8496h263.02v-114.95h-277.48c-105.71 0 -162.62 56 -162.62 160v200c0 104 56.9102 160 162.62 160h131.82c105.7 0 165.21 -56 165.21 -160v-158.94
h-334.68zM228.88 395.051c-39.1699 0 -50.0898 -9.16016 -50.0898 -55.7998v-44.4805h209.76v44.4805c0 46.6396 -10.9297 55.7998 -50.0898 55.7998h-109.58z" />
    <glyph glyph-name="emacron" unicode="&#x113;" horiz-adv-x="562" 
d="M427.23 704.04v-104.31h-289.53v104.31h289.53zM178.79 191.061v-29.2598c0 -46.6396 12.9502 -56.8496 52.1104 -56.8496h263.02v-114.95h-277.48c-105.71 0 -162.62 56 -162.62 160v200c0 104 56.9102 160 162.62 160h131.82c105.7 0 165.21 -56 165.21 -160v-158.94
h-334.68zM228.88 395.051c-39.1699 0 -50.0898 -9.16016 -50.0898 -55.7998v-44.4805h209.76v44.4805c0 46.6396 -10.9297 55.7998 -50.0898 55.7998h-109.58z" />
    <glyph glyph-name="eogonek" unicode="&#x119;" horiz-adv-x="562" 
d="M178.79 191.06v-29.251c0 -46.6396 12.9502 -56.8496 52.1104 -56.8496h263.02v-114.95c-62.2002 -36.9102 -103.38 -83.8604 -89.5195 -117.511c4.59961 -11.1904 17.2793 -18.7002 41.0195 -18.3799c12.3398 0.160156 27.6797 2.44043 46.4199 7.4209
l0.650391 -81.1299c-29.8301 -11.9902 -59.9102 -18.6699 -86.6406 -18.6699c-54.5801 0 -85.7598 26.7305 -98.0098 59.0303c-17.7305 49 4.96973 117.37 82.0293 169.23h-173.43c-105.71 0 -162.62 56 -162.62 160v200c0 104 56.9102 160 162.62 160h131.82
c105.7 0 165.21 -56 165.21 -160v-158.94h-334.68zM228.88 395.059c-39.1699 0 -50.0898 -9.16016 -50.0898 -55.7998v-44.4805h209.76v44.4805c0 46.6396 -10.9297 55.7998 -50.0898 55.7998h-109.58z" />
    <glyph glyph-name="f" unicode="f" horiz-adv-x="385" 
d="M277.38 595.05c-37.4902 0 -47.9512 -9.16016 -47.9512 -55.7998v-39.25h129.71v-113.19h-129.71v-386.81h-125.6v386.81h-76.7695v113.19h76.7695v50c0 104 56 160 160 160h121.23v-114.95h-107.68z" />
    <glyph glyph-name="g" unicode="g" horiz-adv-x="579" 
d="M399.79 94.3203c82.3496 0 126.739 -46.9912 126.129 -131.121v-34.29c0.0302734 -87.0996 -43.1895 -131.17 -126.63 -131.17h-327.02l-0.110352 107.74h303.04c26.2598 0 32.29 5.66992 32.29 30.4004v19.7998c0 30.4297 -11.3604 30.3301 -32.2803 30.4004
l-205.36 0.589844c-69.8896 0.19043 -113.97 14.7705 -113.97 72.7705v61.2305c0 30.54 16.71 48.3301 45.2295 55.8799c-29.7197 20.8496 -45.2295 56.0801 -45.2295 104.18v103c0 82.7695 42.96 126.27 126.63 126.27h238.6h113.75l0.669922 -88.1201l-70.79 -6.05957
c22.0303 -11.8799 33.1904 -34.75 33.3809 -67.5801l0.490234 -68.0801c0 -81.6201 -43.8701 -125.73 -127.03 -125.73h-185.74c-8.55957 0 -11.6992 -3.17969 -11.6992 -9.91992v-40.2695c-0.0195312 -6.75 3.13086 -9.91992 11.6904 -9.91992h213.96zM173.85 371.249
v-78.2305c0.240234 -29.6299 12.3398 -30.6494 32.4902 -30.6494h140.77c19.9902 0 33.0605 0 33.0605 30.7197l0.0703125 78.3604c0 22.5596 -3.66992 30.5 -32.9004 30.5h-141c-20.1104 0 -32.1406 -0.75 -32.4902 -30.7002z" />
    <glyph glyph-name="gbreve" unicode="&#x11f;" horiz-adv-x="579" 
d="M216.99 599.8c-70.8203 0 -108.952 38.6104 -108.952 109.42v55.5898h110.6v-45.9102c0 -22.7402 8.91016 -23.5303 23.4404 -23.5303h95.79c14.5303 0 23.4307 0.790039 23.4307 23.5303v45.9102h110.61v-55.5898c0 -70.8096 -38.1396 -109.42 -108.949 -109.42h-145.97
zM399.788 94.3193c82.3496 0 126.739 -46.9912 126.129 -131.121v-34.29c0.0302734 -87.0996 -43.1895 -131.17 -126.63 -131.17h-327.02l-0.110352 107.74h303.04c26.2598 0 32.29 5.66992 32.29 30.4004v19.7998c0 30.4297 -11.3604 30.3301 -32.2803 30.4004
l-205.36 0.589844c-69.8896 0.19043 -113.97 14.7705 -113.97 72.7705v61.2305c0 30.54 16.71 48.3301 45.2295 55.8799c-29.7197 20.8496 -45.2295 56.0801 -45.2295 104.18v103c0 82.7695 42.96 126.27 126.63 126.27h238.6h113.75l0.669922 -88.1201l-70.79 -6.05957
c22.0303 -11.8799 33.1904 -34.75 33.3809 -67.5801l0.490234 -68.0801c0 -81.6201 -43.8701 -125.73 -127.03 -125.73h-185.74c-8.55957 0 -11.6992 -3.17969 -11.6992 -9.91992v-40.2695c-0.0195312 -6.75 3.13086 -9.91992 11.6904 -9.91992h213.96zM173.848 371.248
v-78.2305c0.240234 -29.6299 12.3398 -30.6494 32.4902 -30.6494h140.77c19.9902 0 33.0605 0 33.0605 30.7197l0.0703125 78.3604c0 22.5596 -3.66992 30.5 -32.9004 30.5h-141c-20.1104 0 -32.1406 -0.75 -32.4902 -30.7002z" />
    <glyph glyph-name="gcommaaccent" unicode="&#x123;" horiz-adv-x="579" 
d="M348.26 721.99v-131.6h-131.6v131.6l50.6797 110.99h97.8301l-50.6797 -110.99h33.7695zM399.79 94.3203c82.3496 0 126.739 -46.9912 126.129 -131.121v-34.29c0.0302734 -87.0996 -43.1895 -131.17 -126.63 -131.17h-327.02l-0.110352 107.74h303.04
c26.2598 0 32.29 5.66992 32.29 30.4004v19.7998c0 30.4297 -11.3604 30.3301 -32.2803 30.4004l-205.36 0.589844c-69.8896 0.19043 -113.97 14.7705 -113.97 72.7705v61.2305c0 30.54 16.71 48.3301 45.2295 55.8799c-29.7197 20.8496 -45.2295 56.0801 -45.2295 104.18
v103c0 82.7695 42.96 126.27 126.63 126.27h238.6h113.75l0.669922 -88.1201l-70.79 -6.05957c22.0303 -11.8799 33.1904 -34.75 33.3809 -67.5801l0.490234 -68.0801c0 -81.6201 -43.8701 -125.73 -127.03 -125.73h-185.74c-8.55957 0 -11.6992 -3.17969 -11.6992 -9.91992
v-40.2695c-0.0195312 -6.75 3.13086 -9.91992 11.6904 -9.91992h213.96zM173.85 371.249v-78.2305c0.240234 -29.6299 12.3398 -30.6494 32.4902 -30.6494h140.77c19.9902 0 33.0605 0 33.0605 30.7197l0.0703125 78.3604c0 22.5596 -3.66992 30.5 -32.9004 30.5h-141
c-20.1104 0 -32.1406 -0.75 -32.4902 -30.7002z" />
    <glyph glyph-name="gdotaccent" unicode="&#x121;" horiz-adv-x="579" 
d="M358.96 724.27v-133.36h-133.36v133.36h133.36zM399.79 94.3193c82.3496 0 126.739 -46.9912 126.129 -131.121v-34.29c0.0302734 -87.0996 -43.1895 -131.17 -126.63 -131.17h-327.02l-0.110352 107.74h303.04c26.2598 0 32.29 5.66992 32.29 30.4004v19.7998
c0 30.4297 -11.3604 30.3301 -32.2803 30.4004l-205.36 0.589844c-69.8896 0.19043 -113.97 14.7705 -113.97 72.7705v61.2305c0 30.54 16.71 48.3301 45.2295 55.8799c-29.7197 20.8496 -45.2295 56.0801 -45.2295 104.18v103c0 82.7695 42.96 126.27 126.63 126.27h238.6
h113.75l0.669922 -88.1201l-70.79 -6.05957c22.0303 -11.8799 33.1904 -34.75 33.3809 -67.5801l0.490234 -68.0801c0 -81.6201 -43.8701 -125.73 -127.03 -125.73h-185.74c-8.55957 0 -11.6992 -3.17969 -11.6992 -9.91992v-40.2695
c-0.0195312 -6.75 3.13086 -9.91992 11.6904 -9.91992h213.96zM173.85 371.248v-78.2305c0.240234 -29.6299 12.3398 -30.6494 32.4902 -30.6494h140.77c19.9902 0 33.0605 0 33.0605 30.7197l0.0703125 78.3604c0 22.5596 -3.66992 30.5 -32.9004 30.5h-141
c-20.1104 0 -32.1406 -0.75 -32.4902 -30.7002z" />
    <glyph glyph-name="h" unicode="h" horiz-adv-x="599" 
d="M391.79 510c93.46 0 143.78 -51.8096 143.78 -148.02v-361.98h-125.41v339.25c0 46.6396 -10.04 55.7998 -46.0205 55.7998h-100.38c-38.0996 0 -60.3398 -18.7803 -64.3398 -53.9102v-341.14h-125.6v700h125.6v-236.46c23.9502 30.5498 62.5898 46.46 114.67 46.46
h77.7002z" />
    <glyph glyph-name="hbar" unicode="&#x127;" horiz-adv-x="599" 
d="M391.79 510c93.46 0 143.78 -51.8096 143.78 -148.02v-361.98h-125.41v339.25c0 46.6396 -10.04 55.7998 -46.0205 55.7998h-100.38c-38.0996 0 -60.3398 -18.7803 -64.3398 -53.9102v-341.14h-125.6v548.21h-97.2695v112.37h97.2695v39.4199h125.6v-39.4199h148.45
v-112.37h-148.45v-84.6699c23.9502 30.5498 62.5898 46.46 114.67 46.46h77.7002z" />
    <glyph glyph-name="i" unicode="i" horiz-adv-x="275" 
d="M73.8203 590.91v133.95h133.95v-133.95h-133.95zM77.9902 0v500h125.6v-500h-125.6z" />
    <glyph glyph-name="dotlessi" unicode="&#x131;" horiz-adv-x="272" 
d="M76.7598 0v500h125.6v-500h-125.6z" />
    <glyph glyph-name="iacute" unicode="&#xed;" horiz-adv-x="272" 
d="M88.6201 599.73l137.79 165.55h150.78l-152.15 -165.55h-136.42zM76.7598 0v500h125.6v-500h-125.6z" />
    <glyph glyph-name="uni01D0" unicode="&#x1d0;" horiz-adv-x="272" 
d="M190.86 762.01h132.552l-115.65 -166.07h-115.29h-23.2803l-115.65 166.07h132.55l52.3799 -88.4199zM76.7617 -0v500h125.6v-500h-125.6z" />
    <glyph glyph-name="icircumflex" unicode="&#xee;" horiz-adv-x="272" 
d="M140.2 684.37l-52.3916 -88.4297h-132.55l115.65 166.07h115.29h23.2803l115.65 -166.07h-132.55zM76.7588 0v500h125.6v-500h-125.6z" />
    <glyph glyph-name="idieresis" unicode="&#xef;" horiz-adv-x="272" 
d="M-38.7598 590.91v132.54h132.54v-132.54h-132.54zM185.15 590.91v132.54h132.54v-132.54h-132.54zM76.7607 0v500h125.6v-500h-125.6z" />
    <glyph glyph-name="i.loclTRK" horiz-adv-x="272" 
d="M73.7598 590.91v133.36h133.36v-133.36h-133.36zM76.7598 0.000976562v500h125.6v-500h-125.6z" />
    <glyph glyph-name="igrave" unicode="&#xec;" horiz-adv-x="272" 
d="M67.6396 599.73l-152.15 165.55h150.78l137.8 -165.55h-136.43zM76.7588 0v500h125.6v-500h-125.6z" />
    <glyph glyph-name="imacron" unicode="&#x12b;" horiz-adv-x="272" 
d="M-6.73047 599.73v104.31h289.53v-104.31h-289.53zM76.7598 0v500h125.6v-500h-125.6z" />
    <glyph glyph-name="iogonek" unicode="&#x12f;" horiz-adv-x="272" 
d="M77.4004 724.27h133.37v-133.36h-133.37v133.36zM76.7705 -0v500.009h125.6v-500c-62.2002 -36.9102 -103.38 -83.8604 -89.5195 -117.511c4.59961 -11.1904 17.2793 -18.7002 41.0098 -18.3799c12.3496 0.160156 27.6895 2.44043 46.4297 7.4209l0.650391 -81.1299
c-29.8301 -11.9902 -59.9102 -18.6699 -86.6406 -18.6699c-54.5801 0 -85.7598 26.7305 -98.0195 59.0303c-17.7197 49 4.98047 117.37 82.04 169.23h-21.5498z" />
    <glyph glyph-name="j" unicode="j" horiz-adv-x="281" 
d="M80.1602 590.91v133.95h133.95v-133.95h-133.95zM-28.7402 -202.359l-0.000976562 113.78h65.1299c37.4805 0 47.9404 10.3301 47.9404 56.9697v531.61h125.61v-542.36c0 -104 -56 -160 -160 -160h-78.6797z" />
    <glyph glyph-name="k" unicode="k" horiz-adv-x="588" 
d="M413.97 0l-161.501 201.04h-53.0498v-201.04h-125.6v700h125.6v-385.77h48.7803l141.94 185.77h155.2l-191.12 -240.21l214.52 -259.79h-154.77z" />
    <glyph glyph-name="kcommaaccent" unicode="&#x137;" horiz-adv-x="588" 
d="M354.22 259.79l214.519 -259.79h-154.77l-161.5 201.04h-53.0498v-201.04h-125.6v700h125.6v-385.77h48.7803l141.94 185.77h155.2zM236.298 -191.65v131.6h131.6v-131.6l-50.6797 -110.99h-97.8301l50.6797 110.99h-33.7695z" />
    <glyph glyph-name="l" unicode="l" horiz-adv-x="263" 
d="M73.8203 0v700h125.6v-700h-125.6z" />
    <glyph glyph-name="lacute" unicode="&#x13a;" horiz-adv-x="263" 
d="M81.6602 799.73l137.79 165.55h150.79l-152.16 -165.55h-136.42zM73.8203 0v700h125.6v-700h-125.6z" />
    <glyph glyph-name="lcaron" unicode="&#x13e;" horiz-adv-x="263" 
d="M73.8203 0v700h125.6v-700h-125.6zM270.11 700h131.601v-131.6l-50.6699 -110.99h-97.8301l50.6797 110.99h-33.7803v131.6z" />
    <glyph glyph-name="lcommaaccent" unicode="&#x13c;" horiz-adv-x="263" 
d="M199.42 700v-700h-125.6v700h125.6zM74.7695 -60.0498h131.6v-131.6l-50.6797 -110.99h-97.8203l50.6699 110.99h-33.7695v131.6z" />
    <glyph glyph-name="lslash" unicode="&#x142;" horiz-adv-x="334" 
d="M334 525.3l-0.379883 -127.679l-114.93 -62.4297v-335.19h-125.6v266.96l-93.0898 -50.5703l0.55957 127.79l92.5303 50.2598v305.56h125.6v-237.33z" />
    <glyph glyph-name="m" unicode="m" horiz-adv-x="866" 
d="M658.9 510c92.9297 0 142.991 -50.9082 142.991 -145.458v-364.54h-125.65v339.25c0 46.6396 -9.96973 55.7998 -45.71 55.7998h-67.5098c-42.1504 0 -64.8408 -23.0898 -64.8408 -65.9697v-329.08h-125.64v339.25c0 46.6396 -9.98047 55.7998 -45.7207 55.7998h-67.5098
c-42.1504 0 -64.8408 -23.0898 -64.8408 -65.9697v-329.08h-125.64v500h113.16l3.75 -49.4502c22.6299 39.0195 64.29 59.4492 123.16 59.4492h46.2998c59.6699 0 101.65 -20.9902 124.07 -61.0303c24.2998 40.0596 68.1299 61.0293 129.63 61.0293h50z" />
    <glyph glyph-name="n" unicode="n" horiz-adv-x="593" 
d="M386.7 510c92.9297 0 142.98 -50.9092 142.98 -145.459v-364.54h-125.65v339.25c0 46.6396 -9.96973 55.7998 -45.71 55.7998h-99.0195c-42.1504 0 -64.8408 -23.0898 -64.8408 -65.9697v-329.08h-125.64v500h113.16l3.75 -49.4502
c22.6299 39.0195 64.29 59.4492 123.16 59.4492h77.8096z" />
    <glyph glyph-name="nacute" unicode="&#x144;" horiz-adv-x="593" 
d="M535.35 765.28l-152.15 -165.55h-136.43l137.8 165.55h150.78zM386.699 510c92.9297 0 142.98 -50.9092 142.98 -145.459v-364.54h-125.65v339.25c0 46.6396 -9.96973 55.7998 -45.71 55.7998h-99.0195c-42.1504 0 -64.8408 -23.0898 -64.8408 -65.9697v-329.08h-125.64
v500h113.16l3.75 -49.4502c22.6299 39.0195 64.29 59.4492 123.16 59.4492h77.8096z" />
    <glyph glyph-name="ncaron" unicode="&#x148;" horiz-adv-x="593" 
d="M227.34 595.94l-115.639 166.07h132.54l52.3896 -88.4199l52.3896 88.4199h132.55l-115.65 -166.07h-138.58zM386.701 510.011c92.9297 0 142.98 -50.9092 142.98 -145.459v-364.54h-125.65v339.25c0 46.6396 -9.96973 55.7998 -45.71 55.7998h-99.0195
c-42.1504 0 -64.8408 -23.0898 -64.8408 -65.9697v-329.08h-125.64v500h113.16l3.75 -49.4502c22.6299 39.0195 64.29 59.4492 123.16 59.4492h77.8096z" />
    <glyph glyph-name="ncommaaccent" unicode="&#x146;" horiz-adv-x="593" 
d="M386.7 510c92.9297 0 142.98 -50.9092 142.98 -145.459v-364.54h-125.65v339.25c0 46.6396 -9.96973 55.7998 -45.71 55.7998h-99.0195c-42.1504 0 -64.8408 -23.0898 -64.8408 -65.9697v-329.08h-125.64v500h113.16l3.75 -49.4502
c22.6299 39.0195 64.29 59.4492 123.16 59.4492h77.8096zM239.881 -191.649l0.000976562 131.6h131.6v-131.6l-50.6699 -110.99h-97.8301l50.6797 110.99h-33.7803z" />
    <glyph glyph-name="eng" unicode="&#x14b;" horiz-adv-x="593" 
d="M386.7 510c92.9297 0 142.979 -50.9092 142.979 -145.459v-406.9c0 -104 -56 -160 -160 -160h-78.6797v113.78h65.1299c37.4805 0 47.9404 10.3301 47.9404 56.9697l-0.0400391 370.86c0 46.6396 -9.96973 55.7998 -45.71 55.7998h-99.0195
c-42.1504 0 -64.8408 -23.0898 -64.8408 -65.9697v-329.08h-125.64v500h113.16l3.75 -49.4502c22.6299 39.0195 64.29 59.4492 123.16 59.4492h77.8096z" />
    <glyph glyph-name="ntilde" unicode="&#xf1;" horiz-adv-x="593" 
d="M283.55 621.15c-56.2402 34.6699 -72.5605 32.4297 -109.141 -39.8604l-70.1602 44.5898c39.3604 79.6201 78.8203 115.7 126.261 116.61c34.6201 0.410156 60.5605 -17.7197 90.2705 -36.4297c54.7598 -33.71 73.5898 -31.1104 106.59 35.7197l69.96 -44.5195
c-39.2305 -77.9297 -77.29 -111.13 -119.72 -112.55c-33.7803 -1.53027 -64.4307 17.7793 -94.0605 36.4395zM386.7 510c92.9297 0 142.98 -50.9092 142.98 -145.459v-364.54h-125.65v339.25c0 46.6396 -9.96973 55.7998 -45.71 55.7998h-99.0195
c-42.1504 0 -64.8408 -23.0898 -64.8408 -65.9697v-329.08h-125.64v500h113.16l3.75 -49.4502c22.6299 39.0195 64.29 59.4492 123.16 59.4492h77.8096z" />
    <glyph glyph-name="o" unicode="o" horiz-adv-x="568" 
d="M53.8203 350c0 104 56 160 160 160h140.42c104 0 160 -56 160 -160v-200c0 -104 -56 -160 -160 -160h-140.42c-104 0 -160 56 -160 160v200zM179.42 339.25v-178.51c0 -46.6396 10.46 -55.79 47.9502 -55.79h113.33c37.4902 0 47.9404 9.15039 47.9404 55.79v178.51
c0 46.6396 -10.4502 55.7998 -47.9404 55.7998h-113.33c-37.4902 0 -47.9502 -9.16016 -47.9502 -55.7998z" />
    <glyph glyph-name="oacute" unicode="&#xf3;" horiz-adv-x="568" 
d="M233.57 599.73l137.8 165.55h150.78l-152.15 -165.55h-136.43zM53.8203 350c0 104 56 160 160 160h140.42c104 0 160 -56 160 -160v-200c0 -104 -56 -160 -160 -160h-140.42c-104 0 -160 56 -160 160v200zM179.42 339.25v-178.51c0 -46.6396 10.46 -55.79 47.9502 -55.79
h113.33c37.4902 0 47.9404 9.15039 47.9404 55.79v178.51c0 46.6396 -10.4502 55.7998 -47.9404 55.7998h-113.33c-37.4902 0 -47.9502 -9.16016 -47.9502 -55.7998z" />
    <glyph glyph-name="uni01D2" unicode="&#x1d2;" horiz-adv-x="568" 
d="M214.14 595.94l-115.64 166.07h132.54l52.3896 -88.4199l52.3896 88.4199h132.54l-115.64 -166.07h-138.58zM354.24 510.011c104 0 160 -56 160 -160v-200c0 -104 -56 -160 -160 -160h-140.42c-104 0 -160 56 -160 160v200c0 104 56 160 160 160h140.42zM388.641 160.751
v178.51c0 46.6396 -10.4502 55.7998 -47.9404 55.7998h-113.33c-37.4902 0 -47.9502 -9.16016 -47.9502 -55.7998v-178.51c0 -46.6396 10.46 -55.79 47.9502 -55.79h113.33c37.4902 0 47.9404 9.15039 47.9404 55.79z" />
    <glyph glyph-name="ocircumflex" unicode="&#xf4;" horiz-adv-x="568" 
d="M285.15 684.37l-52.3818 -88.4297h-132.55l115.65 166.07h115.28h23.29l115.65 -166.07h-132.55zM354.238 510c104 0 160 -56 160 -160v-200c0 -104 -56 -160 -160 -160h-140.42c-104 0 -160 56 -160 160v200c0 104 56 160 160 160h140.42zM388.639 160.74v178.51
c0 46.6396 -10.4502 55.7998 -47.9404 55.7998h-113.33c-37.4902 0 -47.9502 -9.16016 -47.9502 -55.7998v-178.51c0 -46.6396 10.46 -55.79 47.9502 -55.79h113.33c37.4902 0 47.9404 9.15039 47.9404 55.79z" />
    <glyph glyph-name="odieresis" unicode="&#xf6;" horiz-adv-x="568" 
d="M106.19 590.91v132.54h132.54v-132.54h-132.54zM330.11 590.91v132.54h132.54v-132.54h-132.54zM53.8203 350c0 104 56 160 160 160h140.42c104 0 160 -56 160 -160v-200c0 -104 -56 -160 -160 -160h-140.42c-104 0 -160 56 -160 160v200zM179.42 339.25v-178.51
c0 -46.6396 10.46 -55.79 47.9502 -55.79h113.33c37.4902 0 47.9404 9.15039 47.9404 55.79v178.51c0 46.6396 -10.4502 55.7998 -47.9404 55.7998h-113.33c-37.4902 0 -47.9502 -9.16016 -47.9502 -55.7998z" />
    <glyph glyph-name="ograve" unicode="&#xf2;" horiz-adv-x="568" 
d="M212.6 599.73l-152.15 165.55h150.78l137.79 -165.55h-136.42zM53.8193 350c0 104 56 160 160 160h140.42c104 0 160 -56 160 -160v-200c0 -104 -56 -160 -160 -160h-140.42c-104 0 -160 56 -160 160v200zM179.419 339.25v-178.51
c0 -46.6396 10.46 -55.79 47.9502 -55.79h113.33c37.4902 0 47.9404 9.15039 47.9404 55.79v178.51c0 46.6396 -10.4502 55.7998 -47.9404 55.7998h-113.33c-37.4902 0 -47.9502 -9.16016 -47.9502 -55.7998z" />
    <glyph glyph-name="ohungarumlaut" unicode="&#x151;" horiz-adv-x="568" 
d="M104.35 599.73l131.561 165.55h149.02l-145.92 -165.55h-134.66zM312.101 599.73l131.561 165.55h149.02l-145.92 -165.55h-134.66zM53.8213 350c0 104 56 160 160 160h140.42c104 0 160 -56 160 -160v-200c0 -104 -56 -160 -160 -160h-140.42c-104 0 -160 56 -160 160
v200zM179.421 339.25v-178.51c0 -46.6396 10.46 -55.79 47.9502 -55.79h113.33c37.4902 0 47.9404 9.15039 47.9404 55.79v178.51c0 46.6396 -10.4502 55.7998 -47.9404 55.7998h-113.33c-37.4902 0 -47.9502 -9.16016 -47.9502 -55.7998z" />
    <glyph glyph-name="omacron" unicode="&#x14d;" horiz-adv-x="568" 
d="M138.23 599.73v104.31h289.53v-104.31h-289.53zM53.8203 350c0 104 56 160 160 160h140.42c104 0 160 -56 160 -160v-200c0 -104 -56 -160 -160 -160h-140.42c-104 0 -160 56 -160 160v200zM179.42 339.25v-178.51c0 -46.6396 10.46 -55.79 47.9502 -55.79h113.33
c37.4902 0 47.9404 9.15039 47.9404 55.79v178.51c0 46.6396 -10.4502 55.7998 -47.9404 55.7998h-113.33c-37.4902 0 -47.9502 -9.16016 -47.9502 -55.7998z" />
    <glyph glyph-name="oslash" unicode="&#xf8;" horiz-adv-x="568" 
d="M442.3 491.45c47.1797 -24.3604 71.9395 -72.2891 71.9395 -141.449v-200c0 -104 -56 -160 -160 -160h-130.52l-26.1602 -60h-106.04l34.2402 78.5498c-47.1797 24.3496 -71.9395 72.2793 -71.9395 141.449v200c0 104 56 160 160 160h130.52l26.1602 60h106.04z
M179.42 160.741c0 -10.1104 0.490234 -18.4502 1.64062 -25.3301l113.18 259.64h-66.8701c-37.4902 0 -47.9502 -9.16016 -47.9502 -55.7998v-178.51zM388.64 160.741v178.51c0 10.1104 -0.490234 18.46 -1.64062 25.3398l-113.17 -259.64h66.8701
c37.4902 0 47.9404 9.15039 47.9404 55.79z" />
    <glyph glyph-name="otilde" unicode="&#xf5;" horiz-adv-x="568" 
d="M161.21 581.29l-70.1602 44.5898c39.3604 79.6201 78.8203 115.7 126.261 116.61c34.6201 0.410156 60.5605 -17.7197 90.2705 -36.4297c54.7598 -33.71 73.5898 -31.1104 106.59 35.7197l69.96 -44.5195c-39.2305 -77.9297 -77.29 -111.13 -119.72 -112.55
c-33.7803 -1.53027 -64.4307 17.7793 -94.0605 36.4395c-56.2402 34.6699 -72.5605 32.4297 -109.141 -39.8604zM53.8193 350c0 104 56 160 160 160h140.42c104 0 160 -56 160 -160v-200c0 -104 -56 -160 -160 -160h-140.42c-104 0 -160 56 -160 160v200zM179.419 339.25
v-178.51c0 -46.6396 10.46 -55.79 47.9502 -55.79h113.33c37.4902 0 47.9404 9.15039 47.9404 55.79v178.51c0 46.6396 -10.4502 55.7998 -47.9404 55.7998h-113.33c-37.4902 0 -47.9502 -9.16016 -47.9502 -55.7998z" />
    <glyph glyph-name="oe" unicode="&#x153;" horiz-adv-x="894" 
d="M514.29 189.82v-28.0205c0 -46.6396 12.3496 -56.8496 50.8193 -56.8496h260.61v-114.95h-275.55c-39.9902 0 -72.9404 8.12012 -98.4307 23.9297c-25.2402 -15.8096 -57.8906 -23.9297 -97.501 -23.9297h-140.42c-104 0 -160 56 -160 160v200c0 104 56 160 160 160
h140.42c39.6104 0 72.2607 -8.12988 97.501 -23.9297c25.4902 15.7998 58.4404 23.9297 98.4307 23.9297h131.07c104.99 0 164.12 -56 164.12 -160v-160.18h-331.07zM340.7 104.95c37.4902 0 47.9404 9.15039 47.9404 55.79v178.51
c0 46.6396 -10.4502 55.7998 -47.9404 55.7998h-113.33c-37.4902 0 -47.9502 -9.16016 -47.9502 -55.7998v-178.51c0 -46.6396 10.46 -55.79 47.9502 -55.79h113.33zM563.49 395.05c-38.4697 0 -49.1992 -9.16016 -49.1992 -55.7998v-43.2402h205.47v43.2402
c0 46.6396 -10.7305 55.7998 -49.2002 55.7998h-107.07z" />
    <glyph glyph-name="p" unicode="p" horiz-adv-x="592" 
d="M392.19 510c96.6504 0 146.29 -52.8799 146.29 -145.46v-214.54c0 -104 -56.3203 -160 -160.91 -160h-61.3604c-52.9805 0 -92.3301 15.7998 -116.79 46.1396v-216.14h-125.6v680h112.64l4.57031 -51.3701c22.8799 40.2598 65.9102 61.3701 127.13 61.3701h74.0303z
M412.881 160.74v178.51c0 46.6396 -10.6201 55.7998 -48.6904 55.7998h-96.7803c-42.8398 0 -67.3799 -22.7197 -67.9902 -64.3301v-172.68c4.41992 -34.5996 27.46 -53.0898 66.04 -53.0898h98.7305c38.0703 0 48.6904 9.15039 48.6904 55.79z" />
    <glyph glyph-name="thorn" unicode="&#xfe;" horiz-adv-x="594" 
d="M394.25 510c95.0898 0 146.29 -50.9102 146.29 -145.46v-214.54c0 -104 -56.3203 -160 -160.91 -160h-61.3604c-52.9805 0 -92.3301 15.7998 -116.79 46.1396v-216.14h-125.6v880h125.6v-238.64c24.2998 31.9697 64.3301 48.6396 118.74 48.6396h74.0303zM414.94 160.74
v178.51c0 46.6396 -10.6201 55.7998 -48.6904 55.7998h-96.7803c-42.8398 0 -67.3799 -22.7197 -67.9902 -64.3301v-172.68c4.51953 -34.5996 27.46 -53.0898 66.04 -53.0898h98.7305c38.0703 0 48.6904 9.15039 48.6904 55.79z" />
    <glyph glyph-name="q" unicode="q" horiz-adv-x="581" 
d="M351.99 510c104 0 160 -56 160 -160v-530h-123.95v216.23c-24.3301 -30.4004 -63.4805 -46.2305 -116.2 -46.2305h-58.0195c-104 0 -160 56 -160 160v211.98c0 96.21 51.7998 148.02 148.01 148.02h150.16zM322.84 104.95c38.3701 0 60.8906 18.4893 65.2002 53.1094
v181.19c0 46.6396 -10.46 55.7998 -47.9502 55.7998h-114.37c-37.4902 0 -47.9502 -9.16016 -47.9502 -55.7998v-178.51c0 -46.6396 10.46 -55.79 47.9502 -55.79h97.1201z" />
    <glyph glyph-name="r" unicode="r" horiz-adv-x="400" 
d="M381.49 510l0.0185547 -115.271h-113.17c-48.2998 0 -73.8594 -26.2998 -73.8789 -74.8193v-319.91h-125.64v500h113.16l4.62988 -61.0498c23.0996 46.1299 68.8994 71.0996 136.189 71.0996z" />
    <glyph glyph-name="racute" unicode="&#x155;" horiz-adv-x="400" 
d="M448.58 765.28l-152.15 -165.55h-136.43l137.79 165.55h150.79zM322.8 510.051l58.6895 -0.0507812l0.0195312 -115.27h-113.17c-48.2998 0 -73.8594 -26.2998 -73.8789 -74.8193v-319.91h-125.64v500h113.16l4.62988 -61.0498
c23.0996 46.1299 68.8994 71.0996 136.189 71.0996z" />
    <glyph glyph-name="rcaron" unicode="&#x159;" horiz-adv-x="400" 
d="M140.57 595.94l-115.648 166.07h132.55l52.3896 -88.4199l52.3799 88.4199h132.55l-115.65 -166.07h-138.57zM322.802 510.051l58.6895 -0.0507812l0.0195312 -115.27h-113.17c-48.2998 0 -73.8594 -26.2998 -73.8789 -74.8193v-319.91h-125.64v500h113.16
l4.62988 -61.0498c23.0996 46.1299 68.8994 71.0996 136.189 71.0996z" />
    <glyph glyph-name="rcommaaccent" unicode="&#x157;" horiz-adv-x="400" 
d="M194.46 319.91l-0.000976562 -319.911h-125.64v500h113.16l4.62988 -61.0498c23.0996 46.1299 68.8994 71.0996 136.189 71.0996l58.6904 -0.0498047l0.0195312 -115.27h-113.17c-48.2998 0 -73.8594 -26.2998 -73.8789 -74.8193zM153.109 -191.651l0.000976562 131.6
h131.6v-131.6l-50.6797 -110.99h-97.8203l50.6797 110.99h-33.7803z" />
    <glyph glyph-name="s" unicode="s" horiz-adv-x="543" 
d="M67.7998 -10v113.191h255.29c37.3799 0 44.3203 9.58008 44.2207 44.9697c0.0996094 37.4805 -7.66016 47.2607 -44.2197 47.2109h-126.19c-98.0098 -0.0195312 -142.25 53.3301 -142.2 155.1c-0.0498047 103.41 46.1299 159.53 142.2 159.53h268.55v-113.19h-238.75
c-35.8398 0 -43.7803 -8.58008 -43.9307 -45.0703c0.150391 -36.5 8.09082 -45.6104 43.9307 -45.5703h126.61c98.3496 -0.110352 140.939 -54.5205 141.22 -156.86c-0.280273 -105.66 -45.6904 -159.311 -141.221 -159.311h-285.51z" />
    <glyph glyph-name="sacute" unicode="&#x15b;" horiz-adv-x="543" 
d="M214.02 599.73l137.79 165.55h150.79l-152.16 -165.55h-136.42zM67.7998 -10v113.191h255.29c37.3799 0 44.3203 9.58008 44.2207 44.9697c0.0996094 37.4805 -7.66016 47.2607 -44.2197 47.2109h-126.19c-98.0098 -0.0195312 -142.25 53.3301 -142.2 155.1
c-0.0498047 103.41 46.1299 159.53 142.2 159.53h268.55v-113.19h-238.75c-35.8398 0 -43.7803 -8.58008 -43.9307 -45.0703c0.150391 -36.5 8.09082 -45.6104 43.9307 -45.5703h126.61c98.3496 -0.110352 140.939 -54.5205 141.22 -156.86
c-0.280273 -105.66 -45.6904 -159.311 -141.221 -159.311h-285.51z" />
    <glyph glyph-name="scaron" unicode="&#x161;" horiz-adv-x="543" 
d="M194.59 595.94l-115.648 166.07h132.55l52.3799 -88.4199l52.3896 88.4199h132.55l-115.65 -166.07h-138.57zM353.312 306.171c98.3496 -0.110352 140.939 -54.5195 141.22 -156.859c-0.280273 -105.66 -45.6904 -159.311 -141.221 -159.311h-285.51v113.19h255.29
c37.3799 0 44.3203 9.58008 44.2207 44.9697c0.0996094 37.4805 -7.66016 47.2607 -44.2197 47.2109h-126.19c-98.0098 -0.0195312 -142.25 53.3301 -142.2 155.1c-0.0498047 103.41 46.1299 159.53 142.2 159.53h268.55v-113.19h-238.75
c-35.8398 0 -43.7803 -8.58008 -43.9307 -45.0703c0.150391 -36.5 8.09082 -45.6104 43.9307 -45.5703h126.61z" />
    <glyph glyph-name="scedilla" unicode="&#x15f;" horiz-adv-x="543" 
d="M353.31 -10l-46.9404 0.000976562l-8.53027 -24.5703h35.6904c51.6904 0 75.7803 -28.5195 75.7803 -76.8799v-48.5498c0 -49.7695 -26.7998 -76.8994 -76.5693 -76.8994h-168.52v78.3701h138.54c10.0098 0 16.1494 0.540039 16.1494 16.21v25.7695
c0 15.8398 -6.16016 16.2402 -16.1504 16.2402h-27.7695v-0.0400391l-72.4902 0.0400391l24.4902 90.3096h-159.19v113.19h255.29c37.3799 0 44.3203 9.58008 44.2207 44.9697c0.0996094 37.4805 -7.66016 47.2607 -44.2197 47.2109h-126.19
c-98.0098 -0.0195312 -142.25 53.3301 -142.2 155.1c-0.0498047 103.41 46.1299 159.53 142.2 159.53h268.55v-113.19h-238.75c-35.8398 0 -43.7803 -8.58008 -43.9307 -45.0703c0.150391 -36.5 8.09082 -45.6104 43.9307 -45.5703h126.61
c98.3496 -0.110352 140.939 -54.5205 141.22 -156.86c-0.280273 -105.66 -45.6904 -159.311 -141.221 -159.311z" />
    <glyph glyph-name="scommaaccent" unicode="&#x219;" horiz-adv-x="543" 
d="M353.31 306.17c98.3496 -0.110352 140.939 -54.5195 141.22 -156.859c-0.280273 -105.66 -45.6904 -159.311 -141.221 -159.311h-285.51v113.19h255.29c37.3799 0 44.3203 9.58008 44.2207 44.9697c0.0996094 37.4805 -7.66016 47.2607 -44.2197 47.2109h-126.19
c-98.0098 -0.0195312 -142.25 53.3301 -142.2 155.1c-0.0498047 103.41 46.1299 159.53 142.2 159.53h268.55v-113.19h-238.75c-35.8398 0 -43.7803 -8.58008 -43.9307 -45.0703c0.150391 -36.5 8.09082 -45.6104 43.9307 -45.5703h126.61zM207.13 -191.649v131.6h131.6
v-131.6l-50.6797 -110.99h-97.8203l50.6699 110.99h-33.7695z" />
    <glyph glyph-name="germandbls" unicode="&#xdf;" horiz-adv-x="674" 
d="M526.23 399.13c64.4404 -17.71 98.6104 -69.2705 98.6104 -150.15v-70.75c0 -118.54 -63 -182.36 -180.01 -182.36h-161.92v123.6h151.62c46.2305 0 58.7109 10.5596 58.7109 69.4697v58.1904c0 58.9004 -12.4805 69.4707 -58.7109 69.4707h-101.42v86.2197v37.5801
h42.3604c46.2305 0 58.7109 10.5703 58.7109 69.4805v56.7197c0 58.9102 -12.4805 69.4697 -58.7109 69.4697h-105.46c-46.2305 0 -58.7109 -10.5596 -58.7109 -69.4697v-566.61h-131.6v577.53c0 118.53 63 182.36 180.01 182.36h126.05
c117.01 0 180.01 -63.8301 180.01 -182.36v-67.6396c0 -49 -13.5098 -86.2598 -39.54 -110.75z" />
    <glyph glyph-name="t" unicode="t" horiz-adv-x="441" 
d="M277.11 103.85h113.499v-114.96h-127.05c-104 0 -160 56 -160 160v237.92h-80.6201v113.19h80.6201v131.57h125.61v-131.57h154.44v-113.19h-154.44v-227.17c0 -46.6396 10.46 -55.79 47.9404 -55.79z" />
    <glyph glyph-name="tbar" unicode="&#x167;" horiz-adv-x="441" 
d="M277.11 103.85h113.499v-114.96h-127.05c-104 0 -160 56 -160 160v70.25h-80.6201v113.18h80.6201v54.4902h-80.6201v113.19h80.6201v131.57h125.61v-131.57h154.44v-113.19h-154.44v-54.4902h154.44v-113.18h-154.44v-59.5c0 -46.6396 10.46 -55.79 47.9404 -55.79z" />
    <glyph glyph-name="tcaron" unicode="&#x165;" horiz-adv-x="441" 
d="M336.04 832.98h131.6v-131.6l-50.6797 -110.99h-97.8203l50.6699 110.99h-33.7695v131.6zM229.17 159.641c0 -46.6396 10.459 -55.79 47.9395 -55.79h113.5v-114.96h-127.05c-104 0 -160 56 -160 160v237.92h-80.6201v113.19h80.6201v131.57h125.61v-131.57h154.44
v-113.19h-154.44v-227.17z" />
    <glyph glyph-name="uni0163" unicode="&#x163;" horiz-adv-x="441" 
d="M263.56 -11.1104c-4.88965 0 -9.68164 0.12793 -14.3613 0.368164l-7.87012 -22.6504h35.7002c51.6797 0 75.7793 -28.5195 75.7793 -76.8799v-48.5596c0 -49.7598 -26.8096 -76.8994 -76.5791 -76.8994h-168.52v78.3701h138.54
c10.0195 0 16.1494 0.540039 16.1494 16.21v25.7803c0 15.8301 -6.15039 16.2305 -16.1504 16.2305h-27.7695v-0.0400391l-72.4902 0.0400391l28.9805 106.86c-46.8301 24.4404 -71.4102 72.2803 -71.4102 141.17v237.92h-80.6201v113.19h80.6201v131.57h125.61v-131.57
h154.44v-113.19h-154.44v-227.17c0 -46.6396 10.46 -55.79 47.9404 -55.79h113.5v-114.96h-127.05z" />
    <glyph glyph-name="uni021B" unicode="&#x21b;" horiz-adv-x="441" 
d="M277.11 103.85h113.499v-114.96h-127.05c-104 0 -160 56 -160 160v237.92h-80.6201v113.19h80.6201v131.57h125.61v-131.57h154.44v-113.19h-154.44v-227.17c0 -46.6396 10.46 -55.79 47.9404 -55.79zM170.979 -191.65l0.000976562 131.6h131.6v-131.6l-50.6797 -110.99
h-97.8203l50.6797 110.99h-33.7803z" />
    <glyph glyph-name="u" unicode="u" horiz-adv-x="578" 
d="M388.21 500h125.64v-500h-113.16l-3.95996 52.21c-22.25 -40.8096 -64.4697 -62.21 -124.72 -62.21h-65.2197c-92.9297 0 -142.97 50.9102 -142.97 145.45v364.55h125.64v-339.26c0 -46.6396 9.96973 -55.79 45.71 -55.79h86.4404
c42.1396 0 66.5996 23.0898 66.5996 65.96v329.09z" />
    <glyph glyph-name="uacute" unicode="&#xfa;" horiz-adv-x="578" 
d="M526.94 765.28l-152.15 -165.55h-136.43l137.79 165.55h150.79zM388.21 170.91v329.09h125.64v-500h-113.16l-3.95996 52.21c-22.25 -40.8096 -64.4697 -62.21 -124.72 -62.21h-65.2197c-92.9297 0 -142.97 50.9102 -142.97 145.45v364.55h125.64v-339.26
c0 -46.6396 9.96973 -55.79 45.71 -55.79h86.4404c42.1396 0 66.5996 23.0898 66.5996 65.96z" />
    <glyph glyph-name="uni01D4" unicode="&#x1d4;" horiz-adv-x="578" 
d="M218.93 595.94l-115.648 166.07h132.55l52.3896 -88.4199l52.3896 88.4199h132.54l-115.65 -166.07h-138.57zM388.211 500.001h125.64v-500h-113.16l-3.95996 52.21c-22.25 -40.8096 -64.4697 -62.21 -124.72 -62.21h-65.2197c-92.9297 0 -142.97 50.9102 -142.97 145.45
v364.55h125.64v-339.26c0 -46.6396 9.96973 -55.79 45.71 -55.79h86.4404c42.1396 0 66.5996 23.0898 66.5996 65.96v329.09z" />
    <glyph glyph-name="ucircumflex" unicode="&#xfb;" horiz-adv-x="578" 
d="M289.94 684.37l-52.3818 -88.4297h-132.55l115.65 166.07h115.28h23.29l115.65 -166.07h-132.55zM388.209 500h125.64v-500h-113.16l-3.95996 52.21c-22.25 -40.8096 -64.4697 -62.21 -124.72 -62.21h-65.2197c-92.9297 0 -142.97 50.9102 -142.97 145.45v364.55h125.64
v-339.26c0 -46.6396 9.96973 -55.79 45.71 -55.79h86.4404c42.1396 0 66.5996 23.0898 66.5996 65.96v329.09z" />
    <glyph glyph-name="udieresis" unicode="&#xfc;" horiz-adv-x="578" 
d="M243.52 723.45v-132.54h-132.54v132.54h132.54zM467.439 723.45v-132.54h-132.54v132.54h132.54zM388.209 500h125.64v-500h-113.16l-3.95996 52.21c-22.25 -40.8096 -64.4697 -62.21 -124.72 -62.21h-65.2197c-92.9297 0 -142.97 50.9102 -142.97 145.45v364.55h125.64
v-339.26c0 -46.6396 9.96973 -55.79 45.71 -55.79h86.4404c42.1396 0 66.5996 23.0898 66.5996 65.96v329.09z" />
    <glyph glyph-name="uni01D8" unicode="&#x1d8;" horiz-adv-x="578" 
d="M526.94 954.25l-152.15 -165.55h-136.43l137.79 165.55h150.79zM243.521 723.45v-132.54h-132.54v132.54h132.54zM334.9 590.91v132.54h132.54v-132.54h-132.54zM388.21 170.91v329.09h125.64v-500h-113.16l-3.95996 52.21
c-22.25 -40.8096 -64.4697 -62.21 -124.72 -62.21h-65.2197c-92.9297 0 -142.97 50.9102 -142.97 145.45v364.55h125.64v-339.26c0 -46.6396 9.96973 -55.79 45.71 -55.79h86.4404c42.1396 0 66.5996 23.0898 66.5996 65.96z" />
    <glyph glyph-name="uni01DA" unicode="&#x1da;" horiz-adv-x="578" 
d="M218.93 788.7l-115.648 166.07h132.55l52.3896 -88.4297l52.3896 88.4297h132.54l-115.65 -166.07h-138.57zM110.981 590.91v132.54h132.54v-132.54h-132.54zM334.901 590.91v132.54h132.54v-132.54h-132.54zM388.211 500h125.64v-500h-113.16l-3.95996 52.21
c-22.25 -40.8096 -64.4697 -62.21 -124.72 -62.21h-65.2197c-92.9297 0 -142.97 50.9102 -142.97 145.45v364.55h125.64v-339.26c0 -46.6396 9.96973 -55.79 45.71 -55.79h86.4404c42.1396 0 66.5996 23.0898 66.5996 65.96v329.09z" />
    <glyph glyph-name="uni01DC" unicode="&#x1dc;" horiz-adv-x="578" 
d="M353.81 788.7h-136.42l-152.16 165.55h150.79zM110.979 590.91v132.54h132.54v-132.54h-132.54zM334.899 590.91v132.54h132.54v-132.54h-132.54zM388.209 500h125.64v-500h-113.16l-3.95996 52.21c-22.25 -40.8096 -64.4697 -62.21 -124.72 -62.21h-65.2197
c-92.9297 0 -142.97 50.9102 -142.97 145.45v364.55h125.64v-339.26c0 -46.6396 9.96973 -55.79 45.71 -55.79h86.4404c42.1396 0 66.5996 23.0898 66.5996 65.96v329.09z" />
    <glyph glyph-name="uni01D6" unicode="&#x1d6;" horiz-adv-x="578" 
d="M432.55 893.01v-104.31h-289.53v104.31h289.53zM243.52 723.45v-132.54h-132.54v132.54h132.54zM334.899 590.91v132.54h132.54v-132.54h-132.54zM388.209 500h125.64v-500h-113.16l-3.95996 52.21c-22.25 -40.8096 -64.4697 -62.21 -124.72 -62.21h-65.2197
c-92.9297 0 -142.97 50.9102 -142.97 145.45v364.55h125.64v-339.26c0 -46.6396 9.96973 -55.79 45.71 -55.79h86.4404c42.1396 0 66.5996 23.0898 66.5996 65.96v329.09z" />
    <glyph glyph-name="ugrave" unicode="&#xf9;" horiz-adv-x="578" 
d="M353.81 599.73h-136.42l-152.16 165.55h150.79zM388.21 500h125.64v-500h-113.16l-3.95996 52.21c-22.25 -40.8096 -64.4697 -62.21 -124.72 -62.21h-65.2197c-92.9297 0 -142.97 50.9102 -142.97 145.45v364.55h125.64v-339.26c0 -46.6396 9.96973 -55.79 45.71 -55.79
h86.4404c42.1396 0 66.5996 23.0898 66.5996 65.96v329.09z" />
    <glyph glyph-name="uhungarumlaut" unicode="&#x171;" horiz-adv-x="578" 
d="M389.72 765.28l-145.919 -165.55h-134.66l131.56 165.55h149.02zM451.551 599.73h-134.659l131.56 165.55h149.02zM388.212 170.91v329.09h125.64v-500h-113.16l-3.95996 52.21c-22.25 -40.8096 -64.4697 -62.21 -124.72 -62.21h-65.2197
c-92.9297 0 -142.97 50.9102 -142.97 145.45v364.55h125.64v-339.26c0 -46.6396 9.96973 -55.79 45.71 -55.79h86.4404c42.1396 0 66.5996 23.0898 66.5996 65.96z" />
    <glyph glyph-name="umacron" unicode="&#x16b;" horiz-adv-x="578" 
d="M432.55 704.04v-104.31h-289.53v104.31h289.53zM388.21 500h125.64v-500h-113.16l-3.95996 52.21c-22.25 -40.8096 -64.4697 -62.21 -124.72 -62.21h-65.2197c-92.9297 0 -142.97 50.9102 -142.97 145.45v364.55h125.64v-339.26c0 -46.6396 9.96973 -55.79 45.71 -55.79
h86.4404c42.1396 0 66.5996 23.0898 66.5996 65.96v329.09z" />
    <glyph glyph-name="uogonek" unicode="&#x173;" horiz-adv-x="578" 
d="M502.25 0c-58.6201 -36.2803 -96.5498 -81.1777 -83.1797 -113.658c4.61035 -11.1904 17.29 -18.7002 41.0205 -18.3906c12.3496 0.169922 27.6797 2.43945 46.4297 7.41992l0.650391 -81.1201c-29.8398 -11.9902 -59.9102 -18.6807 -86.6406 -18.6807
c-54.5801 0 -85.7705 26.7402 -98.0205 59.04c-17.4199 48.1699 4.21973 114.11 78.1602 165.58l-3.94043 52.0195c-22.25 -40.8096 -64.4697 -62.21 -124.72 -62.21h-65.2197c-92.9297 0 -142.97 50.9102 -142.97 145.45v364.55h125.64v-339.26
c0 -46.6396 9.96973 -55.79 45.71 -55.79h86.4404c42.1396 0 66.5996 23.0898 66.5996 65.96v329.09h125.64v-500h-11.5996z" />
    <glyph glyph-name="uring" unicode="&#x16f;" horiz-adv-x="578" 
d="M237.39 561.57c-52.2197 0 -80.3516 28.4805 -80.3516 80.7002v65.8096c0 52.8896 26.9805 80.6797 79.5205 80.6797h101.38c54.2402 0 79.5303 -29.9297 79.5303 -80.6797v-65.8096c0 -52.2197 -28.1396 -80.7002 -80.3594 -80.7002h-99.7197zM240.928 696.28v-42.2305
c0.179688 -15.9697 6.25977 -16.5195 16.4697 -16.5195h59.7002c10.21 0 16.29 0.549805 16.4697 16.5195v42.2305c-0.179688 16.1396 -6.2793 16.5498 -16.4697 16.5498h-59.7002c-10.1904 0 -16.29 -0.410156 -16.4697 -16.5498zM388.208 500h125.64v-500h-113.16
l-3.95996 52.21c-22.25 -40.8096 -64.4697 -62.21 -124.72 -62.21h-65.2197c-92.9297 0 -142.97 50.9102 -142.97 145.45v364.55h125.64v-339.26c0 -46.6396 9.96973 -55.79 45.71 -55.79h86.4404c42.1396 0 66.5996 23.0898 66.5996 65.96v329.09z" />
    <glyph glyph-name="v" unicode="v" horiz-adv-x="558" 
d="M408.05 500h131.469l-153.76 -500h-92.0098h-110.88h-10.2998l-153.75 500h131.46l110.99 -386.81h35.7998z" />
    <glyph glyph-name="w" unicode="w" horiz-adv-x="787" 
d="M643.89 500h123.921l-100.18 -500.21l-156.07 0.209961h-42.3896l-73.9805 386.81h-3.75l-73.9805 -386.81h-84.8896l-113.57 -0.209961l-100.18 500.21h123.92l69.5 -386.81h9.69043l73.0195 386.81h78.5996h77.3398h40.79l73.0195 -386.81h9.69043z" />
    <glyph glyph-name="wacute" unicode="&#x1e83;" horiz-adv-x="787" 
d="M631.59 765.28l-152.15 -165.55h-136.43l137.8 165.55h150.78zM643.89 500h123.921l-100.18 -500.21l-156.07 0.209961h-42.3896l-73.9805 386.81h-3.75l-73.9805 -386.81h-84.8896l-113.57 -0.209961l-100.18 500.21h123.92l69.5 -386.81h9.69043l73.0195 386.81
h78.5996h77.3398h40.79l73.0195 -386.81h9.69043z" />
    <glyph glyph-name="wcircumflex" unicode="&#x175;" horiz-adv-x="787" 
d="M394.6 684.37l-52.3916 -88.4297h-132.55l115.65 166.07h115.28h23.29l115.65 -166.07h-132.55zM643.888 500h123.921l-100.18 -500.21l-156.07 0.209961h-42.3896l-73.9805 386.81h-3.75l-73.9805 -386.81h-84.8896l-113.57 -0.209961l-100.18 500.21h123.92
l69.5 -386.81h9.69043l73.0195 386.81h78.5996h77.3398h40.79l73.0195 -386.81h9.69043z" />
    <glyph glyph-name="wdieresis" unicode="&#x1e85;" horiz-adv-x="787" 
d="M348.17 723.45v-132.54h-132.54v132.54h132.54zM572.09 723.45v-132.54h-132.54v132.54h132.54zM643.89 500h123.921l-100.18 -500.21l-156.07 0.209961h-42.3896l-73.9805 386.81h-3.75l-73.9805 -386.81h-84.8896l-113.57 -0.209961l-100.18 500.21h123.92
l69.5 -386.81h9.69043l73.0195 386.81h78.5996h77.3398h40.79l73.0195 -386.81h9.69043z" />
    <glyph glyph-name="wgrave" unicode="&#x1e81;" horiz-adv-x="787" 
d="M458.46 599.73h-136.42l-152.15 165.55h150.78zM643.89 500h123.921l-100.18 -500.21l-156.07 0.209961h-42.3896l-73.9805 386.81h-3.75l-73.9805 -386.81h-84.8896l-113.57 -0.209961l-100.18 500.21h123.92l69.5 -386.81h9.69043l73.0195 386.81h78.5996h77.3398
h40.79l73.0195 -386.81h9.69043z" />
    <glyph glyph-name="x" unicode="x" horiz-adv-x="577" 
d="M18.8203 0l193.37 254.15l-182.26 245.85h150.52l114.45 -160.5l102.08 160.5h150.27l-175.84 -252.48l186.95 -247.52h-150.53l-120.67 163.66l-115.46 -163.66h-152.88z" />
    <glyph glyph-name="y" unicode="y" horiz-adv-x="578" 
d="M427.77 500l131.66 -0.000976562l-161.06 -500c-49.4102 -154.77 -107.82 -203.18 -211.86 -203.26h-118.53l0.5 108.32h102.17c48.7305 0 76.4707 16.5703 105.211 94.9404h-90.8701l-166.17 500h131.46l120.59 -386.81h40.2598z" />
    <glyph glyph-name="yacute" unicode="&#xfd;" horiz-adv-x="578" 
d="M530.06 765.28l-152.15 -165.55h-136.43l137.79 165.55h150.79zM427.77 500l131.66 -0.000976562l-161.06 -500c-49.4102 -154.77 -107.82 -203.18 -211.86 -203.26h-118.53l0.5 108.32h102.17c48.7305 0 76.4707 16.5703 105.211 94.9404h-90.8701l-166.17 500h131.46
l120.59 -386.81h40.2598z" />
    <glyph glyph-name="ycircumflex" unicode="&#x177;" horiz-adv-x="578" 
d="M293.06 684.37l-52.3818 -88.4297h-132.55l115.65 166.07h115.28h23.29l115.65 -166.07h-132.55zM427.768 500l131.66 -0.000976562l-161.06 -500c-49.4102 -154.77 -107.82 -203.18 -211.86 -203.26h-118.53l0.5 108.32h102.17
c48.7305 0 76.4707 16.5703 105.211 94.9404h-90.8701l-166.17 500h131.46l120.59 -386.81h40.2598z" />
    <glyph glyph-name="ydieresis" unicode="&#xff;" horiz-adv-x="578" 
d="M246.64 723.45v-132.54h-132.54v132.54h132.54zM470.56 723.45v-132.54h-132.54v132.54h132.54zM427.77 500l131.66 -0.000976562l-161.06 -500c-49.4102 -154.77 -107.82 -203.18 -211.86 -203.26h-118.53l0.5 108.32h102.17c48.7305 0 76.4707 16.5703 105.211 94.9404
h-90.8701l-166.17 500h131.46l120.59 -386.81h40.2598z" />
    <glyph glyph-name="ygrave" unicode="&#x1ef3;" horiz-adv-x="578" 
d="M356.93 599.73h-136.42l-152.16 165.55h150.79zM427.77 500l131.66 -0.000976562l-161.06 -500c-49.4102 -154.77 -107.82 -203.18 -211.86 -203.26h-118.53l0.5 108.32h102.17c48.7305 0 76.4707 16.5703 105.211 94.9404h-90.8701l-166.17 500h131.46l120.59 -386.81
h40.2598z" />
    <glyph glyph-name="z" unicode="z" horiz-adv-x="528" 
d="M216.07 113.19l261.461 0.000976562v-113.19h-431.65v100.67l253.85 286.14h-241.62v113.19h413.3v-98.9902z" />
    <glyph glyph-name="zacute" unicode="&#x17a;" horiz-adv-x="528" 
d="M502.16 765.28l-152.16 -165.55h-136.42l137.79 165.55h150.79zM471.41 401.011l-255.339 -287.819h261.46v-113.19h-431.65v100.67l253.85 286.14h-241.62v113.19h413.3v-98.9902z" />
    <glyph glyph-name="zcaron" unicode="&#x17e;" horiz-adv-x="528" 
d="M194.15 595.94l-115.649 166.07h132.55l52.3896 -88.4199l52.3896 88.4199h132.54l-115.64 -166.07h-138.58zM216.071 113.19l261.461 0.000976562v-113.19h-431.65v100.67l253.85 286.14h-241.62v113.19h413.3v-98.9902z" />
    <glyph glyph-name="zdotaccent" unicode="&#x17c;" horiz-adv-x="528" 
d="M332.09 724.27v-133.36h-133.37v133.36h133.37zM216.07 113.189l261.461 0.000976562v-113.19h-431.65v100.67l253.85 286.14h-241.62v113.19h413.3v-98.9902z" />
    <glyph glyph-name="f_b" horiz-adv-x="975" 
d="M103.83 550c0 104 55.999 160 159.999 160h121.23v-114.95h-107.68c-37.4902 0 -47.9502 -9.16016 -47.9502 -55.7998v-39.25h129.71v-113.19h-129.71v-386.81h-125.6v386.81h-76.7695v113.19h76.7695v50zM748.52 510c104 0 160 -56 160 -160v-211.99
c0 -96.21 -51.7998 -148.01 -148.01 -148.01h-150.16c-104 0 -160 56 -160 160v550h123.95v-236.23c24.3203 30.4004 63.4805 46.2305 116.2 46.2305h58.0195zM784.569 160.74l-0.000976562 178.511c0 46.6396 -10.46 55.7998 -47.9502 55.7998h-97.1201
c-38.3701 0 -60.8896 -18.4902 -65.1992 -53.1006v-181.21c0 -46.6396 10.46 -55.79 47.9502 -55.79h114.37c37.4902 0 47.9502 9.15039 47.9502 55.79z" />
    <glyph glyph-name="f_j" horiz-adv-x="623" 
d="M555.98 500l-0.000976562 -542.36c0 -104 -56 -160 -160 -160h-78.6699v113.78h65.1201c37.4902 0 47.9502 10.3301 47.9502 56.9697v418.42h-200.95v-386.81h-125.6v386.81h-76.7695v113.19h76.7695v50c0 104 56 160 160 160h121.23v-114.95h-107.68
c-37.4902 0 -47.9502 -9.16016 -47.9502 -55.7998v-39.25h326.55z" />
    <glyph glyph-name="f_k" horiz-adv-x="973" 
d="M103.83 550c0 104 55.999 160 159.999 160h121.23v-114.95h-107.68c-37.4902 0 -47.9502 -9.16016 -47.9502 -55.7998v-39.25h129.71v-113.19h-129.71v-386.81h-125.6v386.81h-76.7695v113.19h76.7695v50zM799.029 0l-161.501 201.04h-53.0498v-201.04h-125.6v700h125.6
v-385.77h48.7803l141.94 185.77h155.2l-191.12 -240.21l214.52 -259.79h-154.77z" />
    <glyph glyph-name="f_t" horiz-adv-x="808" 
d="M644.75 103.85h113.498v-114.96h-127.05c-104 0 -160 56 -160 160v237.92h-241.77v-386.81h-125.6v386.81h-76.7695v113.19h76.7695v50c0 104 56 160 160 160h121.23v-114.95h-107.68c-37.4902 0 -47.9502 -9.16016 -47.9502 -55.7998v-39.25h241.77v131.57h125.61
v-131.57h154.44v-113.19h-154.44v-227.17c0 -46.6396 10.46 -55.79 47.9404 -55.79z" />
    <glyph glyph-name="ordfeminine" unicode="&#xaa;" horiz-adv-x="398" 
d="M253.64 706.09c64.1299 0 99.3994 -36.2197 99.3994 -101.319v-247.38h-86.7695l-2.12988 25.2803c-16.7002 -20.9199 -43.3398 -31.9502 -78.9395 -31.9502h-51.1602c-70.6504 -0.150391 -99.4004 40 -99.4004 109.6c0 73.8398 32.6602 111.3 99.4004 111.16h123.66
v17.2598c0 28.1602 -3.79004 32.8398 -23.9805 32.8398h-168.98v84.5098h188.9zM221.09 436.06c26.9902 0 36.5908 16.1709 36.6104 47.2305v10.0303h-105.95c-17.8496 0 -21.6699 -4.7998 -21.7695 -29.1602c0.0996094 -24.0703 3.59961 -28.1006 21.7695 -28.1006h69.3398
z" />
    <glyph glyph-name="ordmasculine" unicode="&#xba;" horiz-adv-x="407" 
d="M44.6396 594.89c0 71.8799 39.7695 111.02 112.02 111.02h93.6201c72.2402 0 112.021 -39.1396 112.021 -111.02v-133.33c0 -71.8799 -39.7803 -111.02 -112.021 -111.02h-93.6201c-72.25 0 -112.02 39.1396 -112.02 111.02v133.33zM139.08 587.729v-119.01
c0 -28.1299 4.2002 -32.8398 26.6104 -32.8398h75.5596c22.4102 0 26.6104 4.70996 26.6104 32.8398v119.01c0 28.1299 -4.2002 32.8398 -26.6104 32.8398h-75.5596c-22.4102 0 -26.6104 -4.70996 -26.6104 -32.8398z" />
    <glyph glyph-name="uni0394" unicode="&#x394;" horiz-adv-x="600" 
 />
    <glyph glyph-name="uni03A9" unicode="&#x3a9;" horiz-adv-x="600" 
 />
    <glyph glyph-name="uni03BC" unicode="&#x3bc;" horiz-adv-x="600" 
 />
    <glyph glyph-name="pi" unicode="&#x3c0;" horiz-adv-x="600" 
 />
    <glyph glyph-name="zero" unicode="0" horiz-adv-x="646" 
d="M254.41 -10c-128.47 0 -197.649 70 -197.649 200v300c0 130 69.1797 200 197.649 200h136.95c128.47 0 197.649 -70 197.649 -200v-300c0 -130 -69.1797 -200 -197.649 -200h-136.95zM264.71 113.6h116.35c58.0195 0 76.3594 16.96 76.3594 87.1104v278.37
c0 70.1504 -18.3398 87.1104 -76.3594 87.1104h-116.35c-58 0 -76.3398 -16.96 -76.3398 -87.1104v-278.37c0 -70.1504 18.3398 -87.1104 76.3398 -87.1104z" />
    <glyph glyph-name="one" unicode="1" horiz-adv-x="564" 
d="M367.74 123.6l150.86 0.000976562v-123.6h-282.46h-186.14v123.6h186.14v432.8h-26.4902l-159.65 -66.2197v130.72l142.49 59.0996h164.95h10.2998v-556.4z" />
    <glyph glyph-name="two" unicode="2" horiz-adv-x="630" 
d="M233.21 200.29c-45.3301 -19.6396 -55.3994 -28.2891 -55.7197 -76.6895h391.1v-123.6h-522.71v58.1104v79.8604c-0.0800781 96.2695 30.8604 132.329 123.15 172.799l201.18 88.0596c66.7002 29.1699 82.1104 39.7002 82.1104 87.2803
c0 64.7002 -28.4102 80.29 -74.54 80.29h-288.98v123.6h293.95c140.88 0 200.88 -69 201.01 -200.15c-0.25 -114.91 -40.3701 -154.68 -165.25 -208.92z" />
    <glyph glyph-name="three" unicode="3" horiz-adv-x="594" 
d="M462.07 356.59c51.54 -26.8301 78.5898 -79.5791 78.5898 -155.659v-16.6396c0 -126.29 -68.0703 -194.29 -194.79 -194.29h-302.93v121.13h289.81c56.7197 0 76.5195 16.29 76.5195 81.9697v11.5596c0 65.6797 -19.9697 81.9795 -76.6895 81.9795h-204.51v90.4297
v28.7305h194.02c52.0996 0 68.8496 13.3896 68.8496 73.8896v14.9102c0 60.5703 -16.8301 74.0605 -68.8496 74.0605h-260.09v121.34h272.62c122.15 0 187.92 -64.2998 187.92 -183.7v-18.8398c0 -60.04 -20.75 -104.59 -60.4697 -130.87z" />
    <glyph glyph-name="four" unicode="4" horiz-adv-x="696" 
d="M645.54 258.74v-123.6h-94.8604v-135.14h-131.6v135.14h-373.2v103.96l296.98 441.18l197.52 -0.280273h10.2998v-421.26h94.8604zM212.021 258.74h207.06v297.66h-8.59961z" />
    <glyph glyph-name="five" unicode="5" horiz-adv-x="612" 
d="M361.6 427.85c130 0 200.001 -70.001 200.001 -200.001v-37.8496c0 -130 -70 -200 -200 -200h-308.66v123.6h301.3c56.3604 0 75.7607 18.9102 75.7607 82.5703v25.5c0 63.6602 -19.4004 82.5801 -75.7607 82.5801h-272.65h-20.6299v375.75h131.6h327.12v-123.6h-327.12
v-128.55h169.04z" />
    <glyph glyph-name="six" unicode="6" horiz-adv-x="647" 
d="M394.89 441.56c130 0 199.99 -69.999 199.99 -199.999v-50.7402c0 -130 -69.1797 -200.82 -197.649 -200.82h-142.83c-128.47 0 -197.649 70 -197.649 200v300c0 130 69.1797 200 197.649 200h292.01v-123.81h-281.71c-58 0 -76.3398 -16.96 -76.3398 -87.1104v-71
c24.4297 22.0596 59.4102 33.4795 104.18 33.4795h102.35zM462.96 190.841l0.00976562 50.7197c0.0302734 59.5898 -20.7197 76.3701 -76.0293 76.3701l-150.16 0.0302734c-21 0 -37.2803 -5.59961 -48.4199 -16.3096v-100.94c0 -70.1504 18.3398 -87.1104 76.3398 -87.1104
h122.23c55.2998 0 75.9697 16.75 76.0293 77.2402z" />
    <glyph glyph-name="seven" unicode="7" horiz-adv-x="545" 
d="M20.8799 679.94l493.36 0.339844v-113.72l-285.24 -566.56h-147.33l281.95 556.76l-342.74 -0.25v123.43z" />
    <glyph glyph-name="eight" unicode="8" horiz-adv-x="658" 
d="M524.64 357.97c50.21 -24.8398 76.5391 -75.04 76.5391 -157.04v-20.7598c0 -126.29 -69.5303 -190.17 -196.25 -190.17h-154.52c-126.72 0 -193.649 63.8799 -193.649 190.17v20.7598c0 82 26.3398 132.2 76.5498 157.04
c-38.3896 26.4502 -58.4297 70.4805 -58.4297 129.48v18.8398c0 119.4 65.7803 183.7 187.92 183.7h132.34c122.15 0 187.92 -64.2998 187.92 -183.7v-18.8398c0 -59 -20.0303 -103.03 -58.4199 -129.48zM206.479 494.6l0.000976562 -14.9102
c0 -60.5 16.7598 -73.8896 68.8594 -73.8896h107.27c52.0996 0 68.8496 13.3896 68.8496 73.8896v14.9102c0 60.5703 -16.8301 74.0605 -68.8496 74.0605h-107.27c-52.0303 0 -68.8604 -13.4902 -68.8604 -74.0605zM469.789 188.989v15.6699
c0 65.6797 -19.9697 81.9795 -76.6895 81.9795h-128.25c-56.7197 0 -76.6895 -16.2998 -76.6895 -81.9795v-15.6699c0 -65.6904 18.6699 -77.8604 75.3896 -77.8604h128.25c56.7197 0 77.9893 12.1699 77.9893 77.8604z" />
    <glyph glyph-name="nine" unicode="9" horiz-adv-x="647" 
d="M392.24 690c128.47 0 197.659 -70.001 197.659 -200.001v-300c0 -130 -69.1797 -200 -197.649 -200h-292.01v123.8h281.71c58 0 76.3398 16.96 76.3398 87.1201v76.29c-24.4297 -22.0596 -59.4102 -33.4795 -104.18 -33.4795h-102.35c-130 0 -200 70 -200 200v45.4404
c0 130 69.1797 200.83 197.649 200.83h142.83zM409.88 367.329c21 0 37.2705 5.60059 48.4102 16.3203v95.6396c0 70.1504 -18.3398 87.1104 -76.3398 87.1104h-122.23c-55.2998 0 -75.9697 -16.7598 -76.0293 -77.25v-45.4102
c-0.0302734 -59.5898 20.7197 -76.3701 76.0293 -76.3701z" />
    <glyph glyph-name="zero.lf" horiz-adv-x="646" 
d="M254.41 -10.29c-128.47 0 -197.649 72 -197.649 205.7v308.54c0 133.7 69.1797 205.69 197.649 205.69h136.95c128.47 0 197.649 -71.9902 197.649 -205.69v-308.54c0 -133.7 -69.1797 -205.7 -197.649 -205.7h-136.95zM264.71 113.229h116.35
c58.0195 0 76.3594 18.75 76.3594 92.2695v288.16c0 73.5195 -18.3398 92.2695 -76.3594 92.2695h-116.35c-58 0 -76.3398 -18.75 -76.3398 -92.2695v-288.16c0 -73.5195 18.3398 -92.2695 76.3398 -92.2695z" />
    <glyph glyph-name="one.lf" horiz-adv-x="564" 
d="M367.74 123.51h150.86v-123.51h-282.46h-186.14v123.51h186.14v452.63h-26.2402l-159.9 -67.8701v130.39l142.49 60.9902h164.95h10.2998v-576.14z" />
    <glyph glyph-name="two.lf" horiz-adv-x="630" 
d="M233.29 207.29c-46.3896 -20.8799 -55.8105 -29.8691 -55.8105 -83.7793h391.11v-123.51h-522.71v56.5996v83.3301c0 99.25 30.7305 136.2 122.811 177.84l201.6 91.0596c66.8701 30.0898 82.0303 41.7295 82.0303 91.9395c0 68.1504 -28.4102 85.3506 -74.54 85.3506
h-288.98v123.52h293.95c140.88 0 200.88 -70.7803 201.01 -205.29c-0.25 -117.77 -40.6504 -157.439 -165.17 -213.42z" />
    <glyph glyph-name="three.lf" horiz-adv-x="594" 
d="M461.55 366.96c51.8799 -27.6699 79.1094 -82.3398 79.1094 -161.32v-16.5996c0 -129.56 -68.0703 -199.329 -194.79 -199.329h-302.93v121.19h289.81c56.7197 0 76.5195 18 76.5195 87.0898v11.8701c0 69.0898 -19.9697 87.0898 -76.6895 87.0898h-204.51v90.9297
v28.4004h194.02c52.0996 0 68.8496 14.79 68.8496 78.1299v15.5195c0 63.4297 -16.8301 78.3301 -68.8496 78.3301h-260.09v121.38h272.62c122.15 0 187.92 -65.71 187.92 -187.74v-19.1201c0 -62.5098 -20.9297 -108.71 -60.9893 -135.82z" />
    <glyph glyph-name="four.lf" horiz-adv-x="696" 
d="M645.54 264.57v-123.51h-94.8604v-141.06h-131.6v141.06h-373.2v104.37l296.98 455.12l197.52 -0.280273h10.2998v-435.7h94.8604zM210.11 264.57h208.97v312.18h-6.34961z" />
    <glyph glyph-name="five.lf" horiz-adv-x="612" 
d="M361.6 438.85c130 0 200.001 -71.9004 200.001 -205.431v-38.2803c0 -133.53 -70 -205.431 -200 -205.431h-308.66v123.51h301.3c56.3604 0 75.7607 20.5 75.7607 87.7305v26.6602c0 67.2305 -19.4004 87.7207 -75.7607 87.7207h-272.65h-20.6299v384.32h131.6h327.12
v-123.51h-327.12v-137.29h169.04z" />
    <glyph glyph-name="six.lf" horiz-adv-x="647" 
d="M394.89 452.84c130 0 199.99 -71.8105 199.99 -205.171v-51.4902c0 -133.7 -69.1797 -206.47 -197.649 -206.47h-142.83c-128.47 0 -197.649 72 -197.649 205.7v308.54c0 133.7 69.1797 205.69 197.649 205.69h292.01v-123.71h-281.71
c-58 0 -76.3398 -18.75 -76.3398 -92.2695v-75.1602c24.4297 22.6299 59.4102 34.3398 104.18 34.3398h102.35zM462.96 196.199l0.00976562 51.4697c0.0302734 63.2197 -20.7197 81.4102 -76.0195 81.4404l-150.22 0.410156
c-20.9902 -0.0498047 -37.2402 -6.08008 -48.3701 -17.5205v-106.5c0 -73.5195 18.3398 -92.2695 76.3398 -92.2695h122.23c55.2998 0 75.9697 18.5498 76.0293 82.9697z" />
    <glyph glyph-name="seven.lf" horiz-adv-x="545" 
d="M20.8799 700.22l493.36 0.330078v-113.64l-285.24 -586.91h-147.33l283.03 577.11l-343.82 -0.240234v123.35z" />
    <glyph glyph-name="eight.lf" horiz-adv-x="658" 
d="M524.24 368.49c50.4697 -25.5 76.9395 -77.3701 76.9395 -162.811v-21.1201c0 -129.56 -69.5303 -194.85 -196.25 -194.85h-154.52c-126.72 0 -193.649 65.29 -193.649 194.85v21.1201c0 85.4404 26.4805 137.301 76.9404 162.811
c-38.6504 27.29 -58.8203 72.9297 -58.8203 134.29v19.1602c0 122 65.7803 187.7 187.92 187.7h132.34c122.15 0 187.92 -65.7002 187.92 -187.7v-19.1602c0 -61.3604 -20.1699 -107 -58.8203 -134.29zM206.48 509.971l0.000976562 -15.5498
c0 -63.3203 16.7598 -78.0898 68.8594 -78.0898h107.27c52.0996 0 68.8496 14.7695 68.8496 78.0898v15.5498c0 63.4004 -16.8301 78.29 -68.8496 78.29h-107.27c-52.0303 0 -68.8604 -14.8896 -68.8604 -78.29zM469.791 193.511v16.3887
c0 69.2695 -19.9697 87.0996 -76.6895 87.0996h-128.25c-56.7197 0 -76.6895 -17.8301 -76.6895 -87.0996v-16.3896c0 -69.0596 18.6699 -82.6094 75.3896 -82.6094h128.25c56.7197 0 77.9893 13.5801 77.9893 82.6104z" />
    <glyph glyph-name="nine.lf" horiz-adv-x="647" 
d="M392.24 709.64c128.47 0 197.659 -71.9873 197.659 -205.688v-308.54c0 -133.7 -69.1797 -205.7 -197.649 -205.7h-292.01v123.71h281.71c58 0 76.3398 18.75 76.3398 92.2695v80.3496c-24.4297 -22.6299 -59.4102 -34.3398 -104.18 -34.3398h-102.35
c-130 0 -200 71.8096 -200 205.159v46.3096c0 133.7 69.1797 206.47 197.649 206.47h142.83zM409.81 375.032c21 0.0498047 37.3203 6.06934 48.4805 17.5293v101.29c0 73.5303 -18.3398 92.2705 -76.3398 92.2705h-122.23c-55.2998 0 -75.9697 -18.5498 -76.0293 -82.9697
v-46.2803c-0.0302734 -63.2305 20.7197 -81.4102 76.3193 -81.4297z" />
    <glyph glyph-name="zero.osf" horiz-adv-x="590" 
d="M223.39 -7.34961c-115.46 0 -177.63 51.3496 -177.63 147v220.5c0 95.5498 62.1699 147 177.63 147h142.83c115.46 0 177.63 -51.4502 177.63 -147v-220.5c0 -95.6504 -62.1699 -147 -177.63 -147h-142.83zM235.979 118.37h117.66c47.7803 0 58.6201 8.5 58.6201 52.2305
v158.92c0 43.7305 -10.8398 51.4102 -58.6201 51.4102h-117.66c-47.7803 0 -58.6201 -7.67969 -58.6201 -51.4102v-159.74c0 -43.7305 10.8398 -51.4102 58.6201 -51.4102z" />
    <glyph glyph-name="one.osf" horiz-adv-x="554" 
d="M362.31 125.72l146.29 -0.000976562v-125.72h-277.89h-180.71v125.72h180.71v248.36h-17.4805l-163.23 -53.0996v139l138.19 39.8203h162.46h11.6602v-374.08z" />
    <glyph glyph-name="two.osf" horiz-adv-x="569" 
d="M211.42 134.35c-10.8701 -3.84961 -19.1406 -6.93945 -25.3008 -10.2891h330.04v-124.06h-477.28v72.7197v58.96c0 56.5996 27.3096 81.3594 102.35 108.669l196.19 71.8301c46.96 17.9502 57.8301 21.1602 57.8301 41.2305c0 25.9004 -16.1797 31.71 -54.71 31.5996
h-263.72v122.83h272.19c129.52 0.0595703 179.479 -51.4707 180.71 -147.841c1.23047 -87.4697 -35.1797 -125.04 -149 -165.59z" />
    <glyph glyph-name="three.osf" horiz-adv-x="594" 
d="M462.07 176.59c51.54 -26.8301 78.5898 -79.5791 78.5898 -155.659v-16.6396c0 -126.29 -68.0703 -194.29 -194.79 -194.29h-302.93v121.13h289.81c56.7197 0 76.5195 16.29 76.5195 81.9697v11.5596c0 65.6797 -19.9697 81.9795 -76.6895 81.9795h-204.51v90.4297
v28.7305h194.02c52.0996 0 68.8496 13.3896 68.8496 73.8896v14.9102c0 60.5703 -16.8301 74.0605 -68.8496 74.0605h-260.09v121.34h272.62c122.15 0 187.92 -64.2998 187.92 -183.7v-18.8398c0 -60.04 -20.75 -104.59 -60.4697 -130.87z" />
    <glyph glyph-name="four.osf" horiz-adv-x="696" 
d="M645.54 78.7402v-123.6h-94.8604v-135.14h-131.6v135.14h-373.2v103.96l296.98 441.18l197.52 -0.280273h10.2998v-421.26h94.8604zM212.021 78.7402h207.06v297.66h-8.59961z" />
    <glyph glyph-name="five.osf" horiz-adv-x="612" 
d="M361.6 247.85c130 0 200.001 -70.001 200.001 -200.001v-37.8496c0 -130 -70 -200 -200 -200h-308.66v123.6h301.3c56.3604 0 75.7607 18.9102 75.7607 82.5703v25.5c0 63.6602 -19.4004 82.5801 -75.7607 82.5801h-272.65h-20.6299v375.75h131.6h327.12v-123.6h-327.12
v-128.55h169.04z" />
    <glyph glyph-name="six.osf" horiz-adv-x="647" 
d="M394.89 441.56c130 0 199.99 -69.999 199.99 -199.999v-50.7402c0 -130 -69.1797 -200.82 -197.649 -200.82h-142.83c-128.47 0 -197.649 70 -197.649 200v300c0 130 69.1797 200 197.649 200h292.01v-123.81h-281.71c-58 0 -76.3398 -16.96 -76.3398 -87.1104v-71
c24.4297 22.0596 59.4102 33.4795 104.18 33.4795h102.35zM462.96 190.841l0.00976562 50.7197c0.0302734 59.5898 -20.7197 76.3701 -76.0293 76.3701l-150.16 0.0302734c-21 0 -37.2803 -5.59961 -48.4199 -16.3096v-100.94c0 -70.1504 18.3398 -87.1104 76.3398 -87.1104
h122.23c55.2998 0 75.9697 16.75 76.0293 77.2402z" />
    <glyph glyph-name="seven.osf" horiz-adv-x="545" 
d="M20.8799 499.82l493.36 0.339844v-113.72l-285.24 -566.56h-147.33l281.95 556.76l-342.74 -0.25v123.43z" />
    <glyph glyph-name="eight.osf" horiz-adv-x="658" 
d="M524.64 357.97c50.21 -24.8398 76.5391 -75.04 76.5391 -157.04v-20.7598c0 -126.29 -69.5303 -190.17 -196.25 -190.17h-154.52c-126.72 0 -193.649 63.8799 -193.649 190.17v20.7598c0 82 26.3398 132.2 76.5498 157.04
c-38.3896 26.4502 -58.4297 70.4805 -58.4297 129.48v18.8398c0 119.4 65.7803 183.7 187.92 183.7h132.34c122.15 0 187.92 -64.2998 187.92 -183.7v-18.8398c0 -59 -20.0303 -103.03 -58.4199 -129.48zM206.479 494.6l0.000976562 -14.9102
c0 -60.5 16.7598 -73.8896 68.8594 -73.8896h107.27c52.0996 0 68.8496 13.3896 68.8496 73.8896v14.9102c0 60.5703 -16.8301 74.0605 -68.8496 74.0605h-107.27c-52.0303 0 -68.8604 -13.4902 -68.8604 -74.0605zM469.789 188.989v15.6699
c0 65.6797 -19.9697 81.9795 -76.6895 81.9795h-128.25c-56.7197 0 -76.6895 -16.2998 -76.6895 -81.9795v-15.6699c0 -65.6904 18.6699 -77.8604 75.3896 -77.8604h128.25c56.7197 0 77.9893 12.1699 77.9893 77.8604z" />
    <glyph glyph-name="nine.osf" horiz-adv-x="647" 
d="M392.24 510c128.47 0 197.659 -70.001 197.659 -200.001v-300c0 -130 -69.1797 -200 -197.649 -200h-292.01v123.8h281.71c58 0 76.3398 16.96 76.3398 87.1201v76.29c-24.4297 -22.0596 -59.4102 -33.4795 -104.18 -33.4795h-102.35c-130 0 -200 70 -200 200v45.4404
c0 130 69.1797 200.83 197.649 200.83h142.83zM409.88 187.329c21 0 37.2705 5.60059 48.4102 16.3203v95.6396c0 70.1504 -18.3398 87.1104 -76.3398 87.1104h-122.23c-55.2998 0 -75.9697 -16.7598 -76.0293 -77.25v-45.4102
c-0.0302734 -59.5898 20.7197 -76.3701 76.0293 -76.3701z" />
    <glyph glyph-name="zero.tf" horiz-adv-x="576" 
d="M219.11 -10.0195c-114.54 0 -176.21 70.0996 -176.21 200.29v300.44c0 130.19 61.6699 200.29 176.21 200.29h138.25c114.54 0 176.22 -70.0996 176.22 -200.29v-300.44c0 -130.19 -61.6797 -200.29 -176.22 -200.29h-138.25zM233.63 113.631h109.22
c47.8799 0 62.0596 17.0303 62.0596 87.3398v278.83c0 70.3096 -14.1797 87.3496 -62.0596 87.3496h-109.22c-47.8799 0 -62.0596 -17.04 -62.0596 -87.3496v-278.83c0 -70.3096 14.1797 -87.3398 62.0596 -87.3398z" />
    <glyph glyph-name="one.tf" horiz-adv-x="576" 
d="M374.46 123.63h153.671v-123.63h-286.28h-189.53v123.63h189.53v433.15h-27.4199l-162.11 -66.25v130.74l145.13 59.1396h167.09h9.91992v-556.78z" />
    <glyph glyph-name="two.tf" horiz-adv-x="576" 
d="M212.83 199.7c-39.1104 -18.3398 -47.3223 -27.4082 -47.6318 -76.0586h361.69v-123.64h-491.65v58.0898v80.0195c0 96.4102 27.4805 133.17 110.051 172.07l194.42 90.2402c57.3398 27.0498 71.6602 38.7295 71.6602 86.4297c0 64.8496 -26.6699 80.5 -64.2598 80.5
h-272.18v123.65h278.53c131.47 0 187.72 -68.9502 187.85 -200.271c-0.259766 -114.98 -37.0898 -154.771 -154.89 -209.801z" />
    <glyph glyph-name="three.tf" horiz-adv-x="576" 
d="M451.22 357.34c49.4902 -26.7998 75.4707 -79.7207 75.4707 -156.15v-16.6504c0 -126.46 -66.1504 -194.56 -189.341 -194.56h-297.59v121.18h282.83c53.9404 0 72.8203 16.3604 72.8203 82.2002v11.5703c0 65.8398 -19.0703 82.21 -73.0107 82.21h-199.57v90.4805
h0.120117v28.7197h188.28c50.0703 0 66.21 13.4502 66.21 74.0801v14.9404c0 60.71 -16.2002 74.2598 -66.2002 74.2598h-252.97v121.38h267.07c119.34 0 183.6 -64.3701 183.6 -183.92v-18.8604c0 -59.9902 -19.7998 -104.54 -57.7197 -130.88z" />
    <glyph glyph-name="four.tf" horiz-adv-x="576" 
d="M549.93 259.05v-123.64h-79.0996v-135.41h-127.39v135.41h-321.21v104.01l249.38 441.86l199.22 -0.280273v-421.95h79.0996zM177.62 259.05h165.82v293.54z" />
    <glyph glyph-name="five.tf" horiz-adv-x="576" 
d="M341.82 428.09c124.27 0 191.188 -70.0381 191.188 -200.118v-37.8604c0 -130.08 -66.9199 -200.12 -191.189 -200.12h-295.88v123.64h287.03c51.4502 0 69.1602 18.9297 69.1602 82.6494v25.5195c0 63.7305 -17.71 82.6602 -69.1602 82.6602h-279.64v123.63v252.32
h130.88h308.76v-123.63h-308.76v-128.69h157.61z" />
    <glyph glyph-name="six.tf" horiz-adv-x="576" 
d="M358.04 442.15c117.31 0 180.47 -70.1006 180.47 -200.271v-50.7803c0 -130.19 -62.0195 -201.12 -177.189 -201.12h-141.66c-115.17 0 -177.17 70.0996 -177.17 200.29v300.44c0 130.19 62 200.29 177.17 200.29h271.79v-123.85h-257.39
c-48.29 0 -62.6396 -17.04 -62.6396 -87.3496v-72.6904c22.0996 23.0801 54.1797 35.04 95.4893 35.04h91.1299zM409.35 191.539l0.000976562 50.2891c0.0302734 59.75 -17.9102 76.54 -62.3203 76.54h-133.15c-18.2197 0 -32.4697 -5.12988 -42.46 -15.0498v-102.35
c0 -70.3096 14.3496 -87.3398 62.6396 -87.3398h112.88c44.5 0 62.3398 16.8301 62.4102 77.9102z" />
    <glyph glyph-name="seven.tf" horiz-adv-x="576" 
d="M26.9004 680.94l512.18 0.339844v-113.76l-299.43 -567.52h-149.25l294.94 557.71l-358.44 -0.240234v123.47z" />
    <glyph glyph-name="eight.tf" horiz-adv-x="576" 
d="M472.05 359.43c41.9404 -24.5498 63.958 -75.0498 63.958 -158.24v-20.7803c0 -126.46 -60.4697 -190.43 -171.819 -190.43h-152.94c-111.35 0 -170.79 63.9697 -170.79 190.43v20.7803c0 83.1904 22.0195 133.69 63.9697 158.24
c-31.2598 26.5703 -47.5596 70.3506 -47.5596 128.791v18.8604c0 119.55 58.9805 183.92 168.511 183.92h125.71c109.54 0 168.521 -64.3701 168.521 -183.92v-18.8604c0 -58.4404 -16.2998 -102.221 -47.5596 -128.791zM185.567 495.359v-14.9404
c0 -60.6299 14.1699 -74.0703 57.8301 -74.0703h89.6699c43.6602 0 57.8301 13.4404 57.8301 74.0703v14.9404c0 60.71 -14.2002 74.2598 -57.8301 74.2598h-89.6699c-43.6299 0 -57.8301 -13.5498 -57.8301 -74.2598zM407.587 189.229l-0.000976562 15.7002
c0 65.8496 -16.29 82.21 -61.7598 82.21h-115.18c-45.46 0 -61.7598 -16.3604 -61.7598 -82.21v-15.7002c0 -65.8301 15.79 -78.0703 61.25 -78.0703h115.19c45.46 0 62.2598 12.2402 62.2598 78.0703z" />
    <glyph glyph-name="nine.tf" horiz-adv-x="576" 
d="M356.81 691c115.17 0 177.198 -70.0986 177.198 -200.289v-300.44c0 -130.19 -62.0195 -200.29 -177.189 -200.29h-271.79v123.85h257.4c48.29 0 62.6299 17.04 62.6299 87.3496v77.9805c-22.0996 -23.0801 -54.1797 -35.0303 -95.4893 -35.0303h-91.1299
c-117.3 0 -180.46 70.0898 -180.46 200.27v45.4805c0 130.19 62 201.12 177.17 201.12h141.66zM362.458 367.921c18.2402 0 32.5693 5.13086 42.5996 15.0811v97.0098c0 70.3096 -14.3398 87.3398 -62.6299 87.3398h-112.88c-44.5 0 -62.0996 -16.8301 -62.1699 -77.3105
v-45.5801c-0.0302734 -59.7402 17.6699 -76.54 61.9297 -76.54h133.15z" />
    <glyph glyph-name="zero.tosf" horiz-adv-x="576" 
d="M216.48 -7.37012c-112.68 0 -173.35 51.5498 -173.35 147.29v220.94c0 95.7305 60.6699 147.29 173.35 147.29h143.52c112.67 0 173.34 -51.5596 173.34 -147.29v-220.94c0 -95.7402 -60.6699 -147.29 -173.34 -147.29h-143.52zM230.41 118.41h115.66
c45.6201 0 55.9004 8.57031 55.9004 52.4502v159.38c0 43.8799 -10.2803 51.6299 -55.9004 51.6299h-115.66c-45.6104 0 -55.9004 -7.75 -55.9004 -51.6299v-160.2c0 -43.8799 10.29 -51.6299 55.9004 -51.6299z" />
    <glyph glyph-name="one.tosf" horiz-adv-x="576" 
d="M374.53 125.78h151.59v-125.78h-284.69h-187.11v125.78h187.11v249.24h-19.1797l-167.93 -53.1904v139.06l143.1 39.9102h165.95h11.1602v-375.02z" />
    <glyph glyph-name="two.tosf" horiz-adv-x="576" 
d="M214.66 134.76c-11.3398 -3.99023 -19.9121 -7.15918 -26.2422 -10.6396h333.73v-124.12h-481.74v72.7598v59.0996c0 56.7197 27.7002 81.2998 104.061 109.08l197.07 71.8301c47.8701 17.6396 58.96 21.1895 58.96 41.3691c0 26.0596 -16.5098 31.7998 -55.5898 31.7998
h-266.17v122.9h274.61c130.74 0 181.101 -51.2998 182.37 -147.84c1.24023 -87.8896 -35.3994 -125.63 -150.47 -166.18z" />
    <glyph glyph-name="three.tosf" horiz-adv-x="576" 
d="M451.21 177.02c49.5 -26.79 75.4814 -79.6885 75.4814 -156.089v-16.6504c0 -126.43 -66.1504 -194.5 -189.341 -194.5h-297.59v121.14h282.83c53.9404 0 72.8203 16.3604 72.8203 82.1807v11.5596c0 65.8096 -19.0703 82.1797 -73.0107 82.1797h-199.57v90.4502
h0.0195312v28.7197h188.38c50.0703 0 66.21 13.4502 66.21 74.0605v14.9297c0 60.6904 -16.2002 74.2402 -66.2002 74.2402h-252.97v121.35h267.07c119.34 0 183.6 -64.3604 183.6 -183.891v-18.8496c0 -59.9697 -19.7998 -104.5 -57.7295 -130.83z" />
    <glyph glyph-name="four.tosf" horiz-adv-x="576" 
d="M549.93 78.7998v-123.649h-79.0996v-135.51h-127.39v135.51h-321.21v104.02l249.38 442.11l183.47 -0.280273h15.75v-422.2h79.0996zM177.6 78.8008h165.84v293.72z" />
    <glyph glyph-name="five.tosf" horiz-adv-x="576" 
d="M341.82 248.27c124.27 0 191.188 -70.1201 191.188 -200.37v-37.8896c0 -130.25 -66.9199 -200.38 -191.189 -200.38h-295.88v123.66h287.03c51.4502 0 69.1602 19.0098 69.1602 82.8799v25.5703c0 63.8701 -17.71 82.8799 -69.1602 82.8799h-279.64v123.66v252.72
h130.88h308.76v-123.66h-308.76v-129.07h157.61z" />
    <glyph glyph-name="six.tosf" horiz-adv-x="576" 
d="M358.04 442.15c117.31 0 180.47 -70.1006 180.47 -200.271v-50.7803c0 -130.19 -62.0195 -201.12 -177.189 -201.12h-141.66c-115.17 0 -177.17 70.0996 -177.17 200.29v300.44c0 130.19 62 200.29 177.17 200.29h271.79v-123.85h-257.39
c-48.29 0 -62.6396 -17.04 -62.6396 -87.3496v-72.6904c22.0996 23.0801 54.1797 35.04 95.4893 35.04h91.1299zM409.35 191.539l0.000976562 50.2891c0.0302734 59.75 -17.9102 76.54 -62.3203 76.54h-133.15c-18.2197 0 -32.4697 -5.12988 -42.46 -15.0498v-102.35
c0 -70.3096 14.3496 -87.3398 62.6396 -87.3398h112.88c44.5 0 62.3398 16.8301 62.4102 77.9102z" />
    <glyph glyph-name="seven.tosf" horiz-adv-x="576" 
d="M26.9004 500.82l512.18 0.339844v-113.77l-299.43 -567.87h-149.25l294.95 558.06l-358.45 -0.25v123.49z" />
    <glyph glyph-name="eight.tosf" horiz-adv-x="576" 
d="M472.05 359.43c41.9404 -24.5498 63.958 -75.0498 63.958 -158.24v-20.7803c0 -126.46 -60.4697 -190.43 -171.819 -190.43h-152.94c-111.35 0 -170.79 63.9697 -170.79 190.43v20.7803c0 83.1904 22.0195 133.69 63.9697 158.24
c-31.2598 26.5703 -47.5596 70.3506 -47.5596 128.791v18.8604c0 119.55 58.9805 183.92 168.511 183.92h125.71c109.54 0 168.521 -64.3701 168.521 -183.92v-18.8604c0 -58.4404 -16.2998 -102.221 -47.5596 -128.791zM185.567 495.359v-14.9404
c0 -60.6299 14.1699 -74.0703 57.8301 -74.0703h89.6699c43.6602 0 57.8301 13.4404 57.8301 74.0703v14.9404c0 60.71 -14.2002 74.2598 -57.8301 74.2598h-89.6699c-43.6299 0 -57.8301 -13.5498 -57.8301 -74.2598zM407.587 189.229l-0.000976562 15.7002
c0 65.8496 -16.29 82.21 -61.7598 82.21h-115.18c-45.46 0 -61.7598 -16.3604 -61.7598 -82.21v-15.7002c0 -65.8301 15.79 -78.0703 61.25 -78.0703h115.19c45.46 0 62.2598 12.2402 62.2598 78.0703z" />
    <glyph glyph-name="nine.tosf" horiz-adv-x="576" 
d="M356.81 510.59c115.17 0 177.198 -70.0801 177.198 -200.23v-300.35c0 -130.15 -62.0195 -200.23 -177.189 -200.23h-271.79v123.82h257.4c48.29 0 62.6299 17.0303 62.6299 87.3301v77.9502c-22.0996 -23.0703 -54.1797 -35.0205 -95.4893 -35.0205h-91.1299
c-117.3 0 -180.46 70.0703 -180.46 200.2v45.4697c0 130.15 62 201.061 177.17 201.061h141.66zM362.458 187.39c18.2402 0 32.5693 5.24023 42.5996 15.2598v96.9902c0 70.2998 -14.3398 87.3301 -62.6299 87.3301h-112.88c-44.5 0 -62.0996 -16.8301 -62.1699 -77.2305
v-45.5498c-0.0302734 -59.71 17.6699 -76.7998 62.3398 -76.7998h132.74z" />
    <glyph glyph-name="fraction" unicode="&#x2044;" horiz-adv-x="631" 
d="M474.5 710h124.59l-442.74 -720h-124.59z" />
    <glyph glyph-name="onehalf" unicode="&#xbd;" horiz-adv-x="877" 
d="M110.79 -10l442.74 720h124.59l-442.74 -720h-124.59zM135.24 287.9v316.59h-2.74023l-103.62 -43.25v100.67l91.8203 38.0898h116.45v-412.1h-101.91zM518.86 0l-0.00878906 90.7588c-0.0400391 57.3604 18.46 83.0908 78.3799 109.36l114.97 50.3301
c36.0898 15.7695 38.9297 18.6699 39.0098 39.1602c-0.0800781 26.6504 -6.56055 34.04 -29.251 34.04h-178.48v94.1602h181.32c85.2197 0 128.02 -42.1299 128.22 -126.3c-0.259766 -70.5 -28.0801 -97.5596 -102.561 -130l-95.9297 -41.7598
c-17.7197 -7.76953 -21.3496 -10.4795 -22.3994 -22.6494l-0.419922 -3.2002l212.67 0.259766v-94.1602h-325.52z" />
    <glyph glyph-name="onequarter" unicode="&#xbc;" horiz-adv-x="847" 
d="M110.79 -10l442.74 720h124.59l-442.74 -720h-124.59zM135.24 291.43v316.58h-2.74023l-103.62 -43.2402v100.67l91.8203 38.0898h116.45v-412.1h-101.91zM663.37 -3.53027v77.2207h-213.26v74.3701l175.5 260.68l139.66 -0.19043v-240.7h54.21v-94.1602h-54.21v-77.2197
h-101.9zM581.36 167.851h82.0098v121.92l-4.20996 -6.37988z" />
    <glyph glyph-name="threequarters" unicode="&#xbe;" horiz-adv-x="888" 
d="M173.36 -10l442.74 720h124.59l-442.74 -720h-124.59zM23.291 276.47v92.7402h176.61c25.8096 0 32.7197 5.15039 32.7197 35.0801v6.61035c0 29.8799 -6.95996 35.0801 -32.8203 35.0801h-127.87l0.0800781 91.6201h120.62c22.7305 0 29.5205 3.40039 29.5205 30.46
v8.51953c0 27.3096 -6.66016 30.5596 -29.5205 30.5596h-158.51v92.8604h169.2c77.1699 0 120.729 -42.0801 120.729 -116.74v-10.7598c0 -30.8604 -9.15039 -55.7803 -27.0801 -73.6504c24.8604 -19.3301 37.4404 -49.71 37.4404 -90.0801v-9.50977
c0 -78.6104 -44.8701 -122.79 -124.66 -122.79h-186.46zM705.061 -3.53027v77.2207h-213.26v74.3701l175.51 260.68l139.65 -0.19043v-240.7h54.21v-94.1602h-54.21v-77.2197h-101.9zM623.051 167.851h82.0098v121.92l-9.5498 -14.3799z" />
    <glyph glyph-name="oneeighth" unicode="&#x215b;" horiz-adv-x="869" 
d="M135.25 619.5h-6.52051l-99.8496 -41.4004v101.09l81.0195 33.6104h109.69h14.0801v-404.8h-98.4199v311.5zM559.13 710h124.59l-442.74 -720h-124.59zM802.89 211.55c26.0098 -14 39.6807 -42.4404 39.6807 -84.6904v-14.1797
c0 -77.3398 -42.21 -118.64 -112.59 -118.64h-105.3c-70.3799 0 -112.85 41.2998 -112.85 118.64v14.1797c0 42.25 13.6602 70.6904 39.6699 84.6904c-18.9404 14.5195 -28.8105 37.8994 -28.8105 67.9297v12.9297c0 76.9199 38.5498 118.34 109.55 118.34h89.9102
c71 0 109.56 -41.4199 109.56 -118.34v-12.9297c0 -30.0303 -9.87988 -53.4102 -28.8203 -67.9297zM621.101 286.6l0.00195312 -6.75977c0 -27.96 8.95996 -33.8799 33.9795 -33.8799h43.6504c25.0098 0 34.5693 5.91992 34.5693 33.8799v6.75977
c0 27.96 -9.54004 33.8701 -34.5703 33.8701h-43.6504c-25.0303 0 -33.9805 -5.91016 -33.9805 -33.8701zM744.433 117.77l-0.000976562 6.76953c0 30.0801 -12 34.0303 -36.0098 34.0303h-63.6201c-24.0098 0 -34.8193 -3.9502 -34.8193 -34.0303v-6.76953
c0 -25.2695 11.8799 -33.7197 34.96 -33.7197h63.6299c24.25 0 35.8604 8.37012 35.8604 33.7197z" />
    <glyph glyph-name="threeeighths" unicode="&#x215c;" horiz-adv-x="910" 
d="M327.87 421.02c0 -77.3301 -39.2305 -118.979 -112.49 -118.979h-192.09v90.0098h171.73c24.3896 0 34.71 4.75 34.71 34.0596v6.53027c0 29.3096 -10.5498 34.0498 -34.9395 34.0498h-122.17v63.0996v24.29h113.01c24.9902 0 32.6807 7.51953 32.6807 33.7695v6.83008
c0 27.0898 -7.69043 33.79 -32.6807 33.79h-150.9v90.2803h168.39c73.8398 0 113.6 -41.3896 113.6 -118.26v-13c0 -30.0098 -9.87012 -53.3594 -28.7998 -67.8496c26.1904 -14.1602 39.9502 -42.8799 39.9502 -84.6797v-13.9404zM599.94 710.001h124.59l-442.75 -720
h-124.58zM843.7 211.551c26 -14 39.6709 -42.4404 39.6709 -84.6904v-14.1797c0 -77.3398 -42.2002 -118.64 -112.59 -118.64h-105.29c-70.3896 0 -112.859 41.2998 -112.859 118.64v14.1797c0 42.25 13.6699 70.6904 39.6699 84.6904
c-18.9404 14.5195 -28.8105 37.8994 -28.8105 67.9297v12.9297c0 76.9199 38.5498 118.34 109.55 118.34h89.9199c71 0 109.55 -41.4199 109.55 -118.34v-12.9297c0 -30.0303 -9.87012 -53.4102 -28.8105 -67.9297zM661.901 286.601l0.00195312 -6.75977
c0 -27.96 8.96973 -33.8799 33.9795 -33.8799h43.6504c25.0195 0 34.5693 5.91992 34.5693 33.8799v6.75977c0 27.96 -9.54004 33.8701 -34.5703 33.8701h-43.6504c-25.0303 0 -33.9805 -5.91016 -33.9805 -33.8701zM785.233 117.771v6.76953
c0 30.0801 -11.9902 34.0303 -36 34.0303h-63.6299c-24 0 -34.8203 -3.9502 -34.8203 -34.0303v-6.76953c0 -25.2695 11.8799 -33.7197 34.9697 -33.7197h63.6201c24.25 0 35.8604 8.37012 35.8604 33.7197z" />
    <glyph glyph-name="fiveeighths" unicode="&#x215d;" horiz-adv-x="920" 
d="M338.17 421.97c0 -77.9502 -42 -119.938 -120.01 -119.938h-188.99v93.2998h173.57c24.1699 0 37.0195 7 37.0195 34.8496v11.3398c0 27.8496 -12.8496 34.8594 -37.0195 34.8594l-96.4004 -0.0498047l-0.0302734 -0.0498047h-72.2998v236.52h98.4199h180.5v-93.2998
h-180.5v-49.8701l85.7305 0.0498047c78.0098 0.0498047 120.01 -41.9805 120.01 -119.931v-27.7803zM610.33 709.993h124.59l-442.74 -720h-124.59zM854.09 211.543c26.0098 -14 39.6807 -42.4404 39.6807 -84.6904v-14.1797c0 -77.3398 -42.21 -118.64 -112.59 -118.64
h-105.3c-70.3799 0 -112.85 41.2998 -112.85 118.64v14.1797c0 42.25 13.6602 70.6904 39.6699 84.6904c-18.9404 14.5195 -28.8105 37.8994 -28.8105 67.9297v12.9297c0 76.9199 38.5498 118.34 109.55 118.34h89.9102c71 0 109.56 -41.4199 109.56 -118.34v-12.9297
c0 -30.0303 -9.87988 -53.4102 -28.8203 -67.9297zM672.301 286.593l0.00195312 -6.75977c0 -27.96 8.95996 -33.8799 33.9795 -33.8799h43.6396c25.0195 0 34.5791 5.91992 34.5791 33.8799v6.75977c0 27.96 -9.54004 33.8701 -34.5801 33.8701h-43.6396
c-25.0303 0 -33.9805 -5.91016 -33.9805 -33.8701zM795.633 117.763l-0.000976562 6.76953c0 30.0801 -12 34.0303 -36.0098 34.0303h-63.6201c-24.0098 0 -34.8193 -3.9502 -34.8193 -34.0303v-6.76953c0 -25.2695 11.8799 -33.7197 34.96 -33.7197h63.6299
c24.25 0 35.8604 8.37012 35.8604 33.7197z" />
    <glyph glyph-name="seveneighths" unicode="&#x215e;" horiz-adv-x="823" 
d="M158.11 308h-111.16l154.98 311.81l-193.28 -0.169922v93.0703l305.69 0.259766v-85.75zM512.71 710h124.59l-442.74 -720h-124.59zM756.47 211.55c26.0098 -14 39.6709 -42.4404 39.6709 -84.6904v-14.1797c0 -77.3398 -42.2002 -118.64 -112.58 -118.64h-105.3
c-70.3799 0 -112.85 41.2998 -112.85 118.64v14.1797c0 42.25 13.6602 70.6904 39.6699 84.6904c-18.9404 14.5195 -28.8203 37.8994 -28.8203 67.9297v12.9297c0 76.9199 38.5596 118.34 109.56 118.34h89.9102c71 0 109.55 -41.4199 109.55 -118.34v-12.9297
c0 -30.0303 -9.87012 -53.4102 -28.8105 -67.9297zM574.681 286.6l0.00195312 -6.75977c0 -27.96 8.95996 -33.8799 33.9795 -33.8799h43.6396c25.0195 0 34.5693 5.91992 34.5693 33.8799v6.75977c0 27.96 -9.53027 33.8701 -34.5703 33.8701h-43.6396
c-25.04 0 -33.9805 -5.91016 -33.9805 -33.8701zM698.003 117.77l0.000976562 6.76953c0 30.0801 -11.9902 34.0303 -36 34.0303h-63.6201c-24.0098 0 -34.8301 -3.9502 -34.8301 -34.0303v-6.76953c0 -25.2695 11.8799 -33.7197 34.9697 -33.7197h63.6201
c24.2598 0 35.8594 8.37012 35.8594 33.7197z" />
    <glyph glyph-name="zero.dnom" horiz-adv-x="379" 
d="M142.56 -5.95996c-75.46 0 -116.09 41.6797 -116.09 119.06v178.59c0 77.3896 40.6299 119.06 116.09 119.06h93.6504c75.46 0 116.09 -41.6699 116.09 -119.06v-178.59c0 -77.3799 -40.6299 -119.06 -116.09 -119.06h-93.6504zM160.35 87.3398h58.9102
c29.4805 0 34.6309 9.04004 34.6309 44.96v140.74c0 35.9297 -5.15039 44.1396 -34.6309 44.1396h-58.9102c-29.4902 0 -35.46 -8.20996 -35.46 -44.1396v-140.74c0 -35.9199 5.96973 -44.96 35.46 -44.96z" />
    <glyph glyph-name="one.dnom" horiz-adv-x="300" 
d="M233.67 404.8v-404.8h-98.4199v311.5h-6.51953l-99.8496 -41.4004v101.09l81.0195 33.6104h123.77z" />
    <glyph glyph-name="two.dnom" horiz-adv-x="372" 
d="M143.98 110.06c-12.3398 -5.58008 -18.4004 -9.29785 -21.1602 -16.7578h217.36v-93.2998h-316.5l-0.120117 93.2998h0.120117v19.5898c0 45.9902 18.46 58.0801 66.5898 80l127.21 56.5801c26.1299 12.04 34.8096 15.0596 34.8096 36.3691
c0 29.1396 -15.1602 31.6094 -28.79 31.6094h-174.66v93.2998h180.54c83.8096 0 119.5 -41.7197 119.48 -120.81c0 -70.6504 -22.0498 -98.2402 -97.71 -132.061z" />
    <glyph glyph-name="three.dnom" horiz-adv-x="354" 
d="M287.92 211.64c26.1904 -14.1602 39.9502 -42.8789 39.9502 -84.6787v-13.9404c0 -77.3301 -39.2305 -118.98 -112.49 -118.98h-192.09v90.0098h171.73c24.3896 0 34.71 4.75 34.71 34.0596v6.53027c0 29.3096 -10.5498 34.0498 -34.9395 34.0498h-122.17v63.0996v24.29
h113.01c24.9902 0 32.6807 7.51953 32.6807 33.7695v6.83008c0 27.0898 -7.69043 33.79 -32.6807 33.79h-150.9v90.2803h168.39c73.8398 0 113.6 -41.3896 113.6 -118.26v-13c0 -30.0098 -9.87012 -53.3594 -28.7998 -67.8496z" />
    <glyph glyph-name="four.dnom" horiz-adv-x="422" 
d="M394.56 163.89v-93.3008h-52.3799v-70.5898h-98.4102v70.5898h-219.71v73.6104l167.82 260.78l136.22 -0.179688h14.0801v-240.91h52.3799zM150.76 163.889h93.0098v147.06z" />
    <glyph glyph-name="five.dnom" horiz-adv-x="365" 
d="M218.16 261.68c78.0098 0.0498047 120.01 -41.9873 120.01 -119.938v-27.7803c0 -77.9502 -42 -119.931 -120.01 -119.931h-188.99v93.2998h173.57c24.1699 0 37.0195 7 37.0195 34.8496v11.3398c0 27.8496 -12.8496 34.8594 -37.0195 34.8594l-96.4004 -0.0498047
l-0.0302734 -0.0498047h-72.2998v236.52h98.4199h180.5v-93.2998h-180.5v-49.8701z" />
    <glyph glyph-name="six.dnom" horiz-adv-x="379" 
d="M234.28 269.09c78.25 0 120.391 -42.1299 120.391 -120.38v-34.5098c0 -77.3896 -40.6299 -120.159 -116.09 -120.159h-96.2598c-75.46 0 -116.09 41.6797 -116.09 119.06v178.59c0 77.3896 40.6299 119.06 116.09 119.06h178.27v-93.5703h-160.48
c-25.96 0 -35.46 -7.38965 -35.46 -40.0195v-29.46c14.7598 14.0898 36.2793 21.3896 64.0596 21.3896h45.5703zM255.571 114.03l0.00878906 33.2598c0 22.7197 -4.91016 28.5293 -28.25 28.5293h-78.0596c-9.90039 0 -18.4199 -2.58008 -24.6201 -7.92969v-40.5303
c0 -32.6299 4.74023 -40.0195 28.2207 -40.0195h71.8096c23.4805 0 30.8906 7.12012 30.8906 26.6904z" />
    <glyph glyph-name="seven.dnom" horiz-adv-x="329" 
d="M8.65039 404.71l305.69 0.259766v-85.75l-156.23 -319.22h-111.16l154.98 311.81l-193.28 -0.169922v93.0703z" />
    <glyph glyph-name="eight.dnom" horiz-adv-x="384" 
d="M317.53 211.55c26.0098 -14 39.6807 -42.4404 39.6807 -84.6904v-14.1797c0 -77.3398 -42.2002 -118.64 -112.59 -118.64h-105.29c-70.3896 0 -112.859 41.2998 -112.859 118.64v14.1797c0 42.25 13.6602 70.6904 39.6699 84.6904
c-18.9404 14.5195 -28.8105 37.8994 -28.8105 67.9297v12.9297c0 76.9199 38.5498 118.34 109.55 118.34h89.9102c71.0098 0 109.56 -41.4199 109.56 -118.34v-12.9297c0 -30.0303 -9.87988 -53.4102 -28.8203 -67.9297zM135.741 286.6l0.00195312 -6.75977
c0 -27.96 8.95996 -33.8799 33.9795 -33.8799h43.6504c25.0098 0 34.5693 5.91992 34.5693 33.8799v6.75977c0 27.96 -9.54004 33.8701 -34.5703 33.8701h-43.6504c-25.0303 0 -33.9805 -5.91016 -33.9805 -33.8701zM259.073 117.77v6.76953
c0 30.0801 -12 34.0303 -36 34.0303h-63.6299c-24 0 -34.8203 -3.9502 -34.8203 -34.0303v-6.76953c0 -25.2695 11.8799 -33.7197 34.9697 -33.7197h63.6201c24.25 0 35.8604 8.37012 35.8604 33.7197z" />
    <glyph glyph-name="nine.dnom" horiz-adv-x="384" 
d="M241.82 410.75c75.4502 0 116.081 -41.6709 116.081 -119.061v-178.59c0 -77.3799 -40.6299 -119.06 -116.08 -119.06h-183.57v93.5801h167.42c24.7197 0 33.8096 8.20996 33.8096 40.0098v35c-14.75 -14.0996 -36.2695 -21.3994 -64.0498 -21.3994h-50.8701
c-78.25 0 -120.38 42.1299 -120.38 120.38v28.9902c0 77.3799 40.6299 120.149 116.08 120.149h101.56zM234.961 234.349c9.57031 0 18.0098 2.21973 24.5098 7.13965v35.9502c0 33.4502 -4.96973 40.0098 -30.9297 40.0098h-75.0303
c-22.25 0 -30.4502 -5.87988 -30.4502 -26.4199v-29.1699c0 -20.2598 5.75977 -27.5098 26.96 -27.5098h84.9404z" />
    <glyph glyph-name="zero.numr" horiz-adv-x="379" 
d="M142.56 302.04c-75.46 0 -116.09 41.6797 -116.09 119.06v178.59c0 77.3896 40.6299 119.06 116.09 119.06h93.6504c75.46 0 116.09 -41.6699 116.09 -119.06v-178.59c0 -77.3799 -40.6299 -119.06 -116.09 -119.06h-93.6504zM160.35 395.34h58.9102
c29.4805 0 34.6309 9.04004 34.6309 44.96v140.74c0 35.9297 -5.15039 44.1396 -34.6309 44.1396h-58.9102c-29.4902 0 -35.46 -8.20996 -35.46 -44.1396v-140.74c0 -35.9199 5.96973 -44.96 35.46 -44.96z" />
    <glyph glyph-name="one.numr" horiz-adv-x="300" 
d="M233.67 712.8v-404.8h-98.4199v311.5h-6.51953l-99.8496 -41.4004v101.09l81.0195 33.6104h123.77z" />
    <glyph glyph-name="two.numr" horiz-adv-x="372" 
d="M143.98 418.06c-12.3398 -5.58008 -18.4004 -9.29785 -21.1602 -16.7578h217.36v-93.2998h-316.5l-0.120117 93.2998h0.120117v19.5898c0 45.9902 18.46 58.0801 66.5898 80l127.21 56.5801c26.1299 12.04 34.8096 15.0596 34.8096 36.3691
c0 29.1396 -15.1602 31.6094 -28.79 31.6094h-174.66v93.2998h180.54c83.8096 0 119.5 -41.7197 119.48 -120.81c0 -70.6504 -22.0498 -98.2402 -97.71 -132.061z" />
    <glyph glyph-name="three.numr" horiz-adv-x="354" 
d="M287.92 519.64c26.1904 -14.1602 39.9502 -42.8789 39.9502 -84.6787v-13.9404c0 -77.3301 -39.2305 -118.98 -112.49 -118.98h-192.09v90.0098h171.73c24.3896 0 34.71 4.75 34.71 34.0596v6.53027c0 29.3096 -10.5498 34.0498 -34.9395 34.0498h-122.17v63.0996v24.29
h113.01c24.9902 0 32.6807 7.51953 32.6807 33.7695v6.83008c0 27.0898 -7.69043 33.79 -32.6807 33.79h-150.9v90.2803h168.39c73.8398 0 113.6 -41.3896 113.6 -118.26v-13c0 -30.0098 -9.87012 -53.3594 -28.7998 -67.8496z" />
    <glyph glyph-name="four.numr" horiz-adv-x="422" 
d="M394.56 471.89v-93.3008h-52.3799v-70.5898h-98.4102v70.5898h-219.71v73.6104l167.82 260.78l136.22 -0.179688h14.0801v-240.91h52.3799zM150.76 471.889h93.0098v147.06z" />
    <glyph glyph-name="five.numr" horiz-adv-x="365" 
d="M218.16 569.68c78.0098 0.0498047 120.01 -41.9873 120.01 -119.938v-27.7803c0 -77.9502 -42 -119.931 -120.01 -119.931h-188.99v93.2998h173.57c24.1699 0 37.0195 7 37.0195 34.8496v11.3398c0 27.8496 -12.8496 34.8594 -37.0195 34.8594l-96.4004 -0.0498047
l-0.0302734 -0.0498047h-72.2998v236.52h98.4199h180.5v-93.2998h-180.5v-49.8701z" />
    <glyph glyph-name="six.numr" horiz-adv-x="379" 
d="M234.28 577.09c78.25 0 120.391 -42.1299 120.391 -120.38v-34.5098c0 -77.3896 -40.6299 -120.159 -116.09 -120.159h-96.2598c-75.46 0 -116.09 41.6797 -116.09 119.06v178.59c0 77.3896 40.6299 119.06 116.09 119.06h178.27v-93.5703h-160.48
c-25.96 0 -35.46 -7.38965 -35.46 -40.0195v-29.46c14.7598 14.0898 36.2793 21.3896 64.0596 21.3896h45.5703zM255.571 422.03l0.00878906 33.2598c0 22.7197 -4.91016 28.5293 -28.25 28.5293h-78.0596c-9.90039 0 -18.4199 -2.58008 -24.6201 -7.92969v-40.5303
c0 -32.6299 4.74023 -40.0195 28.2207 -40.0195h71.8096c23.4805 0 30.8906 7.12012 30.8906 26.6904z" />
    <glyph glyph-name="seven.numr" horiz-adv-x="329" 
d="M8.65039 712.71l305.69 0.259766v-85.75l-156.23 -319.22h-111.16l154.98 311.81l-193.28 -0.169922v93.0703z" />
    <glyph glyph-name="eight.numr" horiz-adv-x="384" 
d="M317.53 519.55c26.0098 -14 39.6807 -42.4404 39.6807 -84.6904v-14.1797c0 -77.3398 -42.2002 -118.64 -112.59 -118.64h-105.29c-70.3896 0 -112.859 41.2998 -112.859 118.64v14.1797c0 42.25 13.6602 70.6904 39.6699 84.6904
c-18.9404 14.5195 -28.8105 37.8994 -28.8105 67.9297v12.9297c0 76.9199 38.5498 118.34 109.55 118.34h89.9102c71.0098 0 109.56 -41.4199 109.56 -118.34v-12.9297c0 -30.0303 -9.87988 -53.4102 -28.8203 -67.9297zM135.741 594.6l0.00195312 -6.75977
c0 -27.96 8.95996 -33.8799 33.9795 -33.8799h43.6504c25.0098 0 34.5693 5.91992 34.5693 33.8799v6.75977c0 27.96 -9.54004 33.8701 -34.5703 33.8701h-43.6504c-25.0303 0 -33.9805 -5.91016 -33.9805 -33.8701zM259.073 425.77v6.76953
c0 30.0801 -12 34.0303 -36 34.0303h-63.6299c-24 0 -34.8203 -3.9502 -34.8203 -34.0303v-6.76953c0 -25.2695 11.8799 -33.7197 34.9697 -33.7197h63.6201c24.25 0 35.8604 8.37012 35.8604 33.7197z" />
    <glyph glyph-name="nine.numr" horiz-adv-x="384" 
d="M241.82 718.75c75.4502 0 116.081 -41.6709 116.081 -119.061v-178.59c0 -77.3799 -40.6299 -119.06 -116.08 -119.06h-183.57v93.5801h167.42c24.7197 0 33.8096 8.20996 33.8096 40.0098v35c-14.75 -14.0996 -36.2695 -21.3994 -64.0498 -21.3994h-50.8701
c-78.25 0 -120.38 42.1299 -120.38 120.38v28.9902c0 77.3799 40.6299 120.149 116.08 120.149h101.56zM234.961 542.349c9.57031 0 18.0098 2.21973 24.5098 7.13965v35.9502c0 33.4502 -4.96973 40.0098 -30.9297 40.0098h-75.0303
c-22.25 0 -30.4502 -5.87988 -30.4502 -26.4199v-29.1699c0 -20.2598 5.75977 -27.5098 26.96 -27.5098h84.9404z" />
    <glyph glyph-name="uni00B9" unicode="&#xb9;" horiz-adv-x="292" 
d="M148.13 337.9l-0.00976562 316.59h-2.75l-103.62 -43.2402v100.67l91.8301 38.0801h116.45v-412.1h-101.9z" />
    <glyph glyph-name="uni00B2" unicode="&#xb2;" horiz-adv-x="418" 
d="M41.7598 337.9l0.00195312 90.7598c-0.0498047 57.3604 18.46 83.0908 78.3701 109.36l114.97 50.3301c36.0898 15.7695 38.9297 18.6797 39.0195 39.1602c-0.0898438 26.6504 -6.55957 34.0508 -29.25 34.0508h-178.49v94.1504h181.33
c85.2197 0 128.02 -42.1299 128.22 -126.3c-0.269531 -70.4902 -28.0898 -97.5605 -102.56 -130.001l-95.9404 -41.7598c-17.75 -7.78027 -21.3604 -10.4902 -22.4102 -22.7207l-0.400391 -3.12012l212.67 0.25v-94.1602h-325.53z" />
    <glyph glyph-name="uni00B3" unicode="&#xb3;" horiz-adv-x="395" 
d="M41.7598 332.47v92.7402h176.6c25.8203 0 32.7305 5.15039 32.7305 35.0801v6.61035c0 29.8799 -6.95996 35.0801 -32.8203 35.0801h-127.87l0.0800781 91.6201h120.61c22.7305 0 29.5303 3.40039 29.5303 30.46v8.51953c0 27.3096 -6.66016 30.5596 -29.5303 30.5596
h-158.5v92.8604h169.19c77.1797 0 120.739 -42.0801 120.739 -116.74v-10.7598c0 -30.8604 -9.15039 -55.7803 -27.0801 -73.6504c24.8604 -19.3301 37.4404 -49.71 37.4404 -90.0801v-9.50977c0 -78.6104 -44.8701 -122.79 -124.66 -122.79h-186.46z" />
    <glyph glyph-name="asterisk" unicode="*" horiz-adv-x="515" 
d="M473.64 546.53l-140.92 -42.0801l89.2695 -116.86l-80.7305 -58.6602l-83.5596 121.02l-83.5596 -121.02l-80.7402 58.6602l89.2803 116.87l-140.92 42.0703l30.8398 94.9102l138.73 -48.79l-3.53027 147.02h99.7998l-3.54004 -147.02l138.74 48.79z" />
    <glyph glyph-name="backslash" unicode="\" horiz-adv-x="409" 
d="M255.72 -17.3096l-229.839 734.6h127.22l229.85 -734.6h-127.23z" />
    <glyph glyph-name="periodcentered" unicode="&#xb7;" horiz-adv-x="275" 
d="M71.7598 224.54v153.26h131.6v-153.26h-131.6z" />
    <glyph glyph-name="bullet" unicode="&#x2022;" horiz-adv-x="358" 
d="M81.7598 208.08v234.47h194.48v-234.47h-194.48z" />
    <glyph glyph-name="colon" unicode=":" horiz-adv-x="275" 
d="M71.7598 295.63v153.26h131.6v-153.26h-131.6zM71.7598 -0v153.26h131.6v-153.26h-131.6z" />
    <glyph glyph-name="comma" unicode="," horiz-adv-x="297" 
d="M93.9502 153.26h131.6v-153.26l-69.79 -152.85h-97.8301l69.79 152.85h-33.7695v153.26z" />
    <glyph glyph-name="ellipsis" unicode="&#x2026;" horiz-adv-x="807" 
d="M71.7598 0v153.26h131.6v-153.26h-131.6zM337.54 -0v153.26h131.6v-153.26h-131.6zM603.36 -0v153.26h131.6v-153.26h-131.6z" />
    <glyph glyph-name="exclam" unicode="!" horiz-adv-x="300" 
d="M93.7598 219.63l-12 480.37h136.3l-12 -480.37h-112.3zM84.1094 0v153.26h131.6v-153.26h-131.6z" />
    <glyph glyph-name="exclamdown" unicode="&#xa1;" horiz-adv-x="300" 
d="M84.1104 366.74v153.26h131.6v-153.26h-131.6zM81.7607 -180l12 480.36h112.3l12 -480.36h-136.3z" />
    <glyph glyph-name="numbersign" unicode="#" horiz-adv-x="765" 
d="M686.68 409.23h-99.5195l-16.9902 -121.19h99.79l-16.4297 -116.53h-99.7002l-24.0498 -171.51h-122.66l24.0498 171.51h-148.76l-24.0498 -171.51h-122.66l24.0498 171.51h-97.9902l16.4297 116.53h97.9004l16.9902 121.19h-98.1797l16.3398 116.52h98.1797
l24.4404 174.25h122.66l-24.4404 -174.25h148.76l24.4297 174.25h122.66l-24.4297 -174.25h99.5098zM447.51 288.04l16.9902 121.19h-148.76l-16.9902 -121.19h148.76z" />
    <glyph glyph-name="period" unicode="." horiz-adv-x="275" 
d="M71.7598 0v153.26h131.6v-153.26h-131.6z" />
    <glyph glyph-name="question" unicode="?" horiz-adv-x="535" 
d="M132.93 215.15l0.0107422 74.5898c0 69.0801 24.9199 104.46 99.8701 136.28l51.96 21.6504c69.9502 30.0898 72.8398 30.2803 72.8398 73.6504c0 55.0195 -10.1699 65.0791 -60.8701 65.0791h-250.86l0.0195312 123.6h259.37c128.79 0 183.91 -62 183.891 -179.35
c0.0498047 -115.78 -46.0703 -151.12 -152.24 -196.71l-37.4199 -15.9404c-33.9902 -14.5996 -39.5605 -19.3301 -39.5605 -61.5498v-41.2998h-127.01zM130.671 0v153.26h131.6v-153.26h-131.6z" />
    <glyph glyph-name="questiondown" unicode="&#xbf;" horiz-adv-x="535" 
d="M272.79 366.71v153.26h131.6v-153.26h-131.6zM229.771 -190.03c-128.79 0 -183.9 62 -183.9 179.35c-0.0498047 115.77 46.0703 151.119 152.25 196.709l37.4102 15.9404c34 14.5996 39.5596 19.3301 39.5596 61.54v41.3096h127.01v-74.5898
c0 -69.0801 -24.9102 -104.46 -99.8701 -136.28l-51.96 -21.6504c-69.9502 -30.0996 -72.8398 -30.2793 -72.8398 -73.6494c0 -55.0195 10.1699 -65.0791 60.8701 -65.0791h250.86l-0.0195312 -123.6h-259.37z" />
    <glyph glyph-name="quotedbl" unicode="&#x22;" horiz-adv-x="448" 
d="M78.6104 444.82l-6.84961 285h119.84l-6.83984 -285h-106.15zM263.421 444.82l-6.84961 285h119.85l-6.84961 -285h-106.15z" />
    <glyph glyph-name="quotesingle" unicode="'" horiz-adv-x="263" 
d="M78.6104 444.82l-6.84961 285h119.84l-6.83984 -285h-106.15z" />
    <glyph glyph-name="semicolon" unicode=";" horiz-adv-x="297" 
d="M93.9502 448.89h131.6v-153.26h-131.6v153.26zM93.9502 -0v153.26h131.6v-153.26l-69.79 -152.85h-97.8301l69.79 152.85h-33.7695z" />
    <glyph glyph-name="slash" unicode="/" horiz-adv-x="409" 
d="M25.8799 -17.3096l229.839 734.6h127.23l-229.85 -734.6h-127.22z" />
    <glyph glyph-name="underscore" unicode="_" horiz-adv-x="590" 
d="M518.47 -31.5996v-111.43h-446.71v111.43h446.71z" />
    <glyph glyph-name="braceleft" unicode="{" horiz-adv-x="401" 
d="M290.01 -60.3799l69.2695 0.000976562l0.120117 -114.86h-83.1602c-100.84 -0.0898438 -159.78 52.3799 -159.78 159.91v227.87c0 49.5303 -12.2695 55.7998 -54.6992 55.9697v77.21v38.5c43.3096 0.169922 54.6992 7.16016 54.6992 55.9697v227.87
c0 107.53 58.9404 160 159.78 159.91h83.1602l-0.120117 -114.86h-69.2695c-39.8398 0 -47.9502 -11.1104 -47.9502 -55.79v-217.13c-0.429688 -60.2803 -16.6797 -95.1201 -54.4297 -114c38.3398 -19.0195 54.0098 -54 54.4297 -113.65v-217.13
c0 -44.5801 8.11035 -55.79 47.9502 -55.79z" />
    <glyph glyph-name="braceright" unicode="}" horiz-adv-x="401" 
d="M284.7 440.19c0 -48.8096 11.3994 -52.8594 54.6992 -53.0293v-80.5596v-41.0303c-42.4297 -0.169922 -54.6992 -3.5 -54.6992 -53.0303v-227.87c0.219727 -107.48 -59.3105 -159.95 -159.78 -159.91h-83.1602l0.120117 119.07h69.2695
c33.96 0 44.4199 7 44.4199 51.5801v217.13c0.44043 60.4697 16.5801 95.1396 54.6201 113.85c-38.7197 19.0898 -54.46 54.1094 -54.6201 113.8v217.13c0 44.6797 -10.46 51.5801 -44.4199 51.5801h-69.2695l-0.120117 119.07h83.1602
c100.47 0.0898438 160 -52.3799 159.78 -159.91v-227.87z" />
    <glyph glyph-name="bracketleft" unicode="[" horiz-adv-x="372" 
d="M330.66 702.7l-116.879 -0.000976562v-754.34h116.89v-123.6h-229.24h-19.6602v1001.54h132h116.89v-123.6z" />
    <glyph glyph-name="bracketright" unicode="]" horiz-adv-x="372" 
d="M290.66 826.3l-0.000976562 -1001.54h-132.02h-116.88v123.6h116.88v754.34h-116.88v123.6h248.9z" />
    <glyph glyph-name="braceleft.case" horiz-adv-x="401" 
d="M290.01 -31.3799l69.2695 0.000976562l0.120117 -114.86h-83.1602c-100.84 -0.0898438 -159.78 52.3799 -159.78 159.91v227.87c0 49.5303 -12.2695 55.7998 -54.6992 55.9697v77.21v38.5c43.3096 0.169922 54.6992 7.16016 54.6992 55.9697v227.87
c0 107.53 58.9404 160 159.78 159.91h83.1602l-0.120117 -114.86h-69.2695c-39.8398 0 -47.9502 -11.1104 -47.9502 -55.79v-217.13c-0.429688 -60.2803 -16.6797 -95.1201 -54.4297 -114c38.3398 -19.0195 54.0098 -54 54.4297 -113.65v-217.13
c0 -44.5801 8.11035 -55.79 47.9502 -55.79z" />
    <glyph glyph-name="braceright.case" horiz-adv-x="401" 
d="M284.7 469.19c0 -48.8096 11.3994 -52.8594 54.6992 -53.0293v-80.5596v-41.0303c-42.4297 -0.169922 -54.6992 -3.5 -54.6992 -53.0303v-227.87c0.219727 -107.48 -59.3105 -159.95 -159.78 -159.91h-83.1602l0.120117 119.07h69.2695
c33.96 0 44.4199 7 44.4199 51.5801v217.13c0.44043 60.4697 16.5801 95.1396 54.6201 113.85c-38.7197 19.0898 -54.46 54.1094 -54.6201 113.8v217.13c0 44.6797 -10.46 51.5801 -44.4199 51.5801h-69.2695l-0.120117 119.07h83.1602
c100.47 0.0898438 160 -52.3799 159.78 -159.91v-227.87z" />
    <glyph glyph-name="bracketleft.case" horiz-adv-x="372" 
d="M330.66 731.7l-116.879 -0.000976562v-754.34h116.89v-123.6h-229.24h-19.6602v1001.54h132h116.89v-123.6z" />
    <glyph glyph-name="bracketright.case" horiz-adv-x="372" 
d="M290.66 855.3l-0.000976562 -1001.54h-132.02h-116.88v123.6h116.88v754.34h-116.88v123.6h248.9z" />
    <glyph glyph-name="parenleft.case" horiz-adv-x="394" 
d="M352 -146.24c-172.38 -0.19043 -285.24 97.21 -285.24 263.71v475.84c0 166.5 112.86 263.9 285.24 263.71l-0.209961 -119.03c-102.43 0.0996094 -153.43 -45.1406 -153.43 -144.78v-475.64c0 -99.6396 51 -144.88 153.43 -144.79z" />
    <glyph glyph-name="parenright.case" horiz-adv-x="394" 
d="M41.7598 -146.24l0.200195 119.02c102.44 -0.0898438 153.44 45.1504 153.44 144.79v475.64c0 99.6396 -51 144.88 -153.44 144.78l-0.200195 119.03c172.38 0.19043 285.24 -97.21 285.24 -263.71v-475.84c0 -166.5 -112.86 -263.9 -285.24 -263.71z" />
    <glyph glyph-name="parenleft" unicode="(" horiz-adv-x="394" 
d="M352 -175.24c-172.38 -0.19043 -285.24 97.21 -285.24 263.71v475.84c0 166.5 112.86 263.9 285.24 263.71l-0.209961 -119.03c-102.43 0.0996094 -153.43 -45.1406 -153.43 -144.78v-475.64c0 -99.6396 51 -144.88 153.43 -144.79z" />
    <glyph glyph-name="parenright" unicode=")" horiz-adv-x="394" 
d="M41.7598 -175.24l0.200195 119.02c102.44 -0.0898438 153.44 45.1504 153.44 144.79v475.64c0 99.6396 -51 144.88 -153.44 144.78l-0.200195 119.03c172.38 0.19043 285.24 -97.21 285.24 -263.71v-475.84c0 -166.5 -112.86 -263.9 -285.24 -263.71z" />
    <glyph glyph-name="emdash" unicode="&#x2014;" horiz-adv-x="965" 
d="M911.63 348.7v-117.72h-857.81v117.72h857.81z" />
    <glyph glyph-name="endash" unicode="&#x2013;" horiz-adv-x="641" 
d="M586.8 348.7v-117.72h-532.98v117.72h532.98z" />
    <glyph glyph-name="hyphen" unicode="-" horiz-adv-x="436" 
d="M382.65 348.7v-117.72h-328.83v117.72h328.83z" />
    <glyph glyph-name="guillemotleft" unicode="&#xab;" horiz-adv-x="611" 
d="M322.21 460.78l-134.36 -201.32l134.36 -201.32l-145.78 -0.469727l-134.67 201.79l134.67 201.79zM559.01 460.78l-134.37 -201.32l134.37 -201.32l-145.78 -0.469727l-134.68 201.79l134.68 201.79z" />
    <glyph glyph-name="guillemotright" unicode="&#xbb;" horiz-adv-x="611" 
d="M197.54 461.25l134.67 -201.79l-134.67 -201.79l-145.78 0.469727l134.36 201.32l-134.36 201.32zM434.33 461.25l134.68 -201.79l-134.68 -201.79l-145.78 0.469727l134.37 201.32l-134.37 201.32z" />
    <glyph glyph-name="guilsinglleft" unicode="&#x2039;" horiz-adv-x="374" 
d="M322.21 460.78l-134.36 -201.32l134.36 -201.32l-145.78 -0.469727l-134.67 201.79l134.67 201.79z" />
    <glyph glyph-name="guilsinglright" unicode="&#x203a;" horiz-adv-x="374" 
d="M197.54 461.25l134.67 -201.79l-134.67 -201.79l-145.78 0.469727l134.36 201.32l-134.36 201.32z" />
    <glyph glyph-name="quotedblbase" unicode="&#x201e;" horiz-adv-x="511" 
d="M93.9502 0v153.26h131.6v-153.26l-69.79 -152.85h-97.8301l69.79 152.85h-33.7695zM307.8 153.26h131.601v-153.26l-69.79 -152.85h-97.8203l69.79 152.85h-33.7803v153.26z" />
    <glyph glyph-name="quotedblleft" unicode="&#x201c;" horiz-adv-x="511" 
d="M141.54 729.44h97.8291l-69.79 -152.85h33.7803v-153.26h-131.6v153.26zM453.229 729.44l-69.79 -152.85h33.7695v-153.26h-131.6v153.26l69.79 152.85h97.8301z" />
    <glyph glyph-name="quotedblright" unicode="&#x201d;" horiz-adv-x="511" 
d="M93.9502 576.18v153.26h131.6v-153.26l-69.79 -152.85h-97.8301l69.79 152.85h-33.7695zM307.8 729.439h131.601v-153.26l-69.79 -152.85h-97.8203l69.79 152.85h-33.7803v153.26z" />
    <glyph glyph-name="quoteleft" unicode="&#x2018;" horiz-adv-x="297" 
d="M239.37 729.44l-69.791 -152.85h33.7803v-153.26h-131.6v153.26l69.7803 152.85h97.8301z" />
    <glyph glyph-name="quoteright" unicode="&#x2019;" horiz-adv-x="297" 
d="M93.9502 729.44h131.6v-153.26l-69.79 -152.85h-97.8301l69.79 152.85h-33.7695v153.26z" />
    <glyph glyph-name="quotesinglbase" unicode="&#x201a;" horiz-adv-x="297" 
d="M93.9502 153.26h131.6v-153.26l-69.79 -152.85h-97.8301l69.79 152.85h-33.7695v153.26z" />
    <glyph glyph-name="space" unicode=" " horiz-adv-x="250" 
 />
    <glyph glyph-name="cent" unicode="&#xa2;" horiz-adv-x="490" 
d="M227.37 395.05c-37.4902 0 -47.9502 -9.16016 -47.9502 -55.7998v-178.51c0 -46.6396 10.46 -55.79 47.9502 -55.79h210.05v-114.95h-91.0195v-112.44h-118.54v112.44h-14.04c-104 0 -160 56 -160 160v200c0 104 56 160 160 160h14.04v112.43h118.54v-112.43h91.0195
v-114.95h-210.05z" />
    <glyph glyph-name="currency" unicode="&#xa4;" horiz-adv-x="600" 
 />
    <glyph glyph-name="dollar" unicode="$" horiz-adv-x="655" 
d="M427.52 417.2c129.07 0 174.36 -67.71 174.36 -212.92c0 -145.45 -45.5703 -214.28 -174.351 -214.28h-43.3496v-130.83h-128.25v130.83h-181.65v123.6h338.8c56.7998 0 57.2002 17.7998 57.2002 90.4199c0 71.8398 -0.44043 89.5801 -57.2002 89.5801h-171.11
c-141.7 0 -189.13 76.4004 -189.02 207.24c0.110352 138.34 52.8506 209.16 189.021 209.16h13.96v130.78h128.25v-130.78h165.81v-123.81l-295.47 0.169922c-62.8604 0.0302734 -70.0303 -16.4102 -69.9707 -85.7803c-0.0595703 -67.46 7.03027 -83.3799 69.9707 -83.3799
h173z" />
    <glyph glyph-name="Euro" unicode="&#x20ac;" horiz-adv-x="646" 
d="M312.77 586.19c-58 0 -76.3398 -16.96 -76.3398 -87.1104v-21.6104h220.29v-108.24h-220.29v-48.3604h220.29v-108.25h-220.29v-11.9102c0 -70.1504 18.3398 -87.1104 76.3398 -87.1104h284.2v-123.6h-294.5c-128.47 0 -197.649 70 -197.649 200v22.6201h-83.9404v108.25
h83.9404v48.3604h-83.9404v108.24h83.9404v32.5303c0 130 69.1797 200 197.649 200h294.5v-123.81h-284.2z" />
    <glyph glyph-name="florin" unicode="&#x192;" horiz-adv-x="383" 
d="M275.32 595.05c-39.4697 0 -47.7617 -10.71 -47.7617 -55.7598v-105.9h129.52v-113.19h-129.52v-351.43c-0.19043 -104.38 -56.1904 -171.13 -160.19 -171.13h-42.3701v113.78h28.8203c34.9102 0 48.1406 8.58008 48.1406 56.9297v351.85h-76.96v113.19h76.96v116.61
c0 106.47 57.6504 160 159.811 160h121.23v-114.95h-107.68z" />
    <glyph glyph-name="sterling" unicode="&#xa3;" horiz-adv-x="659" 
d="M269.88 123.6l333.55 -0.00195312v-123.6h-458.41h-69.7695v110.3c63.2305 0 80.7207 19.5801 80.7207 90.4102v88.5h-80.71v123.6h80.71v97.1904c0 130 69.1797 200 197.649 200h229.76v-123.81h-219.46c-58 0 -76.3398 -16.96 -76.3398 -87.1104v-86.2695h257.34
v-123.6h-257.34v-88.5c0 -31.0303 -6.00977 -56.8398 -17.7002 -77.1094z" />
    <glyph glyph-name="yen" unicode="&#xa5;" horiz-adv-x="722" 
d="M696.54 699.91l-177.151 -317.609h89.96v-108.24h-150.34l-31.7998 -57v-13.2803h182.14v-108.25h-182.14v-95.5303h-131.6v95.5303h-182.14v108.25h182.14v12.9697l-32 57.3203h-150.14v108.24h89.7197l-177.3 317.6l148 0.0898438l187.33 -341.73l187.32 341.73z" />
    <glyph glyph-name="approxequal" unicode="&#x2248;" horiz-adv-x="582" 
d="M148.4 329.17l-91.9893 54.9092c43.8896 80.5195 91.8398 128 155.859 128.44c44.6904 0.150391 78.8105 -22.6191 108.461 -39.0889c56.3496 -31.5996 79.6494 -32.5996 117.919 38.4307l91.6904 -54.8301c-39.25 -68.0195 -84.6104 -116.8 -143.021 -119.62
c-43.3604 -2.41016 -86.0703 22.7695 -116.13 39.2393c-63 35 -78.8203 31.5898 -122.79 -47.4805zM143.751 106.669l-92.002 54.9082c43.8896 80.5303 91.8301 128 155.86 128.44c44.6797 0.150391 78.7998 -22.6191 108.45 -39.0889
c56.3604 -31.5898 79.6504 -32.5898 117.92 38.4404l91.6904 -54.8301c-39.25 -68.0303 -84.5996 -116.8 -143.02 -119.62c-43.3496 -2.41992 -86.0596 22.7598 -116.119 39.2402c-63 35 -78.8203 31.5898 -122.78 -47.4902z" />
    <glyph glyph-name="asciitilde" unicode="~" horiz-adv-x="577" 
d="M143.75 259.01l-92.002 54.9189c43.8896 80.5195 91.8301 128 155.86 128.44c44.6797 0.150391 78.7998 -22.6191 108.45 -39.0889c56.3604 -31.5898 79.6504 -32.5898 117.92 38.4297l91.6904 -54.8301c-39.25 -68.0195 -84.5996 -116.789 -143.02 -119.619
c-43.3496 -2.41016 -86.0596 22.7695 -116.119 39.2393c-63 35 -78.8203 31.5801 -122.78 -47.4902z" />
    <glyph glyph-name="divide" unicode="&#xf7;" horiz-adv-x="552" 
d="M208.81 414.57v130.79h133.95v-130.79h-133.95zM51.7598 242.74v116.64l448.05 0.589844v-116.64zM208.81 56.7598v130.79h133.95v-130.79h-133.95z" />
    <glyph glyph-name="emptyset" unicode="&#x2205;" horiz-adv-x="600" 
 />
    <glyph glyph-name="equal" unicode="=" horiz-adv-x="552" 
d="M499.81 459.35v-117.04l-448.05 -1.25977v117.05zM499.81 264.77v-117.05l-448.05 -1.25977v117.05z" />
    <glyph glyph-name="greater" unicode="&#x3e;" horiz-adv-x="518" 
d="M55.8799 570.07l416.46 -189.189v-122.01v-7.87988l-416.46 -189.19v127.08l287.39 127.06l-287.39 127.05v127.08z" />
    <glyph glyph-name="greaterequal" unicode="&#x2265;" horiz-adv-x="518" 
d="M55.8799 595.01l416.46 -155.352v-121.42v-34.3496l-416.46 -155.35v127.08l295.35 106.15l-295.35 106.16v127.08zM55.8799 -30.6621v117.05l416.46 1.25977v-117.05z" />
    <glyph glyph-name="infinity" unicode="&#x221e;" horiz-adv-x="600" 
 />
    <glyph glyph-name="integral" unicode="&#x222b;" horiz-adv-x="600" 
 />
    <glyph glyph-name="less" unicode="&#x3c;" horiz-adv-x="518" 
d="M462.34 570.07v-127.081l-287.39 -127.05l287.39 -127.06v-127.08l-416.46 189.19v122.01v7.87988z" />
    <glyph glyph-name="lessequal" unicode="&#x2264;" horiz-adv-x="518" 
d="M462.34 595.01v-127.079l-295.35 -106.16l295.35 -106.15v-127.08l-416.46 155.35v121.41v34.3604zM45.8799 -29.3994v117.05l416.46 -1.25977v-117.05z" />
    <glyph glyph-name="logicalnot" unicode="&#xac;" horiz-adv-x="600" 
 />
    <glyph glyph-name="minus" unicode="&#x2212;" horiz-adv-x="552" 
d="M499.81 360.17v-117.04l-448.05 -1.25977v117.05z" />
    <glyph glyph-name="multiply" unicode="&#xd7;" horiz-adv-x="536" 
d="M484.26 167.19l-82.7598 -82.7695l-133.27 132.6l-132.82 -133.49l-82.7598 82.7695l132.59 133.27l-133.48 132.81l82.7598 82.7695l133.27 -132.6l132.82 133.49l82.7598 -82.7695l-132.59 -133.27z" />
    <glyph glyph-name="notequal" unicode="&#x2260;" horiz-adv-x="552" 
d="M499.81 342.31l-150.322 -0.429688l-24.5 -77.5996l174.82 0.490234v-117.05l-211.81 -0.599609l-49.5996 -157.12h-121.35l49.0596 156.78l-114.35 -0.320312v117.05l151 0.419922l24.2803 77.6104l-175.28 -0.490234v117.05l211.94 0.589844l49.4697 158.13h123.11
l-49.8096 -157.78l113.34 0.30957v-117.04z" />
    <glyph glyph-name="partialdiff" unicode="&#x2202;" horiz-adv-x="600" 
 />
    <glyph glyph-name="percent" unicode="%" horiz-adv-x="974" 
d="M201.38 -10l442.74 720h124.59l-442.74 -720h-124.59zM172.17 282.48c-80.8398 0 -126.29 45.3604 -126.29 126.051v171.43c0 80.6904 45.4502 126.051 126.29 126.051h78.2598c80.8496 0 126.3 -45.3604 126.3 -126.051v-171.43
c0 -80.6904 -45.4502 -126.051 -126.3 -126.051h-78.2598zM178.06 376.641h66.4902c25.6904 0 30.2803 4.88965 30.2803 38.0098v159.07c0 33.1299 -4.58984 38.0195 -30.2803 38.0195h-66.4902c-25.7002 0 -30.2803 -4.88965 -30.2803 -38.0195v-159.07
c0 -33.1201 4.58008 -38.0098 30.2803 -38.0098zM724 -5.89941c-80.8496 0 -126.29 45.3604 -126.29 126.051v171.43c0 80.6904 45.4404 126.051 126.29 126.051h78.2598c80.8496 0 126.29 -45.3604 126.29 -126.051v-171.43c0 -80.6904 -45.4404 -126.051 -126.29 -126.051
h-78.2598zM729.89 88.2607h66.4902c25.6904 0 30.2705 4.87988 30.2705 38.0098v159.07c0 33.1299 -4.58008 38.0098 -30.2705 38.0098h-66.4902c-25.7002 0 -30.2803 -4.87988 -30.2803 -38.0098v-159.07c0 -33.1299 4.58008 -38.0098 30.2803 -38.0098z" />
    <glyph glyph-name="perthousand" unicode="&#x2030;" horiz-adv-x="1366" 
d="M201.54 -10l442.74 720h124.59l-442.74 -720h-124.59zM172.17 282.46c-80.8398 0 -126.29 45.3604 -126.29 126.051v171.43c0 80.6904 45.4502 126.051 126.29 126.051h78.2598c80.8496 0 126.3 -45.3604 126.3 -126.051v-171.43
c0 -80.6904 -45.4502 -126.051 -126.3 -126.051h-78.2598zM178.06 376.62h66.4902c25.6904 0 30.2803 4.87988 30.2803 38.0098v159.07c0 33.1299 -4.58984 38.0098 -30.2803 38.0098h-66.4902c-25.7002 0 -30.2803 -4.87988 -30.2803 -38.0098v-159.07
c0 -33.1299 4.58008 -38.0098 30.2803 -38.0098zM724 -6.01953c-80.8496 0 -126.29 45.3604 -126.29 126.051v171.43c0 80.6904 45.4404 126.051 126.29 126.051h78.2598c80.8496 0 126.29 -45.3604 126.29 -126.051v-171.43c0 -80.6904 -45.4404 -126.051 -126.29 -126.051
h-78.2598zM1115.47 -6.01953c-80.8398 0 -126.29 45.3604 -126.29 126.051v171.43c0 80.6904 45.4502 126.051 126.29 126.051h78.2598c80.8496 0 126.3 -45.3604 126.3 -126.051v-171.43c0 -80.6904 -45.4502 -126.051 -126.3 -126.051h-78.2598zM729.89 88.1309h66.4902
c25.6904 0 30.2705 4.88965 30.2705 38.0195v159.07c0 33.1299 -4.58008 38.0098 -30.2705 38.0098h-66.4902c-25.7002 0 -30.2803 -4.87988 -30.2803 -38.0098v-159.07c0 -33.1299 4.58008 -38.0195 30.2803 -38.0195zM1121.36 88.1309h66.4902
c25.6904 0 30.2705 4.88965 30.2705 38.0195v159.07c0 33.1299 -4.58008 38.0098 -30.2705 38.0098h-66.4902c-25.7002 0 -30.2803 -4.87988 -30.2803 -38.0098v-159.07c0 -33.1299 4.58008 -38.0195 30.2803 -38.0195z" />
    <glyph glyph-name="plus" unicode="+" horiz-adv-x="552" 
d="M499.81 360.17v-117.04l-165.34 -0.469727l0.469727 -165.67h-117.05l-0.469727 165.34l-165.66 -0.459961v117.05l165.34 0.459961l-0.469727 165.67h117.05l0.459961 -165.34z" />
    <glyph glyph-name="plusminus" unicode="&#xb1;" horiz-adv-x="550" 
d="M333.29 405.34l165.68 0.469727v-117.05l-165.32 -0.469727l0.450195 -145.67h-117.05l-0.450195 145.35l-165.68 -0.469727v117.05l165.32 0.459961l-0.450195 145.68h117.05zM50.9199 -36.1709v117.05l448.05 1.25977v-117.05z" />
    <glyph glyph-name="product" unicode="&#x220f;" horiz-adv-x="600" 
 />
    <glyph glyph-name="radical" unicode="&#x221a;" horiz-adv-x="600" 
 />
    <glyph glyph-name="summation" unicode="&#x2211;" horiz-adv-x="600" 
 />
    <glyph glyph-name="lozenge" unicode="&#x25ca;" horiz-adv-x="600" 
 />
    <glyph glyph-name="bar" unicode="|" horiz-adv-x="294" 
d="M85.8799 -180v980.94h122.19v-980.94h-122.19z" />
    <glyph glyph-name="brokenbar" unicode="&#xa6;" horiz-adv-x="294" 
d="M85.8799 383.6v417.34h122.19v-417.34h-122.19zM85.8799 -180.001v417.34h122.19v-417.34h-122.19z" />
    <glyph glyph-name="at" unicode="@" horiz-adv-x="816" 
d="M539.37 710c130 0 199.996 -69.9883 199.996 -199.988v-203.46c0 -100.32 -54.0195 -154.34 -154.34 -154.34h-23.5898h-76.9805l-2.82031 31.7402c-18.5195 -25.6504 -49.7393 -39.1309 -92.3291 -39.1309h-52.8096c-72.5498 0 -112.109 39.1299 -112.109 110.899
v158.37c0 78.75 43.3398 121.64 122.91 121.64h45.1797c35.5898 0 63.2402 -9.41992 82.1807 -27.4902v27.54h101.24l-0.0595703 -308.03c50.3896 0.450195 70.0898 20.96 70.0898 81.1797v191.53c0 88.54 -34.7695 124.13 -114.729 124.13h-246.27
c-79.96 0 -114.729 -35.5898 -114.729 -124.13v-310.4c0 -88.54 34.7695 -124.13 114.729 -124.13h358.3v-85.4102h-366.47c-130 0 -200 70 -200 200v329.48c0 130 70 200 200 200h262.61zM426.767 237.012c37.1504 0 47.6406 18.6602 47.8203 51.7598l0.0302734 102.76v0
c0 35.21 -9.03027 52.0303 -44.6807 52.0303h-72.5801c-26.1201 0 -31.7305 -5.7002 -31.7305 -37.54v-131.47c0 -31.8398 5.61035 -37.54 31.7305 -37.54h69.4102z" />
    <glyph glyph-name="ampersand" unicode="&#x26;" horiz-adv-x="821" 
d="M798.86 -4.12012h-183.94l-37.3896 32.7598c-34.0303 -25.9102 -81.8398 -38.6406 -141.92 -38.6406h-179.28c-130 0 -197.51 59.5996 -197.51 183.29v44.9102c0 99.0498 34.5898 153.46 101.609 176.67c-27.6602 29.4404 -39.1406 71.7607 -39.2705 119.551v23.3096
c0 111.97 65.29 172.27 186.54 172.27h38.4404c121.26 0 186.55 -60.2998 186.55 -172.27v-37.9004c0 -87.6396 -37.4697 -143.439 -113.85 -163.569l91.7803 -82.21v70.1797l127.48 0.129883v-151.07c0 -11.1396 -0.589844 -21.75 -1.75 -31.8496zM252.76 532.62
l0.00195312 -12.168c0.209961 -22.7803 1.97949 -37.2803 16.4795 -50.1904l41.4697 -37.1504h25.3496c53.0996 0 65.0996 12.8496 65.0996 59.1094v40.6299c0 46.2598 -13.71 59.1094 -64.25 59.1094h-19.7002c-53.1104 0 -64.2402 -13.71 -64.4502 -59.3398z
M435.231 113.342c16.4902 0 29.8916 1.13965 40.5713 4.43945l-207.22 181.58h-4.82031c-54.5498 0 -73.3301 -18.3096 -73.3301 -79.9297v-31.9297c0 -61.6201 16.7197 -74.1602 71.2793 -74.1602h173.52z" />
    <glyph glyph-name="paragraph" unicode="&#xb6;" horiz-adv-x="734" 
d="M322.25 699.98l122.66 0.0205078v-880h-122.66v440h-77.4502c-116.87 0 -179.8 62.9297 -179.8 179.8v80.3799c0 116.87 62.9297 179.8 179.8 179.8h77.4502zM525.89 700.001h122.66v-880h-122.66v880z" />
    <glyph glyph-name="copyright" unicode="&#xa9;" horiz-adv-x="794" 
d="M270.88 -10c-130 0 -200.17 70 -200 200v320c0 130 70 200 200 200h252.63c130 0 200 -70 200 -200v-320c0 -130 -70 -200 -200 -200h-252.63zM278.04 75.7002h238.31c79.8604 0 114.601 35.5498 114.601 124v300.6c0 88.4404 -34.7402 123.99 -114.601 123.99h-238.31
c-79.8701 0 -114.601 -35.5498 -114.601 -123.99v-300.6c0 -88.4502 34.7305 -124 114.601 -124zM346.069 149.141c-75.5898 0 -118.02 41.8408 -118.02 116.44v168.42c0 74.5898 42.4297 116.439 118.02 116.439h179.84v-87.5195h-172.36
c-22.29 0 -28.2402 -5.7002 -28.2402 -34.6699v-157.04c0 -29.3799 5.9502 -34.6699 28.2402 -34.6699h172.36v-87.4004h-179.84z" />
    <glyph glyph-name="registered" unicode="&#xae;" horiz-adv-x="794" 
d="M270.88 -10c-130 0 -200.17 70 -200 200v320c0 130 70 200 200 200h252.63c130 0 200 -70 200 -200v-320c0 -130 -70 -200 -200 -200h-252.63zM278.04 75.7002h238.31c79.8604 0 114.601 35.5498 114.601 124v300.6c0 88.4404 -34.7402 123.99 -114.601 123.99h-238.31
c-79.8701 0 -114.601 -35.5498 -114.601 -123.99v-300.6c0 -88.4502 34.7305 -124 114.601 -124zM233.3 154.7v390.768h213.67c69.5596 0 108.739 -38.5996 108.739 -107.159v-50.8096c0 -53.2998 -23.5498 -88.5195 -67.6699 -101.539l92.7002 -131.26h-114.55
l-85.1699 125.65h-50.4502v-125.65h-97.2695zM330.569 367.748h103.75c15.7598 0 24.1299 0.330078 24.1299 25.3799v39.4404c0 25.0498 -8.37012 25.3799 -24.1299 25.3799h-103.75v-90.2002z" />
    <glyph glyph-name="section" unicode="&#xa7;" horiz-adv-x="597" 
d="M504.11 197.09c24.4404 -28.5098 36.499 -71.292 36.6494 -129.652c-0.30957 -118.58 -48.4795 -175.57 -155.479 -175.67h-305.63v119.49h278.34c45.6201 0.0996094 54.3896 10.5498 54.6895 55.29c-0.299805 44.7197 -9.06934 55.25 -55.0693 55.1699h-144.2
c-115.5 0.0800781 -156.97 64.6104 -156.97 175.32c0 49.1504 10.9502 84.0205 34.3701 105.221c-24.6299 29.9697 -34.9297 73.6797 -34.9297 128.85c0 120.65 48.3496 178.841 156.979 178.841h286.33l-0.0595703 -119.64h-264.06
c-43.7695 0 -51.1191 -9.55957 -51.2695 -58.4092c0.150391 -50.1904 7.5 -56.5508 52.2695 -56.5508h148.89c104.47 0 154.93 -54.1201 155.239 -173.84c-0.120117 -48.5195 -11.6699 -83.5195 -36.0898 -104.42zM184.358 297.828
c0.150391 -50.2002 7.48926 -56.5498 52.249 -56.5498h109.36v0.0195312h11.4502c45.6201 0 54.3799 14.5801 54.6895 59.3203c-0.30957 44.7197 -9.06934 55.25 -55.0693 55.1699h-132.27c-34.1602 -1.74023 -40.2803 -13.46 -40.4102 -57.96z" />
    <glyph glyph-name="trademark" unicode="&#x2122;" horiz-adv-x="823" 
d="M139.61 334.35v288.2h-115.79v77.4502h315.03v-77.4502h-115.79v-288.2h-83.4502zM375.61 334.35l-0.00878906 365.65h139.53l63.0996 -227.32l63.3799 227.32h139.52v-365.65h-83.4502v257.41v4.91992l-63.8203 -225.31h-110.97l-63.8301 225.35v-262.37h-83.4502z" />
    <glyph glyph-name="degree" unicode="&#xb0;" horiz-adv-x="381" 
d="M133.69 462.94c-59.75 0 -91.9287 32.5801 -91.9287 92.3203v75.29c0 60.5 30.8701 92.2998 90.9697 92.2998h115.99c62.0498 0 90.9795 -34.2402 90.9795 -92.2998v-75.29c0 -59.7402 -32.1904 -92.3203 -91.9307 -92.3203h-114.08zM146.071 536.591h89.3115
c15.2695 0 24.3594 0.830078 24.6289 24.7197v63.1602c-0.269531 24.1504 -9.38965 24.75 -24.6299 24.75h-89.3096c-15.2402 0 -24.3604 -0.599609 -24.6201 -24.75v-63.1602c0.259766 -23.8896 9.34961 -24.7197 24.6191 -24.7197z" />
    <glyph glyph-name="asciicircum" unicode="^" horiz-adv-x="514" 
d="M478.27 405.84h-127.409l-93.79 180.36l-93.7803 -180.36h-127.41l159.55 294.16h120.82h2.46973z" />
    <glyph glyph-name="dagger" unicode="&#x2020;" horiz-adv-x="606" 
d="M550.12 500v-117.72h-183.08v-562.28h-128.08v562.28h-183.08v117.72h183.08v200h128.08v-200h183.08z" />
    <glyph glyph-name="daggerdbl" unicode="&#x2021;" horiz-adv-x="606" 
d="M550.12 382.28h-183.08v-244.56h183.08v-117.72h-183.08v-200h-128.08v200h-183.08v117.72h183.08v244.56h-183.08v117.72h183.08v200h128.08v-200h183.08v-117.72z" />
    <glyph glyph-name="uni0308" unicode="&#x308;" 
d="M-389.05 590.91v132.54h132.54v-132.54h-132.54zM-165.13 590.91v132.54h132.54v-132.54h-132.54z" />
    <glyph glyph-name="uni0307" unicode="&#x307;" 
d="M-175.13 590.91v133.36h133.37v-133.36h-133.37z" />
    <glyph glyph-name="gravecomb" unicode="&#x300;" 
d="M-178.19 599.73l-152.15 165.55h150.78l137.8 -165.55h-136.43z" />
    <glyph glyph-name="acutecomb" unicode="&#x301;" 
d="M-323.87 599.73l137.79 165.55h150.79l-152.16 -165.55h-136.42z" />
    <glyph glyph-name="uni030B" unicode="&#x30b;" 
d="M-528.33 599.73l131.561 165.55h149.02l-145.91 -165.55h-134.67zM-320.579 599.73l131.561 165.55h149.02l-145.91 -165.55h-134.67z" />
    <glyph glyph-name="caroncomb.alt" 
d="M-177.48 832.98h131.6v-131.6l-50.6797 -110.99h-97.8203l50.6699 110.99h-33.7695v131.6z" />
    <glyph glyph-name="uni0302" unicode="&#x302;" 
d="M-50.2002 595.94h-132.542l-52.3896 88.4297l-52.3896 -88.4297h-132.55l115.65 166.07h115.29h23.2803z" />
    <glyph glyph-name="uni030C" unicode="&#x30c;" 
d="M-182.74 762.01h132.542l-115.65 -166.07h-115.28h-23.29l-115.65 166.07h132.55l52.3896 -88.4199z" />
    <glyph glyph-name="uni0306" unicode="&#x306;" 
d="M-296.68 599.8c-70.8096 0 -108.951 38.6104 -108.951 109.42v55.5898h110.6v-45.9102c0 -22.7402 8.91016 -23.5303 23.4404 -23.5303h95.79c14.5303 0 23.4307 0.790039 23.4307 23.5303v45.9102h110.61v-55.5898c0 -70.8096 -38.2402 -109.42 -108.95 -109.42h-145.97
z" />
    <glyph glyph-name="uni030A" unicode="&#x30a;" 
d="M-212.41 561.57c-52.2305 0 -80.3516 28.4805 -80.3516 80.7002v65.8096c0 52.8896 26.9805 80.6797 79.5205 80.6797h101.38c54.2402 0 79.5205 -29.9297 79.5205 -80.6797v-65.8096c0 -52.2197 -28.1299 -80.7002 -80.3496 -80.7002h-99.7197zM-192.401 637.53h59.7002
c10.21 0 16.29 0.549805 16.4697 16.5195v42.2305c-0.179688 16.1396 -6.2793 16.5498 -16.4697 16.5498h-59.7002c-10.1904 0 -16.29 -0.410156 -16.4697 -16.5498v-42.2305c0.179688 -15.9697 6.25977 -16.5195 16.4697 -16.5195z" />
    <glyph glyph-name="tildecomb" unicode="&#x303;" 
d="M-346.46 581.29l-70.1699 44.5898c39.3604 79.6201 78.8203 115.7 126.261 116.61c34.6201 0.410156 60.5605 -17.7197 90.2705 -36.4297c54.7598 -33.71 73.5898 -31.1104 106.59 35.7197l69.96 -44.5195c-39.2305 -77.9297 -77.29 -111.13 -119.72 -112.55
c-33.7803 -1.53027 -64.4307 17.7793 -94.0605 36.4395c-56.2402 34.6699 -72.5605 32.4297 -109.131 -39.8604z" />
    <glyph glyph-name="uni0304" unicode="&#x304;" 
d="M-331.3 599.73v104.31h289.54v-104.31h-289.54z" />
    <glyph glyph-name="uni0312" unicode="&#x312;" 
d="M-45.8799 832.98l-50.6807 -110.99h33.7803v-131.6h-131.6v131.6l50.6699 110.99h97.8301z" />
    <glyph glyph-name="uni0326" unicode="&#x326;" 
d="M-203.36 -60.0498h131.6v-131.6l-50.6797 -110.99h-97.8203l50.6699 110.99h-33.7695v131.6z" />
    <glyph glyph-name="uni0327" unicode="&#x327;" 
d="M-98.3896 -34.5703c51.6904 0 75.7705 -28.5205 75.7705 -76.8809v-48.5498c0 -49.7695 -26.8096 -76.8994 -76.5693 -76.8994h-168.52v78.3701h138.54c10.0098 0 16.1494 0.540039 16.1494 16.21v25.7695c0 15.8398 -6.16016 16.2402 -16.1504 16.2402h-27.7803
v-0.0400391l-72.4902 0.0400391l31.5996 116.51h81.4004l-17.6504 -50.7695h35.7002z" />
    <glyph glyph-name="uni0328" unicode="&#x328;" 
d="M-137.56 -219.94c-54.5801 0 -85.7607 26.7305 -98.0205 59.0303c-17.8398 49.3398 5.29004 117.31 83.6104 169.279l102.48 -0.0400391c-62.2002 -36.9102 -103.38 -83.8604 -89.5195 -117.511c4.59961 -11.1904 17.2793 -18.7002 41.0098 -18.3799
c12.3496 0.160156 27.6895 2.44043 46.4297 7.4209l0.650391 -81.1299c-29.8301 -11.9902 -59.9102 -18.6699 -86.6406 -18.6699z" />
    <glyph glyph-name="uni0335" unicode="&#x335;" 
d="M-53.8203 348.7v-117.72h-400.44v117.72h400.44z" />
    <glyph glyph-name="uni0336" unicode="&#x336;" 
d="M-53.8203 348.7v-117.72h-857.81v117.72h857.81z" />
    <glyph glyph-name="uni0337" unicode="&#x337;" 
d="M-320.28 -17.3096l167.17 534.31h127.23l-167.17 -534.31h-127.23z" />
    <glyph glyph-name="uni0338" unicode="&#x338;" 
d="M-382.95 -17.3096l229.839 734.6h127.23l-229.85 -734.6h-127.22z" />
    <glyph glyph-name="uni0302.case" 
d="M-41.7598 593.26h-144.79l-76.5801 91.8799l-76.5801 -91.8799h-144.78l145.29 165.56h137.49h14.6504z" />
    <glyph glyph-name="uni030C.case" 
d="M-186.55 758.82h144.79l-145.3 -165.56h-137.48h-14.6602l-145.29 165.56h144.78l76.5801 -91.8799z" />
    <glyph glyph-name="acute" unicode="&#xb4;" horiz-adv-x="366" 
d="M41.7598 599.73l137.79 165.55h150.79l-152.16 -165.55h-136.42z" />
    <glyph glyph-name="breve" unicode="&#x2d8;" horiz-adv-x="447" 
d="M150.7 599.8c-70.7998 0 -108.94 38.6104 -108.94 109.42v55.5898h110.6v-45.9102c0 -22.7402 8.91016 -23.5303 23.4404 -23.5303h95.7803c14.5303 0 23.4404 0.790039 23.4404 23.5303v45.9102h110.6v-55.5898c0 -70.8096 -38.1396 -109.42 -108.939 -109.42h-145.98z
" />
    <glyph glyph-name="caron" unicode="&#x2c7;" horiz-adv-x="470" 
d="M287.51 762.01h132.552l-115.65 -166.07h-115.28h-23.29l-115.65 166.07h132.55l52.3896 -88.4199z" />
    <glyph glyph-name="cedilla" unicode="&#xb8;" horiz-adv-x="318" 
d="M205.59 -34.5703c51.6904 0 75.7695 -28.5205 75.7695 -76.8809v-48.5498c0 -49.7695 -26.8096 -76.8994 -76.5693 -76.8994h-168.52v78.3701h138.53c10.0195 0 16.1592 0.540039 16.1592 16.21v25.7695c0 15.8398 -6.16016 16.2402 -16.1602 16.2402h-27.7695
v-0.0400391l-72.4902 0.0400391l31.5996 116.51h81.3896l-17.6396 -50.7695h35.7002z" />
    <glyph glyph-name="circumflex" unicode="&#x2c6;" horiz-adv-x="477" 
d="M423.59 595.94h-132.552l-52.3896 88.4297l-52.3799 -88.4297h-132.55l115.65 166.07h115.28h23.29z" />
    <glyph glyph-name="dieresis" unicode="&#xa8;" horiz-adv-x="440" 
d="M41.7598 590.91v132.54h132.54v-132.54h-132.54zM265.67 590.91v132.54h132.54v-132.54h-132.54z" />
    <glyph glyph-name="dotaccent" unicode="&#x2d9;" horiz-adv-x="217" 
d="M41.7598 590.91v133.36h133.36v-133.36h-133.36z" />
    <glyph glyph-name="grave" unicode="`" horiz-adv-x="369" 
d="M190.38 599.73l-152.15 165.55h150.79l137.79 -165.55h-136.43z" />
    <glyph glyph-name="hungarumlaut" unicode="&#x2dd;" horiz-adv-x="568" 
d="M39.9902 599.73l131.561 165.55h149.02l-145.92 -165.55h-134.66zM247.741 599.73l131.561 165.55h149.02l-145.92 -165.55h-134.66z" />
    <glyph glyph-name="macron" unicode="&#xaf;" horiz-adv-x="373" 
d="M41.7598 599.73v104.31h289.53v-104.31h-289.53z" />
    <glyph glyph-name="ogonek" unicode="&#x2db;" horiz-adv-x="280" 
d="M145.44 -219.94c-54.5703 0 -85.7607 26.7305 -98.0107 59.0303c-17.8496 49.3398 5.28027 117.31 83.6006 169.279l102.48 -0.0400391c-62.2002 -36.9102 -103.38 -83.8604 -89.5098 -117.511c4.59961 -11.1904 17.2695 -18.7002 41.0098 -18.3799
c12.3398 0.160156 27.6797 2.44043 46.4297 7.4209l0.650391 -81.1299c-29.8398 -11.9902 -59.9199 -18.6699 -86.6504 -18.6699z" />
    <glyph glyph-name="ring" unicode="&#x2da;" horiz-adv-x="350" 
d="M125.19 561.57c-52.2305 0 -80.3604 28.4805 -80.3604 80.7002v65.8096c0 52.8896 26.9805 80.6797 79.5205 80.6797h101.39c54.2402 0 79.5205 -29.9297 79.5205 -80.6797v-65.8096c0 -52.2197 -28.1299 -80.7002 -80.3604 -80.7002h-99.71zM145.19 637.53h59.709
c10.21 0 16.2803 0.549805 16.46 16.5195v42.2305c-0.179688 16.1396 -6.2793 16.5498 -16.459 16.5498h-59.71c-10.1904 0 -16.2803 -0.410156 -16.46 -16.5498v-42.2305c0.179688 -15.9697 6.25 -16.5195 16.46 -16.5195z" />
    <glyph glyph-name="tilde" unicode="&#x2dc;" horiz-adv-x="477" 
d="M111.92 581.29l-70.1592 44.5898c39.3496 79.6201 78.8096 115.7 126.25 116.61c34.6201 0.410156 60.5605 -17.7197 90.2803 -36.4297c54.75 -33.71 73.5898 -31.1104 106.58 35.7197l69.9697 -44.5195c-39.2402 -77.9297 -77.29 -111.13 -119.73 -112.55
c-33.7803 -1.53027 -64.4199 17.7793 -94.0498 36.4395c-56.2402 34.6699 -72.5703 32.4297 -109.141 -39.8604z" />
    </font>
</defs>
</svg>
