<svg xmlns="http://www.w3.org/2000/svg" xmlns:xlink="http://www.w3.org/1999/xlink" width="214.93" height="64"><path fill="#231F20" d="M2.758 60.719L2.81 3.09l209.364.191-.054 57.629-209.362-.191zM.058 0L0 63.805 214.873 64 214.93.195.058 0z"/><defs><path id="a" d="M0 0h214.93v64H0z"/></defs><clipPath id="b"><use xlink:href="#a" overflow="visible"/></clipPath><path clip-path="url(#b)" fill="#231F20" d="M1.392 1.336L1.337 62.74l51.633.047.055-61.404-51.633-.047zm29.397 31.369c.644-.873 1.52-1.691 2.624-2.451a62.704 62.704 0 0 1 3.522-2.245 15.41 15.41 0 0 1-.138 2.935 6.172 6.172 0 0 1-1.07 2.658c-.577.83-1.336 1.59-2.279 2.281a31.502 31.502 0 0 1-3.143 2.003v3.382l.484-.828c.644-.874 1.52-1.692 2.624-2.451a61.038 61.038 0 0 1 3.522-2.244c.046 1.013 0 1.991-.138 2.935s-.495 1.83-1.07 2.658c-.577.829-1.336 1.589-2.279 2.279a30.626 30.626 0 0 1-3.143 2.003v2.693h-2.9V45.62a30.517 30.517 0 0 1-3.143-2.003c-.943-.69-1.715-1.427-2.312-2.21-.553-.874-.899-1.783-1.037-2.727-.138-.944-.184-1.922-.138-2.935a61.038 61.038 0 0 1 3.522 2.244c1.105.759 1.98 1.577 2.625 2.451l.483.828v-3.382a31.387 31.387 0 0 1-3.143-2.003c-.943-.691-1.703-1.451-2.279-2.281a6.172 6.172 0 0 1-1.07-2.658 15.41 15.41 0 0 1-.138-2.935c1.243.738 2.417 1.485 3.522 2.245s1.98 1.578 2.625 2.451l.483.829V30.15a30.688 30.688 0 0 1-3.143-2.003c-.943-.69-1.703-1.45-2.279-2.279a6.182 6.182 0 0 1-1.07-2.658 15.413 15.413 0 0 1-.138-2.935c1.243.737 2.417 1.485 3.522 2.244s1.98 1.578 2.625 2.452c.138.184.252.415.345.691a14.114 14.114 0 0 1-.415-2.693c0-1.106.196-2.222.588-3.35a45.42 45.42 0 0 1 1.347-3.419 25.415 25.415 0 0 1 1.415 3.246c.39 1.106.61 2.21.656 3.315 0 .966-.138 1.911-.415 2.831l.346-.621c.644-.874 1.52-1.693 2.624-2.452a62.702 62.702 0 0 1 3.522-2.244c.046 1.013 0 1.992-.138 2.935a6.182 6.182 0 0 1-1.07 2.658c-.577.829-1.336 1.589-2.279 2.279a30.797 30.797 0 0 1-3.143 2.003v3.384l.484-.829z"/><text transform="translate(67.015 38.975)"><tspan x="0" y="0" font-family="'ModernSans'" font-size="21.362" letter-spacing="4">MI</tspan><tspan x="34.652" y="0" font-family="'ModernSans'" font-size="21.362" letter-spacing="4">E</tspan><tspan x="51.951" y="0" font-family="'ModernSans'" font-size="21.362" letter-spacing="4">QUI</tspan><tspan x="102.735" y="0" font-family="'ModernSans'" font-size="21.362" letter-spacing="4">T</tspan><tspan x="120.035" y="0" font-family="'ModernSans'" font-size="21.362">Y</tspan></text></svg>