<?xml version="1.0" standalone="no"?>
<!DOCTYPE svg PUBLIC "-//W3C//DTD SVG 1.1//EN" "http://www.w3.org/Graphics/SVG/1.1/DTD/svg11.dtd" >
<svg xmlns="http://www.w3.org/2000/svg" xmlns:xlink="http://www.w3.org/1999/xlink" version="1.1">
<metadata>
Created by FontForge 20170910 at Tue May  8 11:07:06 2007
 By jimmywarting
Copyright (c) 1991 Adobe Systems Incorporated. All Rights ReservedArial is a trademark of The Monotype Corporation Plc. registered in the US Patent and TM Office and elsewhere.
</metadata>
<defs>
<font id="ArialMT" horiz-adv-x="556" >
  <font-face 
    font-family="Arial MT"
    font-weight="500"
    font-stretch="normal"
    units-per-em="1000"
    panose-1="0 0 0 0 0 0 0 0 0 0"
    ascent="800"
    descent="-200"
    x-height="518"
    cap-height="716"
    bbox="-222 -250 1006 922"
    underline-thickness="50"
    underline-position="-100"
    stemh="72"
    stemv="88"
    unicode-range="U+0020-FB02"
  />
<missing-glyph horiz-adv-x="278" 
 />
    <glyph glyph-name=".notdef" horiz-adv-x="278" 
 />
    <glyph glyph-name="space" unicode=" " horiz-adv-x="278" 
 />
    <glyph glyph-name="exclam" unicode="!" horiz-adv-x="278" 
d="M89 0v100h100v-100h-100zM112 178l-27 379v159h109v-159l-25 -379h-57z" />
    <glyph glyph-name="quotedbl" unicode="&#x22;" horiz-adv-x="355" 
d="M242 462l-19 137v117h80v-117l-17 -137h-44zM70 462l-19 137v117h80v-117l-17 -137h-44z" />
    <glyph glyph-name="numbersign" unicode="#" 
d="M51 -12l43 208h-83v72h97l37 178h-134v72h148l43 210h73l-42 -210h153l43 210h73l-42 -210h85v-72h-100l-36 -178h136v-72h-151l-42 -208h-74l43 208h-154l-42 -208h-74zM218 446l-36 -178h153l37 178h-154z" />
    <glyph glyph-name="dollar" unicode="$" 
d="M251 -103v88c-53 7 -200 25 -213 214l88 16c4 -29 21 -146 125 -156v279c-27 5 -60 16 -107 40c-76 40 -91 116 -91 162c0 92 53 155 110 179c35 15 66 19 88 21v42h52v-42c97 -9 174 -60 191 -177l-91 -13c-15 98 -74 110 -100 116v-255c88 -21 208 -54 208 -208
c0 -105 -70 -211 -208 -217v-89h-52zM251 423v244c-78 -13 -110 -69 -110 -120c0 -41 12 -94 110 -124zM303 327v-268c46 6 118 44 118 138c0 85 -54 109 -118 130z" />
    <glyph glyph-name="percent" unicode="%" horiz-adv-x="889" 
d="M73 543c0 87 41 184 150 184c62 0 155 -37 155 -190c0 -147 -92 -189 -154 -189c-49 0 -151 25 -151 195zM225 667c-76 0 -76 -97 -76 -133c0 -25 0 -125 76 -125c77 0 77 96 77 132c0 26 0 126 -77 126zM514 168c0 87 41 184 150 184c62 0 155 -37 155 -190
c0 -147 -92 -189 -154 -189c-49 0 -151 25 -151 195zM666 292c-76 0 -76 -97 -76 -133c0 -25 0 -125 76 -125c77 0 77 96 77 132c0 26 0 126 -77 126zM214 -25l391 753h71l-389 -753h-73z" />
    <glyph glyph-name="ampersand" unicode="&#x26;" horiz-adv-x="667" 
d="M342 401l129 -164c21 43 31 88 34 100l91 -19c-16 -63 -35 -111 -64 -155c33 -42 73 -82 112 -110l-59 -70c-53 35 -96 86 -110 101c-56 -63 -122 -96 -205 -96c-153 0 -227 117 -227 209c0 80 44 153 170 214c-62 72 -80 113 -80 157c0 84 73 160 178 160
c100 0 166 -71 166 -153c0 -66 -40 -124 -135 -174zM420 154l-161 200c-62 -38 -121 -83 -121 -151c0 -47 39 -137 133 -137c58 0 118 41 149 88zM258 503l39 -46c44 26 90 54 90 116c0 55 -42 83 -81 83s-83 -28 -83 -79c0 -19 6 -40 35 -74z" />
    <glyph glyph-name="quoteright" unicode="&#x2019;" horiz-adv-x="222" 
d="M64 614v102h94v-80c0 -49 0 -118 -80 -154l-22 34c51 21 53 70 54 98h-46z" />
    <glyph glyph-name="parenleft" unicode="(" horiz-adv-x="333" 
d="M234 728h63l-6 -10c-61 -105 -140 -241 -140 -458c0 -143 40 -300 146 -470h-63c-39 49 -174 234 -174 469c0 144 41 261 120 389c26 43 44 67 54 80z" />
    <glyph glyph-name="parenright" unicode=")" horiz-adv-x="333" 
d="M99 -210h-63l6 10c62 104 140 241 140 458c0 143 -40 300 -146 470h63c39 -49 174 -234 174 -469c0 -144 -41 -261 -120 -389c-26 -43 -44 -67 -54 -80z" />
    <glyph glyph-name="asterisk" unicode="*" horiz-adv-x="389" 
d="M33 584l23 70c23 -9 77 -27 113 -48c-8 69 -10 89 -10 122h70c0 -24 -1 -52 -9 -110c-1 -1 -2 -9 -2 -11c38 19 89 38 115 47l23 -70c-31 -10 -84 -22 -122 -27c23 -20 80 -87 85 -92l-59 -42c-28 38 -42 62 -67 105c-29 -55 -43 -77 -64 -105l-57 42l41 49
c25 30 32 36 40 43c-40 8 -78 16 -120 27z" />
    <glyph glyph-name="plus" unicode="+" horiz-adv-x="584" 
d="M251 116v196h-196v82h196v196h82v-196h196v-82h-196v-196h-82z" />
    <glyph glyph-name="comma" unicode="," horiz-adv-x="278" 
d="M90 0v100h100v-100c0 -34 0 -106 -82 -141l-24 37c47 21 54 62 55 104h-49z" />
    <glyph glyph-name="hyphen" unicode="-" horiz-adv-x="333" 
d="M32 215v88h269v-88h-269z" />
    <glyph glyph-name="period" unicode="." horiz-adv-x="278" 
d="M89 0v100h100v-100h-100z" />
    <glyph glyph-name="slash" unicode="/" horiz-adv-x="278" 
d="M0 -24l207 740h71l-207 -740h-71z" />
    <glyph glyph-name="zero" unicode="0" 
d="M45 353c0 77 0 366 233 366s233 -287 233 -366c0 -77 0 -365 -233 -365c-232 0 -233 280 -233 365zM135 353c0 -119 12 -293 143 -293c130 0 143 171 143 293c0 125 -13 294 -144 294c-122 0 -142 -152 -142 -294z" />
    <glyph glyph-name="one" unicode="1" 
d="M375 0h-88v560c-56 -54 -144 -94 -176 -106v85c84 39 171 107 207 180h57v-719z" />
    <glyph glyph-name="two" unicode="2" 
d="M505 85v-85h-474c-3 112 118 212 200 278c54 43 89 77 124 116c50 56 58 97 58 128c0 72 -57 125 -135 125c-15 0 -139 -2 -140 -145l-90 10c2 20 5 50 19 82c48 110 157 125 213 125c163 0 223 -111 223 -199c0 -70 -28 -143 -175 -267c-10 -9 -62 -53 -72 -61
c-79 -63 -91 -88 -103 -107h352z" />
    <glyph glyph-name="three" unicode="3" 
d="M44 189l88 12c7 -35 28 -141 140 -141c82 0 147 65 147 149c0 79 -56 139 -140 139c-25 0 -45 -5 -62 -9l10 77c50 -5 160 15 160 119c0 76 -61 112 -117 112c-80 0 -119 -59 -129 -130l-88 16c27 153 141 186 215 186c121 0 209 -82 209 -186c0 -37 -13 -106 -98 -144
v-2c25 -4 62 -17 93 -54c25 -30 41 -79 41 -122c0 -140 -119 -223 -241 -223c-145 0 -218 101 -228 201z" />
    <glyph glyph-name="four" unicode="4" 
d="M325 0v171h-310v81l326 464h72v-464h97v-81h-97v-171h-88zM101 252h224v323h-2z" />
    <glyph glyph-name="five" unicode="5" 
d="M42 188l92 7c20 -128 110 -135 138 -135c95 0 150 83 150 175c0 108 -70 162 -152 162c-60 0 -106 -31 -130 -69l-83 10l70 368h355v-85h-285l-39 -191c39 27 87 45 136 45c102 0 222 -74 222 -232c0 -128 -85 -255 -244 -255c-89 0 -216 44 -230 200z" />
    <glyph glyph-name="six" unicode="6" 
d="M502 541l-88 -8c-6 27 -25 114 -121 114c-70 0 -124 -54 -149 -141c-12 -43 -15 -83 -15 -137h2c38 61 99 95 172 95c113 0 211 -90 211 -231c0 -120 -74 -245 -224 -245c-102 0 -177 59 -210 128c-24 50 -38 114 -38 219c0 92 6 384 256 384c84 0 186 -41 204 -178z
M143 232c0 -90 57 -172 145 -172s136 83 136 167c0 90 -52 160 -139 160c-68 0 -142 -52 -142 -155z" />
    <glyph glyph-name="seven" unicode="7" 
d="M48 621v85h463v-68c-68 -72 -251 -318 -273 -638h-90c2 167 90 439 250 621h-350z" />
    <glyph glyph-name="eight" unicode="8" 
d="M178 387v2c-31 10 -107 38 -107 145c0 100 76 185 205 185c133 0 208 -91 208 -187c0 -98 -73 -132 -105 -143v-2c78 -24 134 -83 134 -183c0 -119 -92 -216 -235 -216c-144 0 -236 97 -236 219c0 39 11 105 66 149c26 21 49 27 70 31zM161 537c0 -79 60 -115 117 -115
c65 0 116 46 116 110c0 65 -51 115 -117 115c-71 0 -116 -54 -116 -110zM132 206c0 -80 58 -146 146 -146c79 0 145 55 145 144c0 90 -69 146 -147 146c-92 0 -144 -71 -144 -144z" />
    <glyph glyph-name="nine" unicode="9" 
d="M56 166l84 7c5 -28 21 -113 119 -113c155 0 168 208 167 277h-2c-24 -40 -83 -94 -169 -94c-110 0 -212 85 -212 234c0 142 93 242 225 242c70 0 133 -29 179 -84c38 -46 66 -111 66 -262c0 -79 0 -385 -256 -385c-39 0 -180 8 -201 178zM416 481c0 91 -54 166 -138 166
s-145 -79 -145 -173s65 -154 143 -154c94 0 140 77 140 161z" />
    <glyph glyph-name="colon" unicode=":" horiz-adv-x="278" 
d="M90 0v100h100v-100h-100zM90 418v100h100v-100h-100z" />
    <glyph glyph-name="semicolon" unicode=";" horiz-adv-x="278" 
d="M90 0v100h100v-100c0 -34 0 -106 -82 -141l-24 37c47 21 54 62 55 104h-49zM90 418v100h100v-100h-100z" />
    <glyph glyph-name="less" unicode="&#x3c;" horiz-adv-x="584" 
d="M55 313v82l474 200v-87l-376 -154l376 -156v-87z" />
    <glyph glyph-name="equal" unicode="=" horiz-adv-x="584" 
d="M529 421h-474v82h474v-82zM529 203h-474v82h474v-82z" />
    <glyph glyph-name="greater" unicode="&#x3e;" horiz-adv-x="584" 
d="M529 393v-82l-474 -200v87l376 154l-376 156v87z" />
    <glyph glyph-name="question" unicode="?" 
d="M136 511l-90 10c2 19 5 44 19 76c47 118 161 131 213 131c135 0 230 -83 230 -195c0 -81 -46 -128 -108 -183c-69 -61 -81 -76 -83 -174h-84c-5 124 27 160 113 235c42 37 72 66 72 116c0 66 -59 129 -139 129c-86 0 -129 -60 -143 -145zM227 0v100h100v-100h-100z" />
    <glyph glyph-name="at" unicode="@" horiz-adv-x="1015" 
d="M643 439l17 76h87l-70 -328c-9 -40 -15 -66 -15 -75c0 -19 11 -33 34 -33c53 0 189 103 189 271c0 183 -156 308 -350 308c-252 0 -407 -197 -407 -421c0 -287 218 -375 421 -375c213 0 310 98 344 147h88c-13 -26 -118 -219 -431 -219c-352 0 -494 208 -494 439
c0 194 116 500 483 500c279 0 418 -195 418 -381c0 -190 -152 -350 -294 -350c-86 0 -91 51 -94 82c-23 -27 -79 -81 -150 -81c-102 0 -177 98 -177 219c0 147 116 311 253 311c27 0 97 -6 148 -90zM332 212c0 -97 57 -141 105 -141c87 0 178 114 178 246
c0 93 -53 140 -113 140c-113 0 -170 -160 -170 -245z" />
    <glyph glyph-name="A" unicode="A" horiz-adv-x="667" 
d="M-1 0l275 716h102l292 -716h-107l-84 218h-299l-79 -218h-100zM284 504l-79 -211h243l-75 199c-18 47 -34 91 -49 149h-2c-9 -47 -21 -92 -38 -137z" />
    <glyph glyph-name="B" unicode="B" horiz-adv-x="667" 
d="M74 0v716h269c44 0 114 -2 167 -43c45 -35 70 -87 70 -140c0 -26 -6 -105 -99 -152c110 -33 134 -117 134 -173c0 -81 -45 -156 -113 -183c-62 -25 -113 -25 -154 -25h-274zM169 331v-246h178c53 0 170 0 170 123s-124 123 -182 123h-166zM169 631v-215h155
c65 0 163 0 163 105c0 110 -96 110 -175 110h-143z" />
    <glyph glyph-name="C" unicode="C" horiz-adv-x="722" 
d="M589 251l94 -24c-55 -215 -219 -239 -296 -239c-124 0 -198 43 -243 94c-73 84 -93 201 -93 281c0 252 162 365 337 365c128 0 241 -62 283 -209l-93 -22c-19 58 -59 150 -191 150c-197 0 -238 -168 -238 -283c0 -31 2 -151 62 -221c44 -52 108 -74 168 -74
c136 0 191 95 210 182z" />
    <glyph glyph-name="D" unicode="D" horiz-adv-x="722" 
d="M80 0v716h247c81 0 183 0 258 -87c41 -47 87 -123 87 -267c0 -133 -41 -231 -103 -290c-59 -56 -146 -72 -231 -72h-258zM175 631v-546h153c84 0 246 -1 246 279c1 76 -12 165 -77 222c-50 45 -110 45 -172 45h-150z" />
    <glyph glyph-name="E" unicode="E" horiz-adv-x="667" 
d="M79 0v716h518v-85h-423v-219h396v-85h-396v-242h440v-85h-535z" />
    <glyph glyph-name="F" unicode="F" horiz-adv-x="611" 
d="M80 0v716h483v-85h-388v-222h336v-85h-336v-324h-95z" />
    <glyph glyph-name="G" unicode="G" horiz-adv-x="778" 
d="M411 280v85h303v-265c-38 -31 -141 -112 -296 -112c-217 0 -366 141 -366 367c0 141 68 373 359 373c239 0 279 -161 292 -212l-85 -24c-13 45 -44 155 -207 155c-242 0 -261 -216 -261 -286c0 -76 15 -152 65 -208c51 -56 128 -80 198 -80c109 0 192 60 209 74v133h-211
z" />
    <glyph glyph-name="H" unicode="H" horiz-adv-x="722" 
d="M80 0v716h95v-294h372v294h95v-716h-95v337h-372v-337h-95z" />
    <glyph glyph-name="I" unicode="I" horiz-adv-x="278" 
d="M92 0v716h95v-716h-95z" />
    <glyph glyph-name="J" unicode="J" horiz-adv-x="500" 
d="M27 204l85 12c2 -49 7 -143 107 -143c107 0 106 92 106 151v492h95v-487c0 -66 0 -241 -201 -241c-59 0 -165 12 -189 160c-4 27 -3 42 -3 56z" />
    <glyph glyph-name="K" unicode="K" horiz-adv-x="667" 
d="M73 0v716h95v-355l356 355h128l-300 -290l313 -426h-125l-254 362l-118 -114v-248h-95z" />
    <glyph glyph-name="L" unicode="L" 
d="M75 0v716h95v-631h353v-85h-448z" />
    <glyph glyph-name="M" unicode="M" horiz-adv-x="833" 
d="M76 0v716h142l169 -507c24 -71 28 -85 33 -106h2c12 39 15 47 38 115l171 498h126v-716h-90v599h-2l-206 -599h-85l-205 609h-3v-609h-90z" />
    <glyph glyph-name="N" unicode="N" horiz-adv-x="722" 
d="M79 0v716h97l374 -562h2v562h90v-716h-97l-374 562h-2v-562h-90z" />
    <glyph glyph-name="O" unicode="O" horiz-adv-x="778" 
d="M47 349c0 254 157 379 343 379c195 0 342 -141 342 -371c0 -232 -151 -369 -342 -369c-224 0 -343 178 -343 361zM145 347c0 -166 99 -278 244 -278c131 0 245 91 245 288c0 205 -121 290 -243 290c-76 0 -152 -33 -195 -96c-51 -72 -51 -181 -51 -204z" />
    <glyph glyph-name="P" unicode="P" horiz-adv-x="667" 
d="M77 0v716h270c64 0 149 0 207 -48c49 -40 69 -103 69 -159c0 -58 -17 -115 -60 -158c-53 -53 -144 -61 -198 -61h-193v-290h-95zM172 631v-256h184c52 0 169 5 169 131c0 30 -9 68 -39 95c-33 30 -73 30 -132 30h-182z" />
    <glyph glyph-name="Q" unicode="Q" horiz-adv-x="778" 
d="M745 10l-28 -66c-53 20 -103 49 -148 84l-5 4c-55 -30 -115 -44 -176 -44c-200 0 -341 152 -341 370c0 209 128 370 343 370c197 0 342 -144 342 -369c0 -84 -20 -197 -108 -282c38 -27 78 -50 121 -67zM392 129l23 69c74 -21 111 -47 135 -69c70 64 84 161 84 229
c0 201 -118 289 -244 289c-101 0 -245 -58 -245 -289c0 -213 127 -289 245 -289c51 0 85 14 96 19c-30 19 -60 33 -94 41z" />
    <glyph glyph-name="R" unicode="R" horiz-adv-x="722" 
d="M80 0v716h317c50 0 96 -1 143 -19c73 -28 112 -102 112 -177c0 -115 -79 -177 -201 -193v-2c36 -17 79 -43 135 -130l125 -195h-119l-94 148c-102 161 -135 168 -214 168h-109v-316h-95zM175 637v-236h217c38 0 95 4 126 34c23 22 36 53 36 85c0 45 -25 81 -55 97
s-61 20 -98 20h-226z" />
    <glyph glyph-name="S" unicode="S" horiz-adv-x="667" 
d="M45 230l90 8c1 -16 5 -46 19 -73c40 -77 139 -92 192 -92c99 0 178 42 178 122c0 84 -72 102 -217 137c-93 22 -234 55 -234 198c0 111 92 198 251 198c154 0 264 -74 269 -215l-91 -7c-5 52 -26 137 -174 137c-62 0 -165 -18 -165 -107c0 -62 40 -85 171 -114
s281 -63 281 -220c0 -119 -102 -214 -265 -214c-172 0 -250 66 -287 154c-16 39 -17 69 -18 88z" />
    <glyph glyph-name="T" unicode="T" horiz-adv-x="611" 
d="M257 0v631h-235v85h567v-85h-237v-631h-95z" />
    <glyph glyph-name="U" unicode="U" horiz-adv-x="722" 
d="M547 716h95v-414c0 -95 0 -314 -280 -314c-271 0 -283 187 -283 314v414h95v-413c0 -87 0 -230 180 -230c176 0 193 101 193 230v413z" />
    <glyph glyph-name="V" unicode="V" horiz-adv-x="667" 
d="M283 0l-277 716h102l186 -520l5 -12c14 -39 17 -47 32 -105h2c10 39 24 80 37 117l194 520h96l-280 -716h-97z" />
    <glyph glyph-name="W" unicode="W" horiz-adv-x="944" 
d="M203 0l-191 716h97l110 -470c15 -62 26 -125 29 -146h2c7 33 26 115 31 133l136 483h115l102 -362c22 -78 46 -187 55 -254h2c10 58 25 119 34 156l113 460h95l-197 -716h-91l-156 564c-7 27 -12 41 -16 65h-2c-6 -28 -12 -56 -20 -84l-152 -545h-96z" />
    <glyph glyph-name="X" unicode="X" horiz-adv-x="667" 
d="M5 0l277 373l-245 343h113l130 -184c20 -29 41 -57 57 -88c8 13 11 16 30 44c9 12 20 29 27 38l144 190h103l-251 -337l271 -379h-117l-180 255c-16 22 -23 35 -30 48h-2c0 -1 -4 -7 -5 -9c-7 -12 -18 -29 -29 -45l-179 -249h-114z" />
    <glyph glyph-name="Y" unicode="Y" horiz-adv-x="667" 
d="M281 0v303l-276 413h115l141 -216c37 -56 49 -78 73 -121c29 51 74 120 78 126l139 211h110l-285 -413v-303h-95z" />
    <glyph glyph-name="Z" unicode="Z" horiz-adv-x="611" 
d="M18 0v89l367 457c0 1 39 50 74 85h-400v85h513v-85l-402 -495c-1 -2 -21 -25 -31 -37l-12 -14h457v-85h-566z" />
    <glyph glyph-name="bracketleft" unicode="[" horiz-adv-x="278" 
d="M68 -199v915h194v-73h-106v-769h106v-73h-194z" />
    <glyph glyph-name="backslash" unicode="\" horiz-adv-x="278" 
d="M207 -24l-207 740h71l207 -740h-71z" />
    <glyph glyph-name="bracketright" unicode="]" horiz-adv-x="278" 
d="M210 716v-915h-194v73h106v769h-106v73h194z" />
    <glyph glyph-name="asciicircum" unicode="^" horiz-adv-x="469" 
d="M116 325h-90l173 391h71l173 -391h-89l-120 292z" />
    <glyph glyph-name="underscore" unicode="_" 
d="M-6 -125v50h568v-50h-568z" />
    <glyph glyph-name="quoteleft" unicode="&#x2018;" horiz-adv-x="222" 
d="M158 596v-102h-94v80c0 49 0 118 80 154l22 -34c-51 -21 -53 -70 -54 -98h46z" />
    <glyph glyph-name="a" unicode="a" 
d="M139 359l-86 11c10 46 34 160 234 160c201 0 201 -105 201 -195v-118c0 -133 0 -167 28 -217h-92c-14 27 -16 51 -18 64c-74 -63 -135 -76 -191 -76c-114 0 -177 63 -177 149c0 138 147 155 204 162c13 2 108 12 158 30c2 56 3 129 -126 129c-110 0 -124 -56 -135 -99z
M400 228v32c-34 -13 -99 -26 -145 -33c-54 -8 -123 -18 -123 -88c0 -37 25 -82 104 -82c25 0 84 5 125 49c35 38 39 79 39 122z" />
    <glyph glyph-name="b" unicode="b" 
d="M149 0h-82v716h88v-256h2c12 18 54 70 140 70c140 0 220 -114 220 -263c0 -219 -141 -279 -224 -279c-22 0 -94 3 -142 77h-2v-65zM147 247c0 -120 59 -187 139 -187c70 0 141 58 141 200c0 114 -47 198 -138 198s-142 -83 -142 -211z" />
    <glyph glyph-name="c" unicode="c" horiz-adv-x="500" 
d="M404 190l87 -11c-28 -175 -172 -191 -216 -191c-171 0 -236 132 -236 270c0 216 133 272 236 272c49 0 129 -14 175 -81c22 -31 28 -61 32 -83l-85 -13c-18 75 -64 105 -118 105c-137 0 -150 -137 -150 -198c0 -33 0 -200 145 -200c112 0 127 104 130 130z" />
    <glyph glyph-name="d" unicode="d" 
d="M404 0v66h-2c-47 -78 -124 -78 -143 -78c-123 0 -223 105 -223 271c0 169 89 271 219 271c65 0 114 -30 141 -71h2v257h88v-716h-82zM126 259c0 -163 91 -199 142 -199c28 0 138 13 138 191c0 101 -35 207 -142 207c-132 0 -138 -161 -138 -199z" />
    <glyph glyph-name="e" unicode="e" 
d="M424 167l90 -11c-26 -98 -99 -168 -227 -168c-161 0 -248 107 -248 267c0 158 85 275 241 275c106 0 243 -59 237 -293h-388c7 -124 80 -177 158 -177c99 0 126 77 137 107zM134 309h293c-2 45 -16 81 -41 107c-23 24 -63 42 -105 42c-98 0 -143 -81 -147 -149z" />
    <glyph glyph-name="f" unicode="f" horiz-adv-x="278" 
d="M86 0v450h-78v68h78v56c0 50 0 154 143 154c37 0 62 -5 82 -9l-13 -77c-16 3 -31 5 -51 5c-70 0 -73 -41 -73 -80v-49h100v-68h-100v-450h-88z" />
    <glyph glyph-name="g" unicode="g" 
d="M52 -43l85 -13c4 -27 16 -82 119 -82c55 0 89 14 111 38c36 39 36 104 36 168h-2c-49 -58 -102 -68 -143 -68c-145 0 -224 123 -224 263c0 126 63 267 225 267c29 0 94 -3 149 -74h2v62h81v-448c0 -43 -2 -136 -32 -186c-43 -71 -126 -94 -202 -94
c-65 0 -209 19 -205 167zM124 268c0 -14 0 -91 32 -137c25 -36 65 -59 110 -59c49 0 87 26 110 58c28 39 33 88 33 136c0 148 -83 192 -144 192c-78 0 -141 -65 -141 -190z" />
    <glyph glyph-name="h" unicode="h" 
d="M67 0v716h88v-257c57 65 119 71 156 71c55 0 125 -20 155 -73c23 -41 24 -90 24 -129v-328h-88v327c0 30 0 127 -109 127c-49 0 -98 -27 -117 -62c-20 -37 -21 -75 -21 -109v-283h-88z" />
    <glyph glyph-name="i" unicode="i" horiz-adv-x="222" 
d="M67 0v518h88v-518h-88zM67 616v100h88v-100h-88z" />
    <glyph glyph-name="j" unicode="j" horiz-adv-x="222" 
d="M-45 -200l17 74c14 -4 28 -7 41 -7c48 0 54 36 54 107v544h88v-546c0 -71 -1 -181 -131 -181c-7 0 -35 0 -69 9zM67 616v100h88v-100h-88z" />
    <glyph glyph-name="k" unicode="k" horiz-adv-x="500" 
d="M66 0v716h88v-408l208 210h114l-198 -192l218 -326h-108l-172 265l-62 -59v-206h-88z" />
    <glyph glyph-name="l" unicode="l" horiz-adv-x="222" 
d="M67 0v716h88v-716h-88z" />
    <glyph glyph-name="m" unicode="m" horiz-adv-x="833" 
d="M65 0v518h79v-72h2c28 46 80 84 155 84c74 0 126 -31 147 -91c18 28 63 91 160 91c160 0 161 -137 161 -174v-356h-88v327c0 50 0 127 -93 127c-38 0 -83 -19 -104 -54c-22 -36 -23 -63 -23 -99v-301h-88v337c0 42 -5 117 -91 117c-47 0 -91 -25 -108 -60
c-20 -41 -21 -80 -21 -125v-269h-88z" />
    <glyph glyph-name="n" unicode="n" 
d="M68 0v518h79v-73h2c51 78 128 85 163 85c54 0 125 -20 155 -76c23 -43 23 -80 23 -135v-319h-88v315c0 45 0 139 -108 139c-50 0 -101 -26 -120 -65c-17 -37 -18 -75 -18 -106v-283h-88z" />
    <glyph glyph-name="o" unicode="o" 
d="M35 259c0 56 9 129 53 185c47 60 122 86 190 86c109 0 243 -65 243 -263c0 -111 -28 -162 -52 -191c-49 -60 -122 -88 -191 -88c-70 0 -146 27 -192 88c-47 63 -51 144 -51 183zM125 259c0 -169 101 -199 153 -199c125 0 153 120 153 202c0 138 -74 196 -153 196
c-55 0 -153 -31 -153 -199z" />
    <glyph glyph-name="p" unicode="p" 
d="M68 -199v717h80v-67h2c15 24 54 79 148 79c147 0 220 -122 220 -267c0 -184 -112 -275 -226 -275c-62 0 -108 31 -134 66h-2v-253h-88zM147 256c0 -156 79 -196 139 -196c52 0 142 33 142 203c0 146 -72 198 -138 198c-84 0 -143 -84 -143 -205z" />
    <glyph glyph-name="q" unicode="q" 
d="M400 -199v254h-2c-25 -37 -74 -67 -134 -67c-118 0 -226 98 -226 276c0 165 90 266 219 266c96 0 138 -62 149 -81h2v69h80v-717h-88zM128 261c0 -165 92 -201 143 -201c35 0 137 21 137 192c0 116 -50 209 -143 209c-79 0 -137 -66 -137 -200z" />
    <glyph glyph-name="r" unicode="r" horiz-adv-x="333" 
d="M64 0v518h80v-78h2c20 40 47 90 110 90c45 0 75 -19 90 -28l-30 -81c-19 11 -41 19 -64 19c-91 0 -100 -115 -100 -168v-272h-88z" />
    <glyph glyph-name="s" unicode="s" horiz-adv-x="500" 
d="M31 155l87 13c9 -69 51 -108 134 -108c91 0 119 48 119 83c0 42 -35 57 -87 70l-58 14c-79 19 -181 46 -181 154c0 80 66 149 191 149c182 0 199 -105 206 -145l-86 -12c-11 79 -79 85 -114 85s-112 -8 -112 -67c0 -44 37 -54 122 -76c136 -35 209 -56 209 -163
c0 -86 -73 -164 -208 -164c-188 0 -213 115 -222 167z" />
    <glyph glyph-name="t" unicode="t" horiz-adv-x="278" 
d="M257 79l12 -78c-13 -3 -33 -8 -66 -8c-122 0 -122 73 -122 159v298h-64v68h64v129l88 53v-182h88v-68h-88v-303c0 -42 0 -72 49 -72c15 0 29 2 39 4z" />
    <glyph glyph-name="u" unicode="u" 
d="M408 0v76h-2c-57 -85 -136 -88 -163 -88c-56 0 -125 23 -153 76c-19 36 -24 61 -24 133v321h88v-287c0 -85 4 -113 28 -137c20 -20 49 -30 79 -30c51 0 102 27 121 69c16 35 17 71 17 108v277h88v-518h-79z" />
    <glyph glyph-name="v" unicode="v" horiz-adv-x="500" 
d="M210 0l-197 518h93l111 -310c18 -50 26 -81 32 -105h2c10 40 23 76 32 99l115 316h90l-196 -518h-82z" />
    <glyph glyph-name="w" unicode="w" horiz-adv-x="722" 
d="M164 0l-159 518h91l83 -299l6 -25c3 -9 16 -58 24 -86c1 2 19 74 21 83c3 9 5 21 6 24l83 303h90l77 -300c4 -13 9 -31 10 -37c10 -36 12 -46 15 -62h2c4 15 7 26 17 58c5 16 10 35 12 42l89 299h86l-163 -518h-91l-82 311c-1 0 -15 63 -18 76c-1 4 -2 10 -2 12h-2
l-103 -399h-92z" />
    <glyph glyph-name="x" unicode="x" horiz-adv-x="500" 
d="M7 0l190 270l-175 248h109l80 -121c23 -35 28 -43 36 -58c19 28 21 31 40 57l87 122h105l-179 -243l193 -275h-108l-106 161c-2 2 -7 10 -11 17l-18 27l-136 -205h-107z" />
    <glyph glyph-name="y" unicode="y" horiz-adv-x="500" 
d="M62 -200l-9 83c13 -4 29 -8 50 -8c66 0 78 35 102 103c3 7 7 18 8 21l-197 519h95l108 -300c21 -57 31 -96 37 -120h2c9 42 20 79 35 119l110 301h89l-198 -527c-1 -2 -2 -7 -5 -13c-38 -103 -70 -188 -170 -188c-25 0 -43 6 -57 10z" />
    <glyph glyph-name="z" unicode="z" horiz-adv-x="500" 
d="M20 0v71l330 378c-42 -2 -58 -3 -99 -3h-212v72h424v-57l-281 -328c-3 -4 -28 -32 -43 -48c-4 -4 -10 -11 -11 -13c23 2 71 4 111 4h240v-76h-459z" />
    <glyph glyph-name="braceleft" unicode="{" horiz-adv-x="334" 
d="M283 728h27v-76h-15c-64 0 -84 -12 -84 -101c0 -180 0 -243 -102 -292c85 -36 102 -104 102 -221c0 -157 0 -172 84 -172h15v-76h-27c-37 0 -88 0 -121 44c-32 44 -33 93 -33 196c-1 97 -1 187 -101 189v80c100 2 100 91 101 189c0 103 1 153 33 196c33 44 84 44 121 44z
" />
    <glyph glyph-name="bar" unicode="|" horiz-adv-x="260" 
d="M92 750h76v-1000h-76v1000z" />
    <glyph glyph-name="braceright" unicode="}" horiz-adv-x="334" 
d="M51 -210h-27v76h15c64 0 84 12 84 101c0 180 0 243 102 292c-85 36 -102 104 -102 221c0 157 0 172 -84 172h-15v76h27c37 0 88 0 121 -44s33 -93 33 -196c0 -97 1 -187 101 -189v-80c-100 -2 -100 -91 -101 -189c-1 -103 -1 -153 -33 -196c-33 -44 -84 -44 -121 -44z
" />
    <glyph glyph-name="asciitilde" unicode="~" horiz-adv-x="584" 
d="M43 272v100c39 45 93 59 135 59c24 0 62 -4 134 -34c6 -3 34 -15 39 -17c12 -5 38 -15 65 -15c63 0 117 57 126 67v-103c-29 -27 -68 -56 -135 -56c-43 0 -76 11 -119 30c-4 2 -26 12 -30 13c-14 7 -52 22 -88 22c-58 0 -96 -36 -127 -66z" />
    <glyph glyph-name="exclamdown" unicode="&#xa1;" horiz-adv-x="333" 
d="M217 518v-100h-100v100h100zM194 340l27 -379v-159h-109v159l25 379h57z" />
    <glyph glyph-name="cent" unicode="&#xa2;" 
d="M366 436l-109 -374c9 -2 16 -4 30 -4c59 0 120 40 133 132l87 -10c-28 -159 -153 -193 -219 -193c-23 0 -37 3 -50 6l-57 -193l-55 16l56 194c-75 36 -127 120 -127 246c0 247 172 275 229 275c6 0 18 0 49 -4l56 189l53 -16l-54 -189c89 -39 103 -112 110 -145l-86 -13
c-4 20 -12 55 -46 83zM205 86l109 373c-151 13 -169 -124 -169 -198c0 -18 1 -52 11 -94c7 -28 20 -60 49 -81z" />
    <glyph glyph-name="sterling" unicode="&#xa3;" 
d="M196 395h153v-72h-133c3 -12 5 -29 5 -43c0 -71 -39 -135 -88 -185l2 -2c13 5 37 11 68 11c18 0 50 -2 92 -12c15 -4 83 -20 113 -20c36 0 77 19 94 27l29 -81c-42 -17 -76 -30 -119 -30c-28 0 -51 5 -68 10l-73 22c-21 6 -46 12 -74 12c-49 0 -105 -18 -148 -46l-34 85
c26 14 112 70 112 191c0 30 -4 45 -8 61h-95v72h75c-18 59 -25 92 -25 129c0 140 113 204 222 204c82 0 161 -38 196 -115c13 -29 17 -53 20 -70l-88 -13c-10 83 -67 126 -130 126c-79 0 -126 -61 -126 -120c0 -50 15 -102 28 -141z" />
    <glyph glyph-name="fraction" unicode="&#x2044;" horiz-adv-x="167" 
d="M-222 -25l539 757h76l-538 -757h-77z" />
    <glyph glyph-name="yen" unicode="&#xa5;" 
d="M235 0v165h-203v68h203v88h-203v68h156l-187 327h98l141 -252c14 -24 27 -49 37 -75c11 26 22 45 40 79l134 248h104l-186 -327h155v-68h-201v-88h201v-68h-201v-165h-88z" />
    <glyph glyph-name="florin" unicode="&#x192;" 
d="M25 -198l16 76c38 -8 59 -11 75 -11c50 0 56 37 62 75l87 498h-98l11 68h99l11 66c10 62 27 145 139 145c39 0 70 -9 96 -17l9 -2l-17 -75c-36 8 -54 12 -75 12c-47 0 -54 -26 -64 -78l-10 -51h100l-12 -68h-100l-93 -523c-15 -87 -48 -127 -127 -127c-7 0 -46 0 -109 12
z" />
    <glyph glyph-name="section" unicode="&#xa7;" 
d="M72 -34l88 12c9 -40 25 -114 125 -114c81 0 106 54 106 85c0 20 -6 41 -42 69c-23 18 -61 47 -141 96c-79 48 -166 102 -166 200c0 56 34 116 110 139c-28 25 -65 61 -65 121c0 64 52 154 180 154c53 0 148 -13 187 -103c12 -28 15 -50 17 -66l-91 -10
c-7 38 -19 107 -105 107c-61 0 -100 -39 -100 -78c0 -23 9 -44 43 -71c29 -23 59 -44 124 -83c100 -60 171 -104 171 -197s-70 -123 -112 -140c18 -14 78 -60 78 -137c0 -90 -77 -160 -194 -160c-106 0 -197 50 -213 176zM357 119c54 27 72 64 72 91c0 52 -57 93 -135 141
c-43 27 -75 48 -99 68c-27 -15 -74 -42 -74 -95c0 -52 44 -86 124 -133c65 -38 93 -58 112 -72z" />
    <glyph glyph-name="currency" unicode="&#xa4;" 
d="M106 469l-68 67l56 58l68 -68c37 25 79 35 116 35s79 -10 116 -35l68 68l56 -58l-68 -67c30 -46 35 -89 35 -115c0 -25 -5 -68 -35 -115l68 -66l-56 -58l-68 68c-37 -25 -79 -35 -116 -35s-79 10 -116 35l-68 -68l-56 58l68 66c-30 47 -35 90 -35 115c0 26 5 69 35 115z
M278 481c-70 0 -127 -56 -127 -126s57 -127 127 -127s127 57 127 127c0 72 -62 126 -127 126z" />
    <glyph glyph-name="quotesingle" unicode="'" horiz-adv-x="191" 
d="M74 462l-19 137v117h80v-117l-17 -137h-44z" />
    <glyph glyph-name="quotedblleft" unicode="&#x201c;" horiz-adv-x="333" 
d="M289 596v-102h-94v80c0 49 0 118 80 154l22 -34c-51 -21 -53 -70 -54 -98h46zM137 596v-102h-94v80c0 49 0 118 80 154l22 -34c-51 -21 -53 -70 -54 -98h46z" />
    <glyph glyph-name="guillemotleft" unicode="&#xab;" 
d="M169 258l127 -223h-72l-155 223l155 223h72zM360 258l127 -223h-72l-155 223l155 223h72z" />
    <glyph glyph-name="guilsinglleft" unicode="&#x2039;" horiz-adv-x="333" 
d="M144 258l127 -223h-72l-155 223l155 223h72z" />
    <glyph glyph-name="guilsinglright" unicode="&#x203a;" horiz-adv-x="333" 
d="M189 258l-127 223h72l155 -223l-155 -223h-72z" />
    <glyph glyph-name="fi" unicode="&#xfb01;" horiz-adv-x="500" 
d="M89 0v450h-78v68h78v51c0 38 0 159 139 159c7 0 49 0 89 -11l-14 -75c-11 2 -26 5 -51 5c-54 0 -75 -19 -75 -75v-54h101v-68h-101v-450h-88zM344 0v518h88v-518h-88zM344 616v100h88v-100h-88z" />
    <glyph glyph-name="fl" unicode="&#xfb02;" horiz-adv-x="500" 
d="M89 0v450h-78v68h78v51c0 38 0 159 139 159c7 0 49 0 89 -11l-14 -75c-11 2 -26 5 -53 5c-48 0 -73 -17 -73 -72v-57h101v-68h-101v-450h-88zM343 0v716h88v-716h-88z" />
    <glyph glyph-name="endash" unicode="&#x2013;" 
d="M-6 223v72h568v-72h-568z" />
    <glyph glyph-name="dagger" unicode="&#x2020;" 
d="M234 -169v592h-195v78h195v198h88v-198h195v-78h-195v-592h-88z" />
    <glyph glyph-name="daggerdbl" unicode="&#x2021;" 
d="M234 -169v181h-195v78h195v355h-195v78h195v183h88v-183h194v-78h-194v-355h195v-78h-195v-181h-88z" />
    <glyph glyph-name="periodcentered" unicode="&#xb7;" horiz-adv-x="278" 
d="M89 302v100h100v-100h-100z" />
    <glyph glyph-name="paragraph" unicode="&#xb6;" horiz-adv-x="537" 
d="M196 -199v510c-135 8 -197 99 -197 199c0 133 95 206 216 206h324v-85h-70v-830h-82v830h-109v-830h-82z" />
    <glyph glyph-name="bullet" unicode="&#x2022;" horiz-adv-x="350" 
d="M51 350c0 69 56 124 124 124s124 -55 124 -124c0 -68 -56 -123 -124 -123s-124 55 -124 123z" />
    <glyph glyph-name="quotesinglbase" unicode="&#x201a;" horiz-adv-x="222" 
d="M61 0v102h94v-80c0 -49 0 -118 -80 -154l-22 34c51 21 53 70 54 98h-46z" />
    <glyph glyph-name="quotedblbase" unicode="&#x201e;" horiz-adv-x="333" 
d="M44 0v102h94v-80c0 -49 0 -118 -80 -154l-22 34c51 21 53 70 54 98h-46zM196 0v102h94v-80c0 -49 0 -118 -80 -154l-22 34c51 21 53 70 54 98h-46z" />
    <glyph glyph-name="quotedblright" unicode="&#x201d;" horiz-adv-x="333" 
d="M44 614v102h94v-80c0 -49 0 -118 -80 -154l-22 34c51 21 53 70 54 98h-46zM196 614v102h94v-80c0 -49 0 -118 -80 -154l-22 34c51 21 53 70 54 98h-46z" />
    <glyph glyph-name="guillemotright" unicode="&#xbb;" 
d="M387 258l-127 223h72l155 -223l-155 -223h-72zM196 258l-127 223h72l155 -223l-155 -223h-72z" />
    <glyph glyph-name="ellipsis" unicode="&#x2026;" horiz-adv-x="1000" 
d="M117 0v100h100v-100h-100zM450 0v100h100v-100h-100zM783 0v100h100v-100h-100z" />
    <glyph glyph-name="perthousand" unicode="&#x2030;" horiz-adv-x="1000" 
d="M18 536c0 49 8 186 139 186c136 0 141 -143 141 -184c0 -47 0 -193 -140 -193s-140 156 -140 191zM90 533c0 -47 4 -126 70 -126c62 0 66 79 66 127c0 67 -12 128 -68 128c-68 0 -68 -89 -68 -129zM373 164c0 49 8 186 139 186c136 0 141 -143 141 -184
c0 -47 0 -193 -140 -193s-140 156 -140 191zM445 160c0 -47 4 -126 70 -126c62 0 66 79 66 127c0 67 -12 128 -68 128c-68 0 -68 -89 -68 -129zM702 164c0 49 8 186 139 186c136 0 141 -143 141 -184c0 -47 0 -193 -140 -193s-140 156 -140 191zM774 160
c0 -47 4 -126 70 -126c62 0 66 79 66 127c0 67 -12 128 -68 128c-68 0 -68 -89 -68 -129zM157 -25l293 753h64l-292 -753h-65z" />
    <glyph glyph-name="questiondown" unicode="&#xbf;" horiz-adv-x="611" 
d="M447 7l90 -10c-2 -19 -5 -44 -19 -76c-51 -116 -161 -131 -213 -131c-135 0 -230 83 -230 195c0 81 46 128 108 183c69 61 81 76 83 174h84c5 -124 -27 -160 -113 -235c-42 -37 -72 -66 -72 -116c0 -66 59 -129 139 -129c86 0 129 60 143 145zM356 518v-100h-100v100h100
z" />
    <glyph glyph-name="grave" unicode="`" horiz-adv-x="333" 
d="M157 728l65 -137h-72l-108 137h115z" />
    <glyph glyph-name="acute" unicode="&#xb4;" horiz-adv-x="333" 
d="M111 591l65 137h115l-108 -137h-72z" />
    <glyph glyph-name="circumflex" unicode="&#x2c6;" horiz-adv-x="333" 
d="M168 674l-56 -83h-100l106 137h93l110 -137h-100z" />
    <glyph glyph-name="tilde" unicode="&#x2dc;" horiz-adv-x="333" 
d="M266 717h64c-4 -106 -75 -112 -96 -112c-18 0 -41 6 -72 23l-18 10c-21 12 -31 13 -39 13c-4 0 -38 0 -37 -47h-65c-1 77 50 112 99 112c20 0 34 -4 69 -20c43 -20 48 -21 60 -21c20 0 31 8 35 42z" />
    <glyph glyph-name="macron" unicode="&#xaf;" horiz-adv-x="333" 
d="M14 624v73h305v-73h-305z" />
    <glyph glyph-name="breve" unicode="&#x2d8;" horiz-adv-x="333" 
d="M251 722h60c-3 -23 -6 -53 -35 -84c-30 -32 -74 -43 -109 -43c-46 0 -106 18 -132 75c-9 21 -11 38 -13 52h60c4 -18 14 -66 82 -66c65 0 80 35 87 66z" />
    <glyph glyph-name="dotaccent" unicode="&#x2d9;" horiz-adv-x="333" 
d="M121 611v100h90v-100h-90z" />
    <glyph glyph-name="dieresis" unicode="&#xa8;" horiz-adv-x="333" 
d="M31 611v100h90v-100h-90zM212 611v100h90v-100h-90z" />
    <glyph glyph-name="ring" unicode="&#x2da;" horiz-adv-x="333" 
d="M166 752c49 0 89 -40 89 -89s-40 -89 -89 -89s-87 40 -87 89s38 89 87 89zM115 664c0 -32 25 -54 52 -54c29 0 52 24 52 53c0 28 -22 53 -52 53s-52 -26 -52 -52z" />
    <glyph glyph-name="cedilla" unicode="&#xb8;" horiz-adv-x="333" 
d="M105 -75l26 86h65l-16 -52c44 -5 83 -29 83 -72c0 -47 -44 -92 -141 -92c-22 0 -48 1 -70 5l5 57c13 -1 31 -2 46 -2c16 0 79 0 79 37c0 32 -51 33 -77 33z" />
    <glyph glyph-name="hungarumlaut" unicode="&#x2dd;" horiz-adv-x="333" 
d="M193 591l65 137h115l-108 -137h-72zM28 591l65 137h115l-108 -137h-72z" />
    <glyph glyph-name="ogonek" unicode="&#x2db;" horiz-adv-x="333" 
d="M109 12h61c-19 -44 -19 -75 -19 -81c0 -43 29 -74 70 -74c7 0 38 0 82 23v-58c-30 -16 -74 -30 -107 -30c-58 0 -107 37 -107 108c0 21 3 52 20 112z" />
    <glyph glyph-name="caron" unicode="&#x2c7;" horiz-adv-x="333" 
d="M165 645l56 83h100l-106 -137h-93l-110 137h100z" />
    <glyph glyph-name="emdash" unicode="&#x2014;" horiz-adv-x="1000" 
d="M-6 223v72h1012v-72h-1012z" />
    <glyph glyph-name="AE" unicode="&#xc6;" horiz-adv-x="1000" 
d="M0 0l345 716h587v-85h-360v-220h335v-84h-335v-243h373v-84h-468v207h-276l-98 -207h-103zM406 631l-165 -340h236v340h-71z" />
    <glyph glyph-name="ordfeminine" unicode="&#xaa;" horiz-adv-x="370" 
d="M101 610l-67 17c5 39 35 101 149 101c69 0 146 -14 146 -118v-118c0 -54 0 -96 19 -119h-72c-6 13 -10 24 -10 43c-29 -25 -73 -52 -125 -52c-46 0 -120 23 -120 107c0 89 81 99 134 107c37 5 66 8 104 18c0 33 -1 75 -77 75c-33 0 -73 -8 -81 -61zM258 539
c-17 -5 -47 -11 -78 -15c-60 -9 -86 -15 -86 -54c0 -31 30 -47 63 -47c41 0 83 24 97 64c4 10 4 14 4 52z" />
    <glyph glyph-name="Lslash" unicode="&#x141;" 
d="M75 276l-71 -60v81l71 61v358h95v-278l161 138v-82l-161 -137v-272h353v-85h-448v276z" />
    <glyph glyph-name="Oslash" unicode="&#xd8;" horiz-adv-x="778" 
d="M611 650l82 92l49 -41l-86 -96c33 -49 76 -114 76 -247c0 -240 -159 -370 -340 -370c-119 0 -177 43 -220 75l-82 -92l-49 41l86 96c-41 64 -80 123 -80 248c0 221 135 372 344 372c118 0 177 -45 220 -78zM189 177l363 408c-40 32 -78 62 -161 62
c-104 0 -246 -60 -246 -289c0 -97 23 -141 44 -181zM593 534l-363 -406c27 -22 72 -59 159 -59c141 0 245 103 245 286c0 74 -16 132 -41 179z" />
    <glyph glyph-name="OE" unicode="&#x152;" horiz-adv-x="1000" 
d="M968 85v-85h-420v103h-2c-61 -109 -152 -115 -194 -115c-224 0 -289 204 -289 371c0 195 79 369 289 369c72 0 143 -22 193 -109h2v97h406v-85h-317v-218h292v-85h-292v-243h332zM351 652c-60 0 -116 -36 -147 -88c-34 -57 -43 -146 -43 -212c0 -202 88 -288 190 -288
c61 0 115 34 149 90s42 144 42 210c0 21 -1 129 -42 198c-37 63 -93 90 -149 90z" />
    <glyph glyph-name="ordmasculine" unicode="&#xba;" horiz-adv-x="365" 
d="M182 728c125 0 161 -110 161 -183c0 -75 -37 -184 -160 -184c-107 0 -161 83 -161 181c0 80 38 186 160 186zM182 663c-83 0 -87 -86 -87 -119c0 -19 0 -118 87 -118c88 0 88 92 88 121c0 17 0 116 -88 116z" />
    <glyph glyph-name="ae" unicode="&#xe6;" horiz-adv-x="889" 
d="M135 358l-86 10c12 50 39 162 225 162c137 0 166 -48 179 -70c20 21 65 70 167 70c170 0 236 -144 229 -293h-374c0 -77 11 -103 40 -133c21 -23 58 -43 108 -43c93 0 125 72 134 110l91 -12c-25 -87 -90 -171 -228 -171c-67 0 -133 19 -193 97
c-50 -50 -117 -97 -215 -97c-153 0 -178 109 -178 149c0 52 22 95 77 126c41 22 80 30 153 40c59 8 83 12 122 24c4 80 -6 131 -113 131c-116 0 -128 -53 -138 -100zM388 260c-38 -16 -110 -27 -156 -35c-36 -6 -104 -17 -104 -84c0 -28 13 -83 101 -83c61 0 121 29 145 81
c13 29 14 55 14 121zM475 309h285c-3 32 -13 149 -141 149c-98 0 -139 -75 -144 -149z" />
    <glyph glyph-name="dotlessi" unicode="&#x131;" horiz-adv-x="278" 
d="M95 0v518h88v-518h-88z" />
    <glyph glyph-name="lslash" unicode="&#x142;" horiz-adv-x="222" 
d="M67 282l-64 -55v77l64 55v357h88v-282l64 54v-77l-64 -54v-357h-88v282z" />
    <glyph glyph-name="oslash" unicode="&#xf8;" horiz-adv-x="611" 
d="M449 488l48 62l47 -34l-52 -67c24 -33 57 -77 57 -190c0 -70 -13 -136 -52 -185c-47 -59 -123 -86 -192 -86c-77 0 -114 25 -137 40l-51 -67l-46 35l53 69c-32 37 -61 90 -61 187c0 68 11 138 53 191c47 59 119 87 188 87c73 0 117 -26 145 -42zM179 137l221 286
c-18 14 -45 35 -94 35c-47 0 -153 -27 -153 -199c0 -41 7 -85 26 -122zM436 376l-219 -285c18 -14 38 -31 86 -31c58 0 156 32 156 199c0 63 -9 85 -23 117z" />
    <glyph glyph-name="oe" unicode="&#x153;" horiz-adv-x="944" 
d="M904 236h-382c1 -101 61 -175 154 -175c103 0 128 88 134 108l88 -13c-40 -151 -162 -168 -223 -168c-63 0 -148 20 -200 98c-72 -95 -163 -98 -193 -98c-134 0 -244 86 -244 265s96 277 245 277c108 0 168 -56 192 -99c44 64 112 99 190 99c86 0 181 -40 220 -155
c20 -60 20 -112 19 -139zM128 260c0 -181 112 -199 152 -199c78 0 153 63 153 200c0 149 -86 197 -153 197c-100 0 -152 -91 -152 -198zM525 308h287c-12 142 -114 150 -141 150c-61 0 -137 -38 -146 -150z" />
    <glyph glyph-name="germandbls" unicode="&#xdf;" horiz-adv-x="611" 
d="M72 0v487c0 60 6 103 22 138c34 75 119 103 187 103c117 0 181 -70 181 -140c0 -48 -20 -82 -53 -138c-12 -22 -22 -44 -22 -61c0 -33 21 -47 90 -91c58 -38 100 -76 100 -146c0 -86 -70 -164 -179 -164c-108 0 -160 80 -177 117l76 35c37 -68 70 -80 100 -80
c49 0 90 39 90 85c0 42 -16 53 -98 108c-88 61 -92 98 -92 122c0 33 13 57 36 97c26 44 43 76 43 107c0 43 -42 76 -98 76c-115 0 -118 -104 -118 -172v-483h-88z" />
    <glyph glyph-name="divide" unicode="&#xf7;" horiz-adv-x="584" 
d="M529 312h-474v82h474v-82zM242 460v100h100v-100h-100zM242 146v100h100v-100h-100z" />
    <glyph glyph-name="threequarters" unicode="&#xbe;" horiz-adv-x="834" 
d="M668 -15v75h-187v60l197 231h60v-238h51v-53h-51v-75h-70zM556 113h112v128zM26 454l71 7c6 -18 19 -55 75 -55c43 0 77 26 77 65c0 50 -50 54 -77 54c-9 0 -14 0 -27 -1l10 53c27 0 77 8 77 50c0 22 -17 43 -59 43c-44 0 -58 -21 -69 -49l-70 11c22 57 50 93 140 93
c19 0 134 0 134 -91c0 -33 -19 -65 -67 -78v-2c49 -11 84 -40 84 -92c0 -57 -48 -113 -148 -113c-99 0 -139 45 -151 105zM123 -25l539 757h76l-538 -757h-77z" />
    <glyph glyph-name="onequarter" unicode="&#xbc;" horiz-adv-x="834" 
d="M668 -15v75h-187v60l197 231h60v-238h51v-53h-51v-75h-70zM556 113h112v128zM171 358v271c-30 -25 -71 -46 -109 -56v61c35 11 92 46 127 91h53v-367h-71zM123 -25l539 757h76l-538 -757h-77z" />
    <glyph glyph-name="onesuperior" unicode="&#xb9;" horiz-adv-x="333" 
d="M161 358v271c-30 -25 -71 -46 -109 -56v61c35 11 92 46 127 91h53v-367h-71z" />
    <glyph glyph-name="multiply" unicode="&#xd7;" horiz-adv-x="584" 
d="M79 200l154 153l-153 154l59 60l154 -154l153 153l58 -59l-152 -153l153 -153l-59 -60l-154 154l-154 -154z" />
    <glyph glyph-name="registered" unicode="&#xae;" horiz-adv-x="737" 
d="M207 156v396h137c46 0 98 0 131 -28c23 -19 38 -47 38 -79c0 -44 -31 -106 -113 -111v-2c23 -8 43 -20 92 -99l48 -77h-78l-35 62c-48 86 -67 106 -118 106h-38v-168h-64zM271 498v-119h78c30 0 96 0 96 60c0 59 -62 59 -101 59h-73zM369 728c202 0 368 -164 368 -368
c0 -203 -164 -369 -368 -369s-369 165 -369 369c0 205 167 368 369 368zM368 667c-170 0 -307 -137 -307 -307s137 -308 307 -308s308 138 308 308s-138 307 -308 307z" />
    <glyph glyph-name="Thorn" unicode="&#xde;" horiz-adv-x="667" 
d="M77 0v716h95v-145h175c64 0 149 0 207 -48c49 -40 69 -103 69 -159c0 -58 -17 -115 -60 -158c-53 -53 -144 -61 -198 -61h-193v-145h-95zM172 486v-256h184c52 0 169 5 169 131c0 30 -9 68 -39 95c-33 30 -73 30 -132 30h-182z" />
    <glyph glyph-name="brokenbar" unicode="&#xa6;" horiz-adv-x="260" 
d="M168 675v-350h-76v350h76zM168 -175h-76v350h76v-350z" />
    <glyph glyph-name="Eth" unicode="&#xd0;" horiz-adv-x="722" 
d="M80 0v316h-79v85h79v315h247c81 0 183 0 258 -87c41 -47 87 -123 87 -267c0 -132 -41 -230 -102 -289c-76 -73 -183 -73 -232 -73h-258zM175 316v-231h153c84 0 246 -1 246 278c0 113 -28 163 -49 192c-54 75 -129 76 -200 76h-150v-230h195v-85h-195z" />
    <glyph glyph-name="onehalf" unicode="&#xbd;" horiz-adv-x="834" 
d="M171 358v271c-30 -25 -71 -46 -109 -56v61c35 11 92 46 127 91h53v-367h-71zM111 -25l538 757h76l-537 -757h-77zM586 239l-74 7c9 34 28 106 149 106c22 0 143 -2 143 -99c0 -63 -44 -102 -113 -151l-31 -22c-26 -18 -33 -26 -43 -36h189v-59h-304c6 54 61 103 126 150
c75 54 99 72 99 105c0 35 -26 54 -67 54c-55 0 -65 -27 -74 -55z" />
    <glyph glyph-name="minus" unicode="&#x2212;" horiz-adv-x="584" 
d="M529 312h-474v82h474v-82z" />
    <glyph glyph-name="ccedilla" unicode="&#xe7;" horiz-adv-x="500" 
d="M286 -12l-6 -24c80 -7 80 -67 80 -73c0 -75 -90 -87 -142 -87c-18 0 -28 1 -51 4l2 58c18 -3 28 -4 43 -4c31 0 67 6 67 34c0 32 -56 32 -72 32l16 64c-113 21 -184 116 -184 262c0 58 10 148 65 207c47 51 115 69 172 69c49 0 128 -14 175 -81c22 -31 27 -61 32 -83
l-86 -14c-17 75 -63 106 -119 106c-129 0 -149 -124 -149 -199c0 -33 0 -199 145 -199c112 0 127 104 131 129l86 -11c-23 -143 -125 -185 -205 -190z" />
    <glyph glyph-name="eth" unicode="&#xf0;" 
d="M152 716h106c32 -24 40 -29 61 -49l105 49l25 -47l-88 -42c97 -112 156 -230 156 -373c0 -160 -95 -266 -240 -266c-94 0 -239 50 -239 264c0 209 130 266 220 266c50 0 76 -13 102 -28l2 2c-22 43 -34 63 -70 104l-119 -55l-25 47l105 48c-41 39 -59 51 -101 80z
M427 258c0 152 -91 193 -153 193c-83 0 -146 -64 -146 -201c0 -177 118 -190 149 -190c66 0 150 47 150 198z" />
    <glyph glyph-name="plusminus" unicode="&#xb1;" horiz-adv-x="584" 
d="M251 137v196h-196v82h196v196h82v-196h196v-82h-196v-196h-82zM529 0h-474v82h474v-82z" />
    <glyph glyph-name="Ccedilla" unicode="&#xc7;" horiz-adv-x="722" 
d="M398 -12l-6 -25c60 -7 82 -44 82 -78c0 -102 -149 -96 -222 -94l4 62c10 -1 24 -3 53 -3c19 0 80 0 80 36c0 27 -31 36 -83 37l25 68c-211 25 -280 208 -280 369c0 274 181 368 337 368c126 0 240 -60 283 -209l-93 -22c-18 58 -59 150 -191 150
c-189 0 -238 -154 -238 -286c0 -38 3 -100 26 -160c31 -80 112 -132 205 -132c94 0 151 52 177 96c21 35 27 65 32 86l95 -24c-42 -163 -155 -234 -286 -239z" />
    <glyph glyph-name="thorn" unicode="&#xfe;" 
d="M68 -199v915h88v-252c31 33 63 66 142 66c147 0 220 -122 220 -267c0 -186 -115 -275 -225 -275c-75 0 -108 35 -137 66v-253h-88zM147 256c0 -156 79 -195 139 -195c52 0 142 32 142 202c0 145 -72 198 -138 198c-84 0 -143 -84 -143 -205z" />
    <glyph glyph-name="copyright" unicode="&#xa9;" horiz-adv-x="737" 
d="M487 300l60 -18c-22 -92 -100 -134 -177 -134c-113 0 -194 78 -194 211c0 127 74 207 197 207c76 0 143 -35 167 -115l-58 -14c-29 74 -94 75 -111 75c-94 0 -128 -82 -128 -155c0 -104 56 -151 123 -151c26 0 100 10 121 94zM369 728c202 0 368 -164 368 -368
c0 -203 -164 -369 -368 -369s-369 165 -369 369c0 205 167 368 369 368zM368 667c-170 0 -307 -137 -307 -307s137 -308 307 -308s308 138 308 308s-138 307 -308 307z" />
    <glyph glyph-name="logicalnot" unicode="&#xac;" horiz-adv-x="584" 
d="M529 203h-83v218h-391v82h474v-300z" />
    <glyph glyph-name="twosuperior" unicode="&#xb2;" horiz-adv-x="333" 
d="M96 612l-74 7c9 34 28 106 149 106c22 0 143 -2 143 -99c0 -63 -44 -101 -113 -151l-31 -22c-25 -19 -33 -26 -43 -36h189v-59h-304c6 54 61 103 126 150c75 55 99 72 99 105c0 35 -26 54 -67 54c-55 0 -65 -27 -74 -55z" />
    <glyph glyph-name="threesuperior" unicode="&#xb3;" horiz-adv-x="333" 
d="M16 454l71 7c6 -18 19 -55 75 -55c43 0 77 26 77 65c0 50 -50 54 -77 54c-9 0 -14 0 -27 -1l10 53c27 0 77 8 77 50c0 22 -17 43 -59 43c-44 0 -58 -21 -69 -49l-70 11c22 57 50 93 140 93c19 0 134 0 134 -91c0 -33 -19 -65 -67 -78v-2c49 -11 84 -40 84 -92
c0 -57 -48 -113 -148 -113c-99 0 -139 45 -151 105z" />
    <glyph glyph-name="trademark" unicode="&#x2122;" horiz-adv-x="1000" 
d="M229 318v339h-129v59h325v-59h-130v-339h-66zM470 318v398h98l99 -318h2l96 318h96v-398h-61v334h-2l-100 -334h-60l-105 339h-2v-339h-61z" />
    <glyph glyph-name="degree" unicode="&#xb0;" horiz-adv-x="400" 
d="M65 590c0 75 60 135 135 135s135 -61 135 -135c0 -76 -61 -136 -135 -136s-135 60 -135 136zM118 590c0 -46 37 -83 82 -83s82 37 82 83c0 45 -36 82 -82 82s-82 -37 -82 -82z" />
    <glyph glyph-name="mu" unicode="&#xb5;" 
d="M488 518v-518h-78v61h-2c-16 -27 -46 -73 -128 -73c-73 0 -102 36 -122 64h-2v-251h-89v717h88v-219c0 -75 1 -131 18 -166c19 -38 54 -66 103 -66c27 0 74 10 104 59c20 33 20 83 20 172v220h88z" />
    <glyph glyph-name="Aacute" unicode="&#xc1;" horiz-adv-x="667" 
d="M-1 0l275 716h102l292 -716h-107l-84 218h-299l-79 -218h-100zM284 504l-79 -211h243l-75 199c-18 47 -34 91 -49 149h-2c-9 -47 -21 -92 -38 -137zM268 761l65 137h115l-108 -137h-72z" />
    <glyph glyph-name="Acircumflex" unicode="&#xc2;" horiz-adv-x="667" 
d="M-1 0l275 716h102l292 -716h-107l-84 218h-299l-79 -218h-100zM284 504l-79 -211h243l-75 199c-18 47 -34 91 -49 149h-2c-9 -47 -21 -92 -38 -137zM335 844l-56 -83h-100l106 137h93l110 -137h-100z" />
    <glyph glyph-name="Adieresis" unicode="&#xc4;" horiz-adv-x="667" 
d="M-1 0l275 716h102l292 -716h-107l-84 218h-299l-79 -218h-100zM284 504l-79 -211h243l-75 199c-18 47 -34 91 -49 149h-2c-9 -47 -21 -92 -38 -137zM198 781v100h90v-100h-90zM379 781v100h90v-100h-90z" />
    <glyph glyph-name="Agrave" unicode="&#xc0;" horiz-adv-x="667" 
d="M-1 0l275 716h102l292 -716h-107l-84 218h-299l-79 -218h-100zM284 504l-79 -211h243l-75 199c-18 47 -34 91 -49 149h-2c-9 -47 -21 -92 -38 -137zM324 898l65 -137h-72l-108 137h115z" />
    <glyph glyph-name="Aring" unicode="&#xc5;" horiz-adv-x="667" 
d="M-1 0l275 716h102l292 -716h-107l-84 218h-299l-79 -218h-100zM284 504l-79 -211h243l-75 199c-18 47 -34 91 -49 149h-2c-9 -47 -21 -92 -38 -137zM333 922c49 0 89 -40 89 -89s-40 -89 -89 -89s-87 40 -87 89s38 89 87 89zM282 834c0 -32 25 -54 52 -54
c29 0 52 24 52 53c0 28 -22 53 -52 53s-52 -26 -52 -52z" />
    <glyph glyph-name="Atilde" unicode="&#xc3;" horiz-adv-x="667" 
d="M-1 0l275 716h102l292 -716h-107l-84 218h-299l-79 -218h-100zM284 504l-79 -211h243l-75 199c-18 47 -34 91 -49 149h-2c-9 -47 -21 -92 -38 -137zM433 887h64c-4 -106 -75 -112 -96 -112c-18 0 -41 6 -72 23l-18 10c-21 12 -31 13 -39 13c-4 0 -38 0 -37 -47h-65
c-1 77 50 112 99 112c20 0 34 -4 69 -20c43 -20 48 -21 60 -21c20 0 31 8 35 42z" />
    <glyph glyph-name="Eacute" unicode="&#xc9;" horiz-adv-x="667" 
d="M79 0v716h518v-85h-423v-219h396v-85h-396v-242h440v-85h-535zM278 761l65 137h115l-108 -137h-72z" />
    <glyph glyph-name="Ecircumflex" unicode="&#xca;" horiz-adv-x="667" 
d="M79 0v716h518v-85h-423v-219h396v-85h-396v-242h440v-85h-535zM345 844l-56 -83h-100l106 137h93l110 -137h-100z" />
    <glyph glyph-name="Edieresis" unicode="&#xcb;" horiz-adv-x="667" 
d="M79 0v716h518v-85h-423v-219h396v-85h-396v-242h440v-85h-535zM208 781v100h90v-100h-90zM389 781v100h90v-100h-90z" />
    <glyph glyph-name="Egrave" unicode="&#xc8;" horiz-adv-x="667" 
d="M79 0v716h518v-85h-423v-219h396v-85h-396v-242h440v-85h-535zM334 898l65 -137h-72l-108 137h115z" />
    <glyph glyph-name="Iacute" unicode="&#xcd;" horiz-adv-x="278" 
d="M92 0v716h95v-716h-95zM84 761l65 137h115l-108 -137h-72z" />
    <glyph glyph-name="Icircumflex" unicode="&#xce;" horiz-adv-x="278" 
d="M92 0v716h95v-716h-95zM141 844l-56 -83h-100l106 137h93l110 -137h-100z" />
    <glyph glyph-name="Idieresis" unicode="&#xcf;" horiz-adv-x="278" 
d="M92 0v716h95v-716h-95zM4 781v100h90v-100h-90zM185 781v100h90v-100h-90z" />
    <glyph glyph-name="Igrave" unicode="&#xcc;" horiz-adv-x="278" 
d="M92 0v716h95v-716h-95zM130 898l65 -137h-72l-108 137h115z" />
    <glyph glyph-name="Ntilde" unicode="&#xd1;" horiz-adv-x="722" 
d="M79 0v716h97l374 -562h2v562h90v-716h-97l-374 562h-2v-562h-90zM471 887h64c-4 -106 -75 -112 -96 -112c-18 0 -41 6 -72 23l-18 10c-21 12 -31 13 -39 13c-4 0 -38 0 -37 -47h-65c-1 77 50 112 99 112c20 0 34 -4 69 -20c43 -20 48 -21 60 -21c20 0 31 8 35 42z" />
    <glyph glyph-name="Oacute" unicode="&#xd3;" horiz-adv-x="778" 
d="M47 349c0 254 157 379 343 379c195 0 342 -141 342 -371c0 -232 -151 -369 -342 -369c-224 0 -343 178 -343 361zM145 347c0 -166 99 -278 244 -278c131 0 245 91 245 288c0 205 -121 290 -243 290c-76 0 -152 -33 -195 -96c-51 -72 -51 -181 -51 -204zM334 761l65 137
h115l-108 -137h-72z" />
    <glyph glyph-name="Ocircumflex" unicode="&#xd4;" horiz-adv-x="778" 
d="M47 349c0 254 157 379 343 379c195 0 342 -141 342 -371c0 -232 -151 -369 -342 -369c-224 0 -343 178 -343 361zM145 347c0 -166 99 -278 244 -278c131 0 245 91 245 288c0 205 -121 290 -243 290c-76 0 -152 -33 -195 -96c-51 -72 -51 -181 -51 -204zM391 844l-56 -83
h-100l106 137h93l110 -137h-100z" />
    <glyph glyph-name="Odieresis" unicode="&#xd6;" horiz-adv-x="778" 
d="M47 349c0 254 157 379 343 379c195 0 342 -141 342 -371c0 -232 -151 -369 -342 -369c-224 0 -343 178 -343 361zM145 347c0 -166 99 -278 244 -278c131 0 245 91 245 288c0 205 -121 290 -243 290c-76 0 -152 -33 -195 -96c-51 -72 -51 -181 -51 -204zM254 781v100h90
v-100h-90zM435 781v100h90v-100h-90z" />
    <glyph glyph-name="Ograve" unicode="&#xd2;" horiz-adv-x="778" 
d="M47 349c0 254 157 379 343 379c195 0 342 -141 342 -371c0 -232 -151 -369 -342 -369c-224 0 -343 178 -343 361zM145 347c0 -166 99 -278 244 -278c131 0 245 91 245 288c0 205 -121 290 -243 290c-76 0 -152 -33 -195 -96c-51 -72 -51 -181 -51 -204zM390 898l65 -137
h-72l-108 137h115z" />
    <glyph glyph-name="Otilde" unicode="&#xd5;" horiz-adv-x="778" 
d="M47 349c0 254 157 379 343 379c195 0 342 -141 342 -371c0 -232 -151 -369 -342 -369c-224 0 -343 178 -343 361zM145 347c0 -166 99 -278 244 -278c131 0 245 91 245 288c0 205 -121 290 -243 290c-76 0 -152 -33 -195 -96c-51 -72 -51 -181 -51 -204zM489 887h64
c-4 -106 -75 -112 -96 -112c-18 0 -41 6 -72 23l-18 10c-21 12 -31 13 -39 13c-4 0 -38 0 -37 -47h-65c-1 77 50 112 99 112c20 0 34 -4 69 -20c43 -20 48 -21 60 -21c20 0 31 8 35 42z" />
    <glyph glyph-name="Scaron" unicode="&#x160;" horiz-adv-x="667" 
d="M45 230l90 8c1 -16 5 -46 19 -73c40 -77 139 -92 192 -92c99 0 178 42 178 122c0 84 -72 102 -217 137c-93 22 -234 55 -234 198c0 111 92 198 251 198c154 0 264 -74 269 -215l-91 -7c-5 52 -26 137 -174 137c-62 0 -165 -18 -165 -107c0 -62 40 -85 171 -114
s281 -63 281 -220c0 -119 -102 -214 -265 -214c-172 0 -250 66 -287 154c-16 39 -17 69 -18 88zM332 815l56 83h100l-106 -137h-93l-110 137h100z" />
    <glyph glyph-name="Uacute" unicode="&#xda;" horiz-adv-x="722" 
d="M547 716h95v-414c0 -95 0 -314 -280 -314c-271 0 -283 187 -283 314v414h95v-413c0 -87 0 -230 180 -230c176 0 193 101 193 230v413zM306 761l65 137h115l-108 -137h-72z" />
    <glyph glyph-name="Ucircumflex" unicode="&#xdb;" horiz-adv-x="722" 
d="M547 716h95v-414c0 -95 0 -314 -280 -314c-271 0 -283 187 -283 314v414h95v-413c0 -87 0 -230 180 -230c176 0 193 101 193 230v413zM363 844l-56 -83h-100l106 137h93l110 -137h-100z" />
    <glyph glyph-name="Udieresis" unicode="&#xdc;" horiz-adv-x="722" 
d="M547 716h95v-414c0 -95 0 -314 -280 -314c-271 0 -283 187 -283 314v414h95v-413c0 -87 0 -230 180 -230c176 0 193 101 193 230v413zM226 781v100h90v-100h-90zM407 781v100h90v-100h-90z" />
    <glyph glyph-name="Ugrave" unicode="&#xd9;" horiz-adv-x="722" 
d="M547 716h95v-414c0 -95 0 -314 -280 -314c-271 0 -283 187 -283 314v414h95v-413c0 -87 0 -230 180 -230c176 0 193 101 193 230v413zM352 898l65 -137h-72l-108 137h115z" />
    <glyph glyph-name="Yacute" unicode="&#xdd;" horiz-adv-x="667" 
d="M281 0v303l-276 413h115l141 -216c37 -56 49 -78 73 -121c29 51 74 120 78 126l139 211h110l-285 -413v-303h-95zM278 761l65 137h115l-108 -137h-72z" />
    <glyph glyph-name="Ydieresis" unicode="&#x178;" horiz-adv-x="667" 
d="M281 0v303l-276 413h115l141 -216c37 -56 49 -78 73 -121c29 51 74 120 78 126l139 211h110l-285 -413v-303h-95zM198 781v100h90v-100h-90zM379 781v100h90v-100h-90z" />
    <glyph glyph-name="Zcaron" unicode="&#x17d;" horiz-adv-x="611" 
d="M18 0v89l367 457c0 1 39 50 74 85h-400v85h513v-85l-402 -495c-1 -2 -21 -25 -31 -37l-12 -14h457v-85h-566zM304 815l56 83h100l-106 -137h-93l-110 137h100z" />
    <glyph glyph-name="aacute" unicode="&#xe1;" 
d="M139 359l-86 11c10 46 34 160 234 160c201 0 201 -105 201 -195v-118c0 -133 0 -167 28 -217h-92c-14 27 -16 51 -18 64c-74 -63 -135 -76 -191 -76c-114 0 -177 63 -177 149c0 138 147 155 204 162c13 2 108 12 158 30c2 56 3 129 -126 129c-110 0 -124 -56 -135 -99z
M400 228v32c-34 -13 -99 -26 -145 -33c-54 -8 -123 -18 -123 -88c0 -37 25 -82 104 -82c25 0 84 5 125 49c35 38 39 79 39 122zM223 591l65 137h115l-108 -137h-72z" />
    <glyph glyph-name="acircumflex" unicode="&#xe2;" 
d="M139 359l-86 11c10 46 34 160 234 160c201 0 201 -105 201 -195v-118c0 -133 0 -167 28 -217h-92c-14 27 -16 51 -18 64c-74 -63 -135 -76 -191 -76c-114 0 -177 63 -177 149c0 138 147 155 204 162c13 2 108 12 158 30c2 56 3 129 -126 129c-110 0 -124 -56 -135 -99z
M400 228v32c-34 -13 -99 -26 -145 -33c-54 -8 -123 -18 -123 -88c0 -37 25 -82 104 -82c25 0 84 5 125 49c35 38 39 79 39 122zM280 674l-56 -83h-100l106 137h93l110 -137h-100z" />
    <glyph glyph-name="adieresis" unicode="&#xe4;" 
d="M139 359l-86 11c10 46 34 160 234 160c201 0 201 -105 201 -195v-118c0 -133 0 -167 28 -217h-92c-14 27 -16 51 -18 64c-74 -63 -135 -76 -191 -76c-114 0 -177 63 -177 149c0 138 147 155 204 162c13 2 108 12 158 30c2 56 3 129 -126 129c-110 0 -124 -56 -135 -99z
M400 228v32c-34 -13 -99 -26 -145 -33c-54 -8 -123 -18 -123 -88c0 -37 25 -82 104 -82c25 0 84 5 125 49c35 38 39 79 39 122zM143 611v100h90v-100h-90zM324 611v100h90v-100h-90z" />
    <glyph glyph-name="agrave" unicode="&#xe0;" 
d="M139 359l-86 11c10 46 34 160 234 160c201 0 201 -105 201 -195v-118c0 -133 0 -167 28 -217h-92c-14 27 -16 51 -18 64c-74 -63 -135 -76 -191 -76c-114 0 -177 63 -177 149c0 138 147 155 204 162c13 2 108 12 158 30c2 56 3 129 -126 129c-110 0 -124 -56 -135 -99z
M400 228v32c-34 -13 -99 -26 -145 -33c-54 -8 -123 -18 -123 -88c0 -37 25 -82 104 -82c25 0 84 5 125 49c35 38 39 79 39 122zM269 728l65 -137h-72l-108 137h115z" />
    <glyph glyph-name="aring" unicode="&#xe5;" 
d="M139 359l-86 11c10 46 34 160 234 160c201 0 201 -105 201 -195v-118c0 -133 0 -167 28 -217h-92c-14 27 -16 51 -18 64c-74 -63 -135 -76 -191 -76c-114 0 -177 63 -177 149c0 138 147 155 204 162c13 2 108 12 158 30c2 56 3 129 -126 129c-110 0 -124 -56 -135 -99z
M400 228v32c-34 -13 -99 -26 -145 -33c-54 -8 -123 -18 -123 -88c0 -37 25 -82 104 -82c25 0 84 5 125 49c35 38 39 79 39 122zM278 752c49 0 89 -40 89 -89s-40 -89 -89 -89s-87 40 -87 89s38 89 87 89zM227 664c0 -32 25 -54 52 -54c29 0 52 24 52 53c0 28 -22 53 -52 53
s-52 -26 -52 -52z" />
    <glyph glyph-name="atilde" unicode="&#xe3;" 
d="M139 359l-86 11c10 46 34 160 234 160c201 0 201 -105 201 -195v-118c0 -133 0 -167 28 -217h-92c-14 27 -16 51 -18 64c-74 -63 -135 -76 -191 -76c-114 0 -177 63 -177 149c0 138 147 155 204 162c13 2 108 12 158 30c2 56 3 129 -126 129c-110 0 -124 -56 -135 -99z
M400 228v32c-34 -13 -99 -26 -145 -33c-54 -8 -123 -18 -123 -88c0 -37 25 -82 104 -82c25 0 84 5 125 49c35 38 39 79 39 122zM378 717h64c-4 -106 -75 -112 -96 -112c-18 0 -41 6 -72 23l-18 10c-21 12 -31 13 -39 13c-4 0 -38 0 -37 -47h-65c-1 77 50 112 99 112
c20 0 34 -4 69 -20c43 -20 48 -21 60 -21c20 0 31 8 35 42z" />
    <glyph glyph-name="eacute" unicode="&#xe9;" 
d="M424 167l90 -11c-26 -98 -99 -168 -227 -168c-161 0 -248 107 -248 267c0 158 85 275 241 275c106 0 243 -59 237 -293h-388c7 -124 80 -177 158 -177c99 0 126 77 137 107zM134 309h293c-2 45 -16 81 -41 107c-23 24 -63 42 -105 42c-98 0 -143 -81 -147 -149zM223 591
l65 137h115l-108 -137h-72z" />
    <glyph glyph-name="ecircumflex" unicode="&#xea;" 
d="M424 167l90 -11c-26 -98 -99 -168 -227 -168c-161 0 -248 107 -248 267c0 158 85 275 241 275c106 0 243 -59 237 -293h-388c7 -124 80 -177 158 -177c99 0 126 77 137 107zM134 309h293c-2 45 -16 81 -41 107c-23 24 -63 42 -105 42c-98 0 -143 -81 -147 -149zM280 674
l-56 -83h-100l106 137h93l110 -137h-100z" />
    <glyph glyph-name="edieresis" unicode="&#xeb;" 
d="M424 167l90 -11c-26 -98 -99 -168 -227 -168c-161 0 -248 107 -248 267c0 158 85 275 241 275c106 0 243 -59 237 -293h-388c7 -124 80 -177 158 -177c99 0 126 77 137 107zM134 309h293c-2 45 -16 81 -41 107c-23 24 -63 42 -105 42c-98 0 -143 -81 -147 -149zM143 611
v100h90v-100h-90zM324 611v100h90v-100h-90z" />
    <glyph glyph-name="egrave" unicode="&#xe8;" 
d="M424 167l90 -11c-26 -98 -99 -168 -227 -168c-161 0 -248 107 -248 267c0 158 85 275 241 275c106 0 243 -59 237 -293h-388c7 -124 80 -177 158 -177c99 0 126 77 137 107zM134 309h293c-2 45 -16 81 -41 107c-23 24 -63 42 -105 42c-98 0 -143 -81 -147 -149zM269 728
l65 -137h-72l-108 137h115z" />
    <glyph glyph-name="iacute" unicode="&#xed;" horiz-adv-x="278" 
d="M95 0v518h88v-518h-88zM84 591l65 137h115l-108 -137h-72z" />
    <glyph glyph-name="icircumflex" unicode="&#xee;" horiz-adv-x="278" 
d="M95 0v518h88v-518h-88zM141 674l-56 -83h-100l106 137h93l110 -137h-100z" />
    <glyph glyph-name="idieresis" unicode="&#xef;" horiz-adv-x="278" 
d="M95 0v518h88v-518h-88zM4 611v100h90v-100h-90zM185 611v100h90v-100h-90z" />
    <glyph glyph-name="igrave" unicode="&#xec;" horiz-adv-x="278" 
d="M95 0v518h88v-518h-88zM130 728l65 -137h-72l-108 137h115z" />
    <glyph glyph-name="ntilde" unicode="&#xf1;" 
d="M68 0v518h79v-73h2c51 78 128 85 163 85c54 0 125 -20 155 -76c23 -43 23 -80 23 -135v-319h-88v315c0 45 0 139 -108 139c-50 0 -101 -26 -120 -65c-17 -37 -18 -75 -18 -106v-283h-88zM378 717h64c-4 -106 -75 -112 -96 -112c-18 0 -41 6 -72 23l-18 10
c-21 12 -31 13 -39 13c-4 0 -38 0 -37 -47h-65c-1 77 50 112 99 112c20 0 34 -4 69 -20c43 -20 48 -21 60 -21c20 0 31 8 35 42z" />
    <glyph glyph-name="oacute" unicode="&#xf3;" 
d="M35 259c0 56 9 129 53 185c47 60 122 86 190 86c109 0 243 -65 243 -263c0 -111 -28 -162 -52 -191c-49 -60 -122 -88 -191 -88c-70 0 -146 27 -192 88c-47 63 -51 144 -51 183zM125 259c0 -169 101 -199 153 -199c125 0 153 120 153 202c0 138 -74 196 -153 196
c-55 0 -153 -31 -153 -199zM223 591l65 137h115l-108 -137h-72z" />
    <glyph glyph-name="ocircumflex" unicode="&#xf4;" 
d="M35 259c0 56 9 129 53 185c47 60 122 86 190 86c109 0 243 -65 243 -263c0 -111 -28 -162 -52 -191c-49 -60 -122 -88 -191 -88c-70 0 -146 27 -192 88c-47 63 -51 144 -51 183zM125 259c0 -169 101 -199 153 -199c125 0 153 120 153 202c0 138 -74 196 -153 196
c-55 0 -153 -31 -153 -199zM280 674l-56 -83h-100l106 137h93l110 -137h-100z" />
    <glyph glyph-name="odieresis" unicode="&#xf6;" 
d="M35 259c0 56 9 129 53 185c47 60 122 86 190 86c109 0 243 -65 243 -263c0 -111 -28 -162 -52 -191c-49 -60 -122 -88 -191 -88c-70 0 -146 27 -192 88c-47 63 -51 144 -51 183zM125 259c0 -169 101 -199 153 -199c125 0 153 120 153 202c0 138 -74 196 -153 196
c-55 0 -153 -31 -153 -199zM143 611v100h90v-100h-90zM324 611v100h90v-100h-90z" />
    <glyph glyph-name="ograve" unicode="&#xf2;" 
d="M35 259c0 56 9 129 53 185c47 60 122 86 190 86c109 0 243 -65 243 -263c0 -111 -28 -162 -52 -191c-49 -60 -122 -88 -191 -88c-70 0 -146 27 -192 88c-47 63 -51 144 -51 183zM125 259c0 -169 101 -199 153 -199c125 0 153 120 153 202c0 138 -74 196 -153 196
c-55 0 -153 -31 -153 -199zM269 728l65 -137h-72l-108 137h115z" />
    <glyph glyph-name="otilde" unicode="&#xf5;" 
d="M35 259c0 56 9 129 53 185c47 60 122 86 190 86c109 0 243 -65 243 -263c0 -111 -28 -162 -52 -191c-49 -60 -122 -88 -191 -88c-70 0 -146 27 -192 88c-47 63 -51 144 -51 183zM125 259c0 -169 101 -199 153 -199c125 0 153 120 153 202c0 138 -74 196 -153 196
c-55 0 -153 -31 -153 -199zM378 717h64c-4 -106 -75 -112 -96 -112c-18 0 -41 6 -72 23l-18 10c-21 12 -31 13 -39 13c-4 0 -38 0 -37 -47h-65c-1 77 50 112 99 112c20 0 34 -4 69 -20c43 -20 48 -21 60 -21c20 0 31 8 35 42z" />
    <glyph glyph-name="scaron" unicode="&#x161;" horiz-adv-x="500" 
d="M31 155l87 13c9 -69 51 -108 134 -108c91 0 119 48 119 83c0 42 -35 57 -87 70l-58 14c-79 19 -181 46 -181 154c0 80 66 149 191 149c182 0 199 -105 206 -145l-86 -12c-11 79 -79 85 -114 85s-112 -8 -112 -67c0 -44 37 -54 122 -76c136 -35 209 -56 209 -163
c0 -86 -73 -164 -208 -164c-188 0 -213 115 -222 167zM249 645l56 83h100l-106 -137h-93l-110 137h100z" />
    <glyph glyph-name="uacute" unicode="&#xfa;" 
d="M408 0v76h-2c-57 -85 -136 -88 -163 -88c-56 0 -125 23 -153 76c-19 36 -24 61 -24 133v321h88v-287c0 -85 4 -113 28 -137c20 -20 49 -30 79 -30c51 0 102 27 121 69c16 35 17 71 17 108v277h88v-518h-79zM223 591l65 137h115l-108 -137h-72z" />
    <glyph glyph-name="ucircumflex" unicode="&#xfb;" 
d="M408 0v76h-2c-57 -85 -136 -88 -163 -88c-56 0 -125 23 -153 76c-19 36 -24 61 -24 133v321h88v-287c0 -85 4 -113 28 -137c20 -20 49 -30 79 -30c51 0 102 27 121 69c16 35 17 71 17 108v277h88v-518h-79zM280 674l-56 -83h-100l106 137h93l110 -137h-100z" />
    <glyph glyph-name="udieresis" unicode="&#xfc;" 
d="M408 0v76h-2c-57 -85 -136 -88 -163 -88c-56 0 -125 23 -153 76c-19 36 -24 61 -24 133v321h88v-287c0 -85 4 -113 28 -137c20 -20 49 -30 79 -30c51 0 102 27 121 69c16 35 17 71 17 108v277h88v-518h-79zM143 611v100h90v-100h-90zM324 611v100h90v-100h-90z" />
    <glyph glyph-name="ugrave" unicode="&#xf9;" 
d="M408 0v76h-2c-57 -85 -136 -88 -163 -88c-56 0 -125 23 -153 76c-19 36 -24 61 -24 133v321h88v-287c0 -85 4 -113 28 -137c20 -20 49 -30 79 -30c51 0 102 27 121 69c16 35 17 71 17 108v277h88v-518h-79zM269 728l65 -137h-72l-108 137h115z" />
    <glyph glyph-name="yacute" unicode="&#xfd;" horiz-adv-x="500" 
d="M62 -200l-9 83c13 -4 29 -8 50 -8c66 0 78 35 102 103c3 7 7 18 8 21l-197 519h95l108 -300c21 -57 31 -96 37 -120h2c9 42 20 79 35 119l110 301h89l-198 -527c-1 -2 -2 -7 -5 -13c-38 -103 -70 -188 -170 -188c-25 0 -43 6 -57 10zM195 591l65 137h115l-108 -137h-72z
" />
    <glyph glyph-name="ydieresis" unicode="&#xff;" horiz-adv-x="500" 
d="M62 -200l-9 83c13 -4 29 -8 50 -8c66 0 78 35 102 103c3 7 7 18 8 21l-197 519h95l108 -300c21 -57 31 -96 37 -120h2c9 42 20 79 35 119l110 301h89l-198 -527c-1 -2 -2 -7 -5 -13c-38 -103 -70 -188 -170 -188c-25 0 -43 6 -57 10zM115 611v100h90v-100h-90zM296 611
v100h90v-100h-90z" />
    <glyph glyph-name="zcaron" unicode="&#x17e;" horiz-adv-x="500" 
d="M20 0v71l330 378c-42 -2 -58 -3 -99 -3h-212v72h424v-57l-281 -328c-3 -4 -28 -32 -43 -48c-4 -4 -10 -11 -11 -13c23 2 71 4 111 4h240v-76h-459zM249 645l56 83h100l-106 -137h-93l-110 137h100z" />
    </font>
</defs>
</svg>
