<svg xmlns="http://www.w3.org/2000/svg" xmlns:xlink="http://www.w3.org/1999/xlink" width="11.094" height="6.343" viewBox="0 0 11.094 6.343">
  <defs>
    <style>
      .cls-1 {
        fill: #fff;
        fill-rule: evenodd;
        filter: url(#filter);
      }
    </style>
    <filter id="filter" x="395" y="560.938" width="11.094" height="6.343" filterUnits="userSpaceOnUse">
      <feFlood result="flood" flood-color="#fff"/>
      <feComposite result="composite" operator="in" in2="SourceGraphic"/>
      <feBlend result="blend" in2="SourceGraphic"/>
    </filter>
  </defs>
  <path id="Фигура_1" data-name="Фигура 1" class="cls-1" d="M400.43,567.2h0.663a0.567,0.567,0,0,0,.3-0.132,0.483,0.483,0,0,0,.091-0.29,1.208,1.208,0,0,1,.4-1.016c0.407-.129.929,0.856,1.483,1.234a1.048,1.048,0,0,0,.736.224l1.481-.02s0.774-.048.407-0.655a4.921,4.921,0,0,0-1.1-1.269c-0.928-.858-0.8-0.719.314-2.2,0.681-.9.953-1.456,0.868-1.693a0.649,0.649,0,0,0-.582-0.166l-1.666.01a0.38,0.38,0,0,0-.215.039,0.456,0.456,0,0,0-.147.178,9.656,9.656,0,0,1-.616,1.295c-0.742,1.255-1.039,1.321-1.16,1.243a1.415,1.415,0,0,1-.212-1.119c0-1.217.186-1.724-.36-1.856a2.9,2.9,0,0,0-.778-0.077,3.609,3.609,0,0,0-1.383.141c-0.189.093-.336,0.3-0.247,0.311a0.745,0.745,0,0,1,.492.246,1.6,1.6,0,0,1,.165.751s0.1,1.433-.229,1.611c-0.225.122-.533-0.127-1.195-1.266a10.7,10.7,0,0,1-.594-1.229,0.5,0.5,0,0,0-.138-0.185,0.689,0.689,0,0,0-.256-0.1l-1.583.01a0.542,0.542,0,0,0-.325.11,0.342,0.342,0,0,0-.007.281,17.932,17.932,0,0,0,2.644,4.347A3.812,3.812,0,0,0,400.43,567.2Z" transform="translate(-395 -560.938)"/>
</svg>
