<svg id="Вк_1" data-name="Вк 1" xmlns="http://www.w3.org/2000/svg" xmlns:xlink="http://www.w3.org/1999/xlink" width="29.094" height="30" viewBox="0 0 29.094 30">
  <defs>
    <style>
      .cls-1 {
        fill: #7a6b67;
        filter: url(#filter);
      }

      .cls-2 {
        fill: #fff;
        fill-rule: evenodd;
        filter: url(#filter-2);
      }
    </style>
    <filter id="filter" x="0" y="0" width="29.094" height="30" filterUnits="userSpaceOnUse">
      <feFlood result="flood" flood-color="#6996c7"/>
      <feComposite result="composite" operator="in" in2="SourceGraphic"/>
      <feBlend result="blend" in2="SourceGraphic"/>
    </filter>
    <filter id="filter-2" x="778.844" y="1770.09" width="15.094" height="9.04" filterUnits="userSpaceOnUse">
      <feFlood result="flood" flood-color="#fff"/>
      <feComposite result="composite" operator="in" in2="SourceGraphic"/>
      <feBlend result="blend" in2="SourceGraphic"/>
    </filter>
  </defs>
  <rect id="Прямоугольник_1" data-name="Прямоугольник 1" class="cls-1" width="29.094" height="30"/>
  <path id="Фигура_1" data-name="Фигура 1" class="cls-2" d="M786.233,1779.01h0.9a0.762,0.762,0,0,0,.412-0.18,0.739,0.739,0,0,0,.124-0.42s-0.017-1.25.545-1.44,1.268,1.22,2.023,1.75a1.386,1.386,0,0,0,1.006.32l2.019-.03s1.057-.07.556-0.93a7.094,7.094,0,0,0-1.5-1.8c-1.266-1.22-1.1-1.02.429-3.13,0.929-1.28,1.3-2.07,1.184-2.4a0.863,0.863,0,0,0-.794-0.24l-2.274.02a0.462,0.462,0,0,0-.293.05,0.681,0.681,0,0,0-.2.25,13.57,13.57,0,0,1-.84,1.84c-1.012,1.78-1.417,1.88-1.583,1.77-0.385-.26-0.289-1.04-0.289-1.59,0-1.73.253-2.45-.492-2.64a3.961,3.961,0,0,0-1.061-.11,5.057,5.057,0,0,0-1.887.2c-0.259.14-.459,0.43-0.337,0.45a1,1,0,0,1,.671.34,2.362,2.362,0,0,1,.225,1.07s0.134,2.04-.313,2.29c-0.306.17-.727-0.18-1.629-1.8a15.483,15.483,0,0,1-.812-1.74,0.7,0.7,0,0,0-.188-0.27,0.871,0.871,0,0,0-.349-0.14l-2.161.01a0.707,0.707,0,0,0-.443.16,0.508,0.508,0,0,0-.009.4,25.779,25.779,0,0,0,3.607,6.17A5.069,5.069,0,0,0,786.233,1779.01Z" transform="translate(-772 -1759)"/>
</svg>
