<svg xmlns="http://www.w3.org/2000/svg" viewBox="-653.368 1025.041 37.926 37.959">
  <defs>
    <style>
      .cls-1 {
        fill: #a6673a;
      }

      .cls-2 {
        fill: #99522e;
      }

      .cls-3 {
        fill: #ff9f19;
      }

      .cls-4 {
        fill: #f28618;
      }
    </style>
  </defs>
  <g id="auction_1_" data-name="auction (1)" transform="translate(-653.59 1025.04)">
    <g id="Group_314" data-name="Group 314" transform="translate(0.222 12.727)">
      <path id="Path_341" data-name="Path 341" class="cls-1" d="M294.095,450.159H279.239A1.238,1.238,0,0,1,278,448.921v-1.238a2.476,2.476,0,0,1,2.476-2.476h12.38a2.476,2.476,0,0,1,2.476,2.476v1.238A1.238,1.238,0,0,1,294.095,450.159Z" transform="translate(-257.407 -424.926)"/>
      <path id="Path_342" data-name="Path 342" class="cls-1" d="M23.457,175.522l-1.75-1.741-1.758-1.758a1.23,1.23,0,0,0-1.75,0L1.3,188.917a3.721,3.721,0,0,0,0,5.249l.008.008a3.706,3.706,0,0,0,5.241-.008l16.9-16.894a1.255,1.255,0,0,0,0-1.75Z" transform="translate(-0.222 -171.657)"/>
    </g>
    <path id="Path_343" data-name="Path 343" class="cls-2" d="M37.442,202.909a1.229,1.229,0,0,1-.355.875l-16.9,16.894a3.706,3.706,0,0,1-5.241.008l20.394-20.394,1.75,1.741A1.23,1.23,0,0,1,37.442,202.909Z" transform="translate(-13.63 -185.443)"/>
    <path id="Path_344" data-name="Path 344" class="cls-3" d="M202.351,72a1.238,1.238,0,0,1-.875-.363l-10.5-10.5a1.238,1.238,0,0,1,0-1.751l5.252-5.253a1.274,1.274,0,0,1,1.751,0l10.505,10.5a1.237,1.237,0,0,1,0,1.751l-5.253,5.253A1.238,1.238,0,0,1,202.351,72Z" transform="translate(-176.272 -49.791)"/>
    <path id="Path_345" data-name="Path 345" class="cls-4" d="M273.441,129.421l-7,7,5.245,5.245a1.237,1.237,0,0,0,1.751,0l5.253-5.253a1.237,1.237,0,0,0,0-1.751Z" transform="translate(-246.48 -119.825)"/>
    <path id="Path_346" data-name="Path 346" class="cls-1" d="M137.737,11.449a2.476,2.476,0,0,1,0-3.5L144.959.725a2.476,2.476,0,0,1,3.5,3.5l-7.222,7.222A2.476,2.476,0,0,1,137.737,11.449Z" transform="translate(-126.649 0)"/>
    <g id="Group_315" data-name="Group 315" transform="translate(20.816 14.006)">
      <path id="Path_347" data-name="Path 347" class="cls-2" d="M326.649,200.355a2.476,2.476,0,0,1,0-3.5l7.222-7.222a2.476,2.476,0,1,1,3.5,3.5l-7.222,7.222A2.475,2.475,0,0,1,326.649,200.355Z" transform="translate(-322.371 -188.906)"/>
      <path id="Path_348" data-name="Path 348" class="cls-2" d="M279.238,481.08h14.856a1.238,1.238,0,0,0,1.238-1.238V478.6H278v1.238A1.238,1.238,0,0,0,279.238,481.08Z" transform="translate(-278 -457.126)"/>
    </g>
  </g>
</svg>
