<svg xmlns="http://www.w3.org/2000/svg" viewBox="-658 372.828 36.136 36.134">
  <defs>
    <style>
      .cls-1 {
        fill: #cc905e;
      }

      .cls-2 {
        fill: #c18152;
      }

      .cls-3 {
        fill: #eab883;
      }

      .cls-4 {
        fill: #f7cf9c;
      }

      .cls-5 {
        fill: #dda878;
      }

      .cls-6 {
        fill: #ffb70d;
      }
    </style>
  </defs>
  <g id="bank" transform="translate(-658 372.81)">
    <rect id="Rectangle_157" data-name="Rectangle 157" class="cls-1" width="23.591" height="17.401" transform="translate(6.197 15.184)"/>
    <rect id="Rectangle_158" data-name="Rectangle 158" class="cls-2" width="2.956" height="17.401" transform="translate(6.197 15.184)"/>
    <rect id="Rectangle_159" data-name="Rectangle 159" class="cls-3" width="22.733" height="1.963" transform="translate(6.672 17.554)"/>
    <rect id="Rectangle_160" data-name="Rectangle 160" class="cls-4" width="22.733" height="1.963" transform="translate(6.672 15.591)"/>
    <rect id="Rectangle_161" data-name="Rectangle 161" class="cls-5" width="2.48" height="1.963" transform="translate(6.672 17.554)"/>
    <rect id="Rectangle_162" data-name="Rectangle 162" class="cls-3" width="2.48" height="1.963" transform="translate(6.672 15.591)"/>
    <path id="Path_277" data-name="Path 277" class="cls-4" d="M407.976,214.878v15.463h1.985V214.878Z" transform="translate(-379.182 -199.695)"/>
    <path id="Path_278" data-name="Path 278" class="cls-3" d="M407.976,214.878v15.463h1.068V214.878Z" transform="translate(-379.182 -199.695)"/>
    <path id="Path_279" data-name="Path 279" class="cls-4" d="M296.561,230.028v.313h1.986V214.878h-1.986Z" transform="translate(-275.63 -199.695)"/>
    <path id="Path_280" data-name="Path 280" class="cls-3" d="M296.561,230.028v.313h.993V214.878h-.993Z" transform="translate(-275.63 -199.695)"/>
    <path id="Path_281" data-name="Path 281" class="cls-4" d="M185.147,230.028v.313h1.986V214.878h-1.986Z" transform="translate(-172.08 -199.695)"/>
    <path id="Path_282" data-name="Path 282" class="cls-3" d="M185.147,230.028v.313h.993V214.878h-.993Z" transform="translate(-172.08 -199.695)"/>
    <path id="Path_283" data-name="Path 283" class="cls-4" d="M73.734,230.028v.313h1.985V214.878H73.734Z" transform="translate(-68.53 -199.695)"/>
    <g id="Group_309" data-name="Group 309" transform="translate(4.015 15.183)">
      <path id="Path_284" data-name="Path 284" class="cls-3" d="M73.734,230.028v.313h.959V214.878h-.959Z" transform="translate(-72.545 -214.878)"/>
      <path id="Path_285" data-name="Path 285" class="cls-3" d="M60.275,430.5h-2.4a.985.985,0,0,1-.982-.982h0a.985.985,0,0,1,.982-.982h2.4a.985.985,0,0,1,.982.982h0A.984.984,0,0,1,60.275,430.5Z" transform="translate(-56.894 -413.452)"/>
    </g>
    <path id="Path_286" data-name="Path 286" class="cls-5" d="M59.075,429.513a.985.985,0,0,1,.982-.982H57.876a.982.982,0,1,0,0,1.963h2.181A.984.984,0,0,1,59.075,429.513Z" transform="translate(-52.879 -398.268)"/>
    <path id="Path_287" data-name="Path 287" class="cls-4" d="M60.232,456.348H30.18a.982.982,0,0,0-.982.982v1.418H61.213V457.33A.982.982,0,0,0,60.232,456.348Z" transform="translate(-27.138 -424.122)"/>
    <g id="Group_310" data-name="Group 310" transform="translate(0 32.226)">
      <path id="Path_288" data-name="Path 288" class="cls-3" d="M33.1,457.037a.982.982,0,0,1,.938-.69H30.179a.982.982,0,0,0-.982.982v1.418h3.855A6.834,6.834,0,0,1,33.1,457.037Z" transform="translate(-27.137 -456.347)"/>
      <path id="Path_289" data-name="Path 289" class="cls-3" d="M35.161,484.164H.989a.984.984,0,0,0-.982.982h0a.982.982,0,0,0,.982.982H35.161a.982.982,0,0,0,.982-.982h0A.984.984,0,0,0,35.161,484.164Z" transform="translate(-0.007 -482.201)"/>
    </g>
    <path id="Path_290" data-name="Path 290" class="cls-5" d="M4.871,484.894a.981.981,0,0,1,.948-.73H.982a.982.982,0,0,0,0,1.963H5.819A.981.981,0,0,1,4.871,484.894Z" transform="translate(0 -449.975)"/>
    <path id="Path_291" data-name="Path 291" class="cls-1" d="M45.3.067a.256.256,0,0,0-.3,0L29.541,11.225a.761.761,0,0,0-.316.617l-.006,2.812h0a.98.98,0,0,0,.98.937H60.252a.982.982,0,0,0,.937-.69,2.878,2.878,0,0,0,.044-.8V12.883c-.049-.524.135-1-.285-1.31Z" transform="translate(-27.158 0)"/>
    <path id="Path_292" data-name="Path 292" class="cls-2" d="M31.164,12.5a.761.761,0,0,1,.316-.617L46.547,1,45.275.067a.256.256,0,0,0-.3,0L29.517,11.225a.761.761,0,0,0-.316.617,19.461,19.461,0,0,0,.037,3.06.982.982,0,0,0,.938.69h1.038C31.117,15.316,31.177,15.391,31.164,12.5Z" transform="translate(-27.134 0)"/>
    <path id="Path_293" data-name="Path 293" class="cls-3" d="M29.252,194.109a.982.982,0,0,0,.938.69H60.242a.982.982,0,0,0,.938-.69,2.879,2.879,0,0,0,.044-.8v-.473H29.215A5.42,5.42,0,0,0,29.252,194.109Z" transform="translate(-27.148 -179.207)"/>
    <path id="Path_294" data-name="Path 294" class="cls-5" d="M31.2,192.835H29.243a5.138,5.138,0,0,0,.038,1.274.982.982,0,0,0,.938.69h1.038C31.161,194.53,31.218,194.5,31.2,192.835Z" transform="translate(-27.176 -179.207)"/>
    <path id="Path_295" data-name="Path 295" class="cls-6" d="M230.034,62.721a1.9,1.9,0,0,0-1.579-1.519V59.885a2.3,2.3,0,0,1,.642.294.545.545,0,0,0,.651-.875,3.382,3.382,0,0,0-1.292-.54v-.281a.545.545,0,0,0-1.091,0v.289a2.692,2.692,0,0,0-.418.124,1.639,1.639,0,0,0-1.161,1.673,1.9,1.9,0,0,0,1.579,1.516V63.4a2.305,2.305,0,0,1-.642-.3.545.545,0,0,0-.648.877,3.377,3.377,0,0,0,1.29.54V64.8a.545.545,0,0,0,1.091,0v-.289a2.7,2.7,0,0,0,.42-.124A1.637,1.637,0,0,0,230.034,62.721Zm-3.165-2.272c-.023-.2.167-.418.47-.536l.025-.009v1.029C227.048,60.795,226.887,60.611,226.869,60.449Zm1.612,2.926-.027.009v-1.03c.316.139.477.324.5.486C228.972,63.043,228.784,63.258,228.481,63.375Z" transform="translate(-209.841 -53.831)"/>
    <path id="Path_296" data-name="Path 296" class="cls-3" d="M171.689,430.5h-2.4a.985.985,0,0,1-.982-.982h0a.985.985,0,0,1,.982-.982h2.4a.985.985,0,0,1,.982.982h0A.984.984,0,0,1,171.689,430.5Z" transform="translate(-156.429 -398.269)"/>
    <path id="Path_297" data-name="Path 297" class="cls-5" d="M170.489,429.513a.985.985,0,0,1,.982-.982H169.29a.982.982,0,1,0,0,1.963h2.181A.984.984,0,0,1,170.489,429.513Z" transform="translate(-156.429 -398.268)"/>
    <path id="Path_298" data-name="Path 298" class="cls-3" d="M283.1,430.5h-2.4a.985.985,0,0,1-.982-.982h0a.985.985,0,0,1,.982-.982h2.4a.985.985,0,0,1,.982.982h0A.984.984,0,0,1,283.1,430.5Z" transform="translate(-259.981 -398.269)"/>
    <path id="Path_299" data-name="Path 299" class="cls-5" d="M281.9,429.513a.985.985,0,0,1,.982-.982H280.7a.982.982,0,1,0,0,1.963h2.181A.984.984,0,0,1,281.9,429.513Z" transform="translate(-259.98 -398.268)"/>
    <path id="Path_300" data-name="Path 300" class="cls-3" d="M394.518,430.5h-2.4a.985.985,0,0,1-.982-.982h0a.985.985,0,0,1,.982-.982h2.4a.985.985,0,0,1,.982.982h0A.984.984,0,0,1,394.518,430.5Z" transform="translate(-363.531 -398.269)"/>
    <path id="Path_301" data-name="Path 301" class="cls-5" d="M393.317,429.513a.985.985,0,0,1,.982-.982h-2.181a.982.982,0,1,0,0,1.963H394.3A.984.984,0,0,1,393.317,429.513Z" transform="translate(-363.53 -398.268)"/>
  </g>
</svg>
