<svg xmlns="http://www.w3.org/2000/svg" viewBox="218 73 35.661 35.382">
  <defs>
    <style>
      .cls-1 {
        fill: #efefef;
      }

      .cls-2 {
        fill: #324d5b;
      }

      .cls-3 {
        fill: #aeb5ba;
      }

      .cls-4 {
        fill: #e2574c;
      }

      .cls-5 {
        fill: #fff;
      }

      .cls-6 {
        fill: #26a6d1;
      }

      .cls-7 {
        fill: #dcdcdc;
      }

      .cls-8 {
        fill: #2e4754;
      }
    </style>
  </defs>
  <g id="calculator" transform="translate(218 71.03)">
    <path id="Path_96" data-name="Path 96" class="cls-1" d="M1.672,1.97H33.989a1.677,1.677,0,0,1,1.672,1.672V35.681a1.677,1.677,0,0,1-1.672,1.672H1.672A1.677,1.677,0,0,1,0,35.681V3.642A1.677,1.677,0,0,1,1.672,1.97Z"/>
    <path id="Path_97" data-name="Path 97" class="cls-2" d="M55.138,57.109H83v7.244H55.138Z" transform="translate(-51.238 -51.239)"/>
    <path id="Path_98" data-name="Path 98" class="cls-3" d="M304.819,82.522a.876.876,0,0,0,.39-.306.939.939,0,0,0,.139-.474.906.906,0,0,0-.306-.7,1.2,1.2,0,0,0-.864-.279,1.269,1.269,0,0,0-.892.279.95.95,0,0,0-.306.7.842.842,0,0,0,.139.446.86.86,0,0,0,.418.334,1.024,1.024,0,0,0-.5.39,1,1,0,0,0-.167.557,1.1,1.1,0,0,0,.418.892,1.365,1.365,0,0,0,.892.279,1.242,1.242,0,0,0,.919-.334,1.174,1.174,0,0,0,.362-.864.941.941,0,0,0-.167-.557.809.809,0,0,0-.474-.362Zm-.975-1.087a.473.473,0,0,1,.362-.111.444.444,0,0,1,.334.111.471.471,0,0,1,0,.669.557.557,0,0,1-.669,0,.461.461,0,0,1-.139-.334A.444.444,0,0,1,303.844,81.436Zm.752,2.452a.506.506,0,0,1-.39.167.468.468,0,0,1-.39-.167.655.655,0,0,1-.167-.474.666.666,0,0,1,.139-.39.5.5,0,0,1,.418-.2.468.468,0,0,1,.39.167.567.567,0,0,1,.167.418A.612.612,0,0,1,304.6,83.887Zm3.26-1.365a.876.876,0,0,0,.39-.306.939.939,0,0,0,.139-.474.906.906,0,0,0-.306-.7,1.2,1.2,0,0,0-.864-.279,1.269,1.269,0,0,0-.891.279.949.949,0,0,0-.306.7.842.842,0,0,0,.139.446.86.86,0,0,0,.418.334,1.025,1.025,0,0,0-.5.39,1,1,0,0,0-.167.557,1.1,1.1,0,0,0,.418.892,1.365,1.365,0,0,0,.891.279,1.242,1.242,0,0,0,.919-.334,1.174,1.174,0,0,0,.362-.864.942.942,0,0,0-.167-.557.809.809,0,0,0-.474-.362Zm-1-1.087a.473.473,0,0,1,.362-.111.444.444,0,0,1,.334.111.471.471,0,0,1,0,.669.557.557,0,0,1-.669,0,.461.461,0,0,1-.139-.334A.444.444,0,0,1,306.853,81.436Zm.752,2.452a.506.506,0,0,1-.39.167.468.468,0,0,1-.39-.167.655.655,0,0,1-.167-.474.666.666,0,0,1,.139-.39.5.5,0,0,1,.418-.2.468.468,0,0,1,.39.167.567.567,0,0,1,.167.418A.612.612,0,0,1,307.605,83.887Zm3.538-2.7a1.2,1.2,0,0,0-.975-.446,1.239,1.239,0,0,0-.919.362,1.259,1.259,0,0,0-.362.947,1.22,1.22,0,0,0,.334.892,1.116,1.116,0,0,0,.808.334,1.012,1.012,0,0,0,.724-.306,1.625,1.625,0,0,1-.223.864.487.487,0,0,1-.39.2.419.419,0,0,1-.306-.111.453.453,0,0,1-.139-.306l-.724.084a1.2,1.2,0,0,0,.362.724,1.115,1.115,0,0,0,.752.251,1.4,1.4,0,0,0,1.059-.474,2.214,2.214,0,0,0,.39-1.5A2.377,2.377,0,0,0,311.143,81.185Zm-.613,1.393a.491.491,0,0,1-.362.167.55.55,0,0,1-.39-.167.751.751,0,0,1-.139-.529.861.861,0,0,1,.139-.529.449.449,0,0,1,.362-.167.487.487,0,0,1,.39.2.832.832,0,0,1,.167.557A.8.8,0,0,1,310.53,82.578Z" transform="translate(-281.445 -73.197)"/>
    <path id="Path_99" data-name="Path 99" class="cls-4" d="M61.824,198.893H56.252a1.118,1.118,0,0,0-1.114,1.114v5.572a1.118,1.118,0,0,0,1.114,1.114h5.572a1.118,1.118,0,0,0,1.114-1.114v-5.572A1.118,1.118,0,0,0,61.824,198.893Zm9.472,0H65.725a1.118,1.118,0,0,0-1.114,1.114v5.572a1.118,1.118,0,0,0,1.114,1.114H71.3a1.118,1.118,0,0,0,1.114-1.114v-5.572A1.118,1.118,0,0,0,71.3,198.893Zm0,9.472H65.725a1.118,1.118,0,0,0-1.114,1.114v5.572a1.118,1.118,0,0,0,1.114,1.114H71.3a1.118,1.118,0,0,0,1.114-1.114V209.48A1.118,1.118,0,0,0,71.3,208.365Zm-9.472,0H56.252a1.118,1.118,0,0,0-1.114,1.114v5.572a1.118,1.118,0,0,0,1.114,1.114h5.572a1.118,1.118,0,0,0,1.114-1.114V209.48A1.118,1.118,0,0,0,61.824,208.365Z" transform="translate(-51.238 -182.993)"/>
    <path id="Path_100" data-name="Path 100" class="cls-5" d="M86.646,241.823h3.343v-1.114H86.646Zm10.587-1.95a.557.557,0,1,0,.557-.557A.559.559,0,0,0,97.233,239.872Zm-1.114,1.114V242.1h3.343v-1.114Zm1.672,1.671a.557.557,0,1,0,.557.557A.559.559,0,0,0,97.79,242.658ZM88.875,230.4H87.76v1.114H86.646v1.114H87.76v1.114h1.114v-1.114h1.114v-1.114H88.875Zm8.135,3.26.78-.78.78.78.78-.78-.78-.78.78-.78-.78-.78-.78.752-.78-.78-.78.78.78.78-.78.78Z" transform="translate(-80.517 -212.271)"/>
    <path id="Path_101" data-name="Path 101" class="cls-6" d="M324.068,198.893h6.686a1.118,1.118,0,0,1,1.114,1.114v15.044a1.118,1.118,0,0,1-1.114,1.114h-6.686a1.118,1.118,0,0,1-1.114-1.114V200.007A1.118,1.118,0,0,1,324.068,198.893Z" transform="translate(-300.109 -182.993)"/>
    <path id="Path_102" data-name="Path 102" class="cls-5" d="M362.338,301.292v1.114h3.343v-1.114Zm0,3.065h3.343v-1.114h-3.343Z" transform="translate(-336.707 -278.148)"/>
    <path id="Path_103" data-name="Path 103" class="cls-7" d="M33.989,468.38H1.672A1.677,1.677,0,0,1,0,466.708v.836a1.677,1.677,0,0,0,1.672,1.672H33.989a1.677,1.677,0,0,0,1.672-1.672v-.836A1.677,1.677,0,0,1,33.989,468.38Z" transform="translate(0 -431.863)"/>
    <path id="Path_104" data-name="Path 104" class="cls-8" d="M55.138,57.109H83v1.114H55.138Z" transform="translate(-51.238 -51.239)"/>
  </g>
</svg>
