<svg xmlns="http://www.w3.org/2000/svg" viewBox="-548.529 375.904 32.908 31.454">
  <defs>
    <style>
      .cls-1 {
        fill: #a2c0cc;
      }

      .cls-2 {
        fill: #abccd3;
      }

      .cls-3 {
        fill: #91b2bc;
      }

      .cls-4 {
        fill: #61787f;
      }

      .cls-5 {
        fill: #486066;
      }

      .cls-6 {
        fill: #319176;
      }

      .cls-7 {
        fill: #3ca589;
      }

      .cls-8 {
        fill: #319385;
      }

      .cls-9 {
        fill: #84a6ad;
      }

      .cls-10 {
        fill: #306687;
      }

      .cls-11 {
        fill: #27a7c4;
      }

      .cls-12 {
        fill: #2d8ca5;
      }

      .cls-13 {
        fill: #227b93;
      }

      .cls-14 {
        fill: #900;
      }

      .cls-15 {
        fill: #f73131;
      }

      .cls-16 {
        fill: #d10d0d;
      }

      .cls-17 {
        fill: #b70404;
      }

      .cls-18 {
        fill: #599316;
      }

      .cls-19 {
        fill: #8fdd3c;
      }

      .cls-20 {
        fill: #79c430;
      }

      .cls-21 {
        fill: #67ad1e;
      }

      .cls-22 {
        fill: #89a6ad;
      }

      .cls-23 {
        fill: #394d51;
      }

      .cls-24 {
        fill: #7ea2aa;
      }

      .cls-25 {
        fill: #93bac1;
      }

      .cls-26 {
        fill: #a7cfd8;
      }

      .cls-27 {
        fill: #95c19d;
      }

      .cls-28 {
        fill: #83b28c;
      }

      .cls-29 {
        fill: #719e78;
      }

      .cls-30 {
        fill: #578461;
      }

      .cls-31 {
        fill: #43754f;
      }

      .cls-32 {
        fill: #35633f;
      }

      .cls-33 {
        fill: #cbe8ef;
      }

      .cls-34 {
        fill: #7de7ff;
      }

      .cls-35 {
        fill: #24d1ff;
      }

      .cls-36 {
        fill: #17c3ff;
      }

      .cls-37 {
        fill: #27b2ff;
      }
    </style>
  </defs>
  <g id="cash-machine_2_" data-name="cash-machine (2)" transform="translate(-548.529 365.104)">
    <path id="Path_225" data-name="Path 225" class="cls-1" d="M32.854,41.33a1.587,1.587,0,0,1-1.616,1.616H1.616A1.62,1.62,0,0,1,0,41.33V13.216A1.587,1.587,0,0,1,1.616,11.6H31.238a1.62,1.62,0,0,1,1.616,1.616Z" transform="translate(0 -0.746)"/>
    <path id="Path_226" data-name="Path 226" class="cls-2" d="M34.367,36.437V10.8H12.016A1.62,1.62,0,0,0,10.4,12.416V36.437Z" transform="translate(-9.7)"/>
    <path id="Path_227" data-name="Path 227" class="cls-3" d="M23.967,36.437V10.8H1.616A1.62,1.62,0,0,0,0,12.416V36.437Z"/>
    <path id="Path_228" data-name="Path 228" class="cls-4" d="M0,300.4v10.341a1.587,1.587,0,0,0,1.616,1.616H31.238a1.62,1.62,0,0,0,1.616-1.616V300.4Z" transform="translate(0 -270.103)"/>
    <g id="Group_307" data-name="Group 307" transform="translate(0 30.297)">
      <path id="Path_229" data-name="Path 229" class="cls-5" d="M116.809,395.6l-6.409,4.578.916.969H125l-5.009-5.009Z" transform="translate(-102.967 -389.191)"/>
      <rect id="Rectangle_151" data-name="Rectangle 151" class="cls-5" width="32.854" height="2.801"/>
    </g>
    <path id="Path_230" data-name="Path 230" class="cls-6" d="M58.527,74.426a1.563,1.563,0,0,1-1.562,1.562h-15.4A1.563,1.563,0,0,1,40,74.426V65.162A1.563,1.563,0,0,1,41.562,63.6h15.4a1.563,1.563,0,0,1,1.562,1.562Z" transform="translate(-37.307 -49.245)"/>
    <path id="Path_231" data-name="Path 231" class="cls-7" d="M58.527,84.826a1.563,1.563,0,0,1-1.562,1.562h-15.4A1.563,1.563,0,0,1,40,84.826V75.562A1.563,1.563,0,0,1,41.562,74h15.4a1.563,1.563,0,0,1,1.562,1.562Z" transform="translate(-37.307 -58.945)"/>
    <path id="Path_232" data-name="Path 232" class="cls-8" d="M56.966,74.8a1.563,1.563,0,0,1,1.562,1.562v9.264a1.563,1.563,0,0,1-1.562,1.562h-15.4A1.563,1.563,0,0,1,40,85.626" transform="translate(-37.307 -59.691)"/>
    <path id="Path_233" data-name="Path 233" class="cls-9" d="M406.17,105.046c0,.377-.269,1.131-.646,1.131h-2.478c-.377,0-.646-.754-.646-1.131h0a.622.622,0,0,1,.646-.646h2.531a.611.611,0,0,1,.592.646Z" transform="translate(-375.309 -87.299)"/>
    <path id="Path_234" data-name="Path 234" class="cls-10" d="M406.17,105.046a.622.622,0,0,1-.646.646h-2.478a.622.622,0,0,1-.646-.646h0a.622.622,0,0,1,.646-.646h2.531a.611.611,0,0,1,.592.646Z" transform="translate(-375.309 -87.299)"/>
    <path id="Path_235" data-name="Path 235" class="cls-11" d="M406.324,102.8h-2.531a.685.685,0,0,0-.592.539.631.631,0,0,0,.592.485h2.531a.631.631,0,0,0,.592-.485C406.809,103.069,406.593,102.8,406.324,102.8Z" transform="translate(-376.055 -85.806)"/>
    <path id="Path_236" data-name="Path 236" class="cls-12" d="M406.324,104.4h-2.531a.495.495,0,1,0,0,.969h2.531a.631.631,0,0,0,.592-.485A.618.618,0,0,0,406.324,104.4Z" transform="translate(-376.055 -87.299)"/>
    <path id="Path_237" data-name="Path 237" class="cls-13" d="M412,104.569h2.531a.495.495,0,1,0,0-.969" transform="translate(-384.263 -86.552)"/>
    <path id="Path_238" data-name="Path 238" class="cls-9" d="M406.17,144.246c0,.377-.269,1.131-.646,1.131h-2.478c-.377,0-.646-.754-.646-1.131h0a.622.622,0,0,1,.646-.646h2.531a.611.611,0,0,1,.592.646Z" transform="translate(-375.309 -123.859)"/>
    <path id="Path_239" data-name="Path 239" class="cls-10" d="M406.17,144.246a.622.622,0,0,1-.646.646h-2.478a.622.622,0,0,1-.646-.646h0a.622.622,0,0,1,.646-.646h2.531a.611.611,0,0,1,.592.646Z" transform="translate(-375.309 -123.859)"/>
    <path id="Path_240" data-name="Path 240" class="cls-11" d="M406.324,142h-2.531a.685.685,0,0,0-.592.539.631.631,0,0,0,.592.485h2.531a.631.631,0,0,0,.592-.485C406.809,142.269,406.593,142,406.324,142Z" transform="translate(-376.055 -122.367)"/>
    <path id="Path_241" data-name="Path 241" class="cls-12" d="M406.324,143.6h-2.531a.495.495,0,1,0,0,.969h2.531a.631.631,0,0,0,.592-.485A.618.618,0,0,0,406.324,143.6Z" transform="translate(-376.055 -123.859)"/>
    <path id="Path_242" data-name="Path 242" class="cls-13" d="M412,143.769h2.531a.495.495,0,1,0,0-.969" transform="translate(-384.263 -123.113)"/>
    <path id="Path_243" data-name="Path 243" class="cls-9" d="M406.17,182.646c0,.377-.269,1.131-.646,1.131h-2.478c-.377,0-.646-.754-.646-1.131h0a.622.622,0,0,1,.646-.646h2.531a.688.688,0,0,1,.592.646Z" transform="translate(-375.309 -159.674)"/>
    <path id="Path_244" data-name="Path 244" class="cls-10" d="M406.17,182.646a.622.622,0,0,1-.646.646h-2.478a.622.622,0,0,1-.646-.646h0a.622.622,0,0,1,.646-.646h2.531a.688.688,0,0,1,.592.646Z" transform="translate(-375.309 -159.674)"/>
    <path id="Path_245" data-name="Path 245" class="cls-11" d="M406.324,181.2h-2.531a.685.685,0,0,0-.592.539.631.631,0,0,0,.592.485h2.531a.631.631,0,0,0,.592-.485C406.809,181.469,406.593,181.2,406.324,181.2Z" transform="translate(-376.055 -158.928)"/>
    <path id="Path_246" data-name="Path 246" class="cls-12" d="M406.324,182.8h-2.531a.631.631,0,0,0-.592.485.65.65,0,0,0,.592.431h2.531a.473.473,0,1,0,0-.916Z" transform="translate(-376.055 -160.42)"/>
    <path id="Path_247" data-name="Path 247" class="cls-13" d="M412,182.969h2.531a.495.495,0,1,0,0-.969" transform="translate(-384.263 -159.674)"/>
    <path id="Path_248" data-name="Path 248" class="cls-9" d="M406.17,220.246c0,.377-.269,1.131-.646,1.131h-2.478c-.377,0-.646-.754-.646-1.131h0a.622.622,0,0,1,.646-.646h2.531a.611.611,0,0,1,.592.646Z" transform="translate(-375.309 -194.743)"/>
    <path id="Path_249" data-name="Path 249" class="cls-14" d="M406.17,220.246a.622.622,0,0,1-.646.646h-2.478a.622.622,0,0,1-.646-.646h0a.622.622,0,0,1,.646-.646h2.531a.611.611,0,0,1,.592.646Z" transform="translate(-375.309 -194.743)"/>
    <path id="Path_250" data-name="Path 250" class="cls-15" d="M406.324,218h-2.531a.685.685,0,0,0-.592.539.631.631,0,0,0,.592.485h2.531a.631.631,0,0,0,.592-.485C406.809,218.269,406.593,218,406.324,218Z" transform="translate(-376.055 -193.251)"/>
    <path id="Path_251" data-name="Path 251" class="cls-16" d="M406.324,219.6h-2.531a.495.495,0,1,0,0,.969h2.531a.631.631,0,0,0,.592-.485A.618.618,0,0,0,406.324,219.6Z" transform="translate(-376.055 -194.743)"/>
    <path id="Path_252" data-name="Path 252" class="cls-17" d="M412,219.769h2.531a.495.495,0,1,0,0-.969" transform="translate(-384.263 -193.997)"/>
    <path id="Path_253" data-name="Path 253" class="cls-9" d="M406.17,65.846c0,.377-.269,1.131-.646,1.131h-2.478c-.377,0-.646-.754-.646-1.131h0a.622.622,0,0,1,.646-.646h2.531a.611.611,0,0,1,.592.646Z" transform="translate(-375.309 -50.738)"/>
    <path id="Path_254" data-name="Path 254" class="cls-18" d="M406.17,65.846a.622.622,0,0,1-.646.646h-2.478a.622.622,0,0,1-.646-.646h0a.622.622,0,0,1,.646-.646h2.531a.611.611,0,0,1,.592.646Z" transform="translate(-375.309 -50.738)"/>
    <path id="Path_255" data-name="Path 255" class="cls-19" d="M406.324,63.6h-2.531a.685.685,0,0,0-.592.539.631.631,0,0,0,.592.485h2.531a.631.631,0,0,0,.592-.485C406.809,63.923,406.593,63.6,406.324,63.6Z" transform="translate(-376.055 -49.245)"/>
    <path id="Path_256" data-name="Path 256" class="cls-20" d="M406.324,65.2h-2.531a.495.495,0,1,0,0,.969h2.531a.631.631,0,0,0,.592-.485A.686.686,0,0,0,406.324,65.2Z" transform="translate(-376.055 -50.738)"/>
    <path id="Path_257" data-name="Path 257" class="cls-21" d="M412,65.369h2.531a.495.495,0,1,0,0-.969" transform="translate(-384.263 -49.991)"/>
    <path id="Path_258" data-name="Path 258" class="cls-22" d="M61.3,389.531a.483.483,0,0,1-.485.485H43.685a.483.483,0,0,1-.485-.485v-.646a.483.483,0,0,1,.485-.485H60.812a.483.483,0,0,1,.485.485Z" transform="translate(-40.292 -352.179)"/>
    <path id="Path_259" data-name="Path 259" class="cls-5" d="M61.3,386.331a.483.483,0,0,1-.485.485H43.685a.483.483,0,0,1-.485-.485v-.646a.483.483,0,0,1,.485-.485H60.812a.483.483,0,0,1,.485.485Z" transform="translate(-40.292 -349.194)"/>
    <path id="Path_260" data-name="Path 260" class="cls-23" d="M44.431,384.454a.463.463,0,0,0-.431.431.483.483,0,0,0,.485.485H61.612a.485.485,0,0,0,0-.969H44.431Z" transform="translate(-41.038 -348.448)"/>
    <path id="Path_261" data-name="Path 261" class="cls-5" d="M392.324,360.763a1.563,1.563,0,0,1-1.562,1.562h-2.8a1.563,1.563,0,0,1-1.562-1.562v-2.8a1.563,1.563,0,0,1,1.562-1.562h2.8a1.563,1.563,0,0,1,1.562,1.562Z" transform="translate(-360.386 -322.333)"/>
    <path id="Path_262" data-name="Path 262" class="cls-3" d="M392.324,346.363a1.563,1.563,0,0,1-1.562,1.562h-2.8a1.563,1.563,0,0,1-1.562-1.562v-2.8A1.563,1.563,0,0,1,387.962,342h2.8a1.563,1.563,0,0,1,1.562,1.562Z" transform="translate(-360.386 -308.902)"/>
    <path id="Path_263" data-name="Path 263" class="cls-24" d="M386.4,343.562A1.563,1.563,0,0,1,387.962,342h2.8a1.563,1.563,0,0,1,1.562,1.562v2.8a1.563,1.563,0,0,1-1.562,1.562" transform="translate(-360.386 -308.902)"/>
    <path id="Path_264" data-name="Path 264" class="cls-25" d="M386.4,343.562A1.563,1.563,0,0,1,387.962,342h2.8a1.563,1.563,0,0,1,1.562,1.562" transform="translate(-360.386 -308.902)"/>
    <path id="Path_265" data-name="Path 265" class="cls-26" d="M404.786,380.516a.232.232,0,0,1-.215.215h-3.555a.232.232,0,0,1-.215-.215v-.7a.232.232,0,0,1,.215-.215h3.555a.232.232,0,0,1,.215.215Z" transform="translate(-373.817 -343.971)"/>
    <path id="Path_266" data-name="Path 266" class="cls-5" d="M404.786,378.116a.232.232,0,0,1-.215.215h-3.555a.232.232,0,0,1-.215-.215v-.7a.232.232,0,0,1,.215-.215h3.555a.232.232,0,0,1,.215.215Z" transform="translate(-373.817 -341.733)"/>
    <path id="Path_267" data-name="Path 267" class="cls-23" d="M404.57,378h-3.555a.232.232,0,0,0-.215.215v.269a.232.232,0,0,0,.215.215h3.555a.232.232,0,0,0,.215-.215v-.269A.232.232,0,0,0,404.57,378Z" transform="translate(-373.817 -342.479)"/>
    <rect id="Rectangle_152" data-name="Rectangle 152" class="cls-27" width="9.156" height="5.332" transform="translate(7.379 36.006)"/>
    <path id="Path_268" data-name="Path 268" class="cls-28" d="M109.6,385.2h9.156v5.278" transform="translate(-102.221 -349.194)"/>
    <rect id="Rectangle_153" data-name="Rectangle 153" class="cls-29" width="9.156" height="1.239" transform="translate(7.379 36.006)"/>
    <rect id="Rectangle_154" data-name="Rectangle 154" class="cls-30" width="7.109" height="4.363" transform="translate(8.456 36.006)"/>
    <path id="Path_269" data-name="Path 269" class="cls-31" d="M125.6,385.2h7.056v4.363" transform="translate(-117.144 -349.194)"/>
    <path id="Path_270" data-name="Path 270" class="cls-1" d="M364.141,279.955v-3.5c-.108,0-.215-.054-.323-.054h-7.055a1.563,1.563,0,0,0-1.562,1.562v.485a1.563,1.563,0,0,0,1.562,1.562h7.055A.683.683,0,0,1,364.141,279.955Z" transform="translate(-331.287 -247.719)"/>
    <path id="Path_271" data-name="Path 271" class="cls-2" d="M358.262,282.393a1.563,1.563,0,0,1-1.562-1.562V280.4a1.515,1.515,0,0,0-.7,1.293v.485a1.563,1.563,0,0,0,1.562,1.562h7.056a.683.683,0,0,0,.323-.054v-1.293Z" transform="translate(-332.033 -251.45)"/>
    <rect id="Rectangle_155" data-name="Rectangle 155" class="cls-32" width="7.109" height="1.239" transform="translate(8.456 36.006)"/>
    <path id="Path_272" data-name="Path 272" class="cls-33" d="M388.917,304.669a.254.254,0,0,1-.269.269h-5.978a.254.254,0,0,1-.269-.269h0a.254.254,0,0,1,.269-.269h5.978a.289.289,0,0,1,.269.269Z" transform="translate(-356.655 -273.834)"/>
    <path id="Path_273" data-name="Path 273" class="cls-5" d="M388.917,303.069a.254.254,0,0,1-.269.269h-5.978a.254.254,0,0,1-.269-.269h0a.254.254,0,0,1,.269-.269h5.978a.254.254,0,0,1,.269.269Z" transform="translate(-356.655 -272.341)"/>
    <path id="Path_274" data-name="Path 274" class="cls-34" d="M396,306.8v1.346a.463.463,0,0,0,.431.431h3.77a.463.463,0,0,0,.431-.431V306.8Z" transform="translate(-369.34 -276.072)"/>
    <path id="Path_275" data-name="Path 275" class="cls-35" d="M396,302.8v1.346a.463.463,0,0,0,.431.431h3.77a.463.463,0,0,0,.431-.431V302.8Z" transform="translate(-369.34 -272.341)"/>
    <path id="Path_276" data-name="Path 276" class="cls-36" d="M400.2,303.777a.463.463,0,0,0,.431-.431V302H396" transform="translate(-369.34 -271.595)"/>
    <rect id="Rectangle_156" data-name="Rectangle 156" class="cls-37" width="4.632" height="0.592" transform="translate(26.66 30.458)"/>
    <g id="Group_308" data-name="Group 308" transform="translate(4.416 16.94)">
      <circle id="Ellipse_54" data-name="Ellipse 54" class="cls-8" cx="0.431" cy="0.431" r="0.431" transform="translate(0 0)"/>
      <circle id="Ellipse_55" data-name="Ellipse 55" class="cls-8" cx="0.431" cy="0.431" r="0.431" transform="translate(0 2.316)"/>
      <circle id="Ellipse_56" data-name="Ellipse 56" class="cls-8" cx="0.431" cy="0.431" r="0.431" transform="translate(0 4.686)"/>
      <circle id="Ellipse_57" data-name="Ellipse 57" class="cls-8" cx="0.431" cy="0.431" r="0.431" transform="translate(0 7.002)"/>
    </g>
  </g>
</svg>
