<svg xmlns="http://www.w3.org/2000/svg" viewBox="304 1750.689 46.86 33.455">
  <defs>
    <style>
      .cls-1, .cls-2 {
        fill-rule: evenodd;
      }

      .cls-1 {
        opacity: 0.301;
      }

      .cls-2 {
        fill: #fff;
      }
    </style>
  </defs>
  <g id="cloudy" transform="translate(304 1750.689)">
    <path id="Path_65" data-name="Path 65" class="cls-1" d="M35.5,11.94a11.358,11.358,0,0,0-1.259.074A13.84,13.84,0,0,0,7.1,15.844a13.665,13.665,0,0,0,.143,1.882A8.515,8.515,0,0,0,8.52,34.66H35.5a11.36,11.36,0,1,0,0-22.72Z" transform="translate(0 -1.205)"/>
    <path id="Path_66" data-name="Path 66" class="cls-2" d="M35.5,9.94a11.359,11.359,0,0,0-1.259.074A13.84,13.84,0,0,0,7.1,13.844a13.665,13.665,0,0,0,.143,1.882A8.515,8.515,0,0,0,8.52,32.66H35.5a11.36,11.36,0,1,0,0-22.72Z"/>
  </g>
</svg>
