<svg xmlns="http://www.w3.org/2000/svg" viewBox="-541.16 1027.774 31.13 36.226">
  <defs>
    <style>
      .cls-1 {
        fill: #ffd782;
      }

      .cls-2 {
        opacity: 0.1;
      }

      .cls-3 {
        fill: #99e7ff;
      }

      .cls-4 {
        fill: #8ad0e6;
      }

      .cls-5 {
        fill: #b3edff;
      }
    </style>
  </defs>
  <g id="diamond-ring" transform="translate(-577.175 1027.774)">
    <path id="Path_387" data-name="Path 387" class="cls-1" d="M51.58,103.159A15.565,15.565,0,1,1,67.145,87.594,15.582,15.582,0,0,1,51.58,103.159Zm0-26.048A10.483,10.483,0,1,0,62.063,87.594,10.495,10.495,0,0,0,51.58,77.111Z" transform="translate(0 -66.933)"/>
    <path id="Path_388" data-name="Path 388" class="cls-2" d="M118.683,75.444l3.265,3.892a10.462,10.462,0,0,1,12.9,0l3.265-3.892a15.531,15.531,0,0,0-19.431,0Z" transform="translate(-76.819 -66.934)"/>
    <path id="Path_389" data-name="Path 389" class="cls-3" d="M190.315,0l-2.424,5.249h9.638L195.105,0Z" transform="translate(-141.13)"/>
    <path id="Path_390" data-name="Path 390" class="cls-4" d="M289.85,0h0l2.424,5.249h4.869L294.016,0Z" transform="translate(-235.875)"/>
    <path id="Path_391" data-name="Path 391" class="cls-5" d="M126.365,0H122.2l-3.127,5.249h4.869Z" transform="translate(-77.18)"/>
    <path id="Path_392" data-name="Path 392" class="cls-3" d="M260.819,74.189,256,85.737l9.688-11.548Z" transform="translate(-204.42 -68.94)"/>
    <path id="Path_393" data-name="Path 393" class="cls-4" d="M123.941,74.189h-4.869l9.688,11.548Z" transform="translate(-77.18 -68.94)"/>
    <path id="Path_394" data-name="Path 394" class="cls-5" d="M187.891,74.189l4.819,11.548,4.819-11.548Z" transform="translate(-141.13 -68.94)"/>
  </g>
</svg>
