<svg xmlns="http://www.w3.org/2000/svg" viewBox="-659.617 268.383 39.633 39.633">
  <defs>
    <style>
      .cls-1 {
        fill: #f2f2f2;
      }

      .cls-2 {
        fill: #cdd6e0;
      }

      .cls-3 {
        fill: #ffd15c;
      }

      .cls-4 {
        fill: #f8b64c;
      }

      .cls-5 {
        fill: #ff7058;
      }
    </style>
  </defs>
  <g id="exchange" transform="translate(-659.617 268.383)">
    <circle id="Ellipse_60" data-name="Ellipse 60" class="cls-1" cx="13.211" cy="13.211" r="13.211" transform="translate(0 0)"/>
    <circle id="Ellipse_61" data-name="Ellipse 61" class="cls-2" cx="10.982" cy="10.982" r="10.982" transform="translate(2.229 2.229)"/>
    <path id="Path_319" data-name="Path 319" class="cls-1" d="M108.544,87.693a4.65,4.65,0,0,1-5.037,4.376,4.5,4.5,0,0,1-3.633-1.486,6.979,6.979,0,0,1-1.651-3.8H97.067V85.546h.991V84.307h-.991V83.069h1.156a5.885,5.885,0,0,1,1.982-3.881,4.977,4.977,0,0,1,3.3-1.321,5.048,5.048,0,0,1,3.385,1.073,4.69,4.69,0,0,1,1.651,3.138l-2.312.248c-.33-1.734-1.239-2.642-2.725-2.642a2.182,2.182,0,0,0-1.734.826,3.784,3.784,0,0,0-.991,2.477h3.138v1.239H100.7v1.238h3.22V86.7h-3.138a3.886,3.886,0,0,0,1.156,2.477,3.02,3.02,0,0,0,1.9.826,2.079,2.079,0,0,0,1.651-.743,3.083,3.083,0,0,0,.826-1.9Z" transform="translate(-89.553 -71.839)"/>
    <circle id="Ellipse_62" data-name="Ellipse 62" class="cls-3" cx="13.211" cy="13.211" r="13.211" transform="translate(13.211 13.211)"/>
    <circle id="Ellipse_63" data-name="Ellipse 63" class="cls-4" cx="10.817" cy="10.817" r="10.817" transform="translate(15.606 15.606)"/>
    <path id="Path_320" data-name="Path 320" class="cls-3" d="M285.563,261.412a6.319,6.319,0,0,1-3.963-1.734l1.321-1.817a4.324,4.324,0,0,0,2.642,1.4v-2.56c-1.734-.413-3.551-1.073-3.551-3.3,0-1.651,1.321-3.138,3.551-3.3v-1.569h1.569V250.1a6.053,6.053,0,0,1,3.385,1.486L289.2,253.32a4.16,4.16,0,0,0-2.064-1.073v2.312c1.734.413,3.633,1.073,3.633,3.385,0,1.817-1.238,3.3-3.633,3.55v1.486h-1.569v-1.569Zm0-7.266v-1.982c-.743.083-1.156.5-1.156,1.073C284.407,253.733,284.9,253.981,285.563,254.146Zm1.569,2.973v2.229c.826-.165,1.239-.661,1.239-1.156C288.371,257.614,287.875,257.366,287.132,257.118Z" transform="translate(-259.802 -229.293)"/>
    <g id="Group_312" data-name="Group 312" transform="translate(1.569 0)">
      <path id="Path_321" data-name="Path 321" class="cls-5" d="M356.981,10.486A9.626,9.626,0,0,0,350.54.5a8.387,8.387,0,0,0-2.807-.5V2.147a6.593,6.593,0,0,1,2.147.413,7.639,7.639,0,0,1,5.037,8.009h-1.982l3.055,3.963,2.973-4.128Z" transform="translate(-322.384 0)"/>
      <path id="Path_322" data-name="Path 322" class="cls-5" d="M22.248,328.313a9.824,9.824,0,0,0,6.44,9.991,8.387,8.387,0,0,0,2.807.5v-2.147a6.593,6.593,0,0,1-2.147-.413,7.639,7.639,0,0,1-5.037-8.009h1.982l-3.055-3.963L20.266,328.4Z" transform="translate(-20.266 -299.166)"/>
    </g>
  </g>
</svg>
