<svg xmlns="http://www.w3.org/2000/svg" viewBox="-12.766 1144.938 13.933 16.266">
  <defs>
    <style>
      .cls-1 {
        fill: #34495e;
      }

      .cls-2 {
        fill: #e81621;
        stroke: #fff;
      }

      .cls-3 {
        fill: #fff;
        font-size: 6px;
        font-family: Arial-BoldMT, Arial;
        font-weight: 700;
      }

      .cls-4 {
        stroke: none;
      }

      .cls-5 {
        fill: none;
      }
    </style>
  </defs>
  <g id="Group_85" data-name="Group 85" transform="translate(-12.766 1144.938)">
    <path id="ic_notifications_24px" class="cls-1" d="M9.832,16.717a1.462,1.462,0,0,0,1.458-1.458H8.374A1.458,1.458,0,0,0,9.832,16.717Zm4.374-4.374V8.7a4.442,4.442,0,0,0-3.281-4.608v-.5a1.094,1.094,0,0,0-2.187,0v.5A4.429,4.429,0,0,0,5.458,8.7v3.645L4,13.8v.729H15.665V13.8Z" transform="translate(-4 -0.451)"/>
    <g id="Ellipse_1" data-name="Ellipse 1" class="cls-2" transform="translate(4.098)">
      <circle class="cls-4" cx="4.918" cy="4.918" r="4.918"/>
      <circle class="cls-5" cx="4.918" cy="4.918" r="4.418"/>
    </g>
    <text id="_1" data-name="1" class="cls-3" transform="translate(7.376 7.459)"><tspan x="0" y="0">1</tspan></text>
  </g>
</svg>
