<svg xmlns="http://www.w3.org/2000/svg" viewBox="291.573 15.561 18.427 18.944">
  <defs>
    <style>
      .cls-1 {
        fill: #fff;
      }
    </style>
  </defs>
  <path id="ic_settings_24px" class="cls-1" d="M18.524,12.4a7.381,7.381,0,0,0,.066-.928,7.381,7.381,0,0,0-.066-.928l2-1.563a.478.478,0,0,0,.114-.606L18.741,5.1a.476.476,0,0,0-.578-.208l-2.358.947a6.92,6.92,0,0,0-1.6-.928l-.36-2.51A.462.462,0,0,0,13.38,2H9.592a.462.462,0,0,0-.464.4l-.36,2.51a7.277,7.277,0,0,0-1.6.928L4.808,4.889a.462.462,0,0,0-.578.208L2.336,8.374a.467.467,0,0,0,.114.606l2,1.563a7.512,7.512,0,0,0-.066.928,7.512,7.512,0,0,0,.066.928l-2,1.563a.478.478,0,0,0-.114.606l1.894,3.277a.476.476,0,0,0,.578.208l2.358-.947a6.92,6.92,0,0,0,1.6.928l.36,2.51a.462.462,0,0,0,.464.4H13.38a.462.462,0,0,0,.464-.4l.36-2.51a7.277,7.277,0,0,0,1.6-.928l2.358.947a.462.462,0,0,0,.578-.208l1.894-3.277a.478.478,0,0,0-.114-.606Zm-7.038,2.387A3.315,3.315,0,1,1,14.8,11.472,3.319,3.319,0,0,1,11.486,14.787Z" transform="translate(289.303 13.561)"/>
</svg>
