<svg xmlns="http://www.w3.org/2000/svg" viewBox="-652.313 1124.687 36.935 36.935">
  <defs>
    <style>
      .cls-1 {
        fill: #2d404e;
      }

      .cls-2 {
        fill: #48b19b;
      }

      .cls-3 {
        fill: #253744;
        opacity: 0.6;
      }
    </style>
  </defs>
  <g id="internet" transform="translate(-652.313 1124.687)">
    <circle id="Ellipse_59" data-name="Ellipse 59" class="cls-1" cx="18.468" cy="18.468" r="18.468"/>
    <path id="Path_314" data-name="Path 314" class="cls-2" d="M445.52,126.772a18.38,18.38,0,0,0-2.97-10.047,4.529,4.529,0,0,0-.856,2.528c.2.989,1.36,1.065,1.241,1.791s-.977-.208-2.032,1.7-.527,4.552.989,4.749A8.6,8.6,0,0,0,445.52,126.772Z" transform="translate(-408.585 -108.305)"/>
    <path id="Path_315" data-name="Path 315" class="cls-2" d="M317.751,8.92a18.388,18.388,0,0,1,5.905,2.81s-2.141-.353-2.953.372-1.994,2.441-2.953,0S317.751,8.92,317.751,8.92Z" transform="translate(-294.434 -8.277)"/>
    <path id="Path_316" data-name="Path 316" class="cls-2" d="M63.519,6.292A18.423,18.423,0,0,1,77.4,0s-1.253.759,1.121,2.045,1.286,1.88.791,2.275S77.965,3.529,77.4,2.737A5.036,5.036,0,0,0,72.59,1.385c-1.847.66-3.429,1.147-3.166,1.761s3.429-.573,4.617-.507.791.791-.33,1.649S72.458,6.2,73.645,6.86s2.638.726,2.968.33-.594-2.968,1.649-1.847,4.089,1.781,2.243,3.43-3.957,3.5-4.023,4.551.66,1.913.264,1.979-.759-.429-1.023-.792a2.421,2.421,0,0,0-2.078-.264c-.594.231-1.715,1.121-1.088,1.979s1.484.461,2.341.857,1.657,1.9,1.493,2.242-.9-.091-1.493-1.253-1.719-.4-2.508-.594a2.825,2.825,0,0,1-2.174-1.715c-.792-1.385-2.43-1.773-3.1-2.572C65.2,10.9,65.335,9.168,64.939,8.377A16.691,16.691,0,0,0,63.519,6.292Z" transform="translate(-58.937)"/>
    <path id="Path_317" data-name="Path 317" class="cls-2" d="M251.31,259.076a6.459,6.459,0,0,1,2.968,1.055,4.41,4.41,0,0,0,2.638,1.517c1.517.33,2.177,1.187,1.187,2.836a33.008,33.008,0,0,1-3.628,5.079c-.857.792-1.913,1.451-2.308,2.77s-.528,2.11.33,2.638c0,0-.461,1.121-1.517-.33s-.2-3.166,0-4.155.725-3.957.4-4.683-1.847-1.187-2.243-2.7S249.43,258.63,251.31,259.076Z" transform="translate(-231.062 -240.344)"/>
    <path id="Path_318" data-name="Path 318" class="cls-3" d="M74.98,5.41A18.468,18.468,0,0,1,101.1,31.527s8.379-11.08-3.484-22.942S74.98,5.41,74.98,5.41Z" transform="translate(-69.571 -0.001)"/>
  </g>
</svg>
