<svg xmlns="http://www.w3.org/2000/svg" viewBox="-767.78 371.533 38.684 38.733">
  <defs>
    <style>
      .cls-1 {
        fill: #f4f0d3;
      }

      .cls-2 {
        fill: #e8e4c8;
      }

      .cls-3 {
        fill: #efc75e;
      }

      .cls-4 {
        fill: #e3bd59;
      }

      .cls-5 {
        fill: #e2574c;
      }

      .cls-6 {
        fill: #fff;
      }
    </style>
  </defs>
  <g id="map" transform="translate(-768.102 371.533)">
    <path id="Path_185" data-name="Path 185" class="cls-1" d="M30.563,85.5c1.663.726,6.26,2.812,7.893,3.478.181.091.6.061.544-.333-.363-3.931-2.57-26.46-2.963-30.451-.061-.575-.242-.665-.665-.816-1.3-.484-4.445-1.6-5.746-2.056a1.412,1.412,0,0,0-1.21,0c-2.026.575-8.437,2.54-8.437,2.54s-6.683-2.026-8.769-2.6a1.416,1.416,0,0,0-1.21.03c-1.331.423-4.415,1.572-5.746,2.056a.863.863,0,0,0-.665.816C3.166,62.063.747,84.682.323,88.643c-.03.454.363.423.726.3,1.814-.726,6.411-2.722,8.044-3.387a1.3,1.3,0,0,1,1.21,0c1.845.756,7.257,3.205,9.042,3.931a1.313,1.313,0,0,0,1.21,0c1.784-.756,7.016-3.175,8.769-3.961A1.475,1.475,0,0,1,30.563,85.5Z" transform="translate(0 -50.904)"/>
    <path id="Path_186" data-name="Path 186" class="cls-2" d="M10.816,55.4a1.675,1.675,0,0,0-.816.121c-1.331.423-4.415,1.572-5.746,2.056a.863.863,0,0,0-.665.816C3.166,62.3.747,84.915.323,88.876c-.03.454.363.423.726.3,1.814-.726,6.411-2.722,8.044-3.387a1.318,1.318,0,0,1,.786-.121S10.816,55.4,10.816,55.4Zm18.053,0a2.818,2.818,0,0,0-.393.121c-2.026.6-8.195,2.48-8.467,2.57V89.844a1.616,1.616,0,0,0,.6-.151c1.784-.756,7.016-3.175,8.769-3.961a1.729,1.729,0,0,1,.423-.121Z" transform="translate(0 -51.137)"/>
    <path id="Path_187" data-name="Path 187" class="cls-3" d="M45.008,101.524,50.3,96.232l5.383,5.383c1.119-.514,2.208-1.028,3.084-1.421L39.444,80.9l9.374-9.374c-.968-.3-2.238-.665-3.447-1.028l-8.165,8.165-3.357-3.357c-.121,1.149-.272,2.54-.423,4.082L48.062,94.024l-6.139,6.139c.847.363,1.966.847,3.084,1.361Z" transform="translate(-30.563 -65.085)"/>
    <path id="Path_188" data-name="Path 188" class="cls-4" d="M41.077,129.083l.151-4.627-4.022,3.992-3.357-3.326c-.121,1.149-.272,2.54-.423,4.082l7.439,7.439.121-4.385-1.512-1.512Zm9.465,17.237,5.11,5.11c1.119-.514,2.208-1.028,3.084-1.421l-8.195-8.195Z" transform="translate(-30.563 -114.9)"/>
    <path id="Path_189" data-name="Path 189" class="cls-5" d="M209.974,0a8.782,8.782,0,0,1,8.769,8.8,11.145,11.145,0,0,1-.786,3.961c-1.784,4.143-6.078,8.528-7.5,9.949-.363.333-.514.393-.968-.03-1.452-1.421-5.685-5.746-7.469-9.858A12.793,12.793,0,0,1,201.2,8.8,8.782,8.782,0,0,1,209.974,0Z" transform="translate(-185.459)"/>
    <path id="Path_190" data-name="Path 190" class="cls-6" d="M260.879,55.138a4.536,4.536,0,1,0,4.536,4.536A4.53,4.53,0,0,0,260.879,55.138Zm0,7.258a2.722,2.722,0,1,1,2.722-2.722A2.71,2.71,0,0,1,260.879,62.4Z" transform="translate(-236.364 -50.905)"/>
  </g>
</svg>
