<svg xmlns="http://www.w3.org/2000/svg" viewBox="204 1745 51.787 41.286">
  <defs>
    <style>
      .cls-1 {
        fill: #ffda40;
      }

      .cls-1, .cls-2, .cls-3 {
        fill-rule: evenodd;
      }

      .cls-2 {
        opacity: 0.3;
      }

      .cls-3 {
        fill: #fff;
      }
    </style>
  </defs>
  <g id="partlycloudy" transform="translate(204 1745)">
    <path id="Path_62" data-name="Path 62" class="cls-1" d="M19.1,28.087A8.985,8.985,0,1,0,10.117,19.1,9,9,0,0,0,19.1,28.087ZM17.97,0h2.264V6.721H17.97V0ZM0,20.234V17.97H6.721v2.264ZM5.377,7.146,6.969,5.589l4,3.962L9.339,11.143,5.377,7.181V7.146ZM7.146,32.827,5.589,31.235l3.962-4,1.592,1.627L7.181,32.827ZM28.653,11.39,27.026,9.8l4-3.962,1.592,1.592L28.653,11.39Z"/>
    <path id="Path_63" data-name="Path 63" class="cls-2" d="M59.641,40.726h-.566a11.067,11.067,0,0,0-21.578,3.5l.071.424a7.565,7.565,0,0,0,1.238,15.034H60.277a9.491,9.491,0,0,0-.637-18.96Z" transform="translate(-17.333 -18.4)"/>
    <path id="Path_64" data-name="Path 64" class="cls-3" d="M59.641,38.726h-.566a11.067,11.067,0,0,0-21.578,3.5l.071.424a7.565,7.565,0,0,0,1.238,15.034H60.277a9.491,9.491,0,0,0-.637-18.96Z" transform="translate(-17.333 -17.289)"/>
  </g>
</svg>
