<svg xmlns="http://www.w3.org/2000/svg" viewBox="204 1745 32.615 32.827">
  <defs>
    <style>
      .cls-1 {
        fill: #ffda40;
        fill-rule: evenodd;
      }
    </style>
  </defs>
  <path id="Path_62" data-name="Path 62" class="cls-1" d="M19.1,28.087A8.985,8.985,0,1,0,10.117,19.1,9,9,0,0,0,19.1,28.087ZM17.97,0h2.264V6.721H17.97V0ZM0,20.234V17.97H6.721v2.264ZM5.377,7.146,6.969,5.589l4,3.962L9.339,11.143,5.377,7.181V7.146ZM7.146,32.827,5.589,31.235l3.962-4,1.592,1.627L7.181,32.827ZM28.653,11.39,27.026,9.8l4-3.962,1.592,1.592L28.653,11.39Z" transform="translate(204 1745)"/>
</svg>
