<svg xmlns="http://www.w3.org/2000/svg" viewBox="11 1745 38.824 38.824">
  <defs>
    <style>
      .cls-1 {
        fill: #ffda40;
        fill-rule: evenodd;
      }
    </style>
  </defs>
  <path id="Path_61" data-name="Path 61" class="cls-1" d="M19.412,28.559a8.877,8.877,0,0,0,8.86-9.114,8.959,8.959,0,0,0-8.86-9.21,9.178,9.178,0,1,0,0,18.357v-.032ZM18.229,0h2.239V6.844H18.229V0Zm20.6,18.229v2.239H31.981V18.229ZM31.469,5.98l1.6,1.6L29.1,11.609l-1.6-1.6,3.966-4V5.98ZM27.184,29.1l1.6-1.6,4,3.966-1.6,1.6-4-3.966ZM5.437,7.356l1.6-1.6,4,3.966-1.6,1.6-4-3.966ZM9.722,27.823l1.6,1.6-3.966,4-1.6-1.6,3.966-4ZM6.844,18.229v2.239H0V18.229ZM18.229,31.981h2.239v6.844H18.229V31.981Z" transform="translate(11 1745)"/>
</svg>
