<svg xmlns="http://www.w3.org/2000/svg" viewBox="-763 915.478 41.522 41.522">
  <defs>
    <style>
      .cls-1 {
        fill: #4f5565;
      }

      .cls-2 {
        fill: #71d456;
      }

      .cls-3 {
        fill: #fcfcfd;
      }

      .cls-4 {
        fill: #f7cfa2;
      }

      .cls-5 {
        fill: #6eb1e1;
      }
    </style>
  </defs>
  <g id="payment" transform="translate(-763 915.478)">
    <circle id="Ellipse_53" data-name="Ellipse 53" class="cls-1" cx="20.761" cy="20.761" r="20.761" transform="translate(0 0)"/>
    <path id="Path_198" data-name="Path 198" class="cls-2" d="M212.49,72.66c0-7.906-2.433-15.481-3.621-23.221a30.766,30.766,0,0,1,16.449,0C224.1,57.179,221.7,64.753,221.7,72.66Z" transform="translate(-191.839 -44.379)"/>
    <path id="Path_199" data-name="Path 199" class="cls-3" d="M235.971,85.276a163.107,163.107,0,0,0-2.35-16.891,2.5,2.5,0,0,0,2.35-2.46,32.951,32.951,0,0,1,7.74,0,2.483,2.483,0,0,0,2.35,2.46,163.115,163.115,0,0,0-2.35,16.891,1.874,1.874,0,0,0-1.631,2.018H237.6A1.914,1.914,0,0,0,235.971,85.276Z" transform="translate(-214.574 -60.34)"/>
    <g id="Group_301" data-name="Group 301" transform="translate(21.275 7.492)">
      <path id="Path_200" data-name="Path 200" class="cls-2" d="M264.906,157.541c-1.852,0-3.594-1.8-3.926-4.036a3.943,3.943,0,1,1,7.851,0C268.5,155.744,266.758,157.541,264.906,157.541Z" transform="translate(-260.941 -144.52)"/>
      <path id="Path_201" data-name="Path 201" class="cls-2" d="M296.793,93.906a1.08,1.08,0,0,1-1.133-1,1.067,1.067,0,0,1,1.133-1.023,1.05,1.05,0,0,1,1.133,1.023A1.08,1.08,0,0,1,296.793,93.906Z" transform="translate(-292.828 -91.888)"/>
      <path id="Path_202" data-name="Path 202" class="cls-2" d="M301.164,284.721c-.415,0-.746-.415-.746-.968a.772.772,0,1,1,.746.968Z" transform="translate(-297.199 -267.222)"/>
    </g>
    <path id="Path_203" data-name="Path 203" class="cls-3" d="M269.537,183.129a1.656,1.656,0,0,0,1.52-1.714.708.708,0,0,1,.691-.719.677.677,0,0,1,.663.746.785.785,0,0,1-.249.525.514.514,0,0,0-.055.691.392.392,0,0,0,.608.028,1.507,1.507,0,0,0,.47-.746h.332a.508.508,0,0,0,.5-.47.432.432,0,0,0-.415-.5h-.332a1.6,1.6,0,0,0-1.52-1.272,1.621,1.621,0,0,0-1.631,1.714.711.711,0,0,1-.664.746.751.751,0,0,1-.719-.719.73.73,0,0,1,.193-.525.511.511,0,0,0-.028-.691.451.451,0,0,0-.663,0,2.651,2.651,0,0,0-.332.746h-.332a.446.446,0,0,0-.415.5.508.508,0,0,0,.5.47h.3A1.831,1.831,0,0,0,269.537,183.129Z" transform="translate(-245.375 -165.049)"/>
    <path id="Path_204" data-name="Path 204" class="cls-4" d="M148.222,234.814h0a2.1,2.1,0,0,0-2.1-2.1h-.332a2.1,2.1,0,0,0,2.1-2.156,2.14,2.14,0,0,0-2.184-2.018H134.621l-.387-2.377-5.557,5.944h-3.9V243.19h1.465a4.52,4.52,0,0,1,2.571.829h0a6.553,6.553,0,0,0,3.87,1.272h12.689a2.14,2.14,0,0,0,2.184-2.018,2.1,2.1,0,0,0-2.1-2.156h.249a2.14,2.14,0,0,0,2.184-2.018,2.1,2.1,0,0,0-2.1-2.156h.332A2.179,2.179,0,0,0,148.222,234.814Z" transform="translate(-114.606 -207.722)"/>
    <path id="Path_205" data-name="Path 205" class="cls-5" d="M11.373,308.2h2.156V294.654H3.052A20.9,20.9,0,0,0,11.373,308.2Z" transform="translate(-2.803 -270.631)"/>
  </g>
</svg>
