<svg xmlns="http://www.w3.org/2000/svg" viewBox="-654.509 916.149 40.25 40.291">
  <defs>
    <style>
      .cls-1 {
        fill: #f1543f;
      }

      .cls-2 {
        fill: #40596b;
      }

      .cls-3 {
        fill: #ff7058;
      }

      .cls-4 {
        fill: #ffd15c;
      }

      .cls-5 {
        fill: #f8b64c;
      }
    </style>
  </defs>
  <g id="piggy-bank" transform="translate(-654.77 916.149)">
    <g id="Group_299" data-name="Group 299" transform="translate(10.04 20.985)">
      <path id="Path_191" data-name="Path 191" class="cls-1" d="M441.412,261.9v.839a.793.793,0,0,1-.839.839h-3.022v1.259h3.442a1.684,1.684,0,0,0,1.679-1.679V261.9a.662.662,0,0,0-.672-.672h0A.6.6,0,0,0,441.412,261.9Z" transform="translate(-412.201 -261.225)"/>
      <path id="Path_192" data-name="Path 192" class="cls-1" d="M128.791,437.988a3.372,3.372,0,0,1-3.358,3.022h-.084a3.368,3.368,0,0,1-3.358-3.358v-1.931A22.379,22.379,0,0,0,128.791,437.988Z" transform="translate(-121.992 -421.704)"/>
    </g>
    <path id="Path_193" data-name="Path 193" class="cls-2" d="M68.955,121.739a17.876,17.876,0,0,1,6.463-2.182L70.8,114.94a6.985,6.985,0,0,0-2.1,5.036C68.787,120.48,68.871,121.151,68.955,121.739Z" transform="translate(-62.944 -105.706)"/>
    <g id="Group_300" data-name="Group 300" transform="translate(0.261 20.22)">
      <path id="Path_194" data-name="Path 194" class="cls-1" d="M1.143,251.965c-1.175,1.175-1.175,5.708,0,6.883.588.588,3.358,0,3.358,0v-6.883C4.416,251.965,1.73,251.378,1.143,251.965Z" transform="translate(-0.261 -251.704)"/>
      <path id="Path_195" data-name="Path 195" class="cls-1" d="M297.019,435.722v1.931a3.368,3.368,0,0,1-3.358,3.358h-.084a3.372,3.372,0,0,1-3.358-3.022A21.633,21.633,0,0,0,297.019,435.722Z" transform="translate(-266.927 -420.939)"/>
    </g>
    <ellipse id="Ellipse_49" data-name="Ellipse 49" class="cls-3" cx="17.628" cy="13.598" rx="17.628" ry="13.598" transform="translate(2.57 10.325)"/>
    <circle id="Ellipse_50" data-name="Ellipse 50" class="cls-2" cx="1.007" cy="1.007" r="1.007" transform="translate(6.934 19.138)"/>
    <path id="Path_196" data-name="Path 196" class="cls-1" d="M183.815,171.363h-11a.662.662,0,0,0-.672.672h0a.662.662,0,0,0,.672.672h11a.6.6,0,0,0,.588-.672h0A.649.649,0,0,0,183.815,171.363Z" transform="translate(-158.078 -157.597)"/>
    <circle id="Ellipse_51" data-name="Ellipse 51" class="cls-4" cx="7.219" cy="7.219" r="7.219" transform="translate(12.978 0)"/>
    <circle id="Ellipse_52" data-name="Ellipse 52" class="cls-5" cx="5.456" cy="5.456" r="5.456" transform="translate(14.741 1.763)"/>
    <path id="Path_197" data-name="Path 197" class="cls-4" d="M217.795,38.231a1.582,1.582,0,0,1-.336-.755l-1.427.168a2.4,2.4,0,0,0,.755,1.595,2.5,2.5,0,0,0,1.511.672v.672h.755v-.755a2.147,2.147,0,0,0,1.595-.839,2.216,2.216,0,0,0,.588-1.595,1.975,1.975,0,0,0-.5-1.427,4.245,4.245,0,0,0-1.763-.923V33.111a1.154,1.154,0,0,1,.672.839l1.343-.168a2.31,2.31,0,0,0-.672-1.259,2.213,2.213,0,0,0-1.343-.588v-.588h-.755v.5a2.5,2.5,0,0,0-1.511.672,2.413,2.413,0,0,0-.588,1.511,2.344,2.344,0,0,0,.5,1.511,3.321,3.321,0,0,0,1.511.923v2.266A1.291,1.291,0,0,1,217.795,38.231Zm1.259-1.511a1.036,1.036,0,0,1,.672.42,1.777,1.777,0,0,1,.252.588.953.953,0,0,1-.252.672,1.036,1.036,0,0,1-.672.336Zm-1.259-2.182a1.193,1.193,0,0,1-.168-.5,1.556,1.556,0,0,1,.168-.588.771.771,0,0,1,.5-.336v1.847A.86.86,0,0,1,217.795,34.538Z" transform="translate(-198.437 -28.83)"/>
  </g>
</svg>
