<svg xmlns="http://www.w3.org/2000/svg" viewBox="-767 171.719 40.83 33.667">
  <defs>
    <style>
      .cls-1 {
        fill: #f3d55c;
      }

      .cls-2 {
        fill: #f0c41b;
      }

      .cls-3 {
        fill: #f5f1e2;
      }

      .cls-4 {
        fill: #d6d0bb;
      }
    </style>
  </defs>
  <g id="record" transform="translate(-767 166.719)">
    <path id="XMLID_97_" class="cls-1" d="M16.475,10.73,14.326,5H0V38.667H34.383V10.73Z"/>
    <path id="XMLID_111_" class="cls-2" d="M48,17h6.447l-6.4,24.9A.023.023,0,0,1,48,41.894Z" transform="translate(-13.617 -3.404)"/>
    <rect id="XMLID_110_" class="cls-3" width="15.759" height="9.312" transform="translate(4.298 25.057)"/>
    <path id="XMLID_109_" class="cls-4" d="M16.163,42.433H9.716a.716.716,0,1,1,0-1.433h6.447a.716.716,0,1,1,0,1.433" transform="translate(-2.553 -10.213)"/>
    <path id="XMLID_108_" class="cls-4" d="M12.582,37.433H9.716a.716.716,0,1,1,0-1.433h2.865a.716.716,0,1,1,0,1.433" transform="translate(-2.553 -8.794)"/>
    <path id="XMLID_107_" class="cls-4" d="M23.149,37.433H21.716a.716.716,0,1,1,0-1.433h1.433a.716.716,0,1,1,0,1.433" transform="translate(-5.957 -8.794)"/>
    <path id="XMLID_106_" class="cls-4" d="M22.716,42.436A.721.721,0,0,1,22,41.72a.734.734,0,0,1,.208-.509.719.719,0,1,1,.509,1.225" transform="translate(-6.241 -10.216)"/>
    <path id="XMLID_105_" class="cls-4" d="M17.716,37.436a.718.718,0,1,1,.509-1.225.737.737,0,0,1,.208.509.709.709,0,0,1-.716.716" transform="translate(-4.823 -8.798)"/>
  </g>
</svg>
