<svg xmlns="http://www.w3.org/2000/svg" viewBox="-761.284 1121.948 40.477 43.175">
  <defs>
    <style>
      .cls-1 {
        fill: #efefef;
      }

      .cls-2 {
        fill: #efc75e;
      }

      .cls-3 {
        fill: #d3d6d8;
      }

      .cls-4 {
        fill: #d7b354;
      }
    </style>
  </defs>
  <g id="sim-card" transform="translate(-777.038 1121.948)">
    <path id="Path_181" data-name="Path 181" class="cls-1" d="M42.671,0a3.449,3.449,0,0,0-2.429,1.012L16.766,24.387a3.468,3.468,0,0,0-1.012,2.462,3.528,3.528,0,0,0,1.012,2.462L29.685,42.163a3.42,3.42,0,0,0,4.857,0L55.219,21.588a3.528,3.528,0,0,0,1.012-2.462V14.032a3.452,3.452,0,0,0-.944-2.395L45.167,1.046A3.579,3.579,0,0,0,42.671,0Z" transform="translate(0)"/>
    <path id="Path_182" data-name="Path 182" class="cls-2" d="M131.415,167.613l-11.232,11.4a1.771,1.771,0,0,1-2.53,0l-6.746-6.881a1.812,1.812,0,0,1,0-2.564l11.232-11.4a1.771,1.771,0,0,1,2.53,0l6.746,6.881A1.812,1.812,0,0,1,131.415,167.613Z" transform="translate(-86.518 -144.136)"/>
    <path id="Path_183" data-name="Path 183" class="cls-3" d="M307.4,79.72c.2-.236.54-.135.776.1.3.3.337.641.54.843a.531.531,0,0,0,.742-.034c.4-.4-.2-1.248-.506-1.552a1.668,1.668,0,0,0-2.462-.1c-1.214,1.214.911,2.6.27,3.2a.643.643,0,0,1-.978-.067c-.337-.337-.438-.843-.675-1.079a.49.49,0,0,0-.708.034c-.472.506.27,1.45.675,1.855a1.747,1.747,0,0,0,2.53.135C308.949,81.677,306.891,80.26,307.4,79.72Zm3.845,1.754a.551.551,0,0,0-.81,0l-2.968,2.968a.526.526,0,0,0,0,.81.551.551,0,0,0,.81,0l2.968-2.968A.526.526,0,0,0,311.242,81.474Zm4.621,4.621a.779.779,0,0,0-.911-.135l-2.665,1.45,1.45-2.7a.845.845,0,0,0-.135-.911.729.729,0,0,0-.911-.1l-3.373,2.429c-.034.034-.067.067-.1.067a.5.5,0,0,0,0,.742c.27.27.472.236.776.034l2.429-1.821-1.552,2.833a.6.6,0,0,0,.81.81l2.8-1.552-1.821,2.429a.514.514,0,0,0,.034.776.5.5,0,0,0,.742,0c.034-.034.068-.067.068-.1l2.429-3.407C316.133,86.8,316.133,86.365,315.863,86.1Z" transform="translate(-263.782 -71.76)"/>
    <path id="Path_184" data-name="Path 184" class="cls-4" d="M131.055,164.959l-1.821-1.855-.438-.438-4.52-4.587a1.709,1.709,0,0,0-1.282-.54,1.761,1.761,0,0,0-1.282.54l-1.282,1.282-.911.911-2.732,2.766-.169.169-3.44,3.575-.911.911-1.754,1.754a1.812,1.812,0,0,0,0,2.563l1.788,1.821.472.472,2.294,2.327.911.911,1.315,1.349a1.709,1.709,0,0,0,1.282.54,1.761,1.761,0,0,0,1.282-.54l1.72-1.754.911-.911,8.568-8.7a1.812,1.812,0,0,0,0-2.564Zm-10.76-3.946,1.889,1.923-2.732,2.8-1.889-1.923Zm-3.677,3.71,1.889,1.923-2.732,2.8-1.889-1.923Zm-5.363,5.464,1.72-1.754,1.889,1.923-2.294,2.327-1.349-1.349A.872.872,0,0,1,111.255,170.187Zm2.26,3.44,10.49-10.693-.472-.472-2.327-2.395,1.282-1.315a.8.8,0,0,1,.54-.236.671.671,0,0,1,.54.236l4.52,4.621-12.312,12.548Zm12.75-6.51,1.889,1.923-2.732,2.766-1.889-1.923Zm-7.151,11.1a.8.8,0,0,1-.54.236.671.671,0,0,1-.54-.236l-1.349-1.349,2.294-2.327,1.889,1.923Zm.776-4.621,2.732-2.8,1.889,1.923-2.732,2.766Zm10.456-6.78-1.282,1.282-1.889-1.923L129,164.318l1.315,1.349A.805.805,0,0,1,130.347,166.814Z" transform="translate(-86.158 -144.046)"/>
  </g>
</svg>
