<svg xmlns="http://www.w3.org/2000/svg" viewBox="112.294 1745.433 34.672 38.392">
  <defs>
    <style>
      .cls-1 {
        fill: #00acf4;
        fill-rule: evenodd;
      }
    </style>
  </defs>
  <path id="snow" class="cls-1" d="M92.558,79.117l-1.29-2.232-4.216,2.48L79.364,74.9,87,70.437l4.167,2.48,1.289-2.232L89.483,69l4.464-2.579-1.24-2.233-4.464,2.629V63.443H85.664V68.3l-7.688,4.464V63.84l4.265-2.381-1.289-2.232-2.976,1.687V55.705H75.5v5.159l-2.976-1.686L71.23,61.409l4.216,2.48v8.681l-7.689-4.464V63.294h-2.48v3.373l-4.464-2.53-1.339,2.282L63.938,69l-2.976,1.686,1.34,2.232,4.216-2.48L74.156,74.9l-7.589,4.464L62.3,76.885l-1.19,2.232L64.087,80.8l-4.464,2.579,1.24,2.232,4.464-2.579v3.472h2.579v-4.96l7.689-4.365v8.779l-4.216,2.481,1.289,2.182,2.976-1.686V94.1h2.48V88.938L81.1,90.625l1.289-2.232-4.265-2.48V77.084l7.689,4.464v4.811h2.579V82.887l4.464,2.629,1.29-2.232L89.682,80.7" transform="translate(52.82 1689.728)"/>
</svg>
