<svg xmlns="http://www.w3.org/2000/svg" viewBox="-551.602 169.809 39.06 39.06">
  <defs>
    <style>
      .cls-1 {
        fill: #2ea9d3;
      }

      .cls-2 {
        fill: #fff;
      }

      .cls-3 {
        fill: #efc75e;
      }

      .cls-4 {
        fill: #47bfe8;
      }
    </style>
  </defs>
  <g id="temperature" transform="translate(-551.602 169.808)">
    <path id="Path_172" data-name="Path 172" class="cls-1" d="M19.53,0A19.53,19.53,0,1,1,0,19.531,19.548,19.548,0,0,1,19.53,0Z" transform="translate(0 0)"/>
    <path id="Path_173" data-name="Path 173" class="cls-2" d="M83.012,171.915H80.937c.976-1.16,2.716-2.685,2.716-4.211a2.33,2.33,0,0,0-2.533-2.289,2.6,2.6,0,0,0-2.655,2.472.761.761,0,0,0,.824.793c1.1,0,.458-1.77,1.77-1.77a.847.847,0,0,1,.824.854,1.649,1.649,0,0,1-.4,1.007,41.85,41.85,0,0,1-2.838,3.265.865.865,0,0,0-.275.549c0,.519.4.732.885.732h3.784a.729.729,0,0,0,.824-.732C83.9,172.129,83.5,171.915,83.012,171.915Zm6.1-2.9a1.814,1.814,0,0,0,.854-1.526,2.438,2.438,0,0,0-4.821,0A1.807,1.807,0,0,0,86,169.016a2.076,2.076,0,0,0-1.19,1.892,2.765,2.765,0,0,0,5.493,0A2.008,2.008,0,0,0,89.116,169.016Zm-1.556-2.167a.785.785,0,0,1,.824.824.769.769,0,0,1-.824.824.825.825,0,0,1,0-1.648Zm0,5a.992.992,0,0,1-1.007-1.068.978.978,0,0,1,1.007-1.068.963.963,0,0,1,1.007,1.068A1.01,1.01,0,0,1,87.559,171.854Zm5.493-6.439a1.831,1.831,0,1,0,1.831,1.831A1.836,1.836,0,0,0,93.052,165.415Zm0,2.441a.61.61,0,1,1,.61-.61A.612.612,0,0,1,93.052,167.856Z" transform="translate(-72.302 -152.598)"/>
    <path id="Path_174" data-name="Path 174" class="cls-3" d="M332.015,23.289a19.62,19.62,0,0,0-12.206-11.474,8.675,8.675,0,0,0-.793,3.662,8.856,8.856,0,0,0,8.849,8.849A8.717,8.717,0,0,0,332.015,23.289Z" transform="translate(-294.298 -10.899)"/>
    <path id="Path_175" data-name="Path 175" class="cls-4" d="M271.954,256h-.061a7.5,7.5,0,0,0-6.073,3.052c-.122.153,1.5,1.77,1.373,3.448a6.615,6.615,0,0,0-12.389,3.265,7.153,7.153,0,0,0,.549,2.685,4.254,4.254,0,0,0-1.922,6.744A19.539,19.539,0,0,0,271.954,256Z" transform="translate(-232.895 -236.164)"/>
    <path id="Path_176" data-name="Path 176" class="cls-2" d="M56.325,384.193a6.747,6.747,0,0,0-5.035-5.92,3.591,3.591,0,0,0-.61-.122,3.756,3.756,0,0,0-.61-.061h-.458a5.558,5.558,0,0,0-3.113,1.129,4.4,4.4,0,0,1,2.411-2.045l-.244-.275a7.185,7.185,0,0,0-1.129-1.007c-.336-.244-.7-.488-1.068-.7a9.163,9.163,0,0,0-1.709-.7l-.458-.122-.458-.092a7.374,7.374,0,0,0-1.434-.122,9.454,9.454,0,0,0-1.648.153c-.275.061-.58.153-.885.244-.427.153-.854.336-1.282.519a19.5,19.5,0,0,0,16.539,9.155c.4,0,.794,0,1.19-.031Z" transform="translate(-35.605 -345.163)"/>
  </g>
</svg>
