<svg xmlns="http://www.w3.org/2000/svg" viewBox="-659.326 170.158 38.403 35.842">
  <defs>
    <style>
      .cls-1 {
        fill: #ece7ea;
      }

      .cls-2 {
        fill: #f14742;
      }

      .cls-3 {
        fill: #1b4145;
      }

      .cls-4 {
        fill: #d6ced1;
      }

      .cls-5 {
        fill: #8b7e7f;
      }
    </style>
  </defs>
  <g id="text-lines" transform="translate(-659.326 153.09)">
    <path id="Path_113" data-name="Path 113" class="cls-1" d="M38.4,52.907V84.482H0V52.907L19.2,51.2Z" transform="translate(0 -31.573)"/>
    <path id="Path_114" data-name="Path 114" class="cls-2" d="M427.805,17.067v4.267h-4.267l-2.56-2.134,2.56-2.133Z" transform="translate(-389.402)"/>
    <rect id="Rectangle_137" data-name="Rectangle 137" class="cls-3" width="34.136" height="4.267" transform="translate(0 17.067)"/>
    <path id="Path_115" data-name="Path 115" class="cls-4" d="M88.536,243.058H60.374a.64.64,0,1,1,0-1.28H88.536a.64.64,0,1,1,0,1.28Z" transform="translate(-55.254 -207.856)"/>
    <g id="Group_287" data-name="Group 287" transform="translate(4.48 37.335)">
      <path id="Path_116" data-name="Path 116" class="cls-5" d="M72.748,288.57H60.374a.64.64,0,0,1,0-1.28H72.748a.64.64,0,0,1,0,1.28Z" transform="translate(-59.734 -287.29)"/>
      <path id="Path_117" data-name="Path 117" class="cls-5" d="M72.748,334.081H60.374a.64.64,0,1,1,0-1.28H72.748a.64.64,0,1,1,0,1.28Z" transform="translate(-59.734 -329.387)"/>
      <path id="Path_118" data-name="Path 118" class="cls-5" d="M72.748,379.592H60.374a.64.64,0,0,1,0-1.28H72.748a.64.64,0,1,1,0,1.28Z" transform="translate(-59.734 -371.485)"/>
    </g>
    <rect id="Rectangle_138" data-name="Rectangle 138" class="cls-2" width="12.374" height="10.241" transform="translate(20.908 37.975)"/>
    <g id="Group_288" data-name="Group 288" transform="translate(4.48 25.387)">
      <path id="Path_119" data-name="Path 119" class="cls-5" d="M72.748,425.1H60.374a.64.64,0,1,1,0-1.28H72.748a.64.64,0,1,1,0,1.28Z" transform="translate(-59.734 -401.635)"/>
      <path id="Path_120" data-name="Path 120" class="cls-5" d="M364.843,134.4a2.331,2.331,0,0,1-2.345-1.316.64.64,0,0,1,1.2-.436c.1.282.561.472,1.141.472.434,0,1.168-.135,1.168-.641,0-.346-.158-.466-1.272-.648a4.728,4.728,0,0,1-1.438-.391,1.624,1.624,0,0,1-.907-1.519c0-1.131,1.007-1.921,2.448-1.921a2.332,2.332,0,0,1,2.345,1.316.64.64,0,1,1-1.2.436c-.1-.282-.561-.472-1.141-.472-.434,0-1.168.135-1.168.641,0,.346.158.465,1.271.647a4.73,4.73,0,0,1,1.438.392,1.625,1.625,0,0,1,.907,1.52C367.291,133.611,366.284,134.4,364.843,134.4Z" transform="translate(-339.693 -128)"/>
      <path id="Path_121" data-name="Path 121" class="cls-5" d="M263.6,134.4a.64.64,0,0,1-.571-.351l-.727-1.434-.727,1.434a.64.64,0,0,1-1.191-.132l-1.3-5.12a.64.64,0,0,1,1.241-.314l.878,3.465.525-1.037a.64.64,0,0,1,1.142,0l.525,1.037.878-3.465a.64.64,0,0,1,1.241.314l-1.3,5.12a.64.64,0,0,1-.55.479A.629.629,0,0,1,263.6,134.4Z" transform="translate(-244.117 -127.999)"/>
      <path id="Path_122" data-name="Path 122" class="cls-5" d="M180.976,134.4h-3.617a.64.64,0,0,1-.64-.64v-5.12a.64.64,0,0,1,.64-.64h3.617a.64.64,0,0,1,0,1.28H178v3.84h2.977a.64.64,0,0,1,0,1.28Z" transform="translate(-167.945 -128)"/>
      <path id="Path_123" data-name="Path 123" class="cls-5" d="M179.77,163.414h-2.411a.64.64,0,0,1,0-1.28h2.411a.64.64,0,0,1,0,1.28Z" transform="translate(-167.945 -159.574)"/>
      <path id="Path_124" data-name="Path 124" class="cls-5" d="M89.328,134.4a.64.64,0,0,1-.487-.224l-3.244-3.8v3.385a.64.64,0,0,1-1.28,0v-5.12a.64.64,0,0,1,1.127-.416l3.244,3.8v-3.385a.64.64,0,1,1,1.28,0v5.12a.64.64,0,0,1-.64.64Z" transform="translate(-82.473 -127.998)"/>
    </g>
  </g>
</svg>
