<svg xmlns="http://www.w3.org/2000/svg" viewBox="288 607.5 22 22.5">
  <defs>
    <style>
      .cls-1 {
        fill: none;
        stroke: #9a9a9a;
      }

      .cls-2 {
        fill: #fff;
      }
    </style>
  </defs>
  <g id="аккаунт" transform="translate(-27 -1)">
    <path id="ic_person_add_24px" class="cls-1" d="M17,14a5.307,5.307,0,0,0,2.351-.586A4.881,4.881,0,0,0,22,9a5,5,0,1,0-5,5Zm-.211,2.189c-1.7,0-4.058-.254-6.449.735A5.855,5.855,0,0,0,7,21.5V24h.85l9.684-.118L27,23.122V21.5a5.375,5.375,0,0,0-2.3-4.055C22.722,16.2,18.952,16.189,16.789,16.189Z" transform="translate(309 605)"/>
    <rect id="Rectangle_81" data-name="Rectangle 81" class="cls-2" width="22" height="4" transform="translate(315 627)"/>
  </g>
</svg>
