<svg xmlns="http://www.w3.org/2000/svg" xmlns:xlink="http://www.w3.org/1999/xlink" width="15.562" height="9" viewBox="0 0 15.562 9">
  <defs>
    <style>
      .cls-1 {
        fill: #fff;
        fill-rule: evenodd;
        filter: url(#filter);
      }
    </style>
    <filter id="filter" x="688.188" y="301.188" width="15.562" height="9" filterUnits="userSpaceOnUse">
      <feFlood result="flood" flood-color="#fff"/>
      <feComposite result="composite" operator="in" in2="SourceGraphic"/>
      <feBlend result="blend" in2="SourceGraphic"/>
    </filter>
  </defs>
  <path id="Фигура_1" data-name="Фигура 1" class="cls-1" d="M695.8,310.053h0.931a0.787,0.787,0,0,0,.425-0.186,0.683,0.683,0,0,0,.128-0.409s-0.018-1.251.561-1.435,1.3,1.209,2.083,1.743a1.47,1.47,0,0,0,1.035.316l2.08-.029s1.087-.067.571-0.924a6.946,6.946,0,0,0-1.546-1.791c-1.3-1.212-1.129-1.016.442-3.113,0.956-1.277,1.339-2.056,1.219-2.39a0.906,0.906,0,0,0-.817-0.234l-2.342.014a0.534,0.534,0,0,0-.3.054,0.652,0.652,0,0,0-.207.251,13.526,13.526,0,0,1-.865,1.829c-1.042,1.773-1.459,1.866-1.629,1.756-0.4-.256-0.3-1.031-0.3-1.581,0-1.718.26-2.434-.507-2.62a4.024,4.024,0,0,0-1.092-.109,5.06,5.06,0,0,0-1.943.2c-0.267.131-.472,0.422-0.347,0.439a1.048,1.048,0,0,1,.691.348,2.262,2.262,0,0,1,.231,1.061s0.139,2.023-.321,2.274c-0.316.172-.749-0.18-1.678-1.788a14.835,14.835,0,0,1-.836-1.735,0.692,0.692,0,0,0-.193-0.261,0.961,0.961,0,0,0-.36-0.146l-2.225.015a0.752,0.752,0,0,0-.456.155,0.483,0.483,0,0,0-.009.4,25.378,25.378,0,0,0,3.714,6.138A5.338,5.338,0,0,0,695.8,310.053Z" transform="translate(-688.188 -301.188)"/>
</svg>
