<svg width="227" height="44" viewBox="0 0 227 44" fill="none" xmlns="http://www.w3.org/2000/svg">
<path d="M22.5009 22.9376C22.5009 26.3184 21.4928 29.1661 19.4692 31.4714C17.3575 33.8867 14.6136 35.0993 11.2547 35.0993C7.88689 35.0993 5.15187 33.8867 3.0401 31.4714C1.01573 29.1661 0 26.3184 0 22.9376C0 19.5475 1.01573 16.7007 3.0401 14.4038C5.17531 12.011 7.91932 10.8152 11.2547 10.8152C14.6136 10.8152 17.3575 12.011 19.4692 14.4038C21.4928 16.7007 22.5009 19.5475 22.5009 22.9376ZM15.8133 22.9376C15.8133 21.4063 15.4457 20.1138 14.7098 19.0688C13.8864 17.881 12.7341 17.2909 11.2547 17.2909C9.77471 17.2909 8.62288 17.881 7.79867 19.0688C7.05514 20.1138 6.68718 21.4063 6.68718 22.9376C6.68718 24.4604 7.05514 25.7685 7.79867 26.8449C8.62288 28.0327 9.77471 28.6237 11.2547 28.6237C12.7341 28.6237 13.8864 28.0327 14.7098 26.8449C15.4457 25.7685 15.8133 24.4604 15.8133 22.9376ZM46.6813 22.9376C46.6813 26.0956 45.7693 28.8549 43.9374 31.2155C41.9777 33.7992 39.4501 35.0993 36.3785 35.0993C34.2105 35.0993 32.3714 34.4694 30.8675 33.2255C30.8675 33.5119 30.8995 34.2059 30.9637 35.3155C31.0276 36.4308 31.0591 37.3401 31.0591 38.0579C31.0591 42.0227 29.8753 44 27.5083 44C26.54 44 25.7485 43.657 25.1163 42.9788C24.4925 42.2937 24.1803 41.4706 24.1803 40.4989V14.715C24.1803 13.7739 24.5005 12.9601 25.1403 12.2749C25.78 11.5968 26.5723 11.2546 27.5162 11.2546C28.9394 11.2546 29.9795 11.9628 30.6357 13.3756C32.0353 11.6689 33.9472 10.8152 36.3705 10.8152C39.4501 10.8152 41.9697 12.0905 43.9374 14.6514C45.7613 17.0203 46.6813 19.7796 46.6813 22.9376ZM39.9936 22.9376C39.9936 21.4063 39.6186 20.1138 38.8826 19.0688C38.0579 17.881 36.9066 17.2909 35.4266 17.2909C33.9472 17.2909 32.7953 17.881 31.9711 19.0688C31.2351 20.1138 30.8675 21.4063 30.8675 22.9376C30.8675 24.4604 31.2351 25.7685 31.9711 26.8449C32.7953 28.0327 33.9472 28.6237 35.4266 28.6237C36.9066 28.6237 38.0579 28.0327 38.8826 26.8449C39.6186 25.7685 39.9936 24.4604 39.9936 22.9376ZM71.0133 22.2206C71.0133 23.3359 70.7491 24.1016 70.221 24.533C69.6935 24.9551 68.8697 25.1704 67.7578 25.1704H55.6873C55.6873 26.4466 56.2876 27.4271 57.4873 28.1123C58.4551 28.6476 59.6389 28.9195 61.0386 28.9195C62.1271 28.9195 63.4306 28.5592 64.9583 27.8506C66.4862 27.1322 67.4696 26.7808 67.8943 26.7808C68.6697 26.7808 69.3254 27.0602 69.8694 27.6344C70.405 28.2011 70.6777 28.8868 70.6777 29.6766C70.6777 31.5019 69.31 32.9231 66.5735 33.9433C64.4862 34.7085 62.3665 35.0993 60.1993 35.0993C56.7118 35.0993 53.8961 33.9433 51.7445 31.639C49.5924 29.3336 48.5132 26.4386 48.5132 22.9376C48.5132 19.6032 49.6327 16.7564 51.8721 14.3808C54.1036 12.003 56.8799 10.8152 60.1909 10.8152C63.2705 10.8152 65.846 11.9398 67.9102 14.1886C69.9732 16.4381 71.0133 19.1174 71.0133 22.2206ZM64.3265 20.5448C64.2942 19.5236 63.8225 18.5988 62.9105 17.7607C61.9985 16.9239 61.0311 16.5098 60.0069 16.5098C58.9513 16.5098 57.9671 16.9239 57.0554 17.7607C56.1439 18.5988 55.6873 19.5236 55.6873 20.5448H64.3265ZM93.4816 31.1589C93.4816 32.1327 93.17 32.9536 92.5467 33.6396C91.9144 34.3182 91.1222 34.6612 90.1545 34.6612C87.8189 34.6612 86.6506 32.8108 86.6506 29.1184C86.6506 28.4085 86.6989 27.2923 86.7947 25.753C86.8989 24.2213 86.9472 23.0972 86.9472 22.3872C86.9472 18.4707 85.6752 16.5098 83.1396 16.5098C80.6036 16.5098 79.3401 18.4707 79.3401 22.3872C79.3401 23.0972 79.38 24.2213 79.4518 25.753C79.532 27.2923 79.5719 28.4085 79.5719 29.1184C79.5719 32.8108 78.4201 34.6612 76.1168 34.6612C75.1485 34.6612 74.3571 34.3182 73.7328 33.6396C73.1011 32.9536 72.789 32.1327 72.789 31.1589V14.708C72.789 13.7412 73.1011 12.9212 73.7328 12.2589C74.3571 11.5888 75.157 11.2546 76.1248 11.2546C77.7244 11.2546 78.8359 11.9628 79.4597 13.3756C80.5398 11.6689 82.4511 10.8152 85.187 10.8152C87.7226 10.8152 89.7386 11.4845 91.2185 12.8164C92.7302 14.2451 93.4816 16.2061 93.4816 18.7027V31.1589ZM114.462 30.4502C114.462 31.9572 113.48 33.153 111.511 34.0313C109.952 34.7401 108.258 35.1044 106.544 35.0993C103.176 35.0993 100.441 33.8867 98.3295 31.4714C96.3053 29.1661 95.2896 26.3184 95.2896 22.9376C95.2896 19.5475 96.3216 16.6852 98.3931 14.3402C100.464 11.988 103.176 10.8152 106.544 10.8152C108.488 10.8152 110.159 11.1022 111.552 11.6689C113.495 12.4345 114.462 13.6302 114.462 15.2575C114.462 16.0783 114.207 16.8042 113.694 17.4346C113.183 18.0565 112.526 18.3756 111.727 18.3756C111.182 18.3756 110.398 18.1922 109.375 17.8341C108.351 17.4664 107.536 17.2909 106.937 17.2909C105.344 17.2909 104.104 17.8571 103.216 18.9892C102.392 20.0103 101.976 21.3184 101.976 22.9376C101.976 24.4604 102.344 25.753 103.089 26.7976C103.911 28.018 105.073 28.6237 106.552 28.6237C107.208 28.6237 108.103 28.4323 109.247 28.0406C110.392 27.6592 111.216 27.4598 111.727 27.4598C112.472 27.4598 113.11 27.7781 113.655 28.4005C114.191 29.0304 114.462 29.7076 114.462 30.4502ZM138.771 31.1589C138.771 32.1327 138.459 32.9536 137.835 33.6396C137.203 34.3182 136.404 34.6612 135.434 34.6612C133.979 34.6612 132.94 33.9509 132.316 32.5394C130.916 34.2466 129.004 35.0993 126.581 35.0993C123.478 35.0993 120.934 33.7992 118.966 31.2155C117.174 28.8549 116.272 26.0956 116.272 22.9376C116.272 19.7796 117.174 17.0203 118.966 14.6514C120.966 12.0905 123.501 10.8152 126.581 10.8152C129.004 10.8152 130.916 11.6689 132.316 13.3756C132.94 11.9628 133.979 11.2546 135.434 11.2546C136.379 11.2546 137.172 11.5968 137.812 12.2749C138.451 12.9601 138.771 13.7659 138.771 14.708V31.1589ZM132.084 22.9376C132.084 21.4063 131.717 20.1138 130.98 19.0688C130.124 17.881 128.972 17.2909 127.525 17.2909C126.045 17.2909 124.894 17.881 124.069 19.0688C123.326 20.1138 122.959 21.4063 122.959 22.9376C122.959 24.4604 123.317 25.7685 124.028 26.8449C124.877 28.0327 126.045 28.6237 127.525 28.6237C129.004 28.6237 130.156 28.0327 130.98 26.8449C131.717 25.7685 132.084 24.4604 132.084 22.9376ZM155.833 14.2681C155.833 15.6955 155.137 16.6764 153.745 17.2104C152.457 17.6418 151.176 18.0812 149.897 18.5343C148.496 19.3327 147.801 20.8158 147.801 22.9694V31.1589C147.801 32.1327 147.481 32.9536 146.858 33.6396C146.225 34.3182 145.426 34.6612 144.458 34.6612C143.483 34.6612 142.682 34.3182 142.059 33.6396C141.426 32.9536 141.115 32.1327 141.115 31.1589V14.708C141.115 13.7412 141.426 12.9212 142.05 12.2589C142.682 11.5888 143.483 11.2546 144.451 11.2546C146.05 11.2546 147.161 11.9628 147.786 13.3756C149.218 11.6689 150.754 10.8152 152.409 10.8152C153.352 10.8152 154.161 11.1574 154.832 11.8355C155.496 12.5215 155.833 13.3349 155.833 14.2681ZM173.278 14.5714C173.278 16.0544 172.694 16.9876 171.536 17.3872C170.966 17.5861 169.773 17.6895 167.958 17.6895V31.1589C167.958 32.1327 167.638 32.9536 167.016 33.6396C166.382 34.3182 165.583 34.6612 164.615 34.6612C163.672 34.6612 162.871 34.3182 162.23 33.6396C161.592 32.9536 161.272 32.1327 161.272 31.1589V17.6895C159.896 17.6895 158.896 17.5141 158.265 17.172C157.402 16.6932 156.975 15.8237 156.975 14.5714C156.975 13.3199 157.415 12.4663 158.303 12.011C158.903 11.6759 159.896 11.5013 161.272 11.5013V8.64608C161.272 5.28876 162.382 3.61422 164.615 3.61422C166.838 3.61422 167.958 5.28876 167.958 8.64608V11.5013C169.773 11.5013 170.966 11.6047 171.536 11.8037C172.694 12.2024 173.278 13.1285 173.278 14.5714ZM227 10.5217C226.982 8.4746 223.188 7.54539 213.367 7.54539C190.323 7.54539 184.477 6.564 178.22 0C180.852 3.94132 182.292 11.3338 206.649 10.9659C232.061 10.5756 216.558 17.4991 212.048 25.3212C220.182 18.0821 226.975 13.3106 227 10.5513V10.5217ZM194.618 31.5426C194.617 33.4454 193.048 35.0109 191.139 35.0113C189.211 35.0113 187.652 33.4571 187.652 31.5426C187.652 31.5417 187.652 31.5408 187.652 31.5399C187.652 29.6339 189.225 28.0654 191.137 28.0654C191.138 28.0654 191.138 28.0654 191.139 28.0654C193.06 28.0654 194.618 29.6201 194.618 31.5426ZM210.488 31.5426C210.487 33.4454 208.917 35.0109 207.008 35.0113C205.082 35.0113 203.522 33.4571 203.522 31.5426C203.522 31.5417 203.522 31.5408 203.522 31.5399C203.522 29.6339 205.095 28.0654 207.006 28.0654C207.007 28.0654 207.007 28.0654 207.008 28.0654C208.929 28.0654 210.488 29.6201 210.488 31.5426Z" fill="url(#paint0_linear)"/>
<defs>
<linearGradient id="paint0_linear" x1="113.5" y1="34.8058" x2="113.5" y2="9.12816e-05" gradientUnits="userSpaceOnUse">
<stop stop-color="#04B6F0"/>
<stop offset="1" stop-color="#3ECAF0"/>
</linearGradient>
</defs>
</svg>
