<?xml version="1.0" encoding="UTF-8"?>
<!DOCTYPE svg PUBLIC "-//W3C//DTD SVG 1.1//EN" "http://www.w3.org/Graphics/SVG/1.1/DTD/svg11.dtd">
<!-- Creator: CorelDRAW X7 -->
<svg xmlns="http://www.w3.org/2000/svg" xml:space="preserve" width="163.562mm" height="176.107mm" version="1.1" style="shape-rendering:geometricPrecision; text-rendering:geometricPrecision; image-rendering:optimizeQuality; fill-rule:evenodd; clip-rule:evenodd"
viewBox="0 0 1783 1919"
 xmlns:xlink="http://www.w3.org/1999/xlink">
 <defs>
  <style type="text/css">
   <![CDATA[
    .fil0 {fill:#ff7c08}
   ]]>
  </style>
 </defs>
 <g id="Слой_x0020_1">
  <metadata id="CorelCorpID_0Corel-Layer"/>
  <g id="_946190624">
   <g>
    <g>
     <g>
      <path class="fil0" d="M1650 232l-146 0 0 -99c0,-74 -59,-133 -133,-133l-5 0c-73,0 -132,59 -132,133l0 99 -685 0 0 -99c0,-74 -59,-133 -133,-133l-5 0c-73,0 -132,59 -132,133l0 99 -146 0c-74,0 -133,60 -133,133l0 1422c0,73 59,132 133,132l1517 0c73,0 133,-59 133,-132l0 -1422c0,-73 -60,-133 -133,-133zm-90 1478l-1337 0 0 -1077 1337 0 0 1077z"/>
      <path class="fil0" d="M405 1120l230 0c12,0 22,-9 22,-21l0 -231c0,-12 -10,-21 -22,-21l-230 0c-12,0 -22,9 -22,21l0 231c0,12 10,21 22,21z"/>
      <path class="fil0" d="M776 1120l231 0c11,0 21,-9 21,-21l0 -231c0,-12 -10,-21 -21,-21l-231 0c-12,0 -21,9 -21,21l0 231c0,12 9,21 21,21z"/>
      <path class="fil0" d="M1147 1120l231 0c12,0 21,-9 21,-21l0 -231c0,-12 -9,-21 -21,-21l-231 0c-11,0 -21,9 -21,21l0 231c0,12 10,21 21,21z"/>
      <path class="fil0" d="M405 1492l230 0c12,0 22,-10 22,-22l0 -230c0,-12 -10,-22 -22,-22l-230 0c-12,0 -22,10 -22,22l0 230c0,12 10,22 22,22z"/>
      <path class="fil0" d="M776 1492l231 0c11,0 21,-10 21,-22l0 -230c0,-12 -10,-22 -21,-22l-231 0c-12,0 -21,10 -21,22l0 230c0,12 9,22 21,22z"/>
      <path class="fil0" d="M1147 1492l231 0c12,0 21,-10 21,-22l0 -230c0,-12 -9,-22 -21,-22l-231 0c-11,0 -21,10 -21,22l0 230c0,12 10,22 21,22z"/>
     </g>
    </g>
   </g>
   <g>
   </g>
   <g>
   </g>
   <g>
   </g>
   <g>
   </g>
   <g>
   </g>
   <g>
   </g>
   <g>
   </g>
   <g>
   </g>
   <g>
   </g>
   <g>
   </g>
   <g>
   </g>
   <g>
   </g>
   <g>
   </g>
   <g>
   </g>
   <g>
   </g>
  </g>
 </g>
</svg>
