<?xml version="1.0" encoding="UTF-8"?>
<!DOCTYPE svg PUBLIC "-//W3C//DTD SVG 1.1//EN" "http://www.w3.org/Graphics/SVG/1.1/DTD/svg11.dtd">
<!-- Creator: CorelDRAW X7 -->
<svg xmlns="http://www.w3.org/2000/svg" xml:space="preserve" width="135.467mm" height="135.467mm" version="1.1" style="shape-rendering:geometricPrecision; text-rendering:geometricPrecision; image-rendering:optimizeQuality; fill-rule:evenodd; clip-rule:evenodd"
viewBox="0 0 576 576"
 xmlns:xlink="http://www.w3.org/1999/xlink">
 <defs>
  <style type="text/css">
   <![CDATA[
    .fil0 {fill:#fff}
   ]]>
  </style>
 </defs>
 <g id="Слой_x0020_1">
  <metadata id="CorelCorpID_0Corel-Layer"/>
  <path class="fil0" d="M288 0c-159,0 -288,129 -288,288 0,159 129,288 288,288 159,0 288,-129 288,-288 0,-159 -129,-288 -288,-288zm0 531c-134,0 -243,-108 -243,-243 0,-134 109,-243 243,-243 135,0 243,109 243,243 0,135 -108,243 -243,243z"/>
  <g id="_951138672">
   <g>
    <g>
     <path class="fil0" d="M186 250c4,2 13,9 29,20 16,11 29,20 37,26 1,1 3,2 6,4 3,2 6,4 8,6 2,1 4,2 7,4 3,2 6,3 8,4 3,1 5,1 7,1l0 0 0 0c3,0 5,0 7,-1 3,-1 6,-2 8,-4 3,-2 6,-3 8,-4 2,-2 4,-4 7,-6 3,-2 5,-3 6,-4 9,-6 31,-21 66,-46 7,-5 13,-10 17,-17 5,-7 7,-14 7,-21 0,-7 -2,-12 -6,-16 -5,-5 -10,-7 -16,-7l-207 0c-8,0 -13,3 -17,7 -4,5 -6,11 -6,19 0,6 3,12 8,19 5,7 11,12 16,16z"/>
     <path class="fil0" d="M400 265c-31,21 -54,37 -70,49 -5,4 -10,7 -13,9 -3,2 -8,4 -13,7 -6,2 -11,3 -16,3l0 0 0 0c-5,0 -10,-1 -15,-3 -6,-3 -10,-5 -14,-7 -3,-2 -7,-5 -13,-9 -12,-9 -36,-26 -70,-49 -5,-3 -10,-7 -14,-12l0 112c0,6 2,11 7,16 4,4 9,6 16,6l207 0c6,0 11,-2 16,-6 4,-5 6,-10 6,-16l0 -112c-4,5 -8,9 -14,12z"/>
    </g>
   </g>
   <g>
   </g>
   <g>
   </g>
   <g>
   </g>
   <g>
   </g>
   <g>
   </g>
   <g>
   </g>
   <g>
   </g>
   <g>
   </g>
   <g>
   </g>
   <g>
   </g>
   <g>
   </g>
   <g>
   </g>
   <g>
   </g>
   <g>
   </g>
   <g>
   </g>
  </g>
 </g>
</svg>
