<?xml version="1.0" encoding="UTF-8"?>
<!DOCTYPE svg PUBLIC "-//W3C//DTD SVG 1.1//EN" "http://www.w3.org/Graphics/SVG/1.1/DTD/svg11.dtd">
<!-- Creator: CorelDRAW X7 -->
<svg xmlns="http://www.w3.org/2000/svg" xml:space="preserve" width="238.174mm" height="187.135mm" version="1.1" style="shape-rendering:geometricPrecision; text-rendering:geometricPrecision; image-rendering:optimizeQuality; fill-rule:evenodd; clip-rule:evenodd"
viewBox="0 0 7673 6029"
 xmlns:xlink="http://www.w3.org/1999/xlink">
 <defs>
  <style type="text/css">
   <![CDATA[
    .fil0 {fill:#ff7c08}
   ]]>
  </style>
 </defs>
 <g id="Слой_x0020_1">
  <metadata id="CorelCorpID_0Corel-Layer"/>
  <g id="_946259152">
   <g>
    <g>
     <path class="fil0" d="M737 1858c97,69 389,272 877,611 488,338 862,598 1122,781 29,20 89,64 182,131 93,67 170,121 231,162 62,42 136,88 223,140 87,51 169,89 246,115 77,26 149,39 214,39l5 0 4 0c66,0 137,-13 214,-39 77,-26 159,-64 246,-115 87,-52 162,-98 223,-140 61,-41 138,-95 231,-162 93,-68 154,-111 182,-131 263,-183 931,-647 2004,-1392 209,-145 383,-321 523,-526 140,-206 209,-421 209,-647 0,-188 -67,-350 -203,-484 -136,-134 -296,-201 -482,-201l-6303 0c-220,0 -389,74 -507,223 -119,148 -178,334 -178,556 0,180 79,375 236,585 156,210 324,375 501,494z"/>
     <path class="fil0" d="M7245 2317c-936,633 -1647,1126 -2132,1477 -163,120 -295,213 -396,280 -102,67 -236,136 -405,206 -168,70 -325,105 -471,105l-4 0 -5 0c-145,0 -302,-35 -471,-105 -168,-70 -303,-139 -404,-206 -102,-67 -234,-160 -396,-280 -386,-283 -1095,-775 -2128,-1477 -163,-109 -307,-233 -433,-373l0 3400c0,188 67,350 201,484 134,134 296,201 484,201l6303 0c189,0 350,-67 484,-201 134,-134 201,-296 201,-484l0 -3400c-122,137 -265,261 -428,373z"/>
    </g>
   </g>
   <g>
   </g>
   <g>
   </g>
   <g>
   </g>
   <g>
   </g>
   <g>
   </g>
   <g>
   </g>
   <g>
   </g>
   <g>
   </g>
   <g>
   </g>
   <g>
   </g>
   <g>
   </g>
   <g>
   </g>
   <g>
   </g>
   <g>
   </g>
   <g>
   </g>
  </g>
 </g>
</svg>
