<?xml version="1.0" encoding="UTF-8"?>
<!DOCTYPE svg PUBLIC "-//W3C//DTD SVG 1.1//EN" "http://www.w3.org/Graphics/SVG/1.1/DTD/svg11.dtd">
<!-- Creator: CorelDRAW X7 -->
<svg xmlns="http://www.w3.org/2000/svg" xml:space="preserve" width="135.467mm" height="135.467mm" version="1.1" style="shape-rendering:geometricPrecision; text-rendering:geometricPrecision; image-rendering:optimizeQuality; fill-rule:evenodd; clip-rule:evenodd"
viewBox="0 0 3428 3428"
 xmlns:xlink="http://www.w3.org/1999/xlink">
 <defs>
  <style type="text/css">
   <![CDATA[
    .fil0 {fill:#fff}
   ]]>
  </style>
 </defs>
 <g id="Слой_x0020_1">
  <metadata id="CorelCorpID_0Corel-Layer"/>
  <g id="_952378448">
   <path class="fil0" d="M1714 0c-947,0 -1714,767 -1714,1714 0,946 767,1714 1714,1714 946,0 1714,-768 1714,-1714 0,-947 -768,-1714 -1714,-1714zm0 3160c-799,0 -1446,-648 -1446,-1446 0,-799 647,-1446 1446,-1446 798,0 1446,647 1446,1446 0,798 -648,1446 -1446,1446z"/>
   <path class="fil0" d="M2120 1451l-298 0 0 -217c0,-67 69,-82 102,-82 32,0 192,0 192,0l0 -294 -221 -1c-301,0 -369,219 -369,359l0 235 -219 0 0 303 219 0c0,388 0,817 0,817l296 0c0,0 0,-433 0,-817l252 0 46 -303z"/>
  </g>
 </g>
</svg>
