<?xml version="1.0" encoding="UTF-8"?>
<!DOCTYPE svg PUBLIC "-//W3C//DTD SVG 1.1//EN" "http://www.w3.org/Graphics/SVG/1.1/DTD/svg11.dtd">
<!-- Creator: CorelDRAW X7 -->
<svg xmlns="http://www.w3.org/2000/svg" xml:space="preserve" width="135.467mm" height="135.467mm" version="1.1" style="shape-rendering:geometricPrecision; text-rendering:geometricPrecision; image-rendering:optimizeQuality; fill-rule:evenodd; clip-rule:evenodd"
viewBox="0 0 1482 1482"
 xmlns:xlink="http://www.w3.org/1999/xlink">
 <defs>
  <style type="text/css">
   <![CDATA[
    .fil1 {fill:#fff}
    .fil0 {fill:#fff}
   ]]>
  </style>
 </defs>
 <g id="Слой_x0020_1">
  <metadata id="CorelCorpID_0Corel-Layer"/>
  <path class="fil0" d="M741 0c-409,0 -741,332 -741,741 0,409 332,741 741,741 409,0 741,-332 741,-741 0,-409 -332,-741 -741,-741zm0 1366c-345,0 -625,-280 -625,-625 0,-345 280,-625 625,-625 345,0 625,280 625,625 0,345 -280,625 -625,625z"/>
  <g id="_946574096">
   <g>
    <path class="fil1" d="M515 438l451 0c43,0 78,31 78,77l0 451c0,46 -35,78 -78,78l-451 0c-42,0 -77,-32 -77,-78l0 -451c0,-46 35,-77 77,-77l0 0zm364 67c-15,0 -27,12 -27,27l0 66c0,15 12,27 27,27l69 0c15,0 27,-12 27,-27l0 -66c0,-15 -12,-27 -27,-27l-69 0 0 0zm96 189l-53 0c5,16 8,34 8,52 0,101 -85,183 -189,183 -104,0 -188,-82 -188,-183 0,-18 3,-36 8,-52l-56 0 0 256c0,13 11,24 24,24l422 0c14,0 24,-11 24,-24l0 -256 0 0zm-234 -73c-67,0 -121,53 -121,118 0,66 54,118 121,118 68,0 122,-52 122,-118 0,-65 -54,-118 -122,-118z"/>
   </g>
   <g>
   </g>
   <g>
   </g>
   <g>
   </g>
   <g>
   </g>
   <g>
   </g>
   <g>
   </g>
   <g>
   </g>
   <g>
   </g>
   <g>
   </g>
   <g>
   </g>
   <g>
   </g>
   <g>
   </g>
   <g>
   </g>
   <g>
   </g>
   <g>
   </g>
  </g>
 </g>
</svg>
