<?xml version="1.0" encoding="UTF-8"?>
<!DOCTYPE svg PUBLIC "-//W3C//DTD SVG 1.1//EN" "http://www.w3.org/Graphics/SVG/1.1/DTD/svg11.dtd">
<!-- Creator: CorelDRAW X7 -->
<svg xmlns="http://www.w3.org/2000/svg" xml:space="preserve" width="135.467mm" height="135.467mm" version="1.1" style="shape-rendering:geometricPrecision; text-rendering:geometricPrecision; image-rendering:optimizeQuality; fill-rule:evenodd; clip-rule:evenodd"
viewBox="0 0 655 655"
 xmlns:xlink="http://www.w3.org/1999/xlink">
 <defs>
  <style type="text/css">
   <![CDATA[
    .fil0 {fill:#fbe604}
    .fil1 {fill:#fbe604}
   ]]>
  </style>
 </defs>
 <g id="Слой_x0020_1">
  <metadata id="CorelCorpID_0Corel-Layer"/>
  <path class="fil0" d="M328 0c-181,0 -328,147 -328,328 0,181 147,327 328,327 181,0 327,-146 327,-327 0,-181 -146,-328 -327,-328zm0 604c-153,0 -277,-124 -277,-276 0,-153 124,-277 277,-277 152,0 276,124 276,277 0,152 -124,276 -276,276z"/>
  <g id="_950646080">
   <g>
    <path class="fil1" d="M328 183c-59,0 -107,48 -107,106 0,16 3,30 9,44 27,58 78,120 93,137 1,1 3,2 5,2 1,0 3,-1 4,-2 15,-17 66,-79 93,-137 6,-14 9,-28 9,-44 0,-58 -48,-106 -106,-106zm0 162c-31,0 -56,-25 -56,-56 0,-30 25,-55 56,-55 30,0 55,25 55,55 0,31 -25,56 -55,56z"/>
   </g>
   <g>
   </g>
   <g>
   </g>
   <g>
   </g>
   <g>
   </g>
   <g>
   </g>
   <g>
   </g>
   <g>
   </g>
   <g>
   </g>
   <g>
   </g>
   <g>
   </g>
   <g>
   </g>
   <g>
   </g>
   <g>
   </g>
   <g>
   </g>
   <g>
   </g>
  </g>
 </g>
</svg>
