<?xml version="1.0" encoding="UTF-8"?>
<!DOCTYPE svg PUBLIC "-//W3C//DTD SVG 1.1//EN" "http://www.w3.org/Graphics/SVG/1.1/DTD/svg11.dtd">
<!-- Creator: CorelDRAW X7 -->
<svg xmlns="http://www.w3.org/2000/svg" xml:space="preserve" width="163.304mm" height="208.717mm" version="1.1" style="shape-rendering:geometricPrecision; text-rendering:geometricPrecision; image-rendering:optimizeQuality; fill-rule:evenodd; clip-rule:evenodd"
viewBox="0 0 12264 15675"
 xmlns:xlink="http://www.w3.org/1999/xlink">
 <defs>
  <style type="text/css">
   <![CDATA[
    .fil0 {fill:#fff}
   ]]>
  </style>
 </defs>
 <g id="Слой_x0020_1">
  <metadata id="CorelCorpID_0Corel-Layer"/>
  <g id="_946190208">
   <g>
    <g>
     <path class="fil0" d="M8812 12241l-98 -63 -1317 564c167,172 298,379 381,609l535 -113 91 428 -533 113c5,48 7,98 7,147 0,50 -2,99 -7,148l533 113 -91 428 -535 -114c-83,230 -214,437 -381,609l1317 565 98 -64c37,-23 894,-592 894,-1685 0,-1092 -857,-1661 -894,-1685z"/>
    </g>
   </g>
   <g>
    <g>
     <path class="fil0" d="M3634 14615l-91 -428 532 -113c-4,-49 -6,-98 -6,-148 0,-49 2,-99 6,-147l-532 -113 91 -428 535 113c82,-230 213,-437 380,-609l-1317 -564 -98 63c-36,24 -894,593 -894,1685 0,1093 858,1662 894,1685l98 64 1317 -565c-167,-172 -298,-379 -380,-609l-535 114z"/>
    </g>
   </g>
   <g>
    <g>
     <path class="fil0" d="M6176 12662l-406 0c-697,0 -1264,567 -1264,1264 0,697 567,1264 1264,1264l406 0c697,0 1264,-567 1264,-1264 0,-697 -567,-1264 -1264,-1264z"/>
    </g>
   </g>
   <g>
   </g>
   <g>
   </g>
   <g>
   </g>
   <g>
   </g>
   <g>
   </g>
   <g>
   </g>
   <g>
   </g>
   <g>
   </g>
   <g>
   </g>
   <g>
   </g>
   <g>
   </g>
   <g>
   </g>
   <g>
   </g>
   <g>
   </g>
   <g>
   </g>
  </g>
  <path class="fil0" d="M6132 12264c3387,0 6132,-2745 6132,-6132 0,-3387 -2745,-6132 -6132,-6132 -3387,0 -6132,2745 -6132,6132 0,3387 2745,6132 6132,6132zm-5480 -6431c2763,536 5520,-332 7461,-2148 642,1514 1860,2753 3424,3408 -455,2573 -2701,4528 -5405,4528 -3031,0 -5488,-2458 -5488,-5489 0,-100 3,-200 8,-299z"/>
  <circle class="fil0" cx="3649" cy="6871" r="648"/>
  <circle class="fil0" cx="8615" cy="6871" r="648"/>
  <path class="fil0" d="M6132 10540c580,0 1103,-244 1331,-622 91,-152 42,-350 -110,-442 -152,-92 -350,-43 -442,110 -90,149 -372,311 -779,311 -406,0 -689,-162 -779,-311 -92,-153 -290,-202 -442,-110 -152,92 -201,290 -109,442 228,378 750,622 1330,622z"/>
 </g>
</svg>
