<?xml version="1.0" encoding="UTF-8"?>
<!DOCTYPE svg PUBLIC "-//W3C//DTD SVG 1.1//EN" "http://www.w3.org/Graphics/SVG/1.1/DTD/svg11.dtd">
<!-- Creator: CorelDRAW X7 -->
<svg xmlns="http://www.w3.org/2000/svg" xml:space="preserve" width="123.304mm" height="123.304mm" version="1.1" style="shape-rendering:geometricPrecision; text-rendering:geometricPrecision; image-rendering:optimizeQuality; fill-rule:evenodd; clip-rule:evenodd"
viewBox="0 0 3436 3436"
 xmlns:xlink="http://www.w3.org/1999/xlink">
 <defs>
  <style type="text/css">
   <![CDATA[
    .fil0 {fill:#ff7c08}
   ]]>
  </style>
 </defs>
 <g id="Слой_x0020_1">
  <metadata id="CorelCorpID_0Corel-Layer"/>
  <path class="fil0" d="M1718 3436c948,0 1718,-770 1718,-1718 0,-949 -770,-1718 -1718,-1718 -949,0 -1718,769 -1718,1718 0,948 769,1718 1718,1718zm-1535 -1802c774,150 1546,-93 2090,-602 179,424 521,771 959,955 -128,721 -757,1268 -1514,1268 -849,0 -1538,-688 -1538,-1537 0,-28 1,-56 3,-84z"/>
  <circle class="fil0" cx="1022" cy="1946" r="182"/>
  <circle class="fil0" cx="2413" cy="1946" r="182"/>
 </g>
</svg>
