<?xml version="1.0" encoding="UTF-8"?>
<!DOCTYPE svg PUBLIC "-//W3C//DTD SVG 1.1//EN" "http://www.w3.org/Graphics/SVG/1.1/DTD/svg11.dtd">
<!-- Creator: CorelDRAW X7 -->
<svg xmlns="http://www.w3.org/2000/svg" xml:space="preserve" width="189mm" height="189mm" version="1.1" style="shape-rendering:geometricPrecision; text-rendering:geometricPrecision; image-rendering:optimizeQuality; fill-rule:evenodd; clip-rule:evenodd"
viewBox="0 0 13131 13131"
 xmlns:xlink="http://www.w3.org/1999/xlink">
 <defs>
  <style type="text/css">
   <![CDATA[
    .fil0 {fill:#ff4a00}
   ]]>
  </style>
 </defs>
 <g id="Слой_x0020_1">
  <metadata id="CorelCorpID_0Corel-Layer"/>
  <g id="_808462944">
   <g>
    <path class="fil0" d="M6571 13131c-3619,0 -6571,-2941 -6571,-6571 0,-3631 2941,-6560 6571,-6560 3630,0 6560,2941 6560,6560 0,3619 -2941,6571 -6560,6571zm0 -12215c-3110,0 -5644,2533 -5644,5644 0,3110 2534,5643 5644,5643 3110,0 5643,-2533 5643,-5643 0,-3111 -2533,-5644 -5643,-5644z"/>
    <path class="fil0" d="M5949 9839c-91,91 -204,136 -328,136 -113,0 -238,-45 -328,-136 -181,-181 -181,-475 0,-656l2658 -2657 -2658 -2658c-181,-181 -181,-475 0,-656 181,-181 475,-181 656,0l2986 2986c90,90 135,203 135,328 0,124 -45,237 -135,328l-2986 2985 0 0z"/>
   </g>
  </g>
 </g>
</svg>
