<?xml version="1.0" encoding="UTF-8"?>
<!DOCTYPE svg PUBLIC "-//W3C//DTD SVG 1.1//EN" "http://www.w3.org/Graphics/SVG/1.1/DTD/svg11.dtd">
<!-- Creator: CorelDRAW X7 -->
<svg xmlns="http://www.w3.org/2000/svg" xml:space="preserve" width="125.697mm" height="119.882mm" version="1.1" style="shape-rendering:geometricPrecision; text-rendering:geometricPrecision; image-rendering:optimizeQuality; fill-rule:evenodd; clip-rule:evenodd"
viewBox="0 0 539 514"
 xmlns:xlink="http://www.w3.org/1999/xlink">
 <defs>
  <style type="text/css">
   <![CDATA[
    .fil0 {fill:#ff7c08}
   ]]>
  </style>
 </defs>
 <g id="Слой_x0020_1">
  <metadata id="CorelCorpID_0Corel-Layer"/>
  <g id="_946580784">
   <g>
    <path class="fil0" d="M539 199c0,-8 -7,-13 -19,-15l-162 -23 -73 -148c-4,-9 -9,-13 -16,-13 -6,0 -11,4 -16,13l-72 148 -163 23c-12,2 -18,7 -18,15 0,5 3,10 8,16l118 114 -28 162c0,3 -1,5 -1,6 0,5 2,9 4,12 2,3 5,5 10,5 4,0 8,-2 13,-4l145 -77 146 77c4,2 8,4 13,4 8,0 13,-6 13,-17 0,-2 0,-5 -1,-6l-27 -162 117 -114c6,-6 9,-11 9,-16zm-171 116l23 136 -122 -65 -122 65 24 -136 -99 -97 136 -20 61 -123 61 123 137 20 -99 97z"/>
   </g>
   <g>
   </g>
   <g>
   </g>
   <g>
   </g>
   <g>
   </g>
   <g>
   </g>
   <g>
   </g>
   <g>
   </g>
   <g>
   </g>
   <g>
   </g>
   <g>
   </g>
   <g>
   </g>
   <g>
   </g>
   <g>
   </g>
   <g>
   </g>
   <g>
   </g>
  </g>
 </g>
</svg>
