<?xml version="1.0" encoding="UTF-8"?>
<!DOCTYPE svg PUBLIC "-//W3C//DTD SVG 1.1//EN" "http://www.w3.org/Graphics/SVG/1.1/DTD/svg11.dtd">
<!-- Creator: CorelDRAW X7 -->
<svg xmlns="http://www.w3.org/2000/svg" xml:space="preserve" width="135.467mm" height="135.467mm" version="1.1" style="shape-rendering:geometricPrecision; text-rendering:geometricPrecision; image-rendering:optimizeQuality; fill-rule:evenodd; clip-rule:evenodd"
viewBox="0 0 762 762"
 xmlns:xlink="http://www.w3.org/1999/xlink">
 <defs>
  <style type="text/css">
   <![CDATA[
    .str0 {stroke:black;stroke-width:8.43832}
    .fil0 {fill:#fbe604}
    .fil1 {fill:#fbe604}
   ]]>
  </style>
 </defs>
 <g id="Слой_x0020_1">
  <metadata id="CorelCorpID_0Corel-Layer"/>
  <path class="fil0" d="M381 0c-210,0 -381,171 -381,381 0,210 171,381 381,381 210,0 381,-171 381,-381 0,-210 -171,-381 -381,-381zm0 703c-178,0 -321,-144 -321,-322 0,-178 143,-321 321,-321 178,0 322,143 322,321 0,178 -144,322 -322,322z"/>
  <g id="_946751616">
   <g>
    <g>
     <path class="fil1 str0" d="M538 472c1,5 -1,9 -5,13l-44 44c-2,2 -4,4 -8,6 -3,1 -6,2 -9,3 0,0 -1,0 -2,0 -1,0 -3,0 -4,0 -5,0 -12,-1 -21,-2 -9,-1 -21,-5 -35,-11 -13,-5 -29,-14 -46,-25 -17,-11 -36,-27 -55,-47 -16,-15 -29,-30 -39,-44 -10,-14 -18,-27 -24,-38 -7,-12 -11,-23 -14,-33 -4,-9 -6,-18 -7,-25 -1,-7 -1,-12 -1,-16 0,-4 0,-6 0,-7 1,-3 2,-6 3,-9 2,-4 4,-6 6,-8l44 -44c3,-3 7,-5 11,-5 3,0 5,1 7,2 3,2 5,4 6,7l36 67c2,4 2,8 1,12 0,4 -2,8 -5,10l-17 17c0,0 0,1 -1,2 0,1 0,2 0,2 1,5 3,10 6,16 2,6 7,12 12,20 6,8 13,16 24,26 10,11 19,18 26,24 8,6 15,10 20,13 5,2 9,4 12,4l4 1c0,0 1,0 2,0 1,-1 2,-1 2,-1l19 -20c4,-3 9,-5 14,-5 4,0 7,1 9,2l1 0 64 38c4,3 7,6 8,11z"/>
    </g>
   </g>
   <g>
   </g>
   <g>
   </g>
   <g>
   </g>
   <g>
   </g>
   <g>
   </g>
   <g>
   </g>
   <g>
   </g>
   <g>
   </g>
   <g>
   </g>
   <g>
   </g>
   <g>
   </g>
   <g>
   </g>
   <g>
   </g>
   <g>
   </g>
   <g>
   </g>
  </g>
 </g>
</svg>
