<?xml version="1.0" encoding="UTF-8"?>
<!DOCTYPE svg PUBLIC "-//W3C//DTD SVG 1.1//EN" "http://www.w3.org/Graphics/SVG/1.1/DTD/svg11.dtd">
<!-- Creator: CorelDRAW X7 -->
<svg xmlns="http://www.w3.org/2000/svg" xml:space="preserve" width="152.399mm" height="254mm" version="1.1" style="shape-rendering:geometricPrecision; text-rendering:geometricPrecision; image-rendering:optimizeQuality; fill-rule:evenodd; clip-rule:evenodd"
viewBox="0 0 32772 54621"
 xmlns:xlink="http://www.w3.org/1999/xlink">
 <defs>
  <style type="text/css">
   <![CDATA[
    .fil0 {fill:#ff7c08}
   ]]>
  </style>
 </defs>
 <g id="Слой_x0020_1">
  <metadata id="CorelCorpID_0Corel-Layer"/>
  <g id="_856493296">
   <g>
    <path class="fil0" d="M31151 1622c-1081,-1082 -2361,-1622 -3841,-1622l-21848 0c-1479,0 -2759,541 -3840,1622 -1081,1080 -1622,2361 -1622,3840l0 43697c0,1479 541,2759 1622,3840 1081,1081 2361,1622 3840,1622l21848 0c1479,0 2760,-541 3840,-1622 1082,-1081 1622,-2361 1622,-3840l0 -43697c0,-1479 -540,-2759 -1621,-3840zm-18178 3840l6828 0c455,0 682,228 682,683 0,455 -227,683 -682,683l-6828 0c-456,0 -683,-228 -683,-683 0,-455 227,-683 683,-683zm5825 46108c-669,668 -1472,1003 -2412,1003 -938,0 -1742,-335 -2410,-1003 -669,-669 -1003,-1473 -1003,-2411 0,-939 334,-1743 1003,-2411 668,-668 1472,-1004 2410,-1004 940,0 1743,336 2412,1004 669,668 1003,1472 1003,2411 0,939 -335,1742 -1003,2411zm9879 -9238c0,369 -135,690 -406,960 -271,270 -590,405 -960,405l-21849 0c-369,0 -689,-135 -960,-405 -270,-270 -405,-591 -405,-960l0 -30042c0,-370 135,-690 405,-960 271,-270 591,-405 960,-405l21848 0c371,0 690,135 961,405 271,270 405,590 405,960l0 30042 1 0 0 0z"/>
   </g>
   <g>
   </g>
   <g>
   </g>
   <g>
   </g>
   <g>
   </g>
   <g>
   </g>
   <g>
   </g>
   <g>
   </g>
   <g>
   </g>
   <g>
   </g>
   <g>
   </g>
   <g>
   </g>
   <g>
   </g>
   <g>
   </g>
   <g>
   </g>
   <g>
   </g>
  </g>
 </g>
</svg>
