<?xml version="1.0" encoding="UTF-8"?>
<!DOCTYPE svg PUBLIC "-//W3C//DTD SVG 1.1//EN" "http://www.w3.org/Graphics/SVG/1.1/DTD/svg11.dtd">
<!-- Creator: CorelDRAW X7 -->
<svg xmlns="http://www.w3.org/2000/svg" xml:space="preserve" width="135.467mm" height="135.467mm" version="1.1" style="shape-rendering:geometricPrecision; text-rendering:geometricPrecision; image-rendering:optimizeQuality; fill-rule:evenodd; clip-rule:evenodd"
viewBox="0 0 2056 2056"
 xmlns:xlink="http://www.w3.org/1999/xlink">
 <defs>
  <style type="text/css">
   <![CDATA[
    .fil0 {fill:#fff}
    .fil1 {fill:#fff}
   ]]>
  </style>
 </defs>
 <g id="Слой_x0020_1">
  <metadata id="CorelCorpID_0Corel-Layer"/>
  <path class="fil0" d="M1028 0c-568,0 -1028,460 -1028,1028 0,568 460,1028 1028,1028 568,0 1028,-460 1028,-1028 0,-568 -460,-1028 -1028,-1028zm0 1895c-479,0 -867,-388 -867,-867 0,-479 388,-867 867,-867 479,0 867,388 867,867 0,479 -388,867 -867,867z"/>
  <path class="fil1" d="M1426 980c14,-19 26,-34 34,-46 62,-82 89,-134 81,-157l-4 -5c-2,-3 -7,-6 -16,-9 -9,-3 -21,-3 -35,-1l-154 1c-3,-1 -7,-1 -10,0 -4,0 -6,1 -7,2 -1,0 -2,1 -3,1l-2 1c-2,2 -4,3 -6,6 -2,3 -4,6 -5,9 -17,44 -36,84 -58,121 -13,22 -25,41 -36,57 -11,17 -20,29 -28,36 -7,8 -14,14 -20,19 -6,4 -11,6 -14,6 -3,-1 -6,-2 -9,-3 -5,-3 -9,-7 -12,-13 -3,-5 -5,-12 -6,-20 -1,-9 -2,-16 -2,-22 0,-6 0,-15 0,-26 0,-11 1,-18 1,-22 0,-14 0,-29 0,-44 1,-16 1,-29 2,-38 0,-10 0,-19 0,-30 0,-10 0,-18 -2,-24 -1,-6 -3,-12 -5,-17 -3,-6 -6,-10 -11,-13 -5,-3 -11,-5 -18,-7 -19,-4 -43,-7 -72,-7l-9 0 -9 0c-57,0 -93,4 -110,13 -8,4 -15,9 -21,16 -6,8 -7,12 -2,13 21,3 36,10 45,23l3 6c3,5 5,13 8,25 2,11 4,24 5,39 1,26 1,48 0,67 -2,18 -4,33 -5,43 -2,10 -4,19 -8,25 -3,7 -5,10 -6,12 -1,1 -2,2 -3,3 -4,1 -9,2 -14,2 -5,0 -11,-2 -18,-7 -8,-5 -15,-12 -23,-21 -7,-9 -16,-21 -26,-37 -9,-15 -19,-34 -30,-55l-8 -16c-5,-10 -13,-24 -22,-43 -9,-19 -18,-38 -25,-56 -3,-7 -7,-13 -13,-17l-2 -1c-2,-2 -5,-3 -9,-5 -4,-2 -8,-3 -12,-4l-147 2c-15,0 -25,3 -30,10l-2 3c-1,2 -2,4 -2,8l0 1 0 0c0,4 1,8 3,14 22,50 45,99 70,145 25,47 47,85 66,114 18,28 37,55 56,80 20,26 32,42 39,49 6,7 11,13 14,16l14 13c8,8 21,19 37,31 17,12 35,23 56,35 20,12 43,21 70,28 27,8 53,11 78,9l62 0c12,-1 22,-5 28,-12l2 -2c2,-2 3,-6 4,-10 1,-5 2,-9 2,-15 0,-15 1,-29 4,-41 2,-13 5,-22 9,-28 3,-6 7,-12 11,-16 4,-4 7,-7 9,-8 2,-1 4,-1 5,-2 8,-2 18,0 30,9 11,8 22,18 32,31 11,12 23,26 37,41 14,16 27,27 38,35l10 6c7,4 17,8 28,12 12,3 22,4 30,2l137 -2c14,0 24,-2 32,-6 7,-5 12,-10 13,-15 2,-6 2,-12 0,-18 -1,-7 -2,-12 -3,-15 -2,-2 -3,-4 -4,-6 -18,-32 -52,-72 -102,-119l-2 -2 -1 0c-23,-21 -37,-36 -43,-44 -11,-14 -14,-28 -8,-43 5,-11 21,-34 49,-70l0 0z"/>
 </g>
</svg>
