<?xml version="1.0" encoding="UTF-8"?>
<!DOCTYPE svg PUBLIC "-//W3C//DTD SVG 1.1//EN" "http://www.w3.org/Graphics/SVG/1.1/DTD/svg11.dtd">
<!-- Creator: CorelDRAW X7 -->
<svg xmlns="http://www.w3.org/2000/svg" xml:space="preserve" width="202.195mm" height="208.154mm" version="1.1" style="shape-rendering:geometricPrecision; text-rendering:geometricPrecision; image-rendering:optimizeQuality; fill-rule:evenodd; clip-rule:evenodd"
viewBox="0 0 6012 6189"
 xmlns:xlink="http://www.w3.org/1999/xlink">
 <defs>
  <style type="text/css">
   <![CDATA[
    .fil0 {fill:#fda454}
   ]]>
  </style>
 </defs>
 <g id="Слой_x0020_1">
  <metadata id="CorelCorpID_0Corel-Layer"/>
  <path class="fil0" d="M2851 6189c1341,0 2428,-1087 2428,-2428 0,-1340 -1087,-2427 -2428,-2427 -1340,0 -2427,1087 -2427,2427 0,1341 1087,2428 2427,2428zm-2169 -2546c1094,212 2185,-132 2954,-850 254,599 736,1090 1355,1349 -180,1018 -1069,1792 -2140,1792 -1200,0 -2172,-973 -2172,-2173 0,-39 1,-79 3,-118z"/>
  <circle class="fil0" cx="1868" cy="4054" r="257"/>
  <circle class="fil0" cx="3834" cy="4054" r="257"/>
  <path class="fil0" d="M2851 5507c230,0 437,-97 527,-247 37,-60 17,-138 -43,-175 -60,-36 -139,-17 -175,44 -36,59 -148,123 -309,123 -160,0 -272,-64 -308,-123 -36,-61 -115,-80 -175,-44 -60,37 -80,115 -43,175 90,150 297,247 526,247z"/>
  <g id="_950424320">
   <g>
    <g>
     <path class="fil0" d="M2106 5l-46 -5 -364 435c89,31 173,81 243,147l169 -136 108 135 -168 135c10,17 20,34 29,51 9,18 17,36 24,54l208 -55 45 167 -210 55c12,96 3,193 -25,284l566 -36 23 -40c9,-15 210,-369 15,-755 -195,-386 -600,-434 -617,-436z"/>
    </g>
   </g>
   <g>
    <g>
     <path class="fil0" d="M700 1769l-108 -135 168 -135c-11,-17 -20,-34 -29,-51 -9,-18 -17,-36 -24,-54l-208 55 -45 -167 210 -55c-12,-96 -3,-193 25,-284l-566 36 -23 40c-9,15 -210,369 -15,755 195,386 599,434 617,436l46 5 364 -435c-89,-31 -173,-81 -243,-147l-169 136z"/>
    </g>
   </g>
   <g>
    <g>
     <path class="fil0" d="M1250 624l-144 73c-246,125 -345,426 -221,672 125,247 427,346 673,221l143 -72c247,-125 346,-426 221,-673 -124,-246 -426,-345 -672,-221z"/>
    </g>
   </g>
   <g>
   </g>
   <g>
   </g>
   <g>
   </g>
   <g>
   </g>
   <g>
   </g>
   <g>
   </g>
   <g>
   </g>
   <g>
   </g>
   <g>
   </g>
   <g>
   </g>
   <g>
   </g>
   <g>
   </g>
   <g>
   </g>
   <g>
   </g>
   <g>
   </g>
  </g>
  <g id="_951094272">
   <g>
    <g>
     <path class="fil0" d="M5974 1490l-15 -43 -550 -142c11,95 2,191 -27,283l195 94 -75 156 -194 -93c-11,16 -22,32 -34,48 -12,16 -25,30 -38,45l140 164 -132 112 -140 -165c-82,52 -173,86 -267,99l277 496 46 3c17,2 424,30 688,-312 263,-343 132,-728 126,-745z"/>
    </g>
   </g>
   <g>
    <g>
     <path class="fil0" d="M3777 983l74 -156 195 93c10,-16 21,-32 33,-48 12,-15 25,-30 38,-44l-140 -164 132 -112 141 164c81,-52 172,-85 266,-99l-277 -495 -46 -4c-17,-1 -423,-30 -687,313 -264,342 -133,728 -127,744l15 44 550 141c-11,-94 -2,-191 28,-283l-195 -94z"/>
    </g>
   </g>
   <g>
    <g>
     <path class="fil0" d="M5046 985l-128 -98c-218,-168 -533,-127 -701,91 -169,219 -128,534 91,702l127 98c219,169 533,128 702,-91 168,-218 127,-533 -91,-702z"/>
    </g>
   </g>
   <g>
   </g>
   <g>
   </g>
   <g>
   </g>
   <g>
   </g>
   <g>
   </g>
   <g>
   </g>
   <g>
   </g>
   <g>
   </g>
   <g>
   </g>
   <g>
   </g>
   <g>
   </g>
   <g>
   </g>
   <g>
   </g>
   <g>
   </g>
   <g>
   </g>
  </g>
 </g>
</svg>
