<?xml version="1.0" encoding="UTF-8"?>
<!DOCTYPE svg PUBLIC "-//W3C//DTD SVG 1.1//EN" "http://www.w3.org/Graphics/SVG/1.1/DTD/svg11.dtd">
<!-- Creator: CorelDRAW X7 -->
<svg xmlns="http://www.w3.org/2000/svg" xml:space="preserve" width="135.467mm" height="135.467mm" version="1.1" style="shape-rendering:geometricPrecision; text-rendering:geometricPrecision; image-rendering:optimizeQuality; fill-rule:evenodd; clip-rule:evenodd"
viewBox="0 0 1145 1145"
 xmlns:xlink="http://www.w3.org/1999/xlink">
 <defs>
  <style type="text/css">
   <![CDATA[
    .fil0 {fill:#fff}
   ]]>
  </style>
 </defs>
 <g id="Слой_x0020_1">
  <metadata id="CorelCorpID_0Corel-Layer"/>
  <path class="fil0" d="M573 0c-317,0 -573,256 -573,573 0,316 256,572 573,572 316,0 572,-256 572,-572 0,-317 -256,-573 -572,-573zm0 1056c-267,0 -484,-216 -484,-483 0,-267 217,-484 484,-484 267,0 483,217 483,484 0,267 -216,483 -483,483z"/>
  <g id="_950593056">
   <g id="XMLID_822_">
    <path id="XMLID_823_" class="fil0" d="M804 427c-18,-22 -52,-31 -115,-31l-232 0c-65,0 -99,10 -117,33 -18,22 -18,55 -18,100l0 87c0,88 21,133 135,133l232 0c55,0 85,-8 105,-27 21,-19 29,-51 29,-106l0 -87c0,-48 -1,-81 -19,-102zm-160 158l-105 55c-3,1 -5,2 -8,2 -3,0 -6,-1 -8,-3 -5,-3 -8,-8 -8,-14l0 -109c0,-6 3,-11 8,-14 5,-3 11,-3 16,-1l105 55c5,3 9,8 9,14 0,6 -4,12 -9,15z"/>
   </g>
   <g>
   </g>
   <g>
   </g>
   <g>
   </g>
   <g>
   </g>
   <g>
   </g>
   <g>
   </g>
   <g>
   </g>
   <g>
   </g>
   <g>
   </g>
   <g>
   </g>
   <g>
   </g>
   <g>
   </g>
   <g>
   </g>
   <g>
   </g>
   <g>
   </g>
  </g>
 </g>
</svg>
