<svg xmlns="http://www.w3.org/2000/svg" width="354.333" height="148.5"><path fill="#FFF" d="M0 0h354.333v148.5H0z"/><path fill="#019444" d="M6.301 6.536h111v111h-111z"/><path fill="#6D6E73" d="M122 6.536h111v111H122z"/><path fill="#019444" d="M237 6.536h111v111H237z"/><path fill="#6D6E73" stroke="#6D6E73" stroke-miterlimit="10" d="M6 143.75h342"/><path fill="#FFF" d="M51.01 82.033L30.253 20.652H47.2l14.22 43.862 24.565-43.862h14.917l-37.514 65.19c-4.825 8.422-9.406 14.102-13.743 17.044-4.338 2.941-9.998 4.41-16.98 4.41h-5.776L29.11 93.84h5.84c3.766 0 6.612-.655 8.538-1.968 1.925-1.31 3.84-3.575 5.744-6.792l1.778-3.047zm88.18 25.264l14.472-86.645h62.27l-14.472 86.645h-15.552l12.378-73.95h-31.23l-12.378 73.95h-15.489zm124 0l14.472-86.645h47.163l-2.221 13.393h-31.675l-12.251 73.252h-15.489z"/><path d="M12.194 133.714L7.3 124.372h2.683l3.39 6.676 2.784-6.676h2.33l-4.297 9.922c-.551 1.275-1.116 2.138-1.695 2.59-.578.45-1.416.676-2.512.676h-.928v-2.049h.928c.612 0 1.05-.105 1.312-.314.262-.21.494-.55.696-1.019l.202-.464zm18.299 3.846H27.72l-2.905-6.715-2.663 3.382v3.333H19.67v-13.188h2.482v6.927c.316-.47.544-.796.686-.976l4.57-5.951h2.511l-3.268 4.338 3.843 8.85zm4.338 0H32.35v-13.188h5.639c1.607 0 2.8.387 3.576 1.164.777.776 1.165 1.692 1.165 2.749 0 1.204-.42 2.18-1.26 2.927-.842.747-1.907 1.12-3.199 1.12h-3.44v5.228zm0-7.266h2.936c.767 0 1.352-.18 1.755-.54.404-.362.606-.841.606-1.44 0-.541-.187-1.005-.56-1.391s-1.048-.58-2.023-.58h-2.714v3.951zm19.793 7.266h-2.653l-1.1-3.14h-5.296l-1.08 3.14h-2.118l4.57-13.188h3.057l4.62 13.188zm-4.418-5.044l-2.008-5.883-2.007 5.883h4.015zm8.554 3.846v1.198h-2.48v-13.188h2.481v7.4c0 .6-.023 1.262-.07 1.99a17.09 17.09 0 0 1 1.624-2.627l4.055-5.43v-1.333h2.472v13.188H64.37v-6.83c0-1.186.02-1.991.061-2.416-.484.927-1.029 1.8-1.634 2.618l-4.036 5.43zm21.337 1.198h-2.482v-5.73H72.36v5.73h-2.481v-13.188h2.481v5.42h5.256v-5.42h2.482v13.188zm10.723-4.58l2.3.242c-.147 1.32-.68 2.406-1.598 3.26-.918.854-2.124 1.28-3.617 1.28-1.257 0-2.278-.303-3.062-.908-.783-.605-1.387-1.427-1.81-2.463-.424-1.038-.636-2.18-.636-3.43 0-2.01.498-3.644 1.493-4.903.995-1.26 2.364-1.889 4.106-1.889 1.365 0 2.502.402 3.41 1.208.908.805 1.48 1.957 1.715 3.459l-2.3.231c-.424-1.99-1.359-2.985-2.805-2.985-.928 0-1.65.414-2.164 1.242-.514.827-.772 2.026-.772 3.598 0 1.597.276 2.803.828 3.619.551.814 1.28 1.222 2.189 1.222.726 0 1.345-.275 1.856-.822.511-.547.8-1.201.868-1.96zm15.092 4.58h-2.774l-2.905-6.715-2.663 3.382v3.333h-2.482v-13.188h2.482v6.927c.316-.47.544-.796.686-.976l4.57-5.951h2.511l-3.268 4.338 3.843 8.85zm12.661 0h-2.653l-1.1-3.14h-5.296l-1.08 3.14h-2.118l4.57-13.188h3.057l4.62 13.188zm-4.419-5.044l-2.007-5.883-2.008 5.883h4.015zm13.579-.434h-3.47l-2.522 5.478h-2.492l2.905-5.913c-1.68-.613-2.522-1.736-2.522-3.372 0-1.217.415-2.173 1.246-2.864.831-.693 1.936-1.039 3.314-1.039h6.023v13.188h-2.482v-5.478zm0-5.787h-3.137c-.78 0-1.374.169-1.78.507-.408.338-.611.793-.611 1.367 0 .566.208 1.05.625 1.45.417.398 1.07.598 1.957.598h2.946v-3.922zm10.683 11.265v-13.188h9.857v13.188h-2.482v-11.256h-4.893v11.256h-2.482zm23.687 0h-2.653l-1.1-3.14h-5.296l-1.08 3.14h-2.118l4.57-13.188h3.057l4.62 13.188zm-4.418-5.044l-2.008-5.883-2.007 5.883h4.015zm8.555 5.044h-2.482v-13.188h5.64c1.607 0 2.799.387 3.575 1.164.777.776 1.166 1.692 1.166 2.749 0 1.204-.42 2.18-1.261 2.927-.841.747-1.907 1.12-3.198 1.12h-3.44v5.228zm0-7.266h2.935c.767 0 1.352-.18 1.756-.54.403-.362.605-.841.605-1.44 0-.541-.187-1.005-.56-1.391s-1.048-.58-2.023-.58h-2.713v3.951zm14.708 7.266h-2.663v-11.15h-3.662v-2.038h9.987v2.039h-3.662v11.149zm15.395 0h-2.482v-5.73h-5.256v5.73h-2.482v-13.188h2.482v5.42h5.256v-5.42h2.482v13.188zm11.974 0h-8.948v-13.188h8.857v1.961h-6.375v3.575h5.125v1.913h-5.125v3.69h6.466v2.049zm4.621 0h-2.482v-13.188h5.64c1.607 0 2.799.387 3.575 1.164.777.776 1.166 1.692 1.166 2.749 0 1.204-.42 2.18-1.261 2.927-.841.747-1.907 1.12-3.198 1.12h-3.44v5.228zm0-7.266h2.935c.767 0 1.352-.18 1.756-.54.403-.362.605-.841.605-1.44 0-.541-.187-1.005-.56-1.391s-1.048-.58-2.023-.58h-2.713v3.951zm17.593 2.686l2.3.242c-.147 1.32-.68 2.406-1.599 3.26-.918.854-2.123 1.28-3.616 1.28-1.258 0-2.279-.303-3.062-.908-.783-.605-1.387-1.427-1.81-2.463-.424-1.038-.636-2.18-.636-3.43 0-2.01.498-3.644 1.493-4.903.995-1.26 2.364-1.889 4.106-1.889 1.365 0 2.502.402 3.41 1.208.907.805 1.479 1.957 1.714 3.459l-2.3.231c-.423-1.99-1.358-2.985-2.804-2.985-.928 0-1.65.414-2.164 1.242-.515.827-.772 2.026-.772 3.598 0 1.597.276 2.803.827 3.619.552.814 1.282 1.222 2.19 1.222.726 0 1.345-.275 1.856-.822.51-.547.8-1.201.867-1.96zm15.092 4.58h-2.774l-2.905-6.715-2.664 3.382v3.333h-2.48v-13.188h2.481v6.927c.317-.47.545-.796.686-.976l4.57-5.951h2.512l-3.268 4.338 3.843 8.85zm12.661 0h-2.653l-1.1-3.14h-5.296l-1.08 3.14h-2.118l4.57-13.188h3.057l4.62 13.188zm-4.418-5.044l-2.008-5.883-2.008 5.883h4.016zm13.578-.434h-3.47l-2.522 5.478h-2.492l2.906-5.913c-1.682-.613-2.522-1.736-2.522-3.372 0-1.217.415-2.173 1.246-2.864.83-.693 1.934-1.039 3.313-1.039h6.023v13.188h-2.482v-5.478zm0-5.787h-3.137c-.78 0-1.374.169-1.78.507-.407.338-.61.793-.61 1.367 0 .566.208 1.05.625 1.45.416.398 1.069.598 1.957.598h2.945v-3.922zm10.684 11.265v-13.188h7.475v2.039h-4.994v11.149h-2.481zm11.47 0h-2.482v-13.188h5.64c1.607 0 2.799.387 3.576 1.164.777.776 1.165 1.692 1.165 2.749 0 1.204-.42 2.18-1.261 2.927-.84.747-1.907 1.12-3.198 1.12h-3.44v5.228zm0-7.266h2.936c.766 0 1.351-.18 1.755-.54.404-.362.605-.841.605-1.44 0-.541-.186-1.005-.56-1.391s-1.047-.58-2.022-.58h-2.714v3.951zm13.024 3.42l-4.893-9.342h2.684l3.39 6.676 2.783-6.676h2.33l-4.297 9.922c-.552 1.275-1.117 2.138-1.695 2.59-.578.45-1.415.676-2.511.676h-.929v-2.049h.929c.612 0 1.049-.105 1.311-.314.262-.21.494-.55.696-1.019l.202-.464zm7.475 3.846v-13.188h9.856v13.188h-2.481v-11.256h-4.893v11.256h-2.482zm12.883 0v-13.188h9.856v13.188h-2.482v-11.256h-4.893v11.256h-2.481zm23.687 0h-2.654l-1.1-3.14h-5.295l-1.08 3.14h-2.118l4.57-13.188h3.056l4.62 13.188zm-4.419-5.044l-2.007-5.883-2.008 5.883h4.015z" fill="#64666B"/></svg>