<svg xmlns="http://www.w3.org/2000/svg" viewBox="0 0 488.8 488.8"><path d="M244.252 97.4c-56.4 0-102.2 45.9-102.2 102.2s45.8 102.3 102.2 102.3 102.2-45.9 102.2-102.2-45.8-102.3-102.2-102.3zm0 180c-42.9 0-77.7-34.9-77.7-77.7s34.9-77.7 77.7-77.7 77.7 34.9 77.7 77.7-34.8 77.7-77.7 77.7z"/><path d="M244.252 0c-2.3 0-4.7 0-7 .1-98.6 3.4-180.1 80-189.5 178.1-1.8 19-.9 38.1 2.6 56.3 0 0 .3 2.3 1.4 6.6 3 13.5 7.5 26.6 13.2 38.8 20.3 48.1 64.8 122.2 161.4 202.4 5.1 4.2 11.5 6.5 18.1 6.5 6.6 0 13-2.3 18.1-6.5 96.5-80.1 141-154.3 161.2-202 5.8-12.5 10.3-25.7 13.3-39.1.6-2.4 1-4.4 1.3-6.3 2.4-12.3 3.6-24.9 3.6-37.5-.2-108.8-88.8-197.4-197.7-197.4zm169.8 230.7c0 .2-.3 1.9-1 5-2.7 11.8-6.6 23.3-11.8 34.7-19.3 45.6-61.7 116.1-154.4 193-.9.7-1.8.9-2.5.9-.6 0-1.6-.2-2.5-.9-92.7-77-135.2-147.5-154.6-193.4-5.1-11-9-22.5-11.7-34.4-.6-2.6-.9-4.2-1-4.7 0-.2-.1-.4-.1-.6-3.1-16.3-3.9-33.1-2.3-49.7 8.3-85.9 79.6-153 166-156 98.1-3.4 179.1 75.4 179.1 172.9 0 11-1.1 22-3.2 33.2z"/></svg>